<?xml version="1.0" encoding="utf-8"?>
<svg xmlns="http://www.w3.org/2000/svg" xmlns:xlink="http://www.w3.org/1999/xlink" width="600" height="400" viewBox="0 0 2400 1600">
<defs>
  <clipPath id="clip060">
    <rect x="0" y="0" width="2400" height="1600"/>
  </clipPath>
</defs>
<path clip-path="url(#clip060)" d="
M0 1600 L2400 1600 L2400 0 L0 0  Z
  " fill="#ffffff" fill-rule="evenodd" fill-opacity="1"/>
<defs>
  <clipPath id="clip061">
    <rect x="480" y="0" width="1681" height="1600"/>
  </clipPath>
</defs>
<path clip-path="url(#clip060)" d="
M234.125 1423.18 L2352.76 1423.18 L2352.76 47.2441 L234.125 47.2441  Z
  " fill="#ffffff" fill-rule="evenodd" fill-opacity="1"/>
<defs>
  <clipPath id="clip062">
    <rect x="234" y="47" width="2120" height="1377"/>
  </clipPath>
</defs>
<polyline clip-path="url(#clip062)" style="stroke:#000000; stroke-linecap:butt; stroke-linejoin:round; stroke-width:2; stroke-opacity:0.1; fill:none" points="
  294.087,1423.18 294.087,47.2441 
  "/>
<polyline clip-path="url(#clip062)" style="stroke:#000000; stroke-linecap:butt; stroke-linejoin:round; stroke-width:2; stroke-opacity:0.1; fill:none" points="
  797.641,1423.18 797.641,47.2441 
  "/>
<polyline clip-path="url(#clip062)" style="stroke:#000000; stroke-linecap:butt; stroke-linejoin:round; stroke-width:2; stroke-opacity:0.1; fill:none" points="
  1301.2,1423.18 1301.2,47.2441 
  "/>
<polyline clip-path="url(#clip062)" style="stroke:#000000; stroke-linecap:butt; stroke-linejoin:round; stroke-width:2; stroke-opacity:0.1; fill:none" points="
  1804.75,1423.18 1804.75,47.2441 
  "/>
<polyline clip-path="url(#clip062)" style="stroke:#000000; stroke-linecap:butt; stroke-linejoin:round; stroke-width:2; stroke-opacity:0.1; fill:none" points="
  2308.3,1423.18 2308.3,47.2441 
  "/>
<polyline clip-path="url(#clip060)" style="stroke:#000000; stroke-linecap:butt; stroke-linejoin:round; stroke-width:4; stroke-opacity:1; fill:none" points="
  234.125,1423.18 2352.76,1423.18 
  "/>
<polyline clip-path="url(#clip060)" style="stroke:#000000; stroke-linecap:butt; stroke-linejoin:round; stroke-width:4; stroke-opacity:1; fill:none" points="
  294.087,1423.18 294.087,1404.28 
  "/>
<polyline clip-path="url(#clip060)" style="stroke:#000000; stroke-linecap:butt; stroke-linejoin:round; stroke-width:4; stroke-opacity:1; fill:none" points="
  797.641,1423.18 797.641,1404.28 
  "/>
<polyline clip-path="url(#clip060)" style="stroke:#000000; stroke-linecap:butt; stroke-linejoin:round; stroke-width:4; stroke-opacity:1; fill:none" points="
  1301.2,1423.18 1301.2,1404.28 
  "/>
<polyline clip-path="url(#clip060)" style="stroke:#000000; stroke-linecap:butt; stroke-linejoin:round; stroke-width:4; stroke-opacity:1; fill:none" points="
  1804.75,1423.18 1804.75,1404.28 
  "/>
<polyline clip-path="url(#clip060)" style="stroke:#000000; stroke-linecap:butt; stroke-linejoin:round; stroke-width:4; stroke-opacity:1; fill:none" points="
  2308.3,1423.18 2308.3,1404.28 
  "/>
<path clip-path="url(#clip060)" d="M294.087 1454.1 Q290.476 1454.1 288.647 1457.66 Q286.841 1461.2 286.841 1468.33 Q286.841 1475.44 288.647 1479.01 Q290.476 1482.55 294.087 1482.55 Q297.721 1482.55 299.526 1479.01 Q301.355 1475.44 301.355 1468.33 Q301.355 1461.2 299.526 1457.66 Q297.721 1454.1 294.087 1454.1 M294.087 1450.39 Q299.897 1450.39 302.952 1455 Q306.031 1459.58 306.031 1468.33 Q306.031 1477.06 302.952 1481.67 Q299.897 1486.25 294.087 1486.25 Q288.277 1486.25 285.198 1481.67 Q282.142 1477.06 282.142 1468.33 Q282.142 1459.58 285.198 1455 Q288.277 1450.39 294.087 1450.39 Z" fill="#000000" fill-rule="evenodd" fill-opacity="1" /><path clip-path="url(#clip060)" d="M776.912 1481.64 L793.231 1481.64 L793.231 1485.58 L771.287 1485.58 L771.287 1481.64 Q773.949 1478.89 778.532 1474.26 Q783.139 1469.61 784.319 1468.27 Q786.565 1465.74 787.444 1464.01 Q788.347 1462.25 788.347 1460.56 Q788.347 1457.8 786.403 1456.07 Q784.481 1454.33 781.38 1454.33 Q779.181 1454.33 776.727 1455.09 Q774.296 1455.86 771.519 1457.41 L771.519 1452.69 Q774.343 1451.55 776.796 1450.97 Q779.25 1450.39 781.287 1450.39 Q786.657 1450.39 789.852 1453.08 Q793.046 1455.77 793.046 1460.26 Q793.046 1462.39 792.236 1464.31 Q791.449 1466.2 789.342 1468.8 Q788.764 1469.47 785.662 1472.69 Q782.56 1475.88 776.912 1481.64 Z" fill="#000000" fill-rule="evenodd" fill-opacity="1" /><path clip-path="url(#clip060)" d="M803.092 1451.02 L821.449 1451.02 L821.449 1454.96 L807.375 1454.96 L807.375 1463.43 Q808.393 1463.08 809.412 1462.92 Q810.43 1462.73 811.449 1462.73 Q817.236 1462.73 820.615 1465.9 Q823.995 1469.08 823.995 1474.49 Q823.995 1480.07 820.523 1483.17 Q817.051 1486.25 810.731 1486.25 Q808.555 1486.25 806.287 1485.88 Q804.041 1485.51 801.634 1484.77 L801.634 1480.07 Q803.717 1481.2 805.94 1481.76 Q808.162 1482.32 810.639 1482.32 Q814.643 1482.32 816.981 1480.21 Q819.319 1478.1 819.319 1474.49 Q819.319 1470.88 816.981 1468.77 Q814.643 1466.67 810.639 1466.67 Q808.764 1466.67 806.889 1467.08 Q805.037 1467.5 803.092 1468.38 L803.092 1451.02 Z" fill="#000000" fill-rule="evenodd" fill-opacity="1" /><path clip-path="url(#clip060)" d="M1275.89 1451.02 L1294.25 1451.02 L1294.25 1454.96 L1280.18 1454.96 L1280.18 1463.43 Q1281.2 1463.08 1282.21 1462.92 Q1283.23 1462.73 1284.25 1462.73 Q1290.04 1462.73 1293.42 1465.9 Q1296.8 1469.08 1296.8 1474.49 Q1296.8 1480.07 1293.33 1483.17 Q1289.85 1486.25 1283.53 1486.25 Q1281.36 1486.25 1279.09 1485.88 Q1276.84 1485.51 1274.44 1484.77 L1274.44 1480.07 Q1276.52 1481.2 1278.74 1481.76 Q1280.96 1482.32 1283.44 1482.32 Q1287.45 1482.32 1289.78 1480.21 Q1292.12 1478.1 1292.12 1474.49 Q1292.12 1470.88 1289.78 1468.77 Q1287.45 1466.67 1283.44 1466.67 Q1281.57 1466.67 1279.69 1467.08 Q1277.84 1467.5 1275.89 1468.38 L1275.89 1451.02 Z" fill="#000000" fill-rule="evenodd" fill-opacity="1" /><path clip-path="url(#clip060)" d="M1316.01 1454.1 Q1312.4 1454.1 1310.57 1457.66 Q1308.76 1461.2 1308.76 1468.33 Q1308.76 1475.44 1310.57 1479.01 Q1312.4 1482.55 1316.01 1482.55 Q1319.64 1482.55 1321.45 1479.01 Q1323.28 1475.44 1323.28 1468.33 Q1323.28 1461.2 1321.45 1457.66 Q1319.64 1454.1 1316.01 1454.1 M1316.01 1450.39 Q1321.82 1450.39 1324.88 1455 Q1327.95 1459.58 1327.95 1468.33 Q1327.95 1477.06 1324.88 1481.67 Q1321.82 1486.25 1316.01 1486.25 Q1310.2 1486.25 1307.12 1481.67 Q1304.07 1477.06 1304.07 1468.33 Q1304.07 1459.58 1307.12 1455 Q1310.2 1450.39 1316.01 1450.39 Z" fill="#000000" fill-rule="evenodd" fill-opacity="1" /><path clip-path="url(#clip060)" d="M1778.6 1451.02 L1800.83 1451.02 L1800.83 1453.01 L1788.28 1485.58 L1783.4 1485.58 L1795.2 1454.96 L1778.6 1454.96 L1778.6 1451.02 Z" fill="#000000" fill-rule="evenodd" fill-opacity="1" /><path clip-path="url(#clip060)" d="M1809.99 1451.02 L1828.35 1451.02 L1828.35 1454.96 L1814.28 1454.96 L1814.28 1463.43 Q1815.29 1463.08 1816.31 1462.92 Q1817.33 1462.73 1818.35 1462.73 Q1824.14 1462.73 1827.52 1465.9 Q1830.9 1469.08 1830.9 1474.49 Q1830.9 1480.07 1827.42 1483.17 Q1823.95 1486.25 1817.63 1486.25 Q1815.46 1486.25 1813.19 1485.88 Q1810.94 1485.51 1808.53 1484.77 L1808.53 1480.07 Q1810.62 1481.2 1812.84 1481.76 Q1815.06 1482.32 1817.54 1482.32 Q1821.54 1482.32 1823.88 1480.21 Q1826.22 1478.1 1826.22 1474.49 Q1826.22 1470.88 1823.88 1468.77 Q1821.54 1466.67 1817.54 1466.67 Q1815.66 1466.67 1813.79 1467.08 Q1811.94 1467.5 1809.99 1468.38 L1809.99 1451.02 Z" fill="#000000" fill-rule="evenodd" fill-opacity="1" /><path clip-path="url(#clip060)" d="M2267.91 1481.64 L2275.55 1481.64 L2275.55 1455.28 L2267.24 1456.95 L2267.24 1452.69 L2275.5 1451.02 L2280.18 1451.02 L2280.18 1481.64 L2287.82 1481.64 L2287.82 1485.58 L2267.91 1485.58 L2267.91 1481.64 Z" fill="#000000" fill-rule="evenodd" fill-opacity="1" /><path clip-path="url(#clip060)" d="M2307.26 1454.1 Q2303.65 1454.1 2301.82 1457.66 Q2300.02 1461.2 2300.02 1468.33 Q2300.02 1475.44 2301.82 1479.01 Q2303.65 1482.55 2307.26 1482.55 Q2310.9 1482.55 2312.7 1479.01 Q2314.53 1475.44 2314.53 1468.33 Q2314.53 1461.2 2312.7 1457.66 Q2310.9 1454.1 2307.26 1454.1 M2307.26 1450.39 Q2313.07 1450.39 2316.13 1455 Q2319.21 1459.58 2319.21 1468.33 Q2319.21 1477.06 2316.13 1481.67 Q2313.07 1486.25 2307.26 1486.25 Q2301.45 1486.25 2298.37 1481.67 Q2295.32 1477.06 2295.32 1468.33 Q2295.32 1459.58 2298.37 1455 Q2301.45 1450.39 2307.26 1450.39 Z" fill="#000000" fill-rule="evenodd" fill-opacity="1" /><path clip-path="url(#clip060)" d="M2337.42 1454.1 Q2333.81 1454.1 2331.98 1457.66 Q2330.18 1461.2 2330.18 1468.33 Q2330.18 1475.44 2331.98 1479.01 Q2333.81 1482.55 2337.42 1482.55 Q2341.06 1482.55 2342.86 1479.01 Q2344.69 1475.44 2344.69 1468.33 Q2344.69 1461.2 2342.86 1457.66 Q2341.06 1454.1 2337.42 1454.1 M2337.42 1450.39 Q2343.23 1450.39 2346.29 1455 Q2349.37 1459.58 2349.37 1468.33 Q2349.37 1477.06 2346.29 1481.67 Q2343.23 1486.25 2337.42 1486.25 Q2331.61 1486.25 2328.54 1481.67 Q2325.48 1477.06 2325.48 1468.33 Q2325.48 1459.58 2328.54 1455 Q2331.61 1450.39 2337.42 1450.39 Z" fill="#000000" fill-rule="evenodd" fill-opacity="1" /><path clip-path="url(#clip060)" d="M1225.9 1522.27 L1225.9 1532.4 L1237.96 1532.4 L1237.96 1536.95 L1225.9 1536.95 L1225.9 1556.3 Q1225.9 1560.66 1227.08 1561.9 Q1228.29 1563.14 1231.95 1563.14 L1237.96 1563.14 L1237.96 1568.04 L1231.95 1568.04 Q1225.17 1568.04 1222.59 1565.53 Q1220.01 1562.98 1220.01 1556.3 L1220.01 1536.95 L1215.72 1536.95 L1215.72 1532.4 L1220.01 1532.4 L1220.01 1522.27 L1225.9 1522.27 Z" fill="#000000" fill-rule="evenodd" fill-opacity="1" /><path clip-path="url(#clip060)" d="M1266.39 1532.4 L1272.24 1532.4 L1272.24 1568.04 L1266.39 1568.04 L1266.39 1532.4 M1266.39 1518.52 L1272.24 1518.52 L1272.24 1525.93 L1266.39 1525.93 L1266.39 1518.52 Z" fill="#000000" fill-rule="evenodd" fill-opacity="1" /><path clip-path="url(#clip060)" d="M1314.13 1546.53 L1314.13 1568.04 L1308.27 1568.04 L1308.27 1546.72 Q1308.27 1541.66 1306.3 1539.14 Q1304.33 1536.63 1300.38 1536.63 Q1295.64 1536.63 1292.9 1539.65 Q1290.16 1542.68 1290.16 1547.9 L1290.16 1568.04 L1284.27 1568.04 L1284.27 1532.4 L1290.16 1532.4 L1290.16 1537.93 Q1292.26 1534.72 1295.1 1533.13 Q1297.96 1531.54 1301.68 1531.54 Q1307.83 1531.54 1310.98 1535.36 Q1314.13 1539.14 1314.13 1546.53 Z" fill="#000000" fill-rule="evenodd" fill-opacity="1" /><path clip-path="url(#clip060)" d="M1369.26 1533.45 L1369.26 1538.98 Q1366.77 1537.71 1364.1 1537.07 Q1361.43 1536.44 1358.56 1536.44 Q1354.2 1536.44 1352.01 1537.77 Q1349.84 1539.11 1349.84 1541.79 Q1349.84 1543.82 1351.4 1545 Q1352.96 1546.15 1357.67 1547.2 L1359.68 1547.64 Q1365.91 1548.98 1368.52 1551.43 Q1371.17 1553.85 1371.17 1558.21 Q1371.17 1563.17 1367.22 1566.07 Q1363.3 1568.97 1356.43 1568.97 Q1353.56 1568.97 1350.45 1568.39 Q1347.36 1567.85 1343.92 1566.74 L1343.92 1560.69 Q1347.17 1562.38 1350.32 1563.24 Q1353.47 1564.07 1356.56 1564.07 Q1360.69 1564.07 1362.92 1562.66 Q1365.15 1561.23 1365.15 1558.65 Q1365.15 1556.27 1363.53 1554.99 Q1361.94 1553.72 1356.49 1552.54 L1354.46 1552.07 Q1349.01 1550.92 1346.59 1548.56 Q1344.18 1546.18 1344.18 1542.04 Q1344.18 1537.01 1347.74 1534.27 Q1351.3 1531.54 1357.86 1531.54 Q1361.11 1531.54 1363.97 1532.01 Q1366.84 1532.49 1369.26 1533.45 Z" fill="#000000" fill-rule="evenodd" fill-opacity="1" /><polyline clip-path="url(#clip062)" style="stroke:#000000; stroke-linecap:butt; stroke-linejoin:round; stroke-width:2; stroke-opacity:0.1; fill:none" points="
  234.125,1355.11 2352.76,1355.11 
  "/>
<polyline clip-path="url(#clip062)" style="stroke:#000000; stroke-linecap:butt; stroke-linejoin:round; stroke-width:2; stroke-opacity:0.1; fill:none" points="
  234.125,1159.38 2352.76,1159.38 
  "/>
<polyline clip-path="url(#clip062)" style="stroke:#000000; stroke-linecap:butt; stroke-linejoin:round; stroke-width:2; stroke-opacity:0.1; fill:none" points="
  234.125,963.656 2352.76,963.656 
  "/>
<polyline clip-path="url(#clip062)" style="stroke:#000000; stroke-linecap:butt; stroke-linejoin:round; stroke-width:2; stroke-opacity:0.1; fill:none" points="
  234.125,767.931 2352.76,767.931 
  "/>
<polyline clip-path="url(#clip062)" style="stroke:#000000; stroke-linecap:butt; stroke-linejoin:round; stroke-width:2; stroke-opacity:0.1; fill:none" points="
  234.125,572.205 2352.76,572.205 
  "/>
<polyline clip-path="url(#clip062)" style="stroke:#000000; stroke-linecap:butt; stroke-linejoin:round; stroke-width:2; stroke-opacity:0.1; fill:none" points="
  234.125,376.48 2352.76,376.48 
  "/>
<polyline clip-path="url(#clip062)" style="stroke:#000000; stroke-linecap:butt; stroke-linejoin:round; stroke-width:2; stroke-opacity:0.1; fill:none" points="
  234.125,180.755 2352.76,180.755 
  "/>
<polyline clip-path="url(#clip060)" style="stroke:#000000; stroke-linecap:butt; stroke-linejoin:round; stroke-width:4; stroke-opacity:1; fill:none" points="
  234.125,1423.18 234.125,47.2441 
  "/>
<polyline clip-path="url(#clip060)" style="stroke:#000000; stroke-linecap:butt; stroke-linejoin:round; stroke-width:4; stroke-opacity:1; fill:none" points="
  234.125,1355.11 253.023,1355.11 
  "/>
<polyline clip-path="url(#clip060)" style="stroke:#000000; stroke-linecap:butt; stroke-linejoin:round; stroke-width:4; stroke-opacity:1; fill:none" points="
  234.125,1159.38 253.023,1159.38 
  "/>
<polyline clip-path="url(#clip060)" style="stroke:#000000; stroke-linecap:butt; stroke-linejoin:round; stroke-width:4; stroke-opacity:1; fill:none" points="
  234.125,963.656 253.023,963.656 
  "/>
<polyline clip-path="url(#clip060)" style="stroke:#000000; stroke-linecap:butt; stroke-linejoin:round; stroke-width:4; stroke-opacity:1; fill:none" points="
  234.125,767.931 253.023,767.931 
  "/>
<polyline clip-path="url(#clip060)" style="stroke:#000000; stroke-linecap:butt; stroke-linejoin:round; stroke-width:4; stroke-opacity:1; fill:none" points="
  234.125,572.205 253.023,572.205 
  "/>
<polyline clip-path="url(#clip060)" style="stroke:#000000; stroke-linecap:butt; stroke-linejoin:round; stroke-width:4; stroke-opacity:1; fill:none" points="
  234.125,376.48 253.023,376.48 
  "/>
<polyline clip-path="url(#clip060)" style="stroke:#000000; stroke-linecap:butt; stroke-linejoin:round; stroke-width:4; stroke-opacity:1; fill:none" points="
  234.125,180.755 253.023,180.755 
  "/>
<path clip-path="url(#clip060)" d="M146.066 1337.83 L164.422 1337.83 L164.422 1341.76 L150.348 1341.76 L150.348 1350.23 Q151.366 1349.89 152.385 1349.72 Q153.403 1349.54 154.422 1349.54 Q160.209 1349.54 163.589 1352.71 Q166.968 1355.88 166.968 1361.3 Q166.968 1366.88 163.496 1369.98 Q160.024 1373.06 153.704 1373.06 Q151.528 1373.06 149.26 1372.69 Q147.015 1372.32 144.607 1371.58 L144.607 1366.88 Q146.691 1368.01 148.913 1368.57 Q151.135 1369.12 153.612 1369.12 Q157.616 1369.12 159.954 1367.02 Q162.292 1364.91 162.292 1361.3 Q162.292 1357.69 159.954 1355.58 Q157.616 1353.47 153.612 1353.47 Q151.737 1353.47 149.862 1353.89 Q148.01 1354.31 146.066 1355.19 L146.066 1337.83 Z" fill="#000000" fill-rule="evenodd" fill-opacity="1" /><path clip-path="url(#clip060)" d="M186.181 1340.91 Q182.57 1340.91 180.741 1344.47 Q178.936 1348.01 178.936 1355.14 Q178.936 1362.25 180.741 1365.81 Q182.57 1369.35 186.181 1369.35 Q189.815 1369.35 191.621 1365.81 Q193.45 1362.25 193.45 1355.14 Q193.45 1348.01 191.621 1344.47 Q189.815 1340.91 186.181 1340.91 M186.181 1337.2 Q191.991 1337.2 195.047 1341.81 Q198.125 1346.39 198.125 1355.14 Q198.125 1363.87 195.047 1368.47 Q191.991 1373.06 186.181 1373.06 Q180.371 1373.06 177.292 1368.47 Q174.237 1363.87 174.237 1355.14 Q174.237 1346.39 177.292 1341.81 Q180.371 1337.2 186.181 1337.2 Z" fill="#000000" fill-rule="evenodd" fill-opacity="1" /><path clip-path="url(#clip060)" d="M116.668 1172.73 L124.306 1172.73 L124.306 1146.36 L115.996 1148.03 L115.996 1143.77 L124.26 1142.1 L128.936 1142.1 L128.936 1172.73 L136.575 1172.73 L136.575 1176.66 L116.668 1176.66 L116.668 1172.73 Z" fill="#000000" fill-rule="evenodd" fill-opacity="1" /><path clip-path="url(#clip060)" d="M156.019 1145.18 Q152.408 1145.18 150.579 1148.74 Q148.774 1152.29 148.774 1159.42 Q148.774 1166.52 150.579 1170.09 Q152.408 1173.63 156.019 1173.63 Q159.653 1173.63 161.459 1170.09 Q163.288 1166.52 163.288 1159.42 Q163.288 1152.29 161.459 1148.74 Q159.653 1145.18 156.019 1145.18 M156.019 1141.48 Q161.829 1141.48 164.885 1146.08 Q167.964 1150.67 167.964 1159.42 Q167.964 1168.14 164.885 1172.75 Q161.829 1177.33 156.019 1177.33 Q150.209 1177.33 147.13 1172.75 Q144.075 1168.14 144.075 1159.42 Q144.075 1150.67 147.13 1146.08 Q150.209 1141.48 156.019 1141.48 Z" fill="#000000" fill-rule="evenodd" fill-opacity="1" /><path clip-path="url(#clip060)" d="M186.181 1145.18 Q182.57 1145.18 180.741 1148.74 Q178.936 1152.29 178.936 1159.42 Q178.936 1166.52 180.741 1170.09 Q182.57 1173.63 186.181 1173.63 Q189.815 1173.63 191.621 1170.09 Q193.45 1166.52 193.45 1159.42 Q193.45 1152.29 191.621 1148.74 Q189.815 1145.18 186.181 1145.18 M186.181 1141.48 Q191.991 1141.48 195.047 1146.08 Q198.125 1150.67 198.125 1159.42 Q198.125 1168.14 195.047 1172.75 Q191.991 1177.33 186.181 1177.33 Q180.371 1177.33 177.292 1172.75 Q174.237 1168.14 174.237 1159.42 Q174.237 1150.67 177.292 1146.08 Q180.371 1141.48 186.181 1141.48 Z" fill="#000000" fill-rule="evenodd" fill-opacity="1" /><path clip-path="url(#clip060)" d="M116.668 977.001 L124.306 977.001 L124.306 950.635 L115.996 952.302 L115.996 948.043 L124.26 946.376 L128.936 946.376 L128.936 977.001 L136.575 977.001 L136.575 980.936 L116.668 980.936 L116.668 977.001 Z" fill="#000000" fill-rule="evenodd" fill-opacity="1" /><path clip-path="url(#clip060)" d="M146.066 946.376 L164.422 946.376 L164.422 950.311 L150.348 950.311 L150.348 958.783 Q151.366 958.436 152.385 958.274 Q153.403 958.089 154.422 958.089 Q160.209 958.089 163.589 961.26 Q166.968 964.431 166.968 969.848 Q166.968 975.427 163.496 978.529 Q160.024 981.607 153.704 981.607 Q151.528 981.607 149.26 981.237 Q147.015 980.867 144.607 980.126 L144.607 975.427 Q146.691 976.561 148.913 977.117 Q151.135 977.672 153.612 977.672 Q157.616 977.672 159.954 975.566 Q162.292 973.459 162.292 969.848 Q162.292 966.237 159.954 964.131 Q157.616 962.024 153.612 962.024 Q151.737 962.024 149.862 962.441 Q148.01 962.857 146.066 963.737 L146.066 946.376 Z" fill="#000000" fill-rule="evenodd" fill-opacity="1" /><path clip-path="url(#clip060)" d="M186.181 949.455 Q182.57 949.455 180.741 953.019 Q178.936 956.561 178.936 963.691 Q178.936 970.797 180.741 974.362 Q182.57 977.904 186.181 977.904 Q189.815 977.904 191.621 974.362 Q193.45 970.797 193.45 963.691 Q193.45 956.561 191.621 953.019 Q189.815 949.455 186.181 949.455 M186.181 945.751 Q191.991 945.751 195.047 950.357 Q198.125 954.941 198.125 963.691 Q198.125 972.418 195.047 977.024 Q191.991 981.607 186.181 981.607 Q180.371 981.607 177.292 977.024 Q174.237 972.418 174.237 963.691 Q174.237 954.941 177.292 950.357 Q180.371 945.751 186.181 945.751 Z" fill="#000000" fill-rule="evenodd" fill-opacity="1" /><path clip-path="url(#clip060)" d="M119.885 781.276 L136.204 781.276 L136.204 785.211 L114.26 785.211 L114.26 781.276 Q116.922 778.521 121.505 773.891 Q126.112 769.239 127.292 767.896 Q129.538 765.373 130.417 763.637 Q131.32 761.878 131.32 760.188 Q131.32 757.433 129.376 755.697 Q127.455 753.961 124.353 753.961 Q122.154 753.961 119.7 754.725 Q117.269 755.489 114.492 757.04 L114.492 752.317 Q117.316 751.183 119.769 750.604 Q122.223 750.026 124.26 750.026 Q129.63 750.026 132.825 752.711 Q136.019 755.396 136.019 759.887 Q136.019 762.016 135.209 763.938 Q134.422 765.836 132.316 768.428 Q131.737 769.1 128.635 772.317 Q125.533 775.512 119.885 781.276 Z" fill="#000000" fill-rule="evenodd" fill-opacity="1" /><path clip-path="url(#clip060)" d="M156.019 753.729 Q152.408 753.729 150.579 757.294 Q148.774 760.836 148.774 767.965 Q148.774 775.072 150.579 778.637 Q152.408 782.178 156.019 782.178 Q159.653 782.178 161.459 778.637 Q163.288 775.072 163.288 767.965 Q163.288 760.836 161.459 757.294 Q159.653 753.729 156.019 753.729 M156.019 750.026 Q161.829 750.026 164.885 754.632 Q167.964 759.216 167.964 767.965 Q167.964 776.692 164.885 781.299 Q161.829 785.882 156.019 785.882 Q150.209 785.882 147.13 781.299 Q144.075 776.692 144.075 767.965 Q144.075 759.216 147.13 754.632 Q150.209 750.026 156.019 750.026 Z" fill="#000000" fill-rule="evenodd" fill-opacity="1" /><path clip-path="url(#clip060)" d="M186.181 753.729 Q182.57 753.729 180.741 757.294 Q178.936 760.836 178.936 767.965 Q178.936 775.072 180.741 778.637 Q182.57 782.178 186.181 782.178 Q189.815 782.178 191.621 778.637 Q193.45 775.072 193.45 767.965 Q193.45 760.836 191.621 757.294 Q189.815 753.729 186.181 753.729 M186.181 750.026 Q191.991 750.026 195.047 754.632 Q198.125 759.216 198.125 767.965 Q198.125 776.692 195.047 781.299 Q191.991 785.882 186.181 785.882 Q180.371 785.882 177.292 781.299 Q174.237 776.692 174.237 767.965 Q174.237 759.216 177.292 754.632 Q180.371 750.026 186.181 750.026 Z" fill="#000000" fill-rule="evenodd" fill-opacity="1" /><path clip-path="url(#clip060)" d="M119.885 585.55 L136.204 585.55 L136.204 589.485 L114.26 589.485 L114.26 585.55 Q116.922 582.796 121.505 578.166 Q126.112 573.513 127.292 572.171 Q129.538 569.648 130.417 567.912 Q131.32 566.152 131.32 564.462 Q131.32 561.708 129.376 559.972 Q127.455 558.236 124.353 558.236 Q122.154 558.236 119.7 559 Q117.269 559.763 114.492 561.314 L114.492 556.592 Q117.316 555.458 119.769 554.879 Q122.223 554.3 124.26 554.3 Q129.63 554.3 132.825 556.986 Q136.019 559.671 136.019 564.162 Q136.019 566.291 135.209 568.212 Q134.422 570.111 132.316 572.703 Q131.737 573.374 128.635 576.592 Q125.533 579.786 119.885 585.55 Z" fill="#000000" fill-rule="evenodd" fill-opacity="1" /><path clip-path="url(#clip060)" d="M146.066 554.925 L164.422 554.925 L164.422 558.861 L150.348 558.861 L150.348 567.333 Q151.366 566.986 152.385 566.824 Q153.403 566.638 154.422 566.638 Q160.209 566.638 163.589 569.81 Q166.968 572.981 166.968 578.398 Q166.968 583.976 163.496 587.078 Q160.024 590.157 153.704 590.157 Q151.528 590.157 149.26 589.786 Q147.015 589.416 144.607 588.675 L144.607 583.976 Q146.691 585.111 148.913 585.666 Q151.135 586.222 153.612 586.222 Q157.616 586.222 159.954 584.115 Q162.292 582.009 162.292 578.398 Q162.292 574.786 159.954 572.68 Q157.616 570.574 153.612 570.574 Q151.737 570.574 149.862 570.99 Q148.01 571.407 146.066 572.287 L146.066 554.925 Z" fill="#000000" fill-rule="evenodd" fill-opacity="1" /><path clip-path="url(#clip060)" d="M186.181 558.004 Q182.57 558.004 180.741 561.569 Q178.936 565.111 178.936 572.24 Q178.936 579.347 180.741 582.911 Q182.57 586.453 186.181 586.453 Q189.815 586.453 191.621 582.911 Q193.45 579.347 193.45 572.24 Q193.45 565.111 191.621 561.569 Q189.815 558.004 186.181 558.004 M186.181 554.3 Q191.991 554.3 195.047 558.907 Q198.125 563.49 198.125 572.24 Q198.125 580.967 195.047 585.573 Q191.991 590.157 186.181 590.157 Q180.371 590.157 177.292 585.573 Q174.237 580.967 174.237 572.24 Q174.237 563.49 177.292 558.907 Q180.371 554.3 186.181 554.3 Z" fill="#000000" fill-rule="evenodd" fill-opacity="1" /><path clip-path="url(#clip060)" d="M130.024 375.126 Q133.38 375.844 135.255 378.112 Q137.154 380.381 137.154 383.714 Q137.154 388.83 133.635 391.631 Q130.117 394.432 123.635 394.432 Q121.459 394.432 119.144 393.992 Q116.853 393.575 114.399 392.719 L114.399 388.205 Q116.343 389.339 118.658 389.918 Q120.973 390.496 123.496 390.496 Q127.894 390.496 130.186 388.76 Q132.501 387.024 132.501 383.714 Q132.501 380.658 130.348 378.945 Q128.218 377.209 124.399 377.209 L120.371 377.209 L120.371 373.367 L124.584 373.367 Q128.033 373.367 129.862 372.001 Q131.691 370.612 131.691 368.02 Q131.691 365.358 129.792 363.946 Q127.917 362.51 124.399 362.51 Q122.478 362.51 120.279 362.927 Q118.08 363.344 115.441 364.223 L115.441 360.057 Q118.103 359.316 120.418 358.946 Q122.755 358.575 124.816 358.575 Q130.14 358.575 133.242 361.006 Q136.343 363.413 136.343 367.534 Q136.343 370.404 134.7 372.395 Q133.056 374.362 130.024 375.126 Z" fill="#000000" fill-rule="evenodd" fill-opacity="1" /><path clip-path="url(#clip060)" d="M156.019 362.279 Q152.408 362.279 150.579 365.844 Q148.774 369.385 148.774 376.515 Q148.774 383.621 150.579 387.186 Q152.408 390.728 156.019 390.728 Q159.653 390.728 161.459 387.186 Q163.288 383.621 163.288 376.515 Q163.288 369.385 161.459 365.844 Q159.653 362.279 156.019 362.279 M156.019 358.575 Q161.829 358.575 164.885 363.182 Q167.964 367.765 167.964 376.515 Q167.964 385.242 164.885 389.848 Q161.829 394.432 156.019 394.432 Q150.209 394.432 147.13 389.848 Q144.075 385.242 144.075 376.515 Q144.075 367.765 147.13 363.182 Q150.209 358.575 156.019 358.575 Z" fill="#000000" fill-rule="evenodd" fill-opacity="1" /><path clip-path="url(#clip060)" d="M186.181 362.279 Q182.57 362.279 180.741 365.844 Q178.936 369.385 178.936 376.515 Q178.936 383.621 180.741 387.186 Q182.57 390.728 186.181 390.728 Q189.815 390.728 191.621 387.186 Q193.45 383.621 193.45 376.515 Q193.45 369.385 191.621 365.844 Q189.815 362.279 186.181 362.279 M186.181 358.575 Q191.991 358.575 195.047 363.182 Q198.125 367.765 198.125 376.515 Q198.125 385.242 195.047 389.848 Q191.991 394.432 186.181 394.432 Q180.371 394.432 177.292 389.848 Q174.237 385.242 174.237 376.515 Q174.237 367.765 177.292 363.182 Q180.371 358.575 186.181 358.575 Z" fill="#000000" fill-rule="evenodd" fill-opacity="1" /><path clip-path="url(#clip060)" d="M130.024 179.401 Q133.38 180.118 135.255 182.387 Q137.154 184.655 137.154 187.989 Q137.154 193.104 133.635 195.905 Q130.117 198.706 123.635 198.706 Q121.459 198.706 119.144 198.266 Q116.853 197.85 114.399 196.993 L114.399 192.479 Q116.343 193.614 118.658 194.192 Q120.973 194.771 123.496 194.771 Q127.894 194.771 130.186 193.035 Q132.501 191.299 132.501 187.989 Q132.501 184.933 130.348 183.22 Q128.218 181.484 124.399 181.484 L120.371 181.484 L120.371 177.642 L124.584 177.642 Q128.033 177.642 129.862 176.276 Q131.691 174.887 131.691 172.294 Q131.691 169.632 129.792 168.22 Q127.917 166.785 124.399 166.785 Q122.478 166.785 120.279 167.202 Q118.08 167.618 115.441 168.498 L115.441 164.331 Q118.103 163.591 120.418 163.22 Q122.755 162.85 124.816 162.85 Q130.14 162.85 133.242 165.281 Q136.343 167.688 136.343 171.808 Q136.343 174.679 134.7 176.669 Q133.056 178.637 130.024 179.401 Z" fill="#000000" fill-rule="evenodd" fill-opacity="1" /><path clip-path="url(#clip060)" d="M146.066 163.475 L164.422 163.475 L164.422 167.41 L150.348 167.41 L150.348 175.882 Q151.366 175.535 152.385 175.373 Q153.403 175.188 154.422 175.188 Q160.209 175.188 163.589 178.359 Q166.968 181.53 166.968 186.947 Q166.968 192.526 163.496 195.628 Q160.024 198.706 153.704 198.706 Q151.528 198.706 149.26 198.336 Q147.015 197.966 144.607 197.225 L144.607 192.526 Q146.691 193.66 148.913 194.216 Q151.135 194.771 153.612 194.771 Q157.616 194.771 159.954 192.665 Q162.292 190.558 162.292 186.947 Q162.292 183.336 159.954 181.23 Q157.616 179.123 153.612 179.123 Q151.737 179.123 149.862 179.54 Q148.01 179.956 146.066 180.836 L146.066 163.475 Z" fill="#000000" fill-rule="evenodd" fill-opacity="1" /><path clip-path="url(#clip060)" d="M186.181 166.554 Q182.57 166.554 180.741 170.118 Q178.936 173.66 178.936 180.79 Q178.936 187.896 180.741 191.461 Q182.57 195.003 186.181 195.003 Q189.815 195.003 191.621 191.461 Q193.45 187.896 193.45 180.79 Q193.45 173.66 191.621 170.118 Q189.815 166.554 186.181 166.554 M186.181 162.85 Q191.991 162.85 195.047 167.456 Q198.125 172.04 198.125 180.79 Q198.125 189.516 195.047 194.123 Q191.991 198.706 186.181 198.706 Q180.371 198.706 177.292 194.123 Q174.237 189.516 174.237 180.79 Q174.237 172.04 177.292 167.456 Q180.371 162.85 186.181 162.85 Z" fill="#000000" fill-rule="evenodd" fill-opacity="1" /><path clip-path="url(#clip060)" d="M16.4842 842.936 L16.4842 802.736 L21.895 802.736 L21.895 819.605 L64.0042 819.605 L64.0042 826.067 L21.895 826.067 L21.895 842.936 L16.4842 842.936 Z" fill="#000000" fill-rule="evenodd" fill-opacity="1" /><path clip-path="url(#clip060)" d="M28.3562 776.064 L28.3562 770.207 L64.0042 770.207 L64.0042 776.064 L28.3562 776.064 M14.479 776.064 L14.479 770.207 L21.895 770.207 L21.895 776.064 L14.479 776.064 Z" fill="#000000" fill-rule="evenodd" fill-opacity="1" /><path clip-path="url(#clip060)" d="M42.4881 728.321 L64.0042 728.321 L64.0042 734.178 L42.679 734.178 Q37.6183 734.178 35.1038 736.151 Q32.5894 738.124 32.5894 742.071 Q32.5894 746.813 35.6131 749.551 Q38.6368 752.288 43.8567 752.288 L64.0042 752.288 L64.0042 758.176 L28.3562 758.176 L28.3562 752.288 L33.8944 752.288 Q30.6797 750.187 29.0883 747.355 Q27.4968 744.49 27.4968 740.766 Q27.4968 734.623 31.3163 731.472 Q35.1038 728.321 42.4881 728.321 Z" fill="#000000" fill-rule="evenodd" fill-opacity="1" /><path clip-path="url(#clip060)" d="M19.7307 685.766 Q19.7307 688.313 21.5131 690.063 Q23.2636 691.814 25.8099 691.814 Q28.3244 691.814 30.0749 690.063 Q31.7937 688.313 31.7937 685.766 Q31.7937 683.22 30.0749 681.469 Q28.3244 679.719 25.8099 679.719 Q23.2955 679.719 21.5131 681.501 Q19.7307 683.252 19.7307 685.766 M15.6248 685.766 Q15.6248 683.729 16.4205 681.851 Q17.1844 679.974 18.6485 678.605 Q20.0808 677.141 21.895 676.409 Q23.7092 675.677 25.8099 675.677 Q30.0113 675.677 32.9395 678.637 Q35.8359 681.565 35.8359 685.83 Q35.8359 690.127 32.9713 692.991 Q30.1068 695.856 25.8099 695.856 Q21.5449 695.856 18.5848 692.928 Q15.6248 690 15.6248 685.766 Z" fill="#000000" fill-rule="evenodd" fill-opacity="1" /><path clip-path="url(#clip060)" d="M20.1444 627.488 L26.9239 627.488 Q23.9002 630.735 22.4043 634.427 Q20.9083 638.087 20.9083 642.225 Q20.9083 650.373 25.9054 654.702 Q30.8707 659.03 40.2919 659.03 Q49.6813 659.03 54.6784 654.702 Q59.6436 650.373 59.6436 642.225 Q59.6436 638.087 58.1477 634.427 Q56.6518 630.735 53.6281 627.488 L60.3439 627.488 Q62.6355 630.862 63.7814 634.65 Q64.9272 638.405 64.9272 642.607 Q64.9272 653.397 58.3387 659.603 Q51.7183 665.81 40.2919 665.81 Q28.8336 665.81 22.2451 659.603 Q15.6248 653.397 15.6248 642.607 Q15.6248 638.342 16.7706 634.586 Q17.8846 630.798 20.1444 627.488 Z" fill="#000000" fill-rule="evenodd" fill-opacity="1" /><polyline clip-path="url(#clip062)" style="stroke:#ff0000; stroke-linecap:butt; stroke-linejoin:round; stroke-width:4; stroke-opacity:1; fill:none" points="
  294.087,1368.83 296.085,1368.83 298.084,1368.83 300.083,1368.83 302.082,1368.83 304.08,1368.83 306.079,1368.83 308.078,1368.83 310.076,1368.83 312.075,1368.83 
  314.074,1368.83 316.072,1368.83 318.071,1368.83 320.07,1368.83 322.069,1368.83 324.067,1368.83 326.066,1368.83 328.065,1368.83 330.063,1368.83 332.062,1368.77 
  334.061,1368.67 336.06,1368.57 338.058,1368.46 340.057,1368.36 342.056,1368.25 344.054,1368.15 346.053,1368.05 348.052,1367.94 350.051,1367.85 352.049,1367.8 
  354.048,1367.75 356.047,1367.7 358.045,1367.65 360.044,1367.59 362.043,1367.54 364.041,1367.49 366.04,1367.44 368.039,1367.39 370.038,1367.55 372.036,1367.7 
  374.035,1367.86 376.034,1368.02 378.032,1368.18 380.031,1368.33 382.03,1368.49 384.029,1368.65 386.027,1368.81 388.026,1368.83 390.025,1368.83 392.023,1368.83 
  394.022,1368.83 396.021,1368.83 398.02,1368.83 400.018,1368.83 402.017,1368.83 404.016,1368.83 406.014,1368.77 408.013,1368.67 410.012,1368.56 412.01,1368.46 
  414.009,1368.36 416.008,1368.25 418.007,1368.15 420.005,1368.04 422.004,1367.94 424.003,1367.87 426.001,1367.87 428,1367.87 429.999,1367.87 431.998,1367.87 
  433.996,1367.87 435.995,1367.87 437.994,1367.87 439.992,1367.87 441.991,1367.87 443.99,1367.81 445.988,1367.76 447.987,1367.71 449.986,1367.66 451.985,1367.61 
  453.983,1367.56 455.982,1367.51 457.981,1367.46 459.979,1367.4 461.978,1367.42 463.977,1367.47 465.976,1367.52 467.974,1367.58 469.973,1367.63 471.972,1367.68 
  473.97,1367.73 475.969,1367.78 477.968,1367.84 479.967,1367.77 481.965,1367.51 483.964,1367.25 485.963,1366.99 487.961,1366.73 489.96,1366.47 491.959,1366.21 
  493.957,1365.95 495.956,1365.69 497.955,1365.22 499.954,1363.14 501.952,1361.07 503.951,1358.99 505.95,1356.91 507.948,1354.83 509.947,1352.76 511.946,1350.68 
  513.945,1348.6 515.943,1346.52 517.942,1343.86 519.941,1341.09 521.939,1338.31 523.938,1335.54 525.937,1332.76 527.936,1329.99 529.934,1327.21 531.933,1324.44 
  533.932,1321.67 535.93,1318.85 537.929,1316 539.928,1313.14 541.926,1310.28 543.925,1307.43 545.924,1304.57 547.923,1301.72 549.921,1298.86 551.92,1296 
  553.919,1293.12 555.917,1290.1 557.916,1287.09 559.915,1284.08 561.914,1281.07 563.912,1278.05 565.911,1275.04 567.91,1272.03 569.908,1269.02 571.907,1266.01 
  573.906,1263.12 575.905,1260.24 577.903,1257.37 579.902,1254.49 581.901,1251.61 583.899,1248.74 585.898,1245.86 587.897,1242.98 589.895,1240.1 591.894,1236.92 
  593.893,1233.49 595.892,1230.07 597.89,1226.64 599.889,1223.21 601.888,1219.78 603.886,1216.36 605.885,1212.93 607.884,1209.5 609.883,1206.22 611.881,1203.31 
  613.88,1200.41 615.879,1197.5 617.877,1194.59 619.876,1191.68 621.875,1188.77 623.874,1185.86 625.872,1182.96 627.871,1180.04 629.87,1176.77 631.868,1173.5 
  633.867,1170.23 635.866,1166.96 637.864,1163.68 639.863,1160.41 641.862,1157.14 643.861,1153.87 645.859,1150.6 647.858,1147.39 649.857,1144.2 651.855,1141.02 
  653.854,1137.83 655.853,1134.65 657.852,1131.46 659.85,1128.28 661.849,1125.09 663.848,1121.91 665.846,1118.71 667.845,1115.49 669.844,1112.27 671.842,1109.05 
  673.841,1105.83 675.84,1102.61 677.839,1099.39 679.837,1096.17 681.836,1092.95 683.835,1089.74 685.833,1086.55 687.832,1083.36 689.831,1080.18 691.83,1076.99 
  693.828,1073.81 695.827,1070.62 697.826,1067.44 699.824,1064.25 701.823,1061.07 703.822,1057.85 705.821,1054.61 707.819,1051.37 709.818,1048.14 711.817,1044.9 
  713.815,1041.66 715.814,1038.43 717.813,1035.19 719.811,1031.95 721.81,1028.68 723.809,1025.34 725.808,1022 727.806,1018.66 729.805,1015.32 731.804,1011.98 
  733.802,1008.64 735.801,1005.31 737.8,1001.97 739.799,998.627 741.797,995.439 743.796,992.254 745.795,989.069 747.793,985.884 749.792,982.698 751.791,979.513 
  753.79,976.328 755.788,973.143 757.787,969.958 759.786,966.751 761.784,963.532 763.783,960.312 765.782,957.092 767.78,953.872 769.779,950.652 771.778,947.433 
  773.777,944.213 775.775,940.993 777.774,937.762 779.773,934.509 781.771,931.256 783.77,928.003 785.769,924.75 787.768,921.497 789.766,918.244 791.765,914.991 
  793.764,911.738 795.762,908.485 797.761,905.38 799.76,902.298 801.759,899.215 803.757,896.133 805.756,893.051 807.755,889.968 809.753,886.886 811.752,883.803 
  813.751,880.721 815.749,877.68 817.748,874.681 819.747,871.682 821.746,868.683 823.744,865.684 825.743,862.686 827.742,859.687 829.74,856.688 831.739,853.689 
  833.738,850.688 835.737,847.588 837.735,844.487 839.734,841.387 841.733,838.286 843.731,835.186 845.73,832.085 847.729,828.985 849.728,825.885 851.726,822.784 
  853.725,819.722 855.724,816.691 857.722,813.66 859.721,810.628 861.72,807.597 863.718,804.566 865.717,801.535 867.716,798.504 869.715,795.473 871.713,792.448 
  873.712,789.449 875.711,786.45 877.709,783.451 879.708,780.453 881.707,777.454 883.706,774.455 885.704,771.456 887.703,768.457 889.702,765.458 891.7,762.618 
  893.699,759.843 895.698,757.069 897.696,754.295 899.695,751.521 901.694,748.747 903.693,745.972 905.691,743.198 907.69,740.424 909.689,737.66 911.687,734.915 
  913.686,732.17 915.685,729.426 917.684,726.681 919.682,723.936 921.681,721.192 923.68,718.447 925.678,715.702 927.677,712.958 929.676,709.967 931.675,706.936 
  933.673,703.905 935.672,700.874 937.671,697.843 939.669,694.812 941.668,691.781 943.667,688.75 945.665,685.719 947.664,682.777 949.663,679.931 951.662,677.085 
  953.66,674.238 955.659,671.392 957.658,668.546 959.656,665.699 961.655,662.853 963.654,660.007 965.653,657.161 967.651,654.387 969.65,651.613 971.649,648.839 
  973.647,646.065 975.646,643.29 977.645,640.516 979.644,637.742 981.642,634.968 983.641,632.194 985.64,629.471 987.638,626.777 989.637,624.083 991.636,621.389 
  993.634,618.696 995.633,616.002 997.632,613.308 999.631,610.614 1001.63,607.92 1003.63,605.209 1005.63,602.414 1007.63,599.618 1009.62,596.823 1011.62,594.027 
  1013.62,591.232 1015.62,588.436 1017.62,585.641 1019.62,582.845 1021.62,580.05 1023.62,577.341 1025.61,574.669 1027.61,571.998 1029.61,569.326 1031.61,566.655 
  1033.61,563.983 1035.61,561.312 1037.61,558.64 1039.6,555.969 1041.6,553.463 1043.6,551.306 1045.6,549.148 1047.6,546.99 1049.6,544.833 1051.6,542.675 
  1053.6,540.517 1055.59,538.359 1057.59,536.202 1059.59,534.044 1061.59,531.473 1063.59,528.881 1065.59,526.289 1067.59,523.697 1069.59,521.105 1071.58,518.512 
  1073.58,515.92 1075.58,513.328 1077.58,510.736 1079.58,508.204 1081.58,505.738 1083.58,503.272 1085.58,500.806 1087.57,498.34 1089.57,495.874 1091.57,493.408 
  1093.57,490.942 1095.57,488.476 1097.57,486.024 1099.57,483.686 1101.56,481.348 1103.56,479.01 1105.56,476.672 1107.56,474.334 1109.56,471.996 1111.56,469.657 
  1113.56,467.319 1115.56,464.981 1117.55,462.675 1119.55,460.388 1121.55,458.101 1123.55,455.814 1125.55,453.527 1127.55,451.239 1129.55,448.952 1131.55,446.665 
  1133.54,444.378 1135.54,442.111 1137.54,439.953 1139.54,437.796 1141.54,435.638 1143.54,433.48 1145.54,431.323 1147.53,429.165 1149.53,427.007 1151.53,424.849 
  1153.53,422.692 1155.53,420.472 1157.53,418.236 1159.53,415.999 1161.53,413.763 1163.52,411.526 1165.52,409.29 1167.52,407.054 1169.52,404.817 1171.52,402.581 
  1173.52,400.288 1175.52,397.874 1177.52,395.459 1179.51,393.045 1181.51,390.63 1183.51,388.216 1185.51,385.801 1187.51,383.386 1189.51,380.972 1191.51,378.557 
  1193.51,376.502 1195.5,374.469 1197.5,372.436 1199.5,370.403 1201.5,368.37 1203.5,366.337 1205.5,364.304 1207.5,362.271 1209.49,360.237 1211.49,358.085 
  1213.49,355.798 1215.49,353.511 1217.49,351.223 1219.49,348.936 1221.49,346.649 1223.49,344.362 1225.48,342.075 1227.48,339.787 1229.48,337.5 1231.48,335.649 
  1233.48,333.8 1235.48,331.95 1237.48,330.101 1239.48,328.251 1241.47,326.402 1243.47,324.552 1245.47,322.703 1247.47,320.853 1249.47,319.016 1251.47,317.186 
  1253.47,315.357 1255.47,313.527 1257.46,311.697 1259.46,309.867 1261.46,308.037 1263.46,306.208 1265.46,304.378 1267.46,302.514 1269.46,300.459 1271.45,298.404 
  1273.45,296.349 1275.45,294.294 1277.45,292.239 1279.45,290.184 1281.45,288.129 1283.45,286.074 1285.45,284.019 1287.44,282.14 1289.44,280.31 1291.44,278.48 
  1293.44,276.651 1295.44,274.821 1297.44,272.991 1299.44,271.161 1301.44,269.331 1303.43,267.502 1305.43,265.666 1307.43,263.816 1309.43,261.967 1311.43,260.118 
  1313.43,258.268 1315.43,256.419 1317.43,254.569 1319.42,252.72 1321.42,250.87 1323.42,249.021 1325.42,247.315 1327.42,245.62 1329.42,243.925 1331.42,242.229 
  1333.41,240.534 1335.41,238.839 1337.41,237.143 1339.41,235.448 1341.41,233.753 1343.41,232.01 1345.41,230.231 1347.41,228.452 1349.4,226.673 1351.4,224.894 
  1353.4,223.115 1355.4,221.336 1357.4,219.558 1359.4,217.779 1361.4,215.995 1363.4,214.165 1365.39,212.336 1367.39,210.506 1369.39,208.676 1371.39,206.846 
  1373.39,205.016 1375.39,203.187 1377.39,201.357 1379.39,199.527 1381.38,197.78 1383.38,196.085 1385.38,194.389 1387.38,192.694 1389.38,190.999 1391.38,189.303 
  1393.38,187.608 1395.37,185.913 1397.37,184.217 1399.37,182.547 1401.37,180.955 1403.37,179.362 1405.37,177.769 1407.37,176.177 1409.37,174.584 1411.36,172.992 
  1413.36,171.399 1415.36,169.806 1417.36,168.214 1419.36,166.857 1421.36,165.536 1423.36,164.214 1425.36,162.893 1427.35,161.571 1429.35,160.25 1431.35,158.928 
  1433.35,157.607 1435.35,156.285 1437.35,155.061 1439.35,153.982 1441.35,152.903 1443.34,151.824 1445.34,150.745 1447.34,149.666 1449.34,148.588 1451.34,147.509 
  1453.34,146.43 1455.34,145.355 1457.33,144.43 1459.33,143.506 1461.33,142.581 1463.33,141.656 1465.33,140.731 1467.33,139.807 1469.33,138.882 1471.33,137.957 
  1473.32,137.033 1475.32,136.276 1477.32,135.608 1479.32,134.94 1481.32,134.272 1483.32,133.604 1485.32,132.937 1487.32,132.269 1489.31,131.601 1491.31,130.933 
  1493.31,130.425 1495.31,130.323 1497.31,130.222 1499.31,130.12 1501.31,130.018 1503.31,129.917 1505.3,129.815 1507.3,129.713 1509.3,129.612 1511.3,129.51 
  1513.3,129.283 1515.3,129.026 1517.3,128.769 1519.29,128.512 1521.29,128.255 1523.29,127.998 1525.29,127.742 1527.29,127.485 1529.29,127.228 1531.29,127.128 
  1533.29,127.231 1535.28,127.334 1537.28,127.436 1539.28,127.539 1541.28,127.642 1543.28,127.745 1545.28,127.847 1547.28,127.95 1549.28,128.046 1551.27,128.046 
  1553.27,128.046 1555.27,128.046 1557.27,128.046 1559.27,128.046 1561.27,128.046 1563.27,128.046 1565.26,128.046 1567.26,128.046 1569.26,127.904 1571.26,127.698 
  1573.26,127.493 1575.26,127.287 1577.26,127.082 1579.26,126.876 1581.25,126.671 1583.25,126.465 1585.25,126.26 1587.25,126.071 1589.25,125.917 1591.25,125.763 
  1593.25,125.608 1595.25,125.454 1597.24,125.3 1599.24,125.146 1601.24,124.992 1603.24,124.838 1605.24,124.684 1607.24,124.435 1609.24,124.181 1611.24,123.926 
  1613.23,123.672 1615.23,123.418 1617.23,123.164 1619.23,122.91 1621.23,122.656 1623.23,122.402 1625.23,121.975 1627.22,121.359 1629.22,120.742 1631.22,120.126 
  1633.22,119.509 1635.22,118.893 1637.22,118.276 1639.22,117.66 1641.22,117.043 1643.21,116.39 1645.21,115.414 1647.21,114.438 1649.21,113.461 1651.21,112.485 
  1653.21,111.509 1655.21,110.533 1657.21,109.557 1659.2,108.581 1661.2,107.605 1663.2,106.666 1665.2,105.742 1667.2,104.817 1669.2,103.892 1671.2,102.967 
  1673.2,102.043 1675.19,101.118 1677.19,100.193 1679.19,99.2684 1681.19,98.2469 1683.19,97.0524 1685.19,95.858 1687.19,94.6635 1689.18,93.4691 1691.18,92.2747 
  1693.18,91.0802 1695.18,89.8858 1697.18,88.6913 1699.18,87.5878 1701.18,87.432 1703.18,87.2762 1705.17,87.1205 1707.17,86.9647 1709.17,86.8089 1711.17,86.6531 
  1713.17,86.4973 1715.17,86.3415 1717.17,86.1857 1719.17,86.8776 1721.16,87.7604 1723.16,88.6433 1725.16,89.5261 1727.16,90.409 1729.16,91.2918 1731.16,92.1747 
  1733.16,93.0575 1735.16,93.9404 1737.15,94.902 1739.15,95.9295 1741.15,96.957 1743.15,97.9845 1745.15,99.0119 1747.15,100.039 1749.15,101.067 1751.14,102.094 
  1753.14,103.122 1755.14,104.026 1757.14,104.337 1759.14,104.649 1761.14,104.961 1763.14,105.272 1765.14,105.584 1767.13,105.895 1769.13,106.207 1771.13,106.518 
  1773.13,106.83 1775.13,107.185 1777.13,107.545 1779.13,107.904 1781.13,108.264 1783.12,108.623 1785.12,108.983 1787.12,109.343 1789.12,109.702 1791.12,110.062 
  1793.12,110.424 1795.12,110.787 1797.12,111.151 1799.11,111.514 1801.11,111.878 1803.11,112.241 1805.11,112.605 1807.11,112.968 1809.11,113.332 1811.11,113.655 
  1813.1,113.86 1815.1,114.066 1817.1,114.271 1819.1,114.477 1821.1,114.682 1823.1,114.888 1825.1,115.093 1827.1,115.299 1829.09,115.504 1831.09,115.62 
  1833.09,115.723 1835.09,115.827 1837.09,115.931 1839.09,116.035 1841.09,116.139 1843.09,116.243 1845.08,116.347 1847.08,116.45 1849.08,116.68 1851.08,116.988 
  1853.08,117.296 1855.08,117.605 1857.08,117.913 1859.08,118.221 1861.07,118.529 1863.07,118.838 1865.07,119.146 1867.07,119.479 1869.07,119.89 1871.07,120.301 
  1873.07,120.712 1875.06,121.123 1877.06,121.534 1879.06,121.945 1881.06,122.356 1883.06,122.767 1885.06,123.178 1887.06,123.276 1889.06,123.328 1891.05,123.38 
  1893.05,123.432 1895.05,123.484 1897.05,123.536 1899.05,123.588 1901.05,123.64 1903.05,123.692 1905.05,123.805 1907.04,123.959 1909.04,124.113 1911.04,124.267 
  1913.04,124.422 1915.04,124.576 1917.04,124.73 1919.04,124.884 1921.03,125.038 1923.03,125.099 1925.03,124.842 1927.03,124.585 1929.03,124.329 1931.03,124.072 
  1933.03,123.815 1935.03,123.558 1937.02,123.301 1939.02,123.044 1941.02,122.787 1943.02,122.927 1945.02,123.135 1947.02,123.343 1949.02,123.55 1951.02,123.758 
  1953.01,123.966 1955.01,124.174 1957.01,124.381 1959.01,124.589 1961.01,124.736 1963.01,124.838 1965.01,124.941 1967.01,125.044 1969,125.147 1971,125.249 
  1973,125.352 1975,125.455 1977,125.558 1979,125.65 1981,125.701 1982.99,125.752 1984.99,125.804 1986.99,125.855 1988.99,125.906 1990.99,125.958 
  1992.99,126.009 1994.99,126.061 1996.99,126.112 1998.98,145.19 2000.98,167.936 2002.98,190.682 2004.98,213.429 2006.98,236.175 2008.98,258.921 2010.98,281.668 
  2012.98,304.414 2014.97,327.16 2016.97,369.487 2018.97,426.768 2020.97,484.049 2022.97,541.331 2024.97,598.612 2026.97,655.893 2028.97,713.174 2030.96,770.456 
  2032.96,827.737 2034.96,876.53 2036.96,905.094 2038.96,933.658 2040.96,962.222 2042.96,990.785 2044.95,1019.35 2046.95,1047.91 2048.95,1076.48 2050.95,1105.04 
  2052.95,1133.6 2054.95,1148.98 2056.95,1163.26 2058.95,1177.54 2060.94,1191.82 2062.94,1206.11 2064.94,1220.39 2066.94,1234.67 2068.94,1248.95 2070.94,1263.23 
  2072.94,1271.86 2074.94,1277.47 2076.93,1283.07 2078.93,1288.68 2080.93,1294.29 2082.93,1299.9 2084.93,1305.51 2086.93,1311.12 2088.93,1316.73 2090.93,1321.54 
  2092.92,1325.06 2094.92,1328.58 2096.92,1332.09 2098.92,1335.61 2100.92,1339.13 2102.92,1342.65 2104.92,1346.16 2106.91,1349.68 2108.91,1352.81 2110.91,1354.47 
  2112.91,1356.13 2114.91,1357.79 2116.91,1359.46 2118.91,1361.12 2120.91,1362.78 2122.9,1364.44 2124.9,1366.1 2126.9,1367.77 2128.9,1368.61 2130.9,1369.39 
  2132.9,1370.18 2134.9,1370.97 2136.9,1371.76 2138.89,1372.54 2140.89,1373.33 2142.89,1374.12 2144.89,1374.91 2146.89,1375.33 2148.89,1375.64 2150.89,1375.95 
  2152.89,1376.26 2154.88,1376.58 2156.88,1376.89 2158.88,1377.2 2160.88,1377.51 2162.88,1377.82 2164.88,1378.11 2166.88,1378.37 2168.87,1378.63 2170.87,1378.9 
  2172.87,1379.16 2174.87,1379.42 2176.87,1379.68 2178.87,1379.95 2180.87,1380.21 2182.87,1380.42 2184.86,1380.52 2186.86,1380.63 2188.86,1380.73 2190.86,1380.84 
  2192.86,1380.94 2194.86,1381.04 2196.86,1381.15 2198.86,1381.25 2200.85,1381.35 2202.85,1381.4 2204.85,1381.46 2206.85,1381.51 2208.85,1381.56 2210.85,1381.61 
  2212.85,1381.67 2214.85,1381.72 2216.84,1381.77 2218.84,1381.82 2220.84,1381.92 2222.84,1382.03 2224.84,1382.13 2226.84,1382.23 2228.84,1382.34 2230.83,1382.44 
  2232.83,1382.55 2234.83,1382.65 2236.83,1382.75 2238.83,1382.83 2240.83,1382.88 2242.83,1382.93 2244.83,1382.98 2246.82,1383.04 2248.82,1383.09 2250.82,1383.14 
  2252.82,1383.19 2254.82,1383.25 2256.82,1383.3 2258.82,1383.35 2260.82,1383.4 2262.81,1383.46 2264.81,1383.51 2266.81,1383.56 2268.81,1383.61 2270.81,1383.67 
  2272.81,1383.72 2274.81,1383.77 2276.81,1383.82 2278.8,1383.87 2280.8,1383.93 2282.8,1383.98 2284.8,1384.03 2286.8,1384.08 2288.8,1384.13 2290.8,1384.19 
  2292.79,1384.24 
  "/>
<polyline clip-path="url(#clip062)" style="stroke:#0000ff; stroke-linecap:butt; stroke-linejoin:round; stroke-width:4; stroke-opacity:1; fill:none" points="
  294.087,1357.76 296.085,1357.91 298.084,1358.07 300.083,1358.22 302.082,1358.38 304.08,1358.54 306.079,1358.69 308.078,1358.85 310.076,1359 312.075,1359.16 
  314.074,1359.09 316.072,1358.93 318.071,1358.77 320.07,1358.61 322.069,1358.46 324.067,1358.3 326.066,1358.14 328.065,1357.98 330.063,1357.83 332.062,1357.81 
  334.061,1357.92 336.06,1358.02 338.058,1358.13 340.057,1358.23 342.056,1358.33 344.054,1358.44 346.053,1358.54 348.052,1358.65 350.051,1358.66 352.049,1358.45 
  354.048,1358.24 356.047,1358.04 358.045,1357.83 360.044,1357.62 362.043,1357.41 364.041,1357.21 366.04,1357 368.039,1356.79 370.038,1356.85 372.036,1356.9 
  374.035,1356.95 376.034,1357 378.032,1357.06 380.031,1357.11 382.03,1357.16 384.029,1357.21 386.027,1357.27 388.026,1357.49 390.025,1357.75 392.023,1358.01 
  394.022,1358.27 396.021,1358.53 398.02,1358.79 400.018,1359.05 402.017,1359.31 404.016,1359.57 406.014,1359.56 408.013,1359.36 410.012,1359.15 412.01,1358.94 
  414.009,1358.73 416.008,1358.52 418.007,1358.32 420.005,1358.11 422.004,1357.9 424.003,1357.79 426.001,1357.89 428,1358 429.999,1358.1 431.998,1358.2 
  433.996,1358.31 435.995,1358.41 437.994,1358.52 439.992,1358.62 441.991,1358.72 443.99,1358.72 445.988,1358.72 447.987,1358.72 449.986,1358.72 451.985,1358.72 
  453.983,1358.72 455.982,1358.72 457.981,1358.72 459.979,1358.72 461.978,1358.75 463.977,1358.81 465.976,1358.86 467.974,1358.91 469.973,1358.96 471.972,1359.01 
  473.97,1359.07 475.969,1359.12 477.968,1359.17 479.967,1359.18 481.965,1359.13 483.964,1359.08 485.963,1359.03 487.961,1358.97 489.96,1358.92 491.959,1358.87 
  493.957,1358.82 495.956,1358.77 497.955,1358.5 499.954,1356.58 501.952,1354.65 503.951,1352.73 505.95,1350.81 507.948,1348.89 509.947,1346.97 511.946,1345.05 
  513.945,1343.13 515.943,1341.2 517.942,1339.21 519.941,1337.21 521.939,1335.21 523.938,1333.2 525.937,1331.2 527.936,1329.2 529.934,1327.19 531.933,1325.19 
  533.932,1323.18 535.93,1321 537.929,1318.61 539.928,1316.22 541.926,1313.83 543.925,1311.44 545.924,1309.05 547.923,1306.67 549.921,1304.28 551.92,1301.89 
  553.919,1299.55 555.917,1297.42 557.916,1295.29 559.915,1293.16 561.914,1291.03 563.912,1288.91 565.911,1286.78 567.91,1284.65 569.908,1282.52 571.907,1280.39 
  573.906,1278.33 575.905,1276.27 577.903,1274.22 579.902,1272.16 581.901,1270.11 583.899,1268.05 585.898,1266 587.897,1263.94 589.895,1261.89 591.894,1259.73 
  593.893,1257.5 595.892,1255.27 597.89,1253.04 599.889,1250.8 601.888,1248.57 603.886,1246.34 605.885,1244.1 607.884,1241.87 609.883,1239.71 611.881,1237.74 
  613.88,1235.76 615.879,1233.79 617.877,1231.82 619.876,1229.84 621.875,1227.87 623.874,1225.9 625.872,1223.92 627.871,1221.95 629.87,1219.87 631.868,1217.79 
  633.867,1215.72 635.866,1213.64 637.864,1211.56 639.863,1209.48 641.862,1207.41 643.861,1205.33 645.859,1203.25 647.858,1201.15 649.857,1199.05 651.855,1196.94 
  653.854,1194.84 655.853,1192.73 657.852,1190.62 659.85,1188.52 661.849,1186.41 663.848,1184.3 665.846,1182.21 667.845,1180.13 669.844,1178.05 671.842,1175.98 
  673.841,1173.9 675.84,1171.82 677.839,1169.74 679.837,1167.67 681.836,1165.59 683.835,1163.51 685.833,1161.46 687.832,1159.4 689.831,1157.35 691.83,1155.29 
  693.828,1153.24 695.827,1151.18 697.826,1149.13 699.824,1147.07 701.823,1145.02 703.822,1142.97 705.821,1140.91 707.819,1138.86 709.818,1136.8 711.817,1134.75 
  713.815,1132.69 715.814,1130.64 717.813,1128.58 719.811,1126.53 721.81,1124.49 723.809,1122.49 725.808,1120.48 727.806,1118.48 729.805,1116.47 731.804,1114.47 
  733.802,1112.47 735.801,1110.46 737.8,1108.46 739.799,1106.46 741.797,1104.35 743.796,1102.25 745.795,1100.14 747.793,1098.03 749.792,1095.93 751.791,1093.82 
  753.79,1091.71 755.788,1089.61 757.787,1087.5 759.786,1085.35 761.784,1083.17 763.783,1080.99 765.782,1078.81 767.78,1076.62 769.779,1074.44 771.778,1072.26 
  773.777,1070.08 775.775,1067.9 777.774,1065.77 779.773,1063.74 781.771,1061.7 783.77,1059.67 785.769,1057.64 787.768,1055.6 789.766,1053.57 791.765,1051.54 
  793.764,1049.5 795.762,1047.47 797.761,1045.37 799.76,1043.27 801.759,1041.16 803.757,1039.06 805.756,1036.95 807.755,1034.84 809.753,1032.74 811.752,1030.63 
  813.751,1028.52 815.749,1026.45 817.748,1024.42 819.747,1022.39 821.746,1020.35 823.744,1018.32 825.743,1016.29 827.742,1014.26 829.74,1012.22 831.739,1010.19 
  833.738,1008.16 835.737,1006.07 837.735,1003.99 839.734,1001.9 841.733,999.819 843.731,997.735 845.73,995.652 847.729,993.568 849.728,991.484 851.726,989.4 
  853.725,987.304 855.724,985.197 857.722,983.091 859.721,980.985 861.72,978.878 863.718,976.772 865.717,974.666 867.716,972.559 869.715,970.453 871.713,968.377 
  873.712,966.446 875.711,964.515 877.709,962.583 879.708,960.652 881.707,958.72 883.706,956.789 885.704,954.857 887.703,952.926 889.702,950.994 891.7,948.904 
  893.699,946.746 895.698,944.589 897.696,942.431 899.695,940.273 901.694,938.115 903.693,935.958 905.691,933.8 907.69,931.642 909.689,929.509 911.687,927.425 
  913.686,925.341 915.685,923.257 917.684,921.173 919.682,919.089 921.681,917.006 923.68,914.922 925.678,912.838 927.677,910.754 929.676,908.695 931.675,906.64 
  933.673,904.585 935.672,902.53 937.671,900.475 939.669,898.42 941.668,896.365 943.667,894.31 945.665,892.255 947.664,890.211 949.663,888.178 951.662,886.145 
  953.66,884.111 955.659,882.078 957.658,880.045 959.656,878.012 961.655,875.979 963.654,873.946 965.653,871.911 967.651,869.754 969.65,867.596 971.649,865.438 
  973.647,863.281 975.646,861.123 977.645,858.965 979.644,856.807 981.642,854.65 983.641,852.492 985.64,850.414 987.638,848.381 989.637,846.348 991.636,844.315 
  993.634,842.282 995.633,840.249 997.632,838.216 999.631,836.182 1001.63,834.149 1003.63,832.108 1005.63,830.024 1007.63,827.94 1009.62,825.856 1011.62,823.772 
  1013.62,821.688 1015.62,819.604 1017.62,817.52 1019.62,815.436 1021.62,813.353 1023.62,811.289 1025.61,809.234 1027.61,807.179 1029.61,805.124 1031.61,803.069 
  1033.61,801.014 1035.61,798.959 1037.61,796.904 1039.6,794.849 1041.6,792.811 1043.6,790.807 1045.6,788.804 1047.6,786.8 1049.6,784.796 1051.6,782.793 
  1053.6,780.789 1055.59,778.786 1057.59,776.782 1059.59,774.778 1061.59,772.65 1063.59,770.515 1065.59,768.381 1067.59,766.246 1069.59,764.111 1071.58,761.976 
  1073.58,759.842 1075.58,757.707 1077.58,755.572 1079.58,753.5 1081.58,751.497 1083.58,749.493 1085.58,747.489 1087.57,745.486 1089.57,743.482 1091.57,741.479 
  1093.57,739.475 1095.57,737.472 1097.57,735.459 1099.57,733.376 1101.56,731.292 1103.56,729.208 1105.56,727.124 1107.56,725.04 1109.56,722.956 1111.56,720.872 
  1113.56,718.788 1115.56,716.704 1117.55,714.62 1119.55,712.536 1121.55,710.452 1123.55,708.369 1125.55,706.285 1127.55,704.201 1129.55,702.117 1131.55,700.033 
  1133.54,697.949 1135.54,695.853 1137.54,693.696 1139.54,691.538 1141.54,689.38 1143.54,687.222 1145.54,685.065 1147.53,682.907 1149.53,680.749 1151.53,678.592 
  1153.53,676.434 1155.53,674.374 1157.53,672.341 1159.53,670.308 1161.53,668.275 1163.52,666.242 1165.52,664.209 1167.52,662.176 1169.52,660.143 1171.52,658.11 
  1173.52,656.086 1175.52,654.082 1177.52,652.079 1179.51,650.075 1181.51,648.071 1183.51,646.068 1185.51,644.064 1187.51,642.061 1189.51,640.057 1191.51,638.054 
  1193.51,636.022 1195.5,633.989 1197.5,631.956 1199.5,629.923 1201.5,627.89 1203.5,625.857 1205.5,623.824 1207.5,621.791 1209.49,619.757 1211.49,617.653 
  1213.49,615.467 1215.49,613.282 1217.49,611.096 1219.49,608.91 1221.49,606.725 1223.49,604.539 1225.48,602.354 1227.48,600.168 1229.48,597.983 1231.48,595.876 
  1233.48,593.77 1235.48,591.663 1237.48,589.557 1239.48,587.451 1241.47,585.344 1243.47,583.238 1245.47,581.132 1247.47,579.025 1249.47,576.996 1251.47,575.014 
  1253.47,573.032 1255.47,571.05 1257.46,569.067 1259.46,567.085 1261.46,565.103 1263.46,563.121 1265.46,561.138 1267.46,559.145 1269.46,557.09 1271.45,555.035 
  1273.45,552.98 1275.45,550.925 1277.45,548.87 1279.45,546.815 1281.45,544.76 1283.45,542.705 1285.45,540.651 1287.44,538.533 1289.44,536.399 1291.44,534.264 
  1293.44,532.129 1295.44,529.994 1297.44,527.86 1299.44,525.725 1301.44,523.59 1303.43,521.455 1305.43,519.345 1307.43,517.29 1309.43,515.235 1311.43,513.18 
  1313.43,511.125 1315.43,509.07 1317.43,507.015 1319.42,504.96 1321.42,502.905 1323.42,500.851 1325.42,498.748 1327.42,496.641 1329.42,494.535 1331.42,492.429 
  1333.41,490.322 1335.41,488.216 1337.41,486.11 1339.41,484.003 1341.41,481.897 1343.41,479.86 1345.41,477.878 1347.41,475.896 1349.4,473.914 1351.4,471.931 
  1353.4,469.949 1355.4,467.967 1357.4,465.984 1359.4,464.002 1361.4,462.006 1363.4,459.872 1365.39,457.737 1367.39,455.602 1369.39,453.467 1371.39,451.333 
  1373.39,449.198 1375.39,447.063 1377.39,444.928 1379.39,442.794 1381.38,440.74 1383.38,438.736 1385.38,436.733 1387.38,434.729 1389.38,432.725 1391.38,430.722 
  1393.38,428.718 1395.37,426.715 1397.37,424.711 1399.37,422.67 1401.37,420.512 1403.37,418.355 1405.37,416.197 1407.37,414.039 1409.37,411.881 1411.36,409.724 
  1413.36,407.566 1415.36,405.408 1417.36,403.251 1419.36,401.157 1421.36,399.073 1423.36,396.989 1425.36,394.905 1427.35,392.822 1429.35,390.738 1431.35,388.654 
  1433.35,386.57 1435.35,384.486 1437.35,382.434 1439.35,380.43 1441.35,378.427 1443.34,376.423 1445.34,374.42 1447.34,372.416 1449.34,370.413 1451.34,368.409 
  1453.34,366.405 1455.34,364.398 1457.33,362.24 1459.33,360.082 1461.33,357.925 1463.33,355.767 1465.33,353.609 1467.33,351.451 1469.33,349.294 1471.33,347.136 
  1473.32,344.978 1475.32,342.821 1477.32,340.663 1479.32,338.505 1481.32,336.348 1483.32,334.19 1485.32,332.032 1487.32,329.874 1489.31,327.717 1491.31,325.559 
  1493.31,323.465 1495.31,321.534 1497.31,319.602 1499.31,317.671 1501.31,315.739 1503.31,313.808 1505.3,311.877 1507.3,309.945 1509.3,308.014 1511.3,306.082 
  1513.3,304.009 1515.3,301.903 1517.3,299.797 1519.29,297.69 1521.29,295.584 1523.29,293.478 1525.29,291.371 1527.29,289.265 1529.29,287.159 1531.29,285.052 
  1533.29,282.946 1535.28,280.84 1537.28,278.733 1539.28,276.627 1541.28,274.521 1543.28,272.414 1545.28,270.308 1547.28,268.202 1549.28,266.095 1551.27,263.989 
  1553.27,261.883 1555.27,259.776 1557.27,257.67 1559.27,255.564 1561.27,253.457 1563.27,251.351 1565.26,249.245 1567.26,247.138 1569.26,245.068 1571.26,243.013 
  1573.26,240.958 1575.26,238.903 1577.26,236.848 1579.26,234.793 1581.25,232.738 1583.25,230.683 1585.25,228.628 1587.25,226.59 1589.25,224.586 1591.25,222.582 
  1593.25,220.579 1595.25,218.575 1597.24,216.572 1599.24,214.568 1601.24,212.565 1603.24,210.561 1605.24,208.557 1607.24,206.574 1609.24,204.592 1611.24,202.609 
  1613.23,200.627 1615.23,198.645 1617.23,196.663 1619.23,194.68 1621.23,192.698 1623.23,190.716 1625.23,188.699 1627.22,186.644 1629.22,184.589 1631.22,182.534 
  1633.22,180.479 1635.22,178.424 1637.22,176.369 1639.22,174.314 1641.22,172.259 1643.21,170.204 1645.21,168.15 1647.21,166.095 1649.21,164.04 1651.21,161.985 
  1653.21,159.93 1655.21,157.875 1657.21,155.82 1659.2,153.765 1661.2,151.71 1663.2,149.58 1665.2,147.422 1667.2,145.264 1669.2,143.107 1671.2,140.949 
  1673.2,138.791 1675.19,136.634 1677.19,134.476 1679.19,132.318 1681.19,130.208 1683.19,128.183 1685.19,126.157 1687.19,124.132 1689.18,122.107 1691.18,120.081 
  1693.18,118.056 1695.18,116.031 1697.18,114.005 1699.18,112.094 1701.18,111.366 1703.18,110.639 1705.17,109.912 1707.17,109.185 1709.17,108.458 1711.17,107.731 
  1713.17,107.004 1715.17,106.277 1717.17,105.55 1719.17,105.459 1721.16,105.511 1723.16,105.563 1725.16,105.615 1727.16,105.667 1729.16,105.718 1731.16,105.77 
  1733.16,105.822 1735.16,105.874 1737.15,105.926 1739.15,105.977 1741.15,106.029 1743.15,106.08 1745.15,106.131 1747.15,106.183 1749.15,106.234 1751.14,106.285 
  1753.14,106.337 1755.14,106.361 1757.14,106.258 1759.14,106.154 1761.14,106.05 1763.14,105.946 1765.14,105.842 1767.13,105.738 1769.13,105.634 1771.13,105.531 
  1773.13,105.427 1775.13,105.509 1777.13,105.612 1779.13,105.714 1781.13,105.817 1783.12,105.92 1785.12,106.023 1787.12,106.125 1789.12,106.228 1791.12,106.331 
  1793.12,106.352 1795.12,106.3 1797.12,106.248 1799.11,106.196 1801.11,106.144 1803.11,106.092 1805.11,106.04 1807.11,105.988 1809.11,105.936 1811.11,105.911 
  1813.1,105.962 1815.1,106.014 1817.1,106.065 1819.1,106.117 1821.1,106.168 1823.1,106.219 1825.1,106.271 1827.1,106.322 1829.09,106.373 1831.09,106.333 
  1833.09,106.281 1835.09,106.23 1837.09,106.178 1839.09,106.126 1841.09,106.074 1843.09,106.022 1845.08,105.97 1847.08,105.918 1849.08,105.898 1851.08,105.898 
  1853.08,105.898 1855.08,105.898 1857.08,105.898 1859.08,105.898 1861.07,105.898 1863.07,105.898 1865.07,105.898 1867.07,105.898 1869.07,105.898 1871.07,105.898 
  1873.07,105.898 1875.06,105.898 1877.06,105.898 1879.06,105.898 1881.06,105.898 1883.06,105.898 1885.06,105.898 1887.06,105.898 1889.06,105.898 1891.05,105.898 
  1893.05,105.898 1895.05,105.898 1897.05,105.898 1899.05,105.898 1901.05,105.898 1903.05,105.898 1905.05,105.929 1907.04,105.98 1909.04,106.031 1911.04,106.083 
  1913.04,106.134 1915.04,106.185 1917.04,106.237 1919.04,106.288 1921.03,106.34 1923.03,106.379 1925.03,106.379 1927.03,106.379 1929.03,106.379 1931.03,106.379 
  1933.03,106.379 1935.03,106.379 1937.02,106.379 1939.02,106.379 1941.02,106.379 1943.02,106.424 1945.02,106.476 1947.02,106.528 1949.02,106.58 1951.02,106.631 
  1953.01,106.683 1955.01,106.735 1957.01,106.787 1959.01,106.839 1961.01,106.861 1963.01,106.861 1965.01,106.861 1967.01,106.861 1969,106.861 1971,106.861 
  1973,106.861 1975,106.861 1977,106.861 1979,106.861 1981,106.861 1982.99,106.861 1984.99,106.861 1986.99,106.861 1988.99,106.861 1990.99,106.861 
  1992.99,106.861 1994.99,106.861 1996.99,106.861 1998.98,118.616 2000.98,132.638 2002.98,146.659 2004.98,160.681 2006.98,174.703 2008.98,188.725 2010.98,202.746 
  2012.98,216.768 2014.97,230.79 2016.97,259.71 2018.97,300.009 2020.97,340.309 2022.97,380.608 2024.97,420.908 2026.97,461.207 2028.97,501.507 2030.96,541.806 
  2032.96,582.105 2034.96,619.635 2036.96,650.562 2038.96,681.489 2040.96,712.416 2042.96,743.343 2044.95,774.27 2046.95,805.197 2048.95,836.124 2050.95,867.051 
  2052.95,897.978 2054.95,918.138 2056.95,937.405 2058.95,956.672 2060.94,975.939 2062.94,995.205 2064.94,1014.47 2066.94,1033.74 2068.94,1053.01 2070.94,1072.27 
  2072.94,1086.87 2074.94,1098.97 2076.93,1111.07 2078.93,1123.17 2080.93,1135.27 2082.93,1147.37 2084.93,1159.47 2086.93,1171.57 2088.93,1183.67 2090.93,1193.98 
  2092.92,1201.38 2094.92,1208.79 2096.92,1216.19 2098.92,1223.59 2100.92,1231 2102.92,1238.4 2104.92,1245.8 2106.91,1253.2 2108.91,1260.07 2110.91,1264.9 
  2112.91,1269.73 2114.91,1274.56 2116.91,1279.39 2118.91,1284.22 2120.91,1289.04 2122.9,1293.87 2124.9,1298.7 2126.9,1303.53 2128.9,1306.59 2130.9,1309.53 
  2132.9,1312.47 2134.9,1315.41 2136.9,1318.35 2138.89,1321.29 2140.89,1324.23 2142.89,1327.17 2144.89,1330.11 2146.89,1332.35 2148.89,1334.37 2150.89,1336.4 
  2152.89,1338.43 2154.88,1340.45 2156.88,1342.48 2158.88,1344.5 2160.88,1346.53 2162.88,1348.55 2164.88,1350.22 2166.88,1351.54 2168.87,1352.85 2170.87,1354.16 
  2172.87,1355.47 2174.87,1356.79 2176.87,1358.1 2178.87,1359.41 2180.87,1360.72 2182.87,1361.83 2184.86,1362.5 2186.86,1363.18 2188.86,1363.85 2190.86,1364.53 
  2192.86,1365.2 2194.86,1365.88 2196.86,1366.55 2198.86,1367.23 2200.85,1367.9 2202.85,1368.42 2204.85,1368.95 2206.85,1369.47 2208.85,1370 2210.85,1370.52 
  2212.85,1371.05 2214.85,1371.57 2216.84,1372.1 2218.84,1372.62 2220.84,1372.91 2222.84,1373.17 2224.84,1373.43 2226.84,1373.69 2228.84,1373.95 2230.83,1374.21 
  2232.83,1374.47 2234.83,1374.73 2236.83,1374.99 2238.83,1375.25 2240.83,1375.51 2242.83,1375.78 2244.83,1376.04 2246.82,1376.3 2248.82,1376.56 2250.82,1376.83 
  2252.82,1377.09 2254.82,1377.35 2256.82,1377.57 2258.82,1377.72 2260.82,1377.88 2262.81,1378.04 2264.81,1378.2 2266.81,1378.35 2268.81,1378.51 2270.81,1378.67 
  2272.81,1378.83 2274.81,1378.98 2276.81,1379.14 2278.8,1379.3 2280.8,1379.45 2282.8,1379.61 2284.8,1379.76 2286.8,1379.92 2288.8,1380.07 2290.8,1380.23 
  2292.79,1380.39 
  "/>
<path clip-path="url(#clip060)" d="
M969.385 248.629 L1344.2 248.629 L1344.2 93.1086 L969.385 93.1086  Z
  " fill="#ffffff" fill-rule="evenodd" fill-opacity="1"/>
<polyline clip-path="url(#clip060)" style="stroke:#000000; stroke-linecap:butt; stroke-linejoin:round; stroke-width:4; stroke-opacity:1; fill:none" points="
  969.385,248.629 1344.2,248.629 1344.2,93.1086 969.385,93.1086 969.385,248.629 
  "/>
<polyline clip-path="url(#clip060)" style="stroke:#ff0000; stroke-linecap:butt; stroke-linejoin:round; stroke-width:4; stroke-opacity:1; fill:none" points="
  993.385,144.949 1137.38,144.949 
  "/>
<path clip-path="url(#clip060)" d="M1161.38 136.303 L1165.64 136.303 L1165.64 162.229 L1161.38 162.229 L1161.38 136.303 M1161.38 126.21 L1165.64 126.21 L1165.64 131.604 L1161.38 131.604 L1161.38 126.21 Z" fill="#000000" fill-rule="evenodd" fill-opacity="1" /><path clip-path="url(#clip060)" d="M1196.11 146.581 L1196.11 162.229 L1191.85 162.229 L1191.85 146.719 Q1191.85 143.039 1190.41 141.21 Q1188.98 139.382 1186.11 139.382 Q1182.66 139.382 1180.67 141.581 Q1178.68 143.78 1178.68 147.576 L1178.68 162.229 L1174.39 162.229 L1174.39 136.303 L1178.68 136.303 L1178.68 140.331 Q1180.2 137.993 1182.26 136.835 Q1184.35 135.678 1187.06 135.678 Q1191.52 135.678 1193.81 138.456 Q1196.11 141.21 1196.11 146.581 Z" fill="#000000" fill-rule="evenodd" fill-opacity="1" /><path clip-path="url(#clip060)" d="M1204.6 126.21 L1208.86 126.21 L1208.86 162.229 L1204.6 162.229 L1204.6 126.21 Z" fill="#000000" fill-rule="evenodd" fill-opacity="1" /><path clip-path="url(#clip060)" d="M1239.95 148.201 L1239.95 150.284 L1220.37 150.284 Q1220.64 154.682 1223 156.997 Q1225.39 159.289 1229.62 159.289 Q1232.08 159.289 1234.37 158.687 Q1236.69 158.085 1238.95 156.881 L1238.95 160.909 Q1236.66 161.881 1234.25 162.391 Q1231.85 162.9 1229.37 162.9 Q1223.17 162.9 1219.53 159.289 Q1215.92 155.678 1215.92 149.52 Q1215.92 143.155 1219.35 139.428 Q1222.8 135.678 1228.63 135.678 Q1233.86 135.678 1236.89 139.057 Q1239.95 142.414 1239.95 148.201 M1235.69 146.951 Q1235.64 143.456 1233.72 141.372 Q1231.82 139.289 1228.68 139.289 Q1225.11 139.289 1222.96 141.303 Q1220.83 143.317 1220.5 146.974 L1235.69 146.951 Z" fill="#000000" fill-rule="evenodd" fill-opacity="1" /><path clip-path="url(#clip060)" d="M1251.15 128.942 L1251.15 136.303 L1259.93 136.303 L1259.93 139.613 L1251.15 139.613 L1251.15 153.687 Q1251.15 156.858 1252.01 157.761 Q1252.89 158.664 1255.55 158.664 L1259.93 158.664 L1259.93 162.229 L1255.55 162.229 Q1250.62 162.229 1248.75 160.4 Q1246.87 158.548 1246.87 153.687 L1246.87 139.613 L1243.75 139.613 L1243.75 136.303 L1246.87 136.303 L1246.87 128.942 L1251.15 128.942 Z" fill="#000000" fill-rule="evenodd" fill-opacity="1" /><polyline clip-path="url(#clip060)" style="stroke:#0000ff; stroke-linecap:butt; stroke-linejoin:round; stroke-width:4; stroke-opacity:1; fill:none" points="
  993.385,196.789 1137.38,196.789 
  "/>
<path clip-path="url(#clip060)" d="M1173.28 191.129 Q1169.86 191.129 1167.87 193.814 Q1165.88 196.476 1165.88 201.129 Q1165.88 205.782 1167.84 208.467 Q1169.83 211.129 1173.28 211.129 Q1176.69 211.129 1178.68 208.444 Q1180.67 205.758 1180.67 201.129 Q1180.67 196.522 1178.68 193.837 Q1176.69 191.129 1173.28 191.129 M1173.28 187.518 Q1178.84 187.518 1182.01 191.129 Q1185.18 194.74 1185.18 201.129 Q1185.18 207.495 1182.01 211.129 Q1178.84 214.74 1173.28 214.74 Q1167.7 214.74 1164.53 211.129 Q1161.38 207.495 1161.38 201.129 Q1161.38 194.74 1164.53 191.129 Q1167.7 187.518 1173.28 187.518 Z" fill="#000000" fill-rule="evenodd" fill-opacity="1" /><path clip-path="url(#clip060)" d="M1191.8 203.837 L1191.8 188.143 L1196.06 188.143 L1196.06 203.675 Q1196.06 207.356 1197.5 209.208 Q1198.93 211.036 1201.8 211.036 Q1205.25 211.036 1207.24 208.837 Q1209.25 206.638 1209.25 202.842 L1209.25 188.143 L1213.51 188.143 L1213.51 214.069 L1209.25 214.069 L1209.25 210.087 Q1207.7 212.448 1205.64 213.606 Q1203.61 214.74 1200.9 214.74 Q1196.43 214.74 1194.12 211.962 Q1191.8 209.184 1191.8 203.837 M1202.52 187.518 L1202.52 187.518 Z" fill="#000000" fill-rule="evenodd" fill-opacity="1" /><path clip-path="url(#clip060)" d="M1226.5 180.782 L1226.5 188.143 L1235.27 188.143 L1235.27 191.453 L1226.5 191.453 L1226.5 205.527 Q1226.5 208.698 1227.36 209.601 Q1228.24 210.504 1230.9 210.504 L1235.27 210.504 L1235.27 214.069 L1230.9 214.069 Q1225.97 214.069 1224.09 212.24 Q1222.22 210.388 1222.22 205.527 L1222.22 191.453 L1219.09 191.453 L1219.09 188.143 L1222.22 188.143 L1222.22 180.782 L1226.5 180.782 Z" fill="#000000" fill-rule="evenodd" fill-opacity="1" /><path clip-path="url(#clip060)" d="M1240.87 178.05 L1245.13 178.05 L1245.13 214.069 L1240.87 214.069 L1240.87 178.05 Z" fill="#000000" fill-rule="evenodd" fill-opacity="1" /><path clip-path="url(#clip060)" d="M1276.22 200.041 L1276.22 202.124 L1256.64 202.124 Q1256.92 206.522 1259.28 208.837 Q1261.66 211.129 1265.9 211.129 Q1268.35 211.129 1270.64 210.527 Q1272.96 209.925 1275.23 208.721 L1275.23 212.749 Q1272.93 213.721 1270.53 214.231 Q1268.12 214.74 1265.64 214.74 Q1259.44 214.74 1255.81 211.129 Q1252.19 207.518 1252.19 201.36 Q1252.19 194.995 1255.62 191.268 Q1259.07 187.518 1264.9 187.518 Q1270.13 187.518 1273.17 190.897 Q1276.22 194.254 1276.22 200.041 M1271.96 198.791 Q1271.92 195.296 1270 193.212 Q1268.1 191.129 1264.95 191.129 Q1261.38 191.129 1259.23 193.143 Q1257.1 195.157 1256.78 198.814 L1271.96 198.791 Z" fill="#000000" fill-rule="evenodd" fill-opacity="1" /><path clip-path="url(#clip060)" d="M1287.43 180.782 L1287.43 188.143 L1296.2 188.143 L1296.2 191.453 L1287.43 191.453 L1287.43 205.527 Q1287.43 208.698 1288.28 209.601 Q1289.16 210.504 1291.82 210.504 L1296.2 210.504 L1296.2 214.069 L1291.82 214.069 Q1286.89 214.069 1285.02 212.24 Q1283.14 210.388 1283.14 205.527 L1283.14 191.453 L1280.02 191.453 L1280.02 188.143 L1283.14 188.143 L1283.14 180.782 L1287.43 180.782 Z" fill="#000000" fill-rule="evenodd" fill-opacity="1" /></svg>
