<?xml version="1.0" encoding="utf-8"?>
<svg xmlns="http://www.w3.org/2000/svg" xmlns:xlink="http://www.w3.org/1999/xlink" width="600" height="400" viewBox="0 0 2400 1600">
<defs>
  <clipPath id="clip020">
    <rect x="0" y="0" width="2400" height="1600"/>
  </clipPath>
</defs>
<path clip-path="url(#clip020)" d="
M0 1600 L2400 1600 L2400 0 L0 0  Z
  " fill="#ffffff" fill-rule="evenodd" fill-opacity="1"/>
<defs>
  <clipPath id="clip021">
    <rect x="480" y="0" width="1681" height="1600"/>
  </clipPath>
</defs>
<path clip-path="url(#clip020)" d="
M242.135 1423.18 L2352.76 1423.18 L2352.76 47.2441 L242.135 47.2441  Z
  " fill="#ffffff" fill-rule="evenodd" fill-opacity="1"/>
<defs>
  <clipPath id="clip022">
    <rect x="242" y="47" width="2112" height="1377"/>
  </clipPath>
</defs>
<polyline clip-path="url(#clip022)" style="stroke:#000000; stroke-linecap:butt; stroke-linejoin:round; stroke-width:2; stroke-opacity:0.1; fill:none" points="
  301.869,1423.18 301.869,47.2441 
  "/>
<polyline clip-path="url(#clip022)" style="stroke:#000000; stroke-linecap:butt; stroke-linejoin:round; stroke-width:2; stroke-opacity:0.1; fill:none" points="
  799.657,1423.18 799.657,47.2441 
  "/>
<polyline clip-path="url(#clip022)" style="stroke:#000000; stroke-linecap:butt; stroke-linejoin:round; stroke-width:2; stroke-opacity:0.1; fill:none" points="
  1297.45,1423.18 1297.45,47.2441 
  "/>
<polyline clip-path="url(#clip022)" style="stroke:#000000; stroke-linecap:butt; stroke-linejoin:round; stroke-width:2; stroke-opacity:0.1; fill:none" points="
  1795.23,1423.18 1795.23,47.2441 
  "/>
<polyline clip-path="url(#clip022)" style="stroke:#000000; stroke-linecap:butt; stroke-linejoin:round; stroke-width:2; stroke-opacity:0.1; fill:none" points="
  2293.02,1423.18 2293.02,47.2441 
  "/>
<polyline clip-path="url(#clip020)" style="stroke:#000000; stroke-linecap:butt; stroke-linejoin:round; stroke-width:4; stroke-opacity:1; fill:none" points="
  242.135,1423.18 2352.76,1423.18 
  "/>
<polyline clip-path="url(#clip020)" style="stroke:#000000; stroke-linecap:butt; stroke-linejoin:round; stroke-width:4; stroke-opacity:1; fill:none" points="
  301.869,1423.18 301.869,1404.28 
  "/>
<polyline clip-path="url(#clip020)" style="stroke:#000000; stroke-linecap:butt; stroke-linejoin:round; stroke-width:4; stroke-opacity:1; fill:none" points="
  799.657,1423.18 799.657,1404.28 
  "/>
<polyline clip-path="url(#clip020)" style="stroke:#000000; stroke-linecap:butt; stroke-linejoin:round; stroke-width:4; stroke-opacity:1; fill:none" points="
  1297.45,1423.18 1297.45,1404.28 
  "/>
<polyline clip-path="url(#clip020)" style="stroke:#000000; stroke-linecap:butt; stroke-linejoin:round; stroke-width:4; stroke-opacity:1; fill:none" points="
  1795.23,1423.18 1795.23,1404.28 
  "/>
<polyline clip-path="url(#clip020)" style="stroke:#000000; stroke-linecap:butt; stroke-linejoin:round; stroke-width:4; stroke-opacity:1; fill:none" points="
  2293.02,1423.18 2293.02,1404.28 
  "/>
<path clip-path="url(#clip020)" d="M279.254 1454.1 Q275.643 1454.1 273.814 1457.66 Q272.008 1461.2 272.008 1468.33 Q272.008 1475.44 273.814 1479.01 Q275.643 1482.55 279.254 1482.55 Q282.888 1482.55 284.693 1479.01 Q286.522 1475.44 286.522 1468.33 Q286.522 1461.2 284.693 1457.66 Q282.888 1454.1 279.254 1454.1 M279.254 1450.39 Q285.064 1450.39 288.119 1455 Q291.198 1459.58 291.198 1468.33 Q291.198 1477.06 288.119 1481.67 Q285.064 1486.25 279.254 1486.25 Q273.443 1486.25 270.365 1481.67 Q267.309 1477.06 267.309 1468.33 Q267.309 1459.58 270.365 1455 Q273.443 1450.39 279.254 1450.39 Z" fill="#000000" fill-rule="evenodd" fill-opacity="1" /><path clip-path="url(#clip020)" d="M299.416 1479.7 L304.3 1479.7 L304.3 1485.58 L299.416 1485.58 L299.416 1479.7 Z" fill="#000000" fill-rule="evenodd" fill-opacity="1" /><path clip-path="url(#clip020)" d="M324.485 1454.1 Q320.874 1454.1 319.045 1457.66 Q317.24 1461.2 317.24 1468.33 Q317.24 1475.44 319.045 1479.01 Q320.874 1482.55 324.485 1482.55 Q328.119 1482.55 329.925 1479.01 Q331.753 1475.44 331.753 1468.33 Q331.753 1461.2 329.925 1457.66 Q328.119 1454.1 324.485 1454.1 M324.485 1450.39 Q330.295 1450.39 333.351 1455 Q336.429 1459.58 336.429 1468.33 Q336.429 1477.06 333.351 1481.67 Q330.295 1486.25 324.485 1486.25 Q318.675 1486.25 315.596 1481.67 Q312.54 1477.06 312.54 1468.33 Q312.54 1459.58 315.596 1455 Q318.675 1450.39 324.485 1450.39 Z" fill="#000000" fill-rule="evenodd" fill-opacity="1" /><path clip-path="url(#clip020)" d="M771.394 1481.64 L787.713 1481.64 L787.713 1485.58 L765.769 1485.58 L765.769 1481.64 Q768.431 1478.89 773.014 1474.26 Q777.62 1469.61 778.801 1468.27 Q781.046 1465.74 781.926 1464.01 Q782.829 1462.25 782.829 1460.56 Q782.829 1457.8 780.884 1456.07 Q778.963 1454.33 775.861 1454.33 Q773.662 1454.33 771.208 1455.09 Q768.778 1455.86 766 1457.41 L766 1452.69 Q768.824 1451.55 771.278 1450.97 Q773.731 1450.39 775.768 1450.39 Q781.139 1450.39 784.333 1453.08 Q787.528 1455.77 787.528 1460.26 Q787.528 1462.39 786.718 1464.31 Q785.93 1466.2 783.824 1468.8 Q783.245 1469.47 780.143 1472.69 Q777.042 1475.88 771.394 1481.64 Z" fill="#000000" fill-rule="evenodd" fill-opacity="1" /><path clip-path="url(#clip020)" d="M797.528 1479.7 L802.412 1479.7 L802.412 1485.58 L797.528 1485.58 L797.528 1479.7 Z" fill="#000000" fill-rule="evenodd" fill-opacity="1" /><path clip-path="url(#clip020)" d="M812.643 1451.02 L831 1451.02 L831 1454.96 L816.926 1454.96 L816.926 1463.43 Q817.944 1463.08 818.963 1462.92 Q819.981 1462.73 821 1462.73 Q826.787 1462.73 830.166 1465.9 Q833.546 1469.08 833.546 1474.49 Q833.546 1480.07 830.074 1483.17 Q826.602 1486.25 820.282 1486.25 Q818.106 1486.25 815.838 1485.88 Q813.592 1485.51 811.185 1484.77 L811.185 1480.07 Q813.268 1481.2 815.491 1481.76 Q817.713 1482.32 820.19 1482.32 Q824.194 1482.32 826.532 1480.21 Q828.87 1478.1 828.87 1474.49 Q828.87 1470.88 826.532 1468.77 Q824.194 1466.67 820.19 1466.67 Q818.315 1466.67 816.44 1467.08 Q814.588 1467.5 812.643 1468.38 L812.643 1451.02 Z" fill="#000000" fill-rule="evenodd" fill-opacity="1" /><path clip-path="url(#clip020)" d="M1264.61 1451.02 L1282.97 1451.02 L1282.97 1454.96 L1268.89 1454.96 L1268.89 1463.43 Q1269.91 1463.08 1270.93 1462.92 Q1271.95 1462.73 1272.97 1462.73 Q1278.75 1462.73 1282.13 1465.9 Q1285.51 1469.08 1285.51 1474.49 Q1285.51 1480.07 1282.04 1483.17 Q1278.57 1486.25 1272.25 1486.25 Q1270.07 1486.25 1267.8 1485.88 Q1265.56 1485.51 1263.15 1484.77 L1263.15 1480.07 Q1265.23 1481.2 1267.46 1481.76 Q1269.68 1482.32 1272.16 1482.32 Q1276.16 1482.32 1278.5 1480.21 Q1280.84 1478.1 1280.84 1474.49 Q1280.84 1470.88 1278.5 1468.77 Q1276.16 1466.67 1272.16 1466.67 Q1270.28 1466.67 1268.41 1467.08 Q1266.55 1467.5 1264.61 1468.38 L1264.61 1451.02 Z" fill="#000000" fill-rule="evenodd" fill-opacity="1" /><path clip-path="url(#clip020)" d="M1294.73 1479.7 L1299.61 1479.7 L1299.61 1485.58 L1294.73 1485.58 L1294.73 1479.7 Z" fill="#000000" fill-rule="evenodd" fill-opacity="1" /><path clip-path="url(#clip020)" d="M1319.79 1454.1 Q1316.18 1454.1 1314.35 1457.66 Q1312.55 1461.2 1312.55 1468.33 Q1312.55 1475.44 1314.35 1479.01 Q1316.18 1482.55 1319.79 1482.55 Q1323.43 1482.55 1325.23 1479.01 Q1327.06 1475.44 1327.06 1468.33 Q1327.06 1461.2 1325.23 1457.66 Q1323.43 1454.1 1319.79 1454.1 M1319.79 1450.39 Q1325.6 1450.39 1328.66 1455 Q1331.74 1459.58 1331.74 1468.33 Q1331.74 1477.06 1328.66 1481.67 Q1325.6 1486.25 1319.79 1486.25 Q1313.98 1486.25 1310.91 1481.67 Q1307.85 1477.06 1307.85 1468.33 Q1307.85 1459.58 1310.91 1455 Q1313.98 1450.39 1319.79 1450.39 Z" fill="#000000" fill-rule="evenodd" fill-opacity="1" /><path clip-path="url(#clip020)" d="M1761.55 1451.02 L1783.78 1451.02 L1783.78 1453.01 L1771.23 1485.58 L1766.34 1485.58 L1778.15 1454.96 L1761.55 1454.96 L1761.55 1451.02 Z" fill="#000000" fill-rule="evenodd" fill-opacity="1" /><path clip-path="url(#clip020)" d="M1792.9 1479.7 L1797.78 1479.7 L1797.78 1485.58 L1792.9 1485.58 L1792.9 1479.7 Z" fill="#000000" fill-rule="evenodd" fill-opacity="1" /><path clip-path="url(#clip020)" d="M1808.01 1451.02 L1826.37 1451.02 L1826.37 1454.96 L1812.29 1454.96 L1812.29 1463.43 Q1813.31 1463.08 1814.33 1462.92 Q1815.35 1462.73 1816.37 1462.73 Q1822.15 1462.73 1825.53 1465.9 Q1828.91 1469.08 1828.91 1474.49 Q1828.91 1480.07 1825.44 1483.17 Q1821.97 1486.25 1815.65 1486.25 Q1813.47 1486.25 1811.21 1485.88 Q1808.96 1485.51 1806.55 1484.77 L1806.55 1480.07 Q1808.64 1481.2 1810.86 1481.76 Q1813.08 1482.32 1815.56 1482.32 Q1819.56 1482.32 1821.9 1480.21 Q1824.24 1478.1 1824.24 1474.49 Q1824.24 1470.88 1821.9 1468.77 Q1819.56 1466.67 1815.56 1466.67 Q1813.68 1466.67 1811.81 1467.08 Q1809.96 1467.5 1808.01 1468.38 L1808.01 1451.02 Z" fill="#000000" fill-rule="evenodd" fill-opacity="1" /><path clip-path="url(#clip020)" d="M2245.09 1481.64 L2252.73 1481.64 L2252.73 1455.28 L2244.42 1456.95 L2244.42 1452.69 L2252.69 1451.02 L2257.36 1451.02 L2257.36 1481.64 L2265 1481.64 L2265 1485.58 L2245.09 1485.58 L2245.09 1481.64 Z" fill="#000000" fill-rule="evenodd" fill-opacity="1" /><path clip-path="url(#clip020)" d="M2284.44 1454.1 Q2280.83 1454.1 2279.01 1457.66 Q2277.2 1461.2 2277.2 1468.33 Q2277.2 1475.44 2279.01 1479.01 Q2280.83 1482.55 2284.44 1482.55 Q2288.08 1482.55 2289.88 1479.01 Q2291.71 1475.44 2291.71 1468.33 Q2291.71 1461.2 2289.88 1457.66 Q2288.08 1454.1 2284.44 1454.1 M2284.44 1450.39 Q2290.26 1450.39 2293.31 1455 Q2296.39 1459.58 2296.39 1468.33 Q2296.39 1477.06 2293.31 1481.67 Q2290.26 1486.25 2284.44 1486.25 Q2278.63 1486.25 2275.56 1481.67 Q2272.5 1477.06 2272.5 1468.33 Q2272.5 1459.58 2275.56 1455 Q2278.63 1450.39 2284.44 1450.39 Z" fill="#000000" fill-rule="evenodd" fill-opacity="1" /><path clip-path="url(#clip020)" d="M2304.61 1479.7 L2309.49 1479.7 L2309.49 1485.58 L2304.61 1485.58 L2304.61 1479.7 Z" fill="#000000" fill-rule="evenodd" fill-opacity="1" /><path clip-path="url(#clip020)" d="M2329.68 1454.1 Q2326.07 1454.1 2324.24 1457.66 Q2322.43 1461.2 2322.43 1468.33 Q2322.43 1475.44 2324.24 1479.01 Q2326.07 1482.55 2329.68 1482.55 Q2333.31 1482.55 2335.12 1479.01 Q2336.94 1475.44 2336.94 1468.33 Q2336.94 1461.2 2335.12 1457.66 Q2333.31 1454.1 2329.68 1454.1 M2329.68 1450.39 Q2335.49 1450.39 2338.54 1455 Q2341.62 1459.58 2341.62 1468.33 Q2341.62 1477.06 2338.54 1481.67 Q2335.49 1486.25 2329.68 1486.25 Q2323.87 1486.25 2320.79 1481.67 Q2317.73 1477.06 2317.73 1468.33 Q2317.73 1459.58 2320.79 1455 Q2323.87 1450.39 2329.68 1450.39 Z" fill="#000000" fill-rule="evenodd" fill-opacity="1" /><path clip-path="url(#clip020)" d="M1097.78 1562.7 L1097.78 1581.6 L1091.9 1581.6 L1091.9 1532.4 L1097.78 1532.4 L1097.78 1537.81 Q1099.63 1534.62 1102.43 1533.1 Q1105.26 1531.54 1109.18 1531.54 Q1115.67 1531.54 1119.71 1536.69 Q1123.79 1541.85 1123.79 1550.25 Q1123.79 1558.65 1119.71 1563.81 Q1115.67 1568.97 1109.18 1568.97 Q1105.26 1568.97 1102.43 1567.44 Q1099.63 1565.88 1097.78 1562.7 M1117.71 1550.25 Q1117.71 1543.79 1115.04 1540.13 Q1112.39 1536.44 1107.75 1536.44 Q1103.1 1536.44 1100.43 1540.13 Q1097.78 1543.79 1097.78 1550.25 Q1097.78 1556.71 1100.43 1560.4 Q1103.1 1564.07 1107.75 1564.07 Q1112.39 1564.07 1115.04 1560.4 Q1117.71 1556.71 1117.71 1550.25 Z" fill="#000000" fill-rule="evenodd" fill-opacity="1" /><path clip-path="url(#clip020)" d="M1147.31 1536.5 Q1142.6 1536.5 1139.86 1540.19 Q1137.12 1543.85 1137.12 1550.25 Q1137.12 1556.65 1139.83 1560.34 Q1142.57 1564 1147.31 1564 Q1151.99 1564 1154.73 1560.31 Q1157.46 1556.62 1157.46 1550.25 Q1157.46 1543.92 1154.73 1540.23 Q1151.99 1536.5 1147.31 1536.5 M1147.31 1531.54 Q1154.95 1531.54 1159.31 1536.5 Q1163.67 1541.47 1163.67 1550.25 Q1163.67 1559 1159.31 1564 Q1154.95 1568.97 1147.31 1568.97 Q1139.64 1568.97 1135.28 1564 Q1130.95 1559 1130.95 1550.25 Q1130.95 1541.47 1135.28 1536.5 Q1139.64 1531.54 1147.31 1531.54 Z" fill="#000000" fill-rule="evenodd" fill-opacity="1" /><path clip-path="url(#clip020)" d="M1196.1 1533.45 L1196.1 1538.98 Q1193.62 1537.71 1190.95 1537.07 Q1188.27 1536.44 1185.41 1536.44 Q1181.05 1536.44 1178.85 1537.77 Q1176.69 1539.11 1176.69 1541.79 Q1176.69 1543.82 1178.25 1545 Q1179.81 1546.15 1184.52 1547.2 L1186.52 1547.64 Q1192.76 1548.98 1195.37 1551.43 Q1198.01 1553.85 1198.01 1558.21 Q1198.01 1563.17 1194.07 1566.07 Q1190.15 1568.97 1183.28 1568.97 Q1180.41 1568.97 1177.29 1568.39 Q1174.21 1567.85 1170.77 1566.74 L1170.77 1560.69 Q1174.01 1562.38 1177.17 1563.24 Q1180.32 1564.07 1183.4 1564.07 Q1187.54 1564.07 1189.77 1562.66 Q1192 1561.23 1192 1558.65 Q1192 1556.27 1190.37 1554.99 Q1188.78 1553.72 1183.34 1552.54 L1181.3 1552.07 Q1175.86 1550.92 1173.44 1548.56 Q1171.02 1546.18 1171.02 1542.04 Q1171.02 1537.01 1174.59 1534.27 Q1178.15 1531.54 1184.71 1531.54 Q1187.96 1531.54 1190.82 1532.01 Q1193.68 1532.49 1196.1 1533.45 Z" fill="#000000" fill-rule="evenodd" fill-opacity="1" /><path clip-path="url(#clip020)" d="M1207.34 1532.4 L1213.2 1532.4 L1213.2 1568.04 L1207.34 1568.04 L1207.34 1532.4 M1207.34 1518.52 L1213.2 1518.52 L1213.2 1525.93 L1207.34 1525.93 L1207.34 1518.52 Z" fill="#000000" fill-rule="evenodd" fill-opacity="1" /><path clip-path="url(#clip020)" d="M1231.24 1522.27 L1231.24 1532.4 L1243.3 1532.4 L1243.3 1536.95 L1231.24 1536.95 L1231.24 1556.3 Q1231.24 1560.66 1232.42 1561.9 Q1233.63 1563.14 1237.29 1563.14 L1243.3 1563.14 L1243.3 1568.04 L1237.29 1568.04 Q1230.51 1568.04 1227.93 1565.53 Q1225.35 1562.98 1225.35 1556.3 L1225.35 1536.95 L1221.06 1536.95 L1221.06 1532.4 L1225.35 1532.4 L1225.35 1522.27 L1231.24 1522.27 Z" fill="#000000" fill-rule="evenodd" fill-opacity="1" /><path clip-path="url(#clip020)" d="M1251.01 1532.4 L1256.86 1532.4 L1256.86 1568.04 L1251.01 1568.04 L1251.01 1532.4 M1251.01 1518.52 L1256.86 1518.52 L1256.86 1525.93 L1251.01 1525.93 L1251.01 1518.52 Z" fill="#000000" fill-rule="evenodd" fill-opacity="1" /><path clip-path="url(#clip020)" d="M1282.93 1536.5 Q1278.22 1536.5 1275.48 1540.19 Q1272.75 1543.85 1272.75 1550.25 Q1272.75 1556.65 1275.45 1560.34 Q1278.19 1564 1282.93 1564 Q1287.61 1564 1290.35 1560.31 Q1293.08 1556.62 1293.08 1550.25 Q1293.08 1543.92 1290.35 1540.23 Q1287.61 1536.5 1282.93 1536.5 M1282.93 1531.54 Q1290.57 1531.54 1294.93 1536.5 Q1299.29 1541.47 1299.29 1550.25 Q1299.29 1559 1294.93 1564 Q1290.57 1568.97 1282.93 1568.97 Q1275.26 1568.97 1270.9 1564 Q1266.57 1559 1266.57 1550.25 Q1266.57 1541.47 1270.9 1536.5 Q1275.26 1531.54 1282.93 1531.54 Z" fill="#000000" fill-rule="evenodd" fill-opacity="1" /><path clip-path="url(#clip020)" d="M1338.63 1546.53 L1338.63 1568.04 L1332.77 1568.04 L1332.77 1546.72 Q1332.77 1541.66 1330.8 1539.14 Q1328.83 1536.63 1324.88 1536.63 Q1320.14 1536.63 1317.4 1539.65 Q1314.66 1542.68 1314.66 1547.9 L1314.66 1568.04 L1308.78 1568.04 L1308.78 1532.4 L1314.66 1532.4 L1314.66 1537.93 Q1316.77 1534.72 1319.6 1533.13 Q1322.46 1531.54 1326.19 1531.54 Q1332.33 1531.54 1335.48 1535.36 Q1338.63 1539.14 1338.63 1546.53 Z" fill="#000000" fill-rule="evenodd" fill-opacity="1" /><path clip-path="url(#clip020)" d="M1371.03 1532.4 L1376.89 1532.4 L1376.89 1568.04 L1371.03 1568.04 L1371.03 1532.4 M1371.03 1518.52 L1376.89 1518.52 L1376.89 1525.93 L1371.03 1525.93 L1371.03 1518.52 Z" fill="#000000" fill-rule="evenodd" fill-opacity="1" /><path clip-path="url(#clip020)" d="M1418.78 1546.53 L1418.78 1568.04 L1412.92 1568.04 L1412.92 1546.72 Q1412.92 1541.66 1410.95 1539.14 Q1408.97 1536.63 1405.03 1536.63 Q1400.28 1536.63 1397.55 1539.65 Q1394.81 1542.68 1394.81 1547.9 L1394.81 1568.04 L1388.92 1568.04 L1388.92 1532.4 L1394.81 1532.4 L1394.81 1537.93 Q1396.91 1534.72 1399.74 1533.13 Q1402.61 1531.54 1406.33 1531.54 Q1412.47 1531.54 1415.62 1535.36 Q1418.78 1539.14 1418.78 1546.53 Z" fill="#000000" fill-rule="evenodd" fill-opacity="1" /><path clip-path="url(#clip020)" d="M1478.93 1539.24 Q1481.13 1535.29 1484.18 1533.41 Q1487.24 1531.54 1491.38 1531.54 Q1496.95 1531.54 1499.97 1535.45 Q1502.99 1539.33 1502.99 1546.53 L1502.99 1568.04 L1497.11 1568.04 L1497.11 1546.72 Q1497.11 1541.59 1495.29 1539.11 Q1493.48 1536.63 1489.75 1536.63 Q1485.2 1536.63 1482.56 1539.65 Q1479.92 1542.68 1479.92 1547.9 L1479.92 1568.04 L1474.03 1568.04 L1474.03 1546.72 Q1474.03 1541.56 1472.22 1539.11 Q1470.4 1536.63 1466.61 1536.63 Q1462.13 1536.63 1459.48 1539.68 Q1456.84 1542.71 1456.84 1547.9 L1456.84 1568.04 L1450.95 1568.04 L1450.95 1532.4 L1456.84 1532.4 L1456.84 1537.93 Q1458.85 1534.66 1461.65 1533.1 Q1464.45 1531.54 1468.3 1531.54 Q1472.18 1531.54 1474.89 1533.51 Q1477.63 1535.48 1478.93 1539.24 Z" fill="#000000" fill-rule="evenodd" fill-opacity="1" /><polyline clip-path="url(#clip022)" style="stroke:#000000; stroke-linecap:butt; stroke-linejoin:round; stroke-width:2; stroke-opacity:0.1; fill:none" points="
  242.135,1254.43 2352.76,1254.43 
  "/>
<polyline clip-path="url(#clip022)" style="stroke:#000000; stroke-linecap:butt; stroke-linejoin:round; stroke-width:2; stroke-opacity:0.1; fill:none" points="
  242.135,994.822 2352.76,994.822 
  "/>
<polyline clip-path="url(#clip022)" style="stroke:#000000; stroke-linecap:butt; stroke-linejoin:round; stroke-width:2; stroke-opacity:0.1; fill:none" points="
  242.135,735.212 2352.76,735.212 
  "/>
<polyline clip-path="url(#clip022)" style="stroke:#000000; stroke-linecap:butt; stroke-linejoin:round; stroke-width:2; stroke-opacity:0.1; fill:none" points="
  242.135,475.601 2352.76,475.601 
  "/>
<polyline clip-path="url(#clip022)" style="stroke:#000000; stroke-linecap:butt; stroke-linejoin:round; stroke-width:2; stroke-opacity:0.1; fill:none" points="
  242.135,215.991 2352.76,215.991 
  "/>
<polyline clip-path="url(#clip020)" style="stroke:#000000; stroke-linecap:butt; stroke-linejoin:round; stroke-width:4; stroke-opacity:1; fill:none" points="
  242.135,1423.18 242.135,47.2441 
  "/>
<polyline clip-path="url(#clip020)" style="stroke:#000000; stroke-linecap:butt; stroke-linejoin:round; stroke-width:4; stroke-opacity:1; fill:none" points="
  242.135,1254.43 261.032,1254.43 
  "/>
<polyline clip-path="url(#clip020)" style="stroke:#000000; stroke-linecap:butt; stroke-linejoin:round; stroke-width:4; stroke-opacity:1; fill:none" points="
  242.135,994.822 261.032,994.822 
  "/>
<polyline clip-path="url(#clip020)" style="stroke:#000000; stroke-linecap:butt; stroke-linejoin:round; stroke-width:4; stroke-opacity:1; fill:none" points="
  242.135,735.212 261.032,735.212 
  "/>
<polyline clip-path="url(#clip020)" style="stroke:#000000; stroke-linecap:butt; stroke-linejoin:round; stroke-width:4; stroke-opacity:1; fill:none" points="
  242.135,475.601 261.032,475.601 
  "/>
<polyline clip-path="url(#clip020)" style="stroke:#000000; stroke-linecap:butt; stroke-linejoin:round; stroke-width:4; stroke-opacity:1; fill:none" points="
  242.135,215.991 261.032,215.991 
  "/>
<path clip-path="url(#clip020)" d="M114.26 1254.88 L143.936 1254.88 L143.936 1258.82 L114.26 1258.82 L114.26 1254.88 Z" fill="#000000" fill-rule="evenodd" fill-opacity="1" /><path clip-path="url(#clip020)" d="M166.876 1241.23 L155.07 1259.68 L166.876 1259.68 L166.876 1241.23 M165.649 1237.15 L171.528 1237.15 L171.528 1259.68 L176.459 1259.68 L176.459 1263.56 L171.528 1263.56 L171.528 1271.71 L166.876 1271.71 L166.876 1263.56 L151.274 1263.56 L151.274 1259.05 L165.649 1237.15 Z" fill="#000000" fill-rule="evenodd" fill-opacity="1" /><path clip-path="url(#clip020)" d="M194.19 1240.23 Q190.579 1240.23 188.75 1243.8 Q186.945 1247.34 186.945 1254.47 Q186.945 1261.57 188.75 1265.14 Q190.579 1268.68 194.19 1268.68 Q197.825 1268.68 199.63 1265.14 Q201.459 1261.57 201.459 1254.47 Q201.459 1247.34 199.63 1243.8 Q197.825 1240.23 194.19 1240.23 M194.19 1236.53 Q200 1236.53 203.056 1241.13 Q206.135 1245.72 206.135 1254.47 Q206.135 1263.19 203.056 1267.8 Q200 1272.38 194.19 1272.38 Q188.38 1272.38 185.301 1267.8 Q182.246 1263.19 182.246 1254.47 Q182.246 1245.72 185.301 1241.13 Q188.38 1236.53 194.19 1236.53 Z" fill="#000000" fill-rule="evenodd" fill-opacity="1" /><path clip-path="url(#clip020)" d="M114.26 995.274 L143.936 995.274 L143.936 999.209 L114.26 999.209 L114.26 995.274 Z" fill="#000000" fill-rule="evenodd" fill-opacity="1" /><path clip-path="url(#clip020)" d="M158.056 1008.17 L174.376 1008.17 L174.376 1012.1 L152.431 1012.1 L152.431 1008.17 Q155.093 1005.41 159.677 1000.78 Q164.283 996.13 165.464 994.788 Q167.709 992.265 168.589 990.529 Q169.491 988.769 169.491 987.079 Q169.491 984.325 167.547 982.589 Q165.626 980.853 162.524 980.853 Q160.325 980.853 157.871 981.617 Q155.44 982.38 152.663 983.931 L152.663 979.209 Q155.487 978.075 157.94 977.496 Q160.394 976.917 162.431 976.917 Q167.802 976.917 170.996 979.603 Q174.19 982.288 174.19 986.779 Q174.19 988.908 173.38 990.829 Q172.593 992.728 170.487 995.32 Q169.908 995.991 166.806 999.209 Q163.704 1002.4 158.056 1008.17 Z" fill="#000000" fill-rule="evenodd" fill-opacity="1" /><path clip-path="url(#clip020)" d="M194.19 980.621 Q190.579 980.621 188.75 984.186 Q186.945 987.728 186.945 994.857 Q186.945 1001.96 188.75 1005.53 Q190.579 1009.07 194.19 1009.07 Q197.825 1009.07 199.63 1005.53 Q201.459 1001.96 201.459 994.857 Q201.459 987.728 199.63 984.186 Q197.825 980.621 194.19 980.621 M194.19 976.917 Q200 976.917 203.056 981.524 Q206.135 986.107 206.135 994.857 Q206.135 1003.58 203.056 1008.19 Q200 1012.77 194.19 1012.77 Q188.38 1012.77 185.301 1008.19 Q182.246 1003.58 182.246 994.857 Q182.246 986.107 185.301 981.524 Q188.38 976.917 194.19 976.917 Z" fill="#000000" fill-rule="evenodd" fill-opacity="1" /><path clip-path="url(#clip020)" d="M194.19 721.011 Q190.579 721.011 188.75 724.575 Q186.945 728.117 186.945 735.247 Q186.945 742.353 188.75 745.918 Q190.579 749.46 194.19 749.46 Q197.825 749.46 199.63 745.918 Q201.459 742.353 201.459 735.247 Q201.459 728.117 199.63 724.575 Q197.825 721.011 194.19 721.011 M194.19 717.307 Q200 717.307 203.056 721.913 Q206.135 726.497 206.135 735.247 Q206.135 743.973 203.056 748.58 Q200 753.163 194.19 753.163 Q188.38 753.163 185.301 748.58 Q182.246 743.973 182.246 735.247 Q182.246 726.497 185.301 721.913 Q188.38 717.307 194.19 717.307 Z" fill="#000000" fill-rule="evenodd" fill-opacity="1" /><path clip-path="url(#clip020)" d="M158.056 488.946 L174.376 488.946 L174.376 492.881 L152.431 492.881 L152.431 488.946 Q155.093 486.192 159.677 481.562 Q164.283 476.909 165.464 475.567 Q167.709 473.044 168.589 471.307 Q169.491 469.548 169.491 467.858 Q169.491 465.104 167.547 463.368 Q165.626 461.632 162.524 461.632 Q160.325 461.632 157.871 462.396 Q155.44 463.159 152.663 464.71 L152.663 459.988 Q155.487 458.854 157.94 458.275 Q160.394 457.696 162.431 457.696 Q167.802 457.696 170.996 460.382 Q174.19 463.067 174.19 467.558 Q174.19 469.687 173.38 471.608 Q172.593 473.507 170.487 476.099 Q169.908 476.77 166.806 479.988 Q163.704 483.182 158.056 488.946 Z" fill="#000000" fill-rule="evenodd" fill-opacity="1" /><path clip-path="url(#clip020)" d="M194.19 461.4 Q190.579 461.4 188.75 464.965 Q186.945 468.507 186.945 475.636 Q186.945 482.743 188.75 486.307 Q190.579 489.849 194.19 489.849 Q197.825 489.849 199.63 486.307 Q201.459 482.743 201.459 475.636 Q201.459 468.507 199.63 464.965 Q197.825 461.4 194.19 461.4 M194.19 457.696 Q200 457.696 203.056 462.303 Q206.135 466.886 206.135 475.636 Q206.135 484.363 203.056 488.969 Q200 493.553 194.19 493.553 Q188.38 493.553 185.301 488.969 Q182.246 484.363 182.246 475.636 Q182.246 466.886 185.301 462.303 Q188.38 457.696 194.19 457.696 Z" fill="#000000" fill-rule="evenodd" fill-opacity="1" /><path clip-path="url(#clip020)" d="M166.876 202.785 L155.07 221.234 L166.876 221.234 L166.876 202.785 M165.649 198.711 L171.528 198.711 L171.528 221.234 L176.459 221.234 L176.459 225.123 L171.528 225.123 L171.528 233.271 L166.876 233.271 L166.876 225.123 L151.274 225.123 L151.274 220.609 L165.649 198.711 Z" fill="#000000" fill-rule="evenodd" fill-opacity="1" /><path clip-path="url(#clip020)" d="M194.19 201.79 Q190.579 201.79 188.75 205.354 Q186.945 208.896 186.945 216.026 Q186.945 223.132 188.75 226.697 Q190.579 230.239 194.19 230.239 Q197.825 230.239 199.63 226.697 Q201.459 223.132 201.459 216.026 Q201.459 208.896 199.63 205.354 Q197.825 201.79 194.19 201.79 M194.19 198.086 Q200 198.086 203.056 202.692 Q206.135 207.276 206.135 216.026 Q206.135 224.752 203.056 229.359 Q200 233.942 194.19 233.942 Q188.38 233.942 185.301 229.359 Q182.246 224.752 182.246 216.026 Q182.246 207.276 185.301 202.692 Q188.38 198.086 194.19 198.086 Z" fill="#000000" fill-rule="evenodd" fill-opacity="1" /><path clip-path="url(#clip020)" d="M22.818 843.111 L58.657 856.16 L58.657 830.029 L22.818 843.111 M64.0042 864.881 L16.4842 846.739 L16.4842 839.45 L64.0042 821.34 L64.0042 864.881 Z" fill="#000000" fill-rule="evenodd" fill-opacity="1" /><path clip-path="url(#clip020)" d="M16.4842 820.99 L16.4842 780.79 L21.895 780.79 L21.895 797.66 L64.0042 797.66 L64.0042 804.121 L21.895 804.121 L21.895 820.99 L16.4842 820.99 Z" fill="#000000" fill-rule="evenodd" fill-opacity="1" /><path clip-path="url(#clip020)" d="M28.3562 754.118 L28.3562 748.262 L64.0042 748.262 L64.0042 754.118 L28.3562 754.118 M14.479 754.118 L14.479 748.262 L21.895 748.262 L21.895 754.118 L14.479 754.118 Z" fill="#000000" fill-rule="evenodd" fill-opacity="1" /><path clip-path="url(#clip020)" d="M42.4881 706.375 L64.0042 706.375 L64.0042 712.232 L42.679 712.232 Q37.6183 712.232 35.1038 714.205 Q32.5894 716.179 32.5894 720.125 Q32.5894 724.868 35.6131 727.605 Q38.6368 730.342 43.8567 730.342 L64.0042 730.342 L64.0042 736.23 L28.3562 736.23 L28.3562 730.342 L33.8944 730.342 Q30.6797 728.242 29.0883 725.409 Q27.4968 722.544 27.4968 718.82 Q27.4968 712.677 31.3163 709.526 Q35.1038 706.375 42.4881 706.375 Z" fill="#000000" fill-rule="evenodd" fill-opacity="1" /><path clip-path="url(#clip020)" d="M19.7307 663.821 Q19.7307 666.367 21.5131 668.117 Q23.2636 669.868 25.8099 669.868 Q28.3244 669.868 30.0749 668.117 Q31.7937 666.367 31.7937 663.821 Q31.7937 661.274 30.0749 659.524 Q28.3244 657.773 25.8099 657.773 Q23.2955 657.773 21.5131 659.556 Q19.7307 661.306 19.7307 663.821 M15.6248 663.821 Q15.6248 661.784 16.4205 659.906 Q17.1844 658.028 18.6485 656.659 Q20.0808 655.195 21.895 654.463 Q23.7092 653.731 25.8099 653.731 Q30.0113 653.731 32.9395 656.691 Q35.8359 659.619 35.8359 663.884 Q35.8359 668.181 32.9713 671.046 Q30.1068 673.91 25.8099 673.91 Q21.5449 673.91 18.5848 670.982 Q15.6248 668.054 15.6248 663.821 Z" fill="#000000" fill-rule="evenodd" fill-opacity="1" /><path clip-path="url(#clip020)" d="M20.1444 605.543 L26.9239 605.543 Q23.9002 608.789 22.4043 612.481 Q20.9083 616.141 20.9083 620.279 Q20.9083 628.427 25.9054 632.756 Q30.8707 637.085 40.2919 637.085 Q49.6813 637.085 54.6784 632.756 Q59.6436 628.427 59.6436 620.279 Q59.6436 616.141 58.1477 612.481 Q56.6518 608.789 53.6281 605.543 L60.3439 605.543 Q62.6355 608.916 63.7814 612.704 Q64.9272 616.46 64.9272 620.661 Q64.9272 631.451 58.3387 637.658 Q51.7183 643.864 40.2919 643.864 Q28.8336 643.864 22.2451 637.658 Q15.6248 631.451 15.6248 620.661 Q15.6248 616.396 16.7706 612.64 Q17.8846 608.853 20.1444 605.543 Z" fill="#000000" fill-rule="evenodd" fill-opacity="1" /><polyline clip-path="url(#clip022)" style="stroke:#009af9; stroke-linecap:butt; stroke-linejoin:round; stroke-width:4; stroke-opacity:1; fill:none" points="
  301.869,86.1857 303.86,86.186 305.852,86.1863 307.843,86.1867 309.834,86.187 311.825,86.1873 313.816,86.1877 315.807,86.188 317.798,86.1884 319.79,86.1887 
  321.781,86.1891 323.772,86.1894 325.763,86.1898 327.754,86.1901 329.745,86.1905 331.737,86.1909 333.728,86.1913 335.719,86.1916 337.71,86.192 339.701,86.1924 
  341.692,86.1928 343.683,86.1932 345.675,86.1936 347.666,86.194 349.657,86.1944 351.648,86.1948 353.639,86.1952 355.63,86.1956 357.621,86.196 359.613,86.1964 
  361.604,86.1969 363.595,86.1973 365.586,86.1977 367.577,86.1982 369.568,86.1986 371.56,86.1991 373.551,86.1995 375.542,86.2 377.533,86.2004 379.524,86.2009 
  381.515,86.2013 383.506,86.2018 385.498,86.2023 387.489,86.2028 389.48,86.2033 391.471,86.2037 393.462,86.2042 395.453,86.2047 397.445,86.2052 399.436,86.2057 
  401.427,86.2063 403.418,86.2068 405.409,86.2073 407.4,86.2078 409.391,86.2084 411.383,86.2089 413.374,86.2094 415.365,86.21 417.356,86.2105 419.347,86.2111 
  421.338,86.2117 423.33,86.2122 425.321,86.2128 427.312,86.2134 429.303,86.214 431.294,86.2146 433.285,86.2152 435.276,86.2158 437.268,86.2164 439.259,86.217 
  441.25,86.2176 443.241,86.2182 445.232,86.2189 447.223,86.2195 449.214,86.2201 451.206,86.2208 453.197,86.2215 455.188,86.2221 457.179,86.2228 459.17,86.2235 
  461.161,86.2241 463.153,86.2248 465.144,86.2255 467.135,86.2262 469.126,86.2269 471.117,86.2277 473.108,86.2284 475.099,86.2291 477.091,86.2298 479.082,86.2306 
  481.073,86.2313 483.064,86.2321 485.055,86.2329 487.046,86.2336 489.038,86.2344 491.029,86.2352 493.02,86.236 495.011,86.2368 497.002,86.2376 498.993,86.2384 
  500.984,86.2392 502.976,86.2401 504.967,86.2409 506.958,86.2418 508.949,86.2426 510.94,86.2435 512.931,86.2444 514.923,86.2453 516.914,86.2462 518.905,86.2471 
  520.896,86.248 522.887,86.2489 524.878,86.2498 526.869,86.2508 528.861,86.2517 530.852,86.2527 532.843,86.2536 534.834,86.2546 536.825,86.2556 538.816,86.2566 
  540.807,86.2576 542.799,86.2586 544.79,86.2596 546.781,86.2606 548.772,86.2617 550.763,86.2627 552.754,86.2638 554.746,86.2649 556.737,86.266 558.728,86.2671 
  560.719,86.2682 562.71,86.2693 564.701,86.2704 566.692,86.2715 568.684,86.2727 570.675,86.2738 572.666,86.275 574.657,86.2762 576.648,86.2774 578.639,86.2786 
  580.631,86.2798 582.622,86.2811 584.613,86.2823 586.604,86.2835 588.595,86.2848 590.586,86.2861 592.577,86.2874 594.569,86.2887 596.56,86.29 598.551,86.2913 
  600.542,86.2927 602.533,86.294 604.524,86.2954 606.516,86.2968 608.507,86.2982 610.498,86.2996 612.489,86.301 614.48,86.3025 616.471,86.3039 618.462,86.3054 
  620.454,86.3069 622.445,86.3084 624.436,86.3099 626.427,86.3114 628.418,86.3129 630.409,86.3145 632.4,86.3161 634.392,86.3177 636.383,86.3193 638.374,86.3209 
  640.365,86.3225 642.356,86.3242 644.347,86.3258 646.339,86.3275 648.33,86.3292 650.321,86.3309 652.312,86.3327 654.303,86.3344 656.294,86.3362 658.285,86.338 
  660.277,86.3398 662.268,86.3416 664.259,86.3434 666.25,86.3453 668.241,86.3472 670.232,86.3491 672.224,86.351 674.215,86.3529 676.206,86.3548 678.197,86.3568 
  680.188,86.3588 682.179,86.3608 684.17,86.3628 686.162,86.3649 688.153,86.367 690.144,86.3691 692.135,86.3712 694.126,86.3733 696.117,86.3755 698.108,86.3776 
  700.1,86.3798 702.091,86.382 704.082,86.3843 706.073,86.3865 708.064,86.3888 710.055,86.3911 712.047,86.3935 714.038,86.3958 716.029,86.3982 718.02,86.4006 
  720.011,86.403 722.002,86.4055 723.993,86.4079 725.985,86.4104 727.976,86.413 729.967,86.4155 731.958,86.4181 733.949,86.4207 735.94,86.4233 737.932,86.4259 
  739.923,86.4286 741.914,86.4313 743.905,86.434 745.896,86.4368 747.887,86.4396 749.878,86.4424 751.87,86.4452 753.861,86.4481 755.852,86.451 757.843,86.4539 
  759.834,86.4569 761.825,86.4599 763.817,86.4629 765.808,86.4659 767.799,86.469 769.79,86.4721 771.781,86.4752 773.772,86.4784 775.763,86.4816 777.755,86.4848 
  779.746,86.4881 781.737,86.4914 783.728,86.4947 785.719,86.4981 787.71,86.5015 789.701,86.5049 791.693,86.5083 793.684,86.5118 795.675,86.5154 797.666,86.5189 
  799.657,86.5225 801.648,86.5262 803.64,86.5298 805.631,86.5336 807.622,86.5373 809.613,86.5411 811.604,86.5449 813.595,86.5488 815.586,86.5527 817.578,86.5566 
  819.569,86.5606 821.56,86.5646 823.551,86.5687 825.542,86.5728 827.533,86.5769 829.525,86.5811 831.516,86.5853 833.507,86.5896 835.498,86.5939 837.489,86.5982 
  839.48,86.6026 841.471,86.607 843.463,86.6115 845.454,86.616 847.445,86.6206 849.436,86.6252 851.427,86.6299 853.418,86.6346 855.41,86.6394 857.401,86.6442 
  859.392,86.649 861.383,86.6539 863.374,86.6589 865.365,86.6639 867.356,86.6689 869.348,86.674 871.339,86.6792 873.33,86.6844 875.321,86.6896 877.312,86.6949 
  879.303,86.7003 881.294,86.7057 883.286,86.7111 885.277,86.7167 887.268,86.7222 889.259,86.7279 891.25,86.7336 893.241,86.7393 895.233,86.7451 897.224,86.751 
  899.215,86.7569 901.206,86.7629 903.197,86.7689 905.188,86.775 907.179,86.7812 909.171,86.7874 911.162,86.7937 913.153,86.8 915.144,86.8064 917.135,86.8129 
  919.126,86.8194 921.118,86.826 923.109,86.8327 925.1,86.8394 927.091,86.8462 929.082,86.8531 931.073,86.86 933.064,86.8671 935.056,86.8741 937.047,86.8813 
  939.038,86.8885 941.029,86.8958 943.02,86.9032 945.011,86.9106 947.003,86.9181 948.994,86.9257 950.985,86.9334 952.976,86.9411 954.967,86.9489 956.958,86.9568 
  958.949,86.9648 960.941,86.9729 962.932,86.981 964.923,86.9892 966.914,86.9975 968.905,87.0059 970.896,87.0144 972.887,87.023 974.879,87.0316 976.87,87.0403 
  978.861,87.0491 980.852,87.058 982.843,87.067 984.834,87.0761 986.826,87.0853 988.817,87.0946 990.808,87.1039 992.799,87.1134 994.79,87.1229 996.781,87.1326 
  998.772,87.1423 1000.76,87.1521 1002.75,87.1621 1004.75,87.1721 1006.74,87.1822 1008.73,87.1925 1010.72,87.2028 1012.71,87.2132 1014.7,87.2238 1016.69,87.2344 
  1018.68,87.2452 1020.68,87.2561 1022.67,87.2671 1024.66,87.2781 1026.65,87.2893 1028.64,87.3006 1030.63,87.3121 1032.62,87.3236 1034.61,87.3353 1036.6,87.347 
  1038.6,87.3589 1040.59,87.3709 1042.58,87.3831 1044.57,87.3953 1046.56,87.4077 1048.55,87.4202 1050.54,87.4328 1052.53,87.4455 1054.52,87.4584 1056.52,87.4714 
  1058.51,87.4846 1060.5,87.4978 1062.49,87.5112 1064.48,87.5248 1066.47,87.5384 1068.46,87.5522 1070.45,87.5662 1072.45,87.5803 1074.44,87.5945 1076.43,87.6089 
  1078.42,87.6234 1080.41,87.638 1082.4,87.6528 1084.39,87.6678 1086.38,87.6829 1088.37,87.6982 1090.37,87.7136 1092.36,87.7291 1094.35,87.7449 1096.34,87.7607 
  1098.33,87.7768 1100.32,87.793 1102.31,87.8093 1104.3,87.8259 1106.29,87.8425 1108.29,87.8594 1110.28,87.8764 1112.27,87.8936 1114.26,87.911 1116.25,87.9285 
  1118.24,87.9463 1120.23,87.9642 1122.22,87.9822 1124.22,88.0005 1126.21,88.0189 1128.2,88.0376 1130.19,88.0564 1132.18,88.0754 1134.17,88.0946 1136.16,88.114 
  1138.15,88.1335 1140.14,88.1533 1142.14,88.1733 1144.13,88.1935 1146.12,88.2139 1148.11,88.2344 1150.1,88.2552 1152.09,88.2762 1154.08,88.2974 1156.07,88.3189 
  1158.06,88.3405 1160.06,88.3624 1162.05,88.3844 1164.04,88.4067 1166.03,88.4292 1168.02,88.452 1170.01,88.475 1172,88.4982 1173.99,88.5216 1175.99,88.5453 
  1177.98,88.5692 1179.97,88.5933 1181.96,88.6177 1183.95,88.6424 1185.94,88.6672 1187.93,88.6924 1189.92,88.7178 1191.91,88.7434 1193.91,88.7693 1195.9,88.7955 
  1197.89,88.8219 1199.88,88.8486 1201.87,88.8755 1203.86,88.9028 1205.85,88.9303 1207.84,88.958 1209.83,88.9861 1211.83,89.0144 1213.82,89.043 1215.81,89.0719 
  1217.8,89.1011 1219.79,89.1306 1221.78,89.1604 1223.77,89.1905 1225.76,89.2209 1227.75,89.2516 1229.75,89.2826 1231.74,89.3139 1233.73,89.3455 1235.72,89.3775 
  1237.71,89.4097 1239.7,89.4423 1241.69,89.4752 1243.68,89.5085 1245.68,89.5421 1247.67,89.576 1249.66,89.6102 1251.65,89.6448 1253.64,89.6798 1255.63,89.7151 
  1257.62,89.7507 1259.61,89.7868 1261.6,89.8231 1263.6,89.8599 1265.59,89.897 1267.58,89.9345 1269.57,89.9723 1271.56,90.0106 1273.55,90.0492 1275.54,90.0882 
  1277.53,90.1276 1279.52,90.1674 1281.52,90.2076 1283.51,90.2482 1285.5,90.2892 1287.49,90.3306 1289.48,90.3725 1291.47,90.4147 1293.46,90.4574 1295.45,90.5005 
  1297.45,90.544 1299.44,90.588 1301.43,90.6324 1303.42,90.6773 1305.41,90.7226 1307.4,90.7684 1309.39,90.8146 1311.38,90.8613 1313.37,90.9085 1315.37,90.9561 
  1317.36,91.0043 1319.35,91.0529 1321.34,91.102 1323.33,91.1515 1325.32,91.2016 1327.31,91.2522 1329.3,91.3033 1331.29,91.3549 1333.29,91.407 1335.28,91.4597 
  1337.27,91.5129 1339.26,91.5666 1341.25,91.6208 1343.24,91.6756 1345.23,91.731 1347.22,91.7869 1349.22,91.8433 1351.21,91.9003 1353.2,91.9579 1355.19,92.0161 
  1357.18,92.0749 1359.17,92.1343 1361.16,92.1942 1363.15,92.2548 1365.14,92.3159 1367.14,92.3777 1369.13,92.4401 1371.12,92.5031 1373.11,92.5668 1375.1,92.6311 
  1377.09,92.696 1379.08,92.7616 1381.07,92.8279 1383.06,92.8948 1385.06,92.9624 1387.05,93.0307 1389.04,93.0996 1391.03,93.1693 1393.02,93.2396 1395.01,93.3107 
  1397,93.3824 1398.99,93.4549 1400.99,93.5282 1402.98,93.6021 1404.97,93.6768 1406.96,93.7523 1408.95,93.8285 1410.94,93.9054 1412.93,93.9832 1414.92,94.0617 
  1416.91,94.141 1418.91,94.2211 1420.9,94.3021 1422.89,94.3838 1424.88,94.4663 1426.87,94.5497 1428.86,94.6339 1430.85,94.719 1432.84,94.8049 1434.83,94.8917 
  1436.83,94.9794 1438.82,95.0679 1440.81,95.1573 1442.8,95.2476 1444.79,95.3389 1446.78,95.431 1448.77,95.5241 1450.76,95.6181 1452.76,95.713 1454.75,95.809 
  1456.74,95.9058 1458.73,96.0037 1460.72,96.1025 1462.71,96.2023 1464.7,96.3031 1466.69,96.405 1468.68,96.5078 1470.68,96.6117 1472.67,96.7166 1474.66,96.8226 
  1476.65,96.9297 1478.64,97.0378 1480.63,97.147 1482.62,97.2574 1484.61,97.3688 1486.6,97.4813 1488.6,97.595 1490.59,97.7098 1492.58,97.8258 1494.57,97.9429 
  1496.56,98.0612 1498.55,98.1807 1500.54,98.3014 1502.53,98.4233 1504.53,98.5465 1506.52,98.6708 1508.51,98.7965 1510.5,98.9234 1512.49,99.0515 1514.48,99.181 
  1516.47,99.3117 1518.46,99.4438 1520.45,99.5772 1522.45,99.7119 1524.44,99.848 1526.43,99.9854 1528.42,100.124 1530.41,100.264 1532.4,100.406 1534.39,100.549 
  1536.38,100.694 1538.37,100.84 1540.37,100.987 1542.36,101.136 1544.35,101.286 1546.34,101.438 1548.33,101.592 1550.32,101.747 1552.31,101.903 1554.3,102.061 
  1556.3,102.221 1558.29,102.382 1560.28,102.545 1562.27,102.71 1564.26,102.876 1566.25,103.044 1568.24,103.213 1570.23,103.385 1572.22,103.558 1574.22,103.732 
  1576.21,103.909 1578.2,104.087 1580.19,104.267 1582.18,104.449 1584.17,104.633 1586.16,104.818 1588.15,105.006 1590.14,105.195 1592.14,105.386 1594.13,105.579 
  1596.12,105.774 1598.11,105.971 1600.1,106.17 1602.09,106.371 1604.08,106.574 1606.07,106.779 1608.07,106.986 1610.06,107.196 1612.05,107.407 1614.04,107.62 
  1616.03,107.836 1618.02,108.054 1620.01,108.273 1622,108.496 1623.99,108.72 1625.99,108.946 1627.98,109.175 1629.97,109.407 1631.96,109.64 1633.95,109.876 
  1635.94,110.114 1637.93,110.355 1639.92,110.598 1641.91,110.843 1643.91,111.091 1645.9,111.342 1647.89,111.595 1649.88,111.85 1651.87,112.108 1653.86,112.369 
  1655.85,112.632 1657.84,112.898 1659.83,113.166 1661.83,113.438 1663.82,113.712 1665.81,113.989 1667.8,114.268 1669.79,114.55 1671.78,114.836 1673.77,115.124 
  1675.76,115.415 1677.76,115.709 1679.75,116.005 1681.74,116.305 1683.73,116.608 1685.72,116.914 1687.71,117.223 1689.7,117.535 1691.69,117.85 1693.68,118.168 
  1695.68,118.49 1697.67,118.815 1699.66,119.143 1701.65,119.474 1703.64,119.809 1705.63,120.147 1707.62,120.488 1709.61,120.833 1711.6,121.181 1713.6,121.533 
  1715.59,121.889 1717.58,122.248 1719.57,122.61 1721.56,122.976 1723.55,123.346 1725.54,123.72 1727.53,124.097 1729.53,124.478 1731.52,124.863 1733.51,125.252 
  1735.5,125.645 1737.49,126.041 1739.48,126.442 1741.47,126.847 1743.46,127.256 1745.45,127.668 1747.45,128.085 1749.44,128.507 1751.43,128.932 1753.42,129.362 
  1755.41,129.796 1757.4,130.234 1759.39,130.677 1761.38,131.124 1763.37,131.576 1765.37,132.032 1767.36,132.493 1769.35,132.959 1771.34,133.429 1773.33,133.904 
  1775.32,134.384 1777.31,134.868 1779.3,135.357 1781.3,135.852 1783.29,136.351 1785.28,136.855 1787.27,137.365 1789.26,137.879 1791.25,138.399 1793.24,138.924 
  1795.23,139.454 1797.22,139.989 1799.22,140.53 1801.21,141.076 1803.2,141.628 1805.19,142.185 1807.18,142.748 1809.17,143.317 1811.16,143.891 1813.15,144.471 
  1815.14,145.057 1817.14,145.649 1819.13,146.246 1821.12,146.85 1823.11,147.46 1825.1,148.076 1827.09,148.698 1829.08,149.326 1831.07,149.961 1833.07,150.602 
  1835.06,151.25 1837.05,151.904 1839.04,152.564 1841.03,153.231 1843.02,153.905 1845.01,154.586 1847,155.273 1848.99,155.968 1850.99,156.669 1852.98,157.378 
  1854.97,158.093 1856.96,158.816 1858.95,159.546 1860.94,160.284 1862.93,161.028 1864.92,161.781 1866.91,162.54 1868.91,163.308 1870.9,164.083 1872.89,164.866 
  1874.88,165.657 1876.87,166.456 1878.86,167.263 1880.85,168.077 1882.84,168.901 1884.84,169.732 1886.83,170.572 1888.82,171.42 1890.81,172.277 1892.8,173.142 
  1894.79,174.016 1896.78,174.899 1898.77,175.79 1900.76,176.691 1902.76,177.601 1904.75,178.52 1906.74,179.448 1908.73,180.385 1910.72,181.332 1912.71,182.288 
  1914.7,183.254 1916.69,184.23 1918.68,185.215 1920.68,186.21 1922.67,187.216 1924.66,188.231 1926.65,189.257 1928.64,190.293 1930.63,191.339 1932.62,192.396 
  1934.61,193.464 1936.61,194.542 1938.6,195.631 1940.59,196.731 1942.58,197.842 1944.57,198.964 1946.56,200.098 1948.55,201.243 1950.54,202.399 1952.53,203.567 
  1954.53,204.747 1956.52,205.939 1958.51,207.142 1960.5,208.358 1962.49,209.586 1964.48,210.826 1966.47,212.079 1968.46,213.344 1970.45,214.622 1972.45,215.913 
  1974.44,217.217 1976.43,218.534 1978.42,219.864 1980.41,221.208 1982.4,222.565 1984.39,223.936 1986.38,225.32 1988.38,226.719 1990.37,228.131 1992.36,229.558 
  1994.35,230.999 1996.34,232.454 1998.33,233.924 2000.32,235.409 2002.31,236.909 2004.3,238.424 2006.3,239.954 2008.29,241.499 2010.28,243.06 2012.27,244.637 
  2014.26,246.229 2016.25,247.838 2018.24,249.463 2020.23,251.104 2022.22,252.761 2024.22,254.435 2026.21,256.126 2028.2,257.834 2030.19,259.56 2032.18,261.302 
  2034.17,263.062 2036.16,264.84 2038.15,266.635 2040.15,268.449 2042.14,270.281 2044.13,272.131 2046.12,274 2048.11,275.888 2050.1,277.794 2052.09,279.72 
  2054.08,281.665 2056.07,283.63 2058.07,285.614 2060.06,287.619 2062.05,289.643 2064.04,291.688 2066.03,293.753 2068.02,295.839 2070.01,297.947 2072,300.075 
  2073.99,302.225 2075.99,304.396 2077.98,306.589 2079.97,308.804 2081.96,311.041 2083.95,313.301 2085.94,315.584 2087.93,317.89 2089.92,320.218 2091.91,322.57 
  2093.91,324.946 2095.9,327.346 2097.89,329.77 2099.88,332.218 2101.87,334.69 2103.86,337.188 2105.85,339.711 2107.84,342.259 2109.84,344.832 2111.83,347.432 
  2113.82,350.057 2115.81,352.709 2117.8,355.388 2119.79,358.094 2121.78,360.826 2123.77,363.587 2125.76,366.375 2127.76,369.191 2129.75,372.035 2131.74,374.908 
  2133.73,377.81 2135.72,380.741 2137.71,383.701 2139.7,386.691 2141.69,389.711 2143.68,392.762 2145.68,395.843 2147.67,398.955 2149.66,402.099 2151.65,405.274 
  2153.64,408.481 2155.63,411.72 2157.62,414.991 2159.61,418.296 2161.61,421.634 2163.6,425.005 2165.59,428.41 2167.58,431.85 2169.57,435.324 2171.56,438.833 
  2173.55,442.377 2175.54,445.957 2177.53,449.573 2179.53,453.225 2181.52,456.914 2183.51,460.64 2185.5,464.403 2187.49,468.204 2189.48,472.044 2191.47,475.922 
  2193.46,479.839 2195.45,483.795 2197.45,487.791 2199.44,491.827 2201.43,495.904 2203.42,500.022 2205.41,504.181 2207.4,508.382 2209.39,512.625 2211.38,516.911 
  2213.38,521.24 2215.37,525.612 2217.36,530.029 2219.35,534.489 2221.34,538.995 2223.33,543.546 2225.32,548.142 2227.31,552.785 2229.3,557.475 2231.3,562.211 
  2233.29,566.995 2235.28,571.828 2237.27,576.708 2239.26,581.638 2241.25,586.618 2243.24,591.647 2245.23,596.727 2247.22,601.858 2249.22,607.041 2251.21,612.276 
  2253.2,617.563 2255.19,622.903 2257.18,628.297 2259.17,633.746 2261.16,639.249 2263.15,644.807 2265.15,650.422 2267.14,656.092 2269.13,661.82 2271.12,667.605 
  2273.11,673.449 2275.1,679.351 2277.09,685.312 2279.08,691.334 2281.07,697.415 2283.07,703.558 2285.06,709.763 2287.05,716.03 2289.04,722.36 2291.03,728.754 
  2293.02,735.212 
  "/>
<polyline clip-path="url(#clip022)" style="stroke:#e26f46; stroke-linecap:butt; stroke-linejoin:round; stroke-width:4; stroke-opacity:1; fill:none" points="
  301.869,735.212 303.86,735.212 305.852,735.213 307.843,735.213 309.834,735.213 311.825,735.214 313.816,735.214 315.807,735.214 317.798,735.215 319.79,735.215 
  321.781,735.215 323.772,735.216 325.763,735.216 327.754,735.216 329.745,735.217 331.737,735.217 333.728,735.218 335.719,735.218 337.71,735.218 339.701,735.219 
  341.692,735.219 343.683,735.219 345.675,735.22 347.666,735.22 349.657,735.221 351.648,735.221 353.639,735.221 355.63,735.222 357.621,735.222 359.613,735.223 
  361.604,735.223 363.595,735.224 365.586,735.224 367.577,735.224 369.568,735.225 371.56,735.225 373.551,735.226 375.542,735.226 377.533,735.227 379.524,735.227 
  381.515,735.228 383.506,735.228 385.498,735.229 387.489,735.229 389.48,735.23 391.471,735.23 393.462,735.231 395.453,735.231 397.445,735.232 399.436,735.232 
  401.427,735.233 403.418,735.233 405.409,735.234 407.4,735.234 409.391,735.235 411.383,735.235 413.374,735.236 415.365,735.236 417.356,735.237 419.347,735.237 
  421.338,735.238 423.33,735.239 425.321,735.239 427.312,735.24 429.303,735.24 431.294,735.241 433.285,735.241 435.276,735.242 437.268,735.243 439.259,735.243 
  441.25,735.244 443.241,735.245 445.232,735.245 447.223,735.246 449.214,735.246 451.206,735.247 453.197,735.248 455.188,735.248 457.179,735.249 459.17,735.25 
  461.161,735.25 463.153,735.251 465.144,735.252 467.135,735.253 469.126,735.253 471.117,735.254 473.108,735.255 475.099,735.255 477.091,735.256 479.082,735.257 
  481.073,735.258 483.064,735.258 485.055,735.259 487.046,735.26 489.038,735.261 491.029,735.261 493.02,735.262 495.011,735.263 497.002,735.264 498.993,735.265 
  500.984,735.266 502.976,735.266 504.967,735.267 506.958,735.268 508.949,735.269 510.94,735.27 512.931,735.271 514.923,735.272 516.914,735.272 518.905,735.273 
  520.896,735.274 522.887,735.275 524.878,735.276 526.869,735.277 528.861,735.278 530.852,735.279 532.843,735.28 534.834,735.281 536.825,735.282 538.816,735.283 
  540.807,735.284 542.799,735.285 544.79,735.286 546.781,735.287 548.772,735.288 550.763,735.289 552.754,735.29 554.746,735.291 556.737,735.292 558.728,735.293 
  560.719,735.294 562.71,735.296 564.701,735.297 566.692,735.298 568.684,735.299 570.675,735.3 572.666,735.301 574.657,735.302 576.648,735.304 578.639,735.305 
  580.631,735.306 582.622,735.307 584.613,735.309 586.604,735.31 588.595,735.311 590.586,735.312 592.577,735.314 594.569,735.315 596.56,735.316 598.551,735.318 
  600.542,735.319 602.533,735.32 604.524,735.322 606.516,735.323 608.507,735.324 610.498,735.326 612.489,735.327 614.48,735.329 616.471,735.33 618.462,735.332 
  620.454,735.333 622.445,735.335 624.436,735.336 626.427,735.338 628.418,735.339 630.409,735.341 632.4,735.342 634.392,735.344 636.383,735.346 638.374,735.347 
  640.365,735.349 642.356,735.35 644.347,735.352 646.339,735.354 648.33,735.356 650.321,735.357 652.312,735.359 654.303,735.361 656.294,735.362 658.285,735.364 
  660.277,735.366 662.268,735.368 664.259,735.37 666.25,735.372 668.241,735.373 670.232,735.375 672.224,735.377 674.215,735.379 676.206,735.381 678.197,735.383 
  680.188,735.385 682.179,735.387 684.17,735.389 686.162,735.391 688.153,735.393 690.144,735.395 692.135,735.397 694.126,735.4 696.117,735.402 698.108,735.404 
  700.1,735.406 702.091,735.408 704.082,735.411 706.073,735.413 708.064,735.415 710.055,735.417 712.047,735.42 714.038,735.422 716.029,735.424 718.02,735.427 
  720.011,735.429 722.002,735.432 723.993,735.434 725.985,735.437 727.976,735.439 729.967,735.442 731.958,735.444 733.949,735.447 735.94,735.45 737.932,735.452 
  739.923,735.455 741.914,735.458 743.905,735.46 745.896,735.463 747.887,735.466 749.878,735.469 751.87,735.472 753.861,735.474 755.852,735.477 757.843,735.48 
  759.834,735.483 761.825,735.486 763.817,735.489 765.808,735.492 767.799,735.495 769.79,735.498 771.781,735.502 773.772,735.505 775.763,735.508 777.755,735.511 
  779.746,735.514 781.737,735.518 783.728,735.521 785.719,735.524 787.71,735.528 789.701,735.531 791.693,735.535 793.684,735.538 795.675,735.542 797.666,735.545 
  799.657,735.549 801.648,735.552 803.64,735.556 805.631,735.56 807.622,735.564 809.613,735.567 811.604,735.571 813.595,735.575 815.586,735.579 817.578,735.583 
  819.569,735.587 821.56,735.591 823.551,735.595 825.542,735.599 827.533,735.603 829.525,735.607 831.516,735.612 833.507,735.616 835.498,735.62 837.489,735.625 
  839.48,735.629 841.471,735.633 843.463,735.638 845.454,735.642 847.445,735.647 849.436,735.652 851.427,735.656 853.418,735.661 855.41,735.666 857.401,735.67 
  859.392,735.675 861.383,735.68 863.374,735.685 865.365,735.69 867.356,735.695 869.348,735.7 871.339,735.705 873.33,735.711 875.321,735.716 877.312,735.721 
  879.303,735.727 881.294,735.732 883.286,735.737 885.277,735.743 887.268,735.749 889.259,735.754 891.25,735.76 893.241,735.766 895.233,735.771 897.224,735.777 
  899.215,735.783 901.206,735.789 903.197,735.795 905.188,735.801 907.179,735.807 909.171,735.814 911.162,735.82 913.153,735.826 915.144,735.833 917.135,735.839 
  919.126,735.846 921.118,735.852 923.109,735.859 925.1,735.866 927.091,735.873 929.082,735.879 931.073,735.886 933.064,735.893 935.056,735.9 937.047,735.908 
  939.038,735.915 941.029,735.922 943.02,735.929 945.011,735.937 947.003,735.944 948.994,735.952 950.985,735.96 952.976,735.967 954.967,735.975 956.958,735.983 
  958.949,735.991 960.941,735.999 962.932,736.007 964.923,736.016 966.914,736.024 968.905,736.032 970.896,736.041 972.887,736.049 974.879,736.058 976.87,736.067 
  978.861,736.075 980.852,736.084 982.843,736.093 984.834,736.102 986.826,736.112 988.817,736.121 990.808,736.13 992.799,736.14 994.79,736.149 996.781,736.159 
  998.772,736.169 1000.76,736.178 1002.75,736.188 1004.75,736.198 1006.74,736.209 1008.73,736.219 1010.72,736.229 1012.71,736.24 1014.7,736.25 1016.69,736.261 
  1018.68,736.272 1020.68,736.282 1022.67,736.293 1024.66,736.304 1026.65,736.316 1028.64,736.327 1030.63,736.338 1032.62,736.35 1034.61,736.362 1036.6,736.373 
  1038.6,736.385 1040.59,736.397 1042.58,736.409 1044.57,736.422 1046.56,736.434 1048.55,736.446 1050.54,736.459 1052.53,736.472 1054.52,736.485 1056.52,736.498 
  1058.51,736.511 1060.5,736.524 1062.49,736.538 1064.48,736.551 1066.47,736.565 1068.46,736.579 1070.45,736.592 1072.45,736.607 1074.44,736.621 1076.43,736.635 
  1078.42,736.65 1080.41,736.664 1082.4,736.679 1084.39,736.694 1086.38,736.709 1088.37,736.724 1090.37,736.74 1092.36,736.755 1094.35,736.771 1096.34,736.787 
  1098.33,736.803 1100.32,736.819 1102.31,736.836 1104.3,736.852 1106.29,736.869 1108.29,736.886 1110.28,736.903 1112.27,736.92 1114.26,736.937 1116.25,736.955 
  1118.24,736.973 1120.23,736.99 1122.22,737.009 1124.22,737.027 1126.21,737.045 1128.2,737.064 1130.19,737.083 1132.18,737.102 1134.17,737.121 1136.16,737.14 
  1138.15,737.16 1140.14,737.18 1142.14,737.2 1144.13,737.22 1146.12,737.24 1148.11,737.261 1150.1,737.282 1152.09,737.303 1154.08,737.324 1156.07,737.345 
  1158.06,737.367 1160.06,737.389 1162.05,737.411 1164.04,737.433 1166.03,737.456 1168.02,737.478 1170.01,737.501 1172,737.524 1173.99,737.548 1175.99,737.572 
  1177.98,737.595 1179.97,737.62 1181.96,737.644 1183.95,737.669 1185.94,737.694 1187.93,737.719 1189.92,737.744 1191.91,737.77 1193.91,737.796 1195.9,737.822 
  1197.89,737.848 1199.88,737.875 1201.87,737.902 1203.86,737.929 1205.85,737.957 1207.84,737.984 1209.83,738.012 1211.83,738.041 1213.82,738.069 1215.81,738.098 
  1217.8,738.127 1219.79,738.157 1221.78,738.187 1223.77,738.217 1225.76,738.247 1227.75,738.278 1229.75,738.309 1231.74,738.34 1233.73,738.372 1235.72,738.404 
  1237.71,738.436 1239.7,738.469 1241.69,738.502 1243.68,738.535 1245.68,738.568 1247.67,738.602 1249.66,738.637 1251.65,738.671 1253.64,738.706 1255.63,738.741 
  1257.62,738.777 1259.61,738.813 1261.6,738.849 1263.6,738.886 1265.59,738.923 1267.58,738.961 1269.57,738.999 1271.56,739.037 1273.55,739.075 1275.54,739.114 
  1277.53,739.154 1279.52,739.194 1281.52,739.234 1283.51,739.274 1285.5,739.315 1287.49,739.357 1289.48,739.399 1291.47,739.441 1293.46,739.484 1295.45,739.527 
  1297.45,739.57 1299.44,739.614 1301.43,739.659 1303.42,739.704 1305.41,739.749 1307.4,739.795 1309.39,739.841 1311.38,739.888 1313.37,739.935 1315.37,739.982 
  1317.36,740.031 1319.35,740.079 1321.34,740.128 1323.33,740.178 1325.32,740.228 1327.31,740.279 1329.3,740.33 1331.29,740.381 1333.29,740.433 1335.28,740.486 
  1337.27,740.539 1339.26,740.593 1341.25,740.647 1343.24,740.702 1345.23,740.757 1347.22,740.813 1349.22,740.87 1351.21,740.927 1353.2,740.984 1355.19,741.042 
  1357.18,741.101 1359.17,741.161 1361.16,741.221 1363.15,741.281 1365.14,741.342 1367.14,741.404 1369.13,741.466 1371.12,741.529 1373.11,741.593 1375.1,741.657 
  1377.09,741.722 1379.08,741.788 1381.07,741.854 1383.06,741.921 1385.06,741.989 1387.05,742.057 1389.04,742.126 1391.03,742.196 1393.02,742.266 1395.01,742.337 
  1397,742.409 1398.99,742.481 1400.99,742.554 1402.98,742.628 1404.97,742.703 1406.96,742.779 1408.95,742.855 1410.94,742.932 1412.93,743.009 1414.92,743.088 
  1416.91,743.167 1418.91,743.247 1420.9,743.328 1422.89,743.41 1424.88,743.493 1426.87,743.576 1428.86,743.66 1430.85,743.745 1432.84,743.831 1434.83,743.918 
  1436.83,744.006 1438.82,744.094 1440.81,744.184 1442.8,744.274 1444.79,744.365 1446.78,744.457 1448.77,744.55 1450.76,744.644 1452.76,744.739 1454.75,744.835 
  1456.74,744.932 1458.73,745.03 1460.72,745.129 1462.71,745.229 1464.7,745.329 1466.69,745.431 1468.68,745.534 1470.68,745.638 1472.67,745.743 1474.66,745.849 
  1476.65,745.956 1478.64,746.064 1480.63,746.173 1482.62,746.284 1484.61,746.395 1486.6,746.508 1488.6,746.621 1490.59,746.736 1492.58,746.852 1494.57,746.969 
  1496.56,747.088 1498.55,747.207 1500.54,747.328 1502.53,747.45 1504.53,747.573 1506.52,747.697 1508.51,747.823 1510.5,747.95 1512.49,748.078 1514.48,748.207 
  1516.47,748.338 1518.46,748.47 1520.45,748.603 1522.45,748.738 1524.44,748.874 1526.43,749.012 1528.42,749.151 1530.41,749.291 1532.4,749.432 1534.39,749.575 
  1536.38,749.72 1538.37,749.866 1540.37,750.013 1542.36,750.162 1544.35,750.313 1546.34,750.465 1548.33,750.618 1550.32,750.773 1552.31,750.929 1554.3,751.088 
  1556.3,751.247 1558.29,751.409 1560.28,751.571 1562.27,751.736 1564.26,751.902 1566.25,752.07 1568.24,752.24 1570.23,752.411 1572.22,752.584 1574.22,752.759 
  1576.21,752.935 1578.2,753.113 1580.19,753.293 1582.18,753.475 1584.17,753.659 1586.16,753.845 1588.15,754.032 1590.14,754.221 1592.14,754.412 1594.13,754.606 
  1596.12,754.801 1598.11,754.998 1600.1,755.197 1602.09,755.398 1604.08,755.601 1606.07,755.806 1608.07,756.013 1610.06,756.222 1612.05,756.433 1614.04,756.647 
  1616.03,756.862 1618.02,757.08 1620.01,757.3 1622,757.522 1623.99,757.746 1625.99,757.973 1627.98,758.202 1629.97,758.433 1631.96,758.666 1633.95,758.902 
  1635.94,759.14 1637.93,759.381 1639.92,759.624 1641.91,759.87 1643.91,760.117 1645.9,760.368 1647.89,760.621 1649.88,760.876 1651.87,761.134 1653.86,761.395 
  1655.85,761.658 1657.84,761.924 1659.83,762.193 1661.83,762.464 1663.82,762.738 1665.81,763.015 1667.8,763.294 1669.79,763.577 1671.78,763.862 1673.77,764.15 
  1675.76,764.441 1677.76,764.735 1679.75,765.032 1681.74,765.331 1683.73,765.634 1685.72,765.94 1687.71,766.249 1689.7,766.561 1691.69,766.876 1693.68,767.195 
  1695.68,767.516 1697.67,767.841 1699.66,768.169 1701.65,768.5 1703.64,768.835 1705.63,769.173 1707.62,769.515 1709.61,769.859 1711.6,770.208 1713.6,770.56 
  1715.59,770.915 1717.58,771.274 1719.57,771.636 1721.56,772.003 1723.55,772.372 1725.54,772.746 1727.53,773.123 1729.53,773.505 1731.52,773.889 1733.51,774.278 
  1735.5,774.671 1737.49,775.068 1739.48,775.468 1741.47,775.873 1743.46,776.282 1745.45,776.695 1747.45,777.112 1749.44,777.533 1751.43,777.958 1753.42,778.388 
  1755.41,778.822 1757.4,779.261 1759.39,779.703 1761.38,780.151 1763.37,780.602 1765.37,781.059 1767.36,781.52 1769.35,781.985 1771.34,782.455 1773.33,782.93 
  1775.32,783.41 1777.31,783.894 1779.3,784.384 1781.3,784.878 1783.29,785.377 1785.28,785.882 1787.27,786.391 1789.26,786.905 1791.25,787.425 1793.24,787.95 
  1795.23,788.48 1797.22,789.015 1799.22,789.556 1801.21,790.102 1803.2,790.654 1805.19,791.212 1807.18,791.774 1809.17,792.343 1811.16,792.917 1813.15,793.497 
  1815.14,794.083 1817.14,794.675 1819.13,795.273 1821.12,795.876 1823.11,796.486 1825.1,797.102 1827.09,797.724 1829.08,798.353 1831.07,798.987 1833.07,799.628 
  1835.06,800.276 1837.05,800.93 1839.04,801.59 1841.03,802.258 1843.02,802.932 1845.01,803.612 1847,804.3 1848.99,804.994 1850.99,805.696 1852.98,806.404 
  1854.97,807.12 1856.96,807.842 1858.95,808.572 1860.94,809.31 1862.93,810.055 1864.92,810.807 1866.91,811.567 1868.91,812.334 1870.9,813.109 1872.89,813.892 
  1874.88,814.683 1876.87,815.482 1878.86,816.289 1880.85,817.104 1882.84,817.927 1884.84,818.758 1886.83,819.598 1888.82,820.446 1890.81,821.303 1892.8,822.168 
  1894.79,823.042 1896.78,823.925 1898.77,824.817 1900.76,825.717 1902.76,826.627 1904.75,827.546 1906.74,828.474 1908.73,829.411 1910.72,830.358 1912.71,831.314 
  1914.7,832.28 1916.69,833.256 1918.68,834.241 1920.68,835.237 1922.67,836.242 1924.66,837.258 1926.65,838.283 1928.64,839.319 1930.63,840.366 1932.62,841.422 
  1934.61,842.49 1936.61,843.568 1938.6,844.657 1940.59,845.757 1942.58,846.868 1944.57,847.991 1946.56,849.124 1948.55,850.269 1950.54,851.426 1952.53,852.594 
  1954.53,853.773 1956.52,854.965 1958.51,856.169 1960.5,857.384 1962.49,858.612 1964.48,859.853 1966.47,861.105 1968.46,862.371 1970.45,863.649 1972.45,864.94 
  1974.44,866.243 1976.43,867.56 1978.42,868.891 1980.41,870.234 1982.4,871.591 1984.39,872.962 1986.38,874.346 1988.38,875.745 1990.37,877.157 1992.36,878.584 
  1994.35,880.025 1996.34,881.48 1998.33,882.95 2000.32,884.435 2002.31,885.935 2004.3,887.45 2006.3,888.98 2008.29,890.526 2010.28,892.087 2012.27,893.663 
  2014.26,895.256 2016.25,896.864 2018.24,898.489 2020.23,900.13 2022.22,901.788 2024.22,903.462 2026.21,905.153 2028.2,906.861 2030.19,908.586 2032.18,910.328 
  2034.17,912.088 2036.16,913.866 2038.15,915.662 2040.15,917.475 2042.14,919.307 2044.13,921.157 2046.12,923.026 2048.11,924.914 2050.1,926.821 2052.09,928.746 
  2054.08,930.691 2056.07,932.656 2058.07,934.64 2060.06,936.645 2062.05,938.669 2064.04,940.714 2066.03,942.78 2068.02,944.866 2070.01,946.973 2072,949.101 
  2073.99,951.251 2075.99,953.422 2077.98,955.615 2079.97,957.83 2081.96,960.068 2083.95,962.328 2085.94,964.61 2087.93,966.916 2089.92,969.245 2091.91,971.597 
  2093.91,973.972 2095.9,976.372 2097.89,978.796 2099.88,981.244 2101.87,983.717 2103.86,986.214 2105.85,988.737 2107.84,991.285 2109.84,993.859 2111.83,996.458 
  2113.82,999.084 2115.81,1001.74 2117.8,1004.41 2119.79,1007.12 2121.78,1009.85 2123.77,1012.61 2125.76,1015.4 2127.76,1018.22 2129.75,1021.06 2131.74,1023.93 
  2133.73,1026.84 2135.72,1029.77 2137.71,1032.73 2139.7,1035.72 2141.69,1038.74 2143.68,1041.79 2145.68,1044.87 2147.67,1047.98 2149.66,1051.12 2151.65,1054.3 
  2153.64,1057.51 2155.63,1060.75 2157.62,1064.02 2159.61,1067.32 2161.61,1070.66 2163.6,1074.03 2165.59,1077.44 2167.58,1080.88 2169.57,1084.35 2171.56,1087.86 
  2173.55,1091.4 2175.54,1094.98 2177.53,1098.6 2179.53,1102.25 2181.52,1105.94 2183.51,1109.67 2185.5,1113.43 2187.49,1117.23 2189.48,1121.07 2191.47,1124.95 
  2193.46,1128.86 2195.45,1132.82 2197.45,1136.82 2199.44,1140.85 2201.43,1144.93 2203.42,1149.05 2205.41,1153.21 2207.4,1157.41 2209.39,1161.65 2211.38,1165.94 
  2213.38,1170.27 2215.37,1174.64 2217.36,1179.05 2219.35,1183.52 2221.34,1188.02 2223.33,1192.57 2225.32,1197.17 2227.31,1201.81 2229.3,1206.5 2231.3,1211.24 
  2233.29,1216.02 2235.28,1220.85 2237.27,1225.73 2239.26,1230.66 2241.25,1235.64 2243.24,1240.67 2245.23,1245.75 2247.22,1250.88 2249.22,1256.07 2251.21,1261.3 
  2253.2,1266.59 2255.19,1271.93 2257.18,1277.32 2259.17,1282.77 2261.16,1288.28 2263.15,1293.83 2265.15,1299.45 2267.14,1305.12 2269.13,1310.85 2271.12,1316.63 
  2273.11,1322.47 2275.1,1328.38 2277.09,1334.34 2279.08,1340.36 2281.07,1346.44 2283.07,1352.58 2285.06,1358.79 2287.05,1365.06 2289.04,1371.39 2291.03,1377.78 
  2293.02,1384.24 
  "/>
<path clip-path="url(#clip020)" d="
M312.489 1377.32 L909.523 1377.32 L909.523 1221.8 L312.489 1221.8  Z
  " fill="#ffffff" fill-rule="evenodd" fill-opacity="1"/>
<polyline clip-path="url(#clip020)" style="stroke:#000000; stroke-linecap:butt; stroke-linejoin:round; stroke-width:4; stroke-opacity:1; fill:none" points="
  312.489,1377.32 909.523,1377.32 909.523,1221.8 312.489,1221.8 312.489,1377.32 
  "/>
<polyline clip-path="url(#clip020)" style="stroke:#009af9; stroke-linecap:butt; stroke-linejoin:round; stroke-width:4; stroke-opacity:1; fill:none" points="
  335.94,1273.64 476.648,1273.64 
  "/>
<path clip-path="url(#clip020)" d="M500.099 1256.36 L529.335 1256.36 L529.335 1260.29 L517.067 1260.29 L517.067 1290.92 L512.368 1290.92 L512.368 1260.29 L500.099 1260.29 L500.099 1256.36 Z" fill="#000000" fill-rule="evenodd" fill-opacity="1" /><path clip-path="url(#clip020)" d="M544.266 1265.98 L544.266 1269.97 Q542.46 1268.97 540.632 1268.48 Q538.826 1267.98 536.974 1267.98 Q532.831 1267.98 530.539 1270.61 Q528.247 1273.23 528.247 1277.98 Q528.247 1282.72 530.539 1285.36 Q532.831 1287.98 536.974 1287.98 Q538.826 1287.98 540.632 1287.49 Q542.46 1286.98 544.266 1285.98 L544.266 1289.92 Q542.484 1290.75 540.562 1291.17 Q538.664 1291.59 536.511 1291.59 Q530.655 1291.59 527.206 1287.91 Q523.757 1284.23 523.757 1277.98 Q523.757 1271.63 527.229 1268 Q530.724 1264.36 536.789 1264.36 Q538.757 1264.36 540.632 1264.78 Q542.507 1265.17 544.266 1265.98 Z" fill="#000000" fill-rule="evenodd" fill-opacity="1" /><path clip-path="url(#clip020)" d="M561.72 1267.98 Q558.294 1267.98 556.303 1270.66 Q554.312 1273.32 554.312 1277.98 Q554.312 1282.63 556.28 1285.31 Q558.27 1287.98 561.72 1287.98 Q565.122 1287.98 567.113 1285.29 Q569.104 1282.61 569.104 1277.98 Q569.104 1273.37 567.113 1270.68 Q565.122 1267.98 561.72 1267.98 M561.72 1264.36 Q567.275 1264.36 570.446 1267.98 Q573.618 1271.59 573.618 1277.98 Q573.618 1284.34 570.446 1287.98 Q567.275 1291.59 561.72 1291.59 Q556.141 1291.59 552.97 1287.98 Q549.821 1284.34 549.821 1277.98 Q549.821 1271.59 552.97 1267.98 Q556.141 1264.36 561.72 1264.36 Z" fill="#000000" fill-rule="evenodd" fill-opacity="1" /><path clip-path="url(#clip020)" d="M602.229 1275.27 L602.229 1290.92 L597.969 1290.92 L597.969 1275.41 Q597.969 1271.73 596.534 1269.9 Q595.099 1268.07 592.229 1268.07 Q588.78 1268.07 586.789 1270.27 Q584.798 1272.47 584.798 1276.26 L584.798 1290.92 L580.516 1290.92 L580.516 1264.99 L584.798 1264.99 L584.798 1269.02 Q586.326 1266.68 588.386 1265.52 Q590.469 1264.36 593.178 1264.36 Q597.645 1264.36 599.937 1267.14 Q602.229 1269.9 602.229 1275.27 Z" fill="#000000" fill-rule="evenodd" fill-opacity="1" /><path clip-path="url(#clip020)" d="M614.937 1257.63 L614.937 1264.99 L623.71 1264.99 L623.71 1268.3 L614.937 1268.3 L614.937 1282.37 Q614.937 1285.54 615.793 1286.45 Q616.673 1287.35 619.335 1287.35 L623.71 1287.35 L623.71 1290.92 L619.335 1290.92 Q614.404 1290.92 612.529 1289.09 Q610.654 1287.23 610.654 1282.37 L610.654 1268.3 L607.529 1268.3 L607.529 1264.99 L610.654 1264.99 L610.654 1257.63 L614.937 1257.63 Z" fill="#000000" fill-rule="evenodd" fill-opacity="1" /><path clip-path="url(#clip020)" d="M644.335 1268.97 Q643.617 1268.55 642.761 1268.37 Q641.927 1268.16 640.909 1268.16 Q637.298 1268.16 635.353 1270.52 Q633.432 1272.86 633.432 1277.26 L633.432 1290.92 L629.15 1290.92 L629.15 1264.99 L633.432 1264.99 L633.432 1269.02 Q634.775 1266.66 636.927 1265.52 Q639.08 1264.36 642.159 1264.36 Q642.599 1264.36 643.131 1264.43 Q643.664 1264.48 644.312 1264.6 L644.335 1268.97 Z" fill="#000000" fill-rule="evenodd" fill-opacity="1" /><path clip-path="url(#clip020)" d="M657.807 1267.98 Q654.381 1267.98 652.39 1270.66 Q650.4 1273.32 650.4 1277.98 Q650.4 1282.63 652.367 1285.31 Q654.358 1287.98 657.807 1287.98 Q661.21 1287.98 663.2 1285.29 Q665.191 1282.61 665.191 1277.98 Q665.191 1273.37 663.2 1270.68 Q661.21 1267.98 657.807 1267.98 M657.807 1264.36 Q663.362 1264.36 666.534 1267.98 Q669.705 1271.59 669.705 1277.98 Q669.705 1284.34 666.534 1287.98 Q663.362 1291.59 657.807 1291.59 Q652.228 1291.59 649.057 1287.98 Q645.909 1284.34 645.909 1277.98 Q645.909 1271.59 649.057 1267.98 Q652.228 1264.36 657.807 1264.36 Z" fill="#000000" fill-rule="evenodd" fill-opacity="1" /><path clip-path="url(#clip020)" d="M676.765 1254.9 L681.024 1254.9 L681.024 1290.92 L676.765 1290.92 L676.765 1254.9 Z" fill="#000000" fill-rule="evenodd" fill-opacity="1" /><path clip-path="url(#clip020)" d="M690.492 1269.39 L720.168 1269.39 L720.168 1273.28 L690.492 1273.28 L690.492 1269.39 M690.492 1278.83 L720.168 1278.83 L720.168 1282.77 L690.492 1282.77 L690.492 1278.83 Z" fill="#000000" fill-rule="evenodd" fill-opacity="1" /><path clip-path="url(#clip020)" d="M739.705 1267.98 Q736.279 1267.98 734.288 1270.66 Q732.297 1273.32 732.297 1277.98 Q732.297 1282.63 734.265 1285.31 Q736.256 1287.98 739.705 1287.98 Q743.107 1287.98 745.098 1285.29 Q747.089 1282.61 747.089 1277.98 Q747.089 1273.37 745.098 1270.68 Q743.107 1267.98 739.705 1267.98 M739.705 1264.36 Q745.26 1264.36 748.431 1267.98 Q751.603 1271.59 751.603 1277.98 Q751.603 1284.34 748.431 1287.98 Q745.26 1291.59 739.705 1291.59 Q734.126 1291.59 730.955 1287.98 Q727.807 1284.34 727.807 1277.98 Q727.807 1271.59 730.955 1267.98 Q734.126 1264.36 739.705 1264.36 Z" fill="#000000" fill-rule="evenodd" fill-opacity="1" /><path clip-path="url(#clip020)" d="M758.223 1280.68 L758.223 1264.99 L762.482 1264.99 L762.482 1280.52 Q762.482 1284.2 763.918 1286.05 Q765.353 1287.88 768.223 1287.88 Q771.672 1287.88 773.663 1285.68 Q775.677 1283.48 775.677 1279.69 L775.677 1264.99 L779.936 1264.99 L779.936 1290.92 L775.677 1290.92 L775.677 1286.93 Q774.126 1289.29 772.066 1290.45 Q770.029 1291.59 767.32 1291.59 Q762.853 1291.59 760.538 1288.81 Q758.223 1286.03 758.223 1280.68 M768.941 1264.36 L768.941 1264.36 Z" fill="#000000" fill-rule="evenodd" fill-opacity="1" /><path clip-path="url(#clip020)" d="M792.922 1257.63 L792.922 1264.99 L801.695 1264.99 L801.695 1268.3 L792.922 1268.3 L792.922 1282.37 Q792.922 1285.54 793.778 1286.45 Q794.658 1287.35 797.32 1287.35 L801.695 1287.35 L801.695 1290.92 L797.32 1290.92 Q792.39 1290.92 790.515 1289.09 Q788.64 1287.23 788.64 1282.37 L788.64 1268.3 L785.515 1268.3 L785.515 1264.99 L788.64 1264.99 L788.64 1257.63 L792.922 1257.63 Z" fill="#000000" fill-rule="evenodd" fill-opacity="1" /><path clip-path="url(#clip020)" d="M807.297 1254.9 L811.556 1254.9 L811.556 1290.92 L807.297 1290.92 L807.297 1254.9 Z" fill="#000000" fill-rule="evenodd" fill-opacity="1" /><path clip-path="url(#clip020)" d="M842.644 1276.89 L842.644 1278.97 L823.061 1278.97 Q823.338 1283.37 825.7 1285.68 Q828.084 1287.98 832.32 1287.98 Q834.774 1287.98 837.065 1287.37 Q839.38 1286.77 841.649 1285.57 L841.649 1289.6 Q839.357 1290.57 836.95 1291.08 Q834.542 1291.59 832.065 1291.59 Q825.862 1291.59 822.227 1287.98 Q818.616 1284.36 818.616 1278.21 Q818.616 1271.84 822.042 1268.11 Q825.491 1264.36 831.325 1264.36 Q836.556 1264.36 839.588 1267.74 Q842.644 1271.1 842.644 1276.89 M838.385 1275.64 Q838.338 1272.14 836.417 1270.06 Q834.519 1267.98 831.371 1267.98 Q827.806 1267.98 825.653 1269.99 Q823.524 1272 823.2 1275.66 L838.385 1275.64 Z" fill="#000000" fill-rule="evenodd" fill-opacity="1" /><path clip-path="url(#clip020)" d="M853.848 1257.63 L853.848 1264.99 L862.621 1264.99 L862.621 1268.3 L853.848 1268.3 L853.848 1282.37 Q853.848 1285.54 854.704 1286.45 Q855.584 1287.35 858.246 1287.35 L862.621 1287.35 L862.621 1290.92 L858.246 1290.92 Q853.315 1290.92 851.44 1289.09 Q849.565 1287.23 849.565 1282.37 L849.565 1268.3 L846.44 1268.3 L846.44 1264.99 L849.565 1264.99 L849.565 1257.63 L853.848 1257.63 Z" fill="#000000" fill-rule="evenodd" fill-opacity="1" /><polyline clip-path="url(#clip020)" style="stroke:#e26f46; stroke-linecap:butt; stroke-linejoin:round; stroke-width:4; stroke-opacity:1; fill:none" points="
  335.94,1325.48 476.648,1325.48 
  "/>
<path clip-path="url(#clip020)" d="M500.099 1308.2 L529.335 1308.2 L529.335 1312.13 L517.067 1312.13 L517.067 1342.76 L512.368 1342.76 L512.368 1312.13 L500.099 1312.13 L500.099 1308.2 Z" fill="#000000" fill-rule="evenodd" fill-opacity="1" /><path clip-path="url(#clip020)" d="M544.266 1317.82 L544.266 1321.81 Q542.46 1320.81 540.632 1320.32 Q538.826 1319.82 536.974 1319.82 Q532.831 1319.82 530.539 1322.45 Q528.247 1325.07 528.247 1329.82 Q528.247 1334.56 530.539 1337.2 Q532.831 1339.82 536.974 1339.82 Q538.826 1339.82 540.632 1339.33 Q542.46 1338.82 544.266 1337.82 L544.266 1341.76 Q542.484 1342.59 540.562 1343.01 Q538.664 1343.43 536.511 1343.43 Q530.655 1343.43 527.206 1339.75 Q523.757 1336.07 523.757 1329.82 Q523.757 1323.47 527.229 1319.84 Q530.724 1316.2 536.789 1316.2 Q538.757 1316.2 540.632 1316.62 Q542.507 1317.01 544.266 1317.82 Z" fill="#000000" fill-rule="evenodd" fill-opacity="1" /><path clip-path="url(#clip020)" d="M561.72 1319.82 Q558.294 1319.82 556.303 1322.5 Q554.312 1325.16 554.312 1329.82 Q554.312 1334.47 556.28 1337.15 Q558.27 1339.82 561.72 1339.82 Q565.122 1339.82 567.113 1337.13 Q569.104 1334.45 569.104 1329.82 Q569.104 1325.21 567.113 1322.52 Q565.122 1319.82 561.72 1319.82 M561.72 1316.2 Q567.275 1316.2 570.446 1319.82 Q573.618 1323.43 573.618 1329.82 Q573.618 1336.18 570.446 1339.82 Q567.275 1343.43 561.72 1343.43 Q556.141 1343.43 552.97 1339.82 Q549.821 1336.18 549.821 1329.82 Q549.821 1323.43 552.97 1319.82 Q556.141 1316.2 561.72 1316.2 Z" fill="#000000" fill-rule="evenodd" fill-opacity="1" /><path clip-path="url(#clip020)" d="M602.229 1327.11 L602.229 1342.76 L597.969 1342.76 L597.969 1327.25 Q597.969 1323.57 596.534 1321.74 Q595.099 1319.91 592.229 1319.91 Q588.78 1319.91 586.789 1322.11 Q584.798 1324.31 584.798 1328.1 L584.798 1342.76 L580.516 1342.76 L580.516 1316.83 L584.798 1316.83 L584.798 1320.86 Q586.326 1318.52 588.386 1317.36 Q590.469 1316.2 593.178 1316.2 Q597.645 1316.2 599.937 1318.98 Q602.229 1321.74 602.229 1327.11 Z" fill="#000000" fill-rule="evenodd" fill-opacity="1" /><path clip-path="url(#clip020)" d="M614.937 1309.47 L614.937 1316.83 L623.71 1316.83 L623.71 1320.14 L614.937 1320.14 L614.937 1334.21 Q614.937 1337.38 615.793 1338.29 Q616.673 1339.19 619.335 1339.19 L623.71 1339.19 L623.71 1342.76 L619.335 1342.76 Q614.404 1342.76 612.529 1340.93 Q610.654 1339.07 610.654 1334.21 L610.654 1320.14 L607.529 1320.14 L607.529 1316.83 L610.654 1316.83 L610.654 1309.47 L614.937 1309.47 Z" fill="#000000" fill-rule="evenodd" fill-opacity="1" /><path clip-path="url(#clip020)" d="M644.335 1320.81 Q643.617 1320.39 642.761 1320.21 Q641.927 1320 640.909 1320 Q637.298 1320 635.353 1322.36 Q633.432 1324.7 633.432 1329.1 L633.432 1342.76 L629.15 1342.76 L629.15 1316.83 L633.432 1316.83 L633.432 1320.86 Q634.775 1318.5 636.927 1317.36 Q639.08 1316.2 642.159 1316.2 Q642.599 1316.2 643.131 1316.27 Q643.664 1316.32 644.312 1316.44 L644.335 1320.81 Z" fill="#000000" fill-rule="evenodd" fill-opacity="1" /><path clip-path="url(#clip020)" d="M657.807 1319.82 Q654.381 1319.82 652.39 1322.5 Q650.4 1325.16 650.4 1329.82 Q650.4 1334.47 652.367 1337.15 Q654.358 1339.82 657.807 1339.82 Q661.21 1339.82 663.2 1337.13 Q665.191 1334.45 665.191 1329.82 Q665.191 1325.21 663.2 1322.52 Q661.21 1319.82 657.807 1319.82 M657.807 1316.2 Q663.362 1316.2 666.534 1319.82 Q669.705 1323.43 669.705 1329.82 Q669.705 1336.18 666.534 1339.82 Q663.362 1343.43 657.807 1343.43 Q652.228 1343.43 649.057 1339.82 Q645.909 1336.18 645.909 1329.82 Q645.909 1323.43 649.057 1319.82 Q652.228 1316.2 657.807 1316.2 Z" fill="#000000" fill-rule="evenodd" fill-opacity="1" /><path clip-path="url(#clip020)" d="M676.765 1306.74 L681.024 1306.74 L681.024 1342.76 L676.765 1342.76 L676.765 1306.74 Z" fill="#000000" fill-rule="evenodd" fill-opacity="1" /><path clip-path="url(#clip020)" d="M690.492 1321.23 L720.168 1321.23 L720.168 1325.12 L690.492 1325.12 L690.492 1321.23 M690.492 1330.67 L720.168 1330.67 L720.168 1334.61 L690.492 1334.61 L690.492 1330.67 Z" fill="#000000" fill-rule="evenodd" fill-opacity="1" /><path clip-path="url(#clip020)" d="M729.658 1316.83 L733.918 1316.83 L733.918 1342.76 L729.658 1342.76 L729.658 1316.83 M729.658 1306.74 L733.918 1306.74 L733.918 1312.13 L729.658 1312.13 L729.658 1306.74 Z" fill="#000000" fill-rule="evenodd" fill-opacity="1" /><path clip-path="url(#clip020)" d="M764.38 1327.11 L764.38 1342.76 L760.121 1342.76 L760.121 1327.25 Q760.121 1323.57 758.686 1321.74 Q757.251 1319.91 754.381 1319.91 Q750.931 1319.91 748.941 1322.11 Q746.95 1324.31 746.95 1328.1 L746.95 1342.76 L742.668 1342.76 L742.668 1316.83 L746.95 1316.83 L746.95 1320.86 Q748.478 1318.52 750.538 1317.36 Q752.621 1316.2 755.33 1316.2 Q759.797 1316.2 762.089 1318.98 Q764.38 1321.74 764.38 1327.11 Z" fill="#000000" fill-rule="evenodd" fill-opacity="1" /><path clip-path="url(#clip020)" d="M772.876 1306.74 L777.135 1306.74 L777.135 1342.76 L772.876 1342.76 L772.876 1306.74 Z" fill="#000000" fill-rule="evenodd" fill-opacity="1" /><path clip-path="url(#clip020)" d="M808.223 1328.73 L808.223 1330.81 L788.64 1330.81 Q788.917 1335.21 791.278 1337.52 Q793.663 1339.82 797.899 1339.82 Q800.353 1339.82 802.644 1339.21 Q804.959 1338.61 807.227 1337.41 L807.227 1341.44 Q804.936 1342.41 802.528 1342.92 Q800.121 1343.43 797.644 1343.43 Q791.441 1343.43 787.806 1339.82 Q784.195 1336.2 784.195 1330.05 Q784.195 1323.68 787.621 1319.95 Q791.07 1316.2 796.903 1316.2 Q802.135 1316.2 805.167 1319.58 Q808.223 1322.94 808.223 1328.73 M803.964 1327.48 Q803.917 1323.98 801.996 1321.9 Q800.098 1319.82 796.95 1319.82 Q793.385 1319.82 791.232 1321.83 Q789.103 1323.84 788.778 1327.5 L803.964 1327.48 Z" fill="#000000" fill-rule="evenodd" fill-opacity="1" /><path clip-path="url(#clip020)" d="M819.426 1309.47 L819.426 1316.83 L828.2 1316.83 L828.2 1320.14 L819.426 1320.14 L819.426 1334.21 Q819.426 1337.38 820.283 1338.29 Q821.163 1339.19 823.825 1339.19 L828.2 1339.19 L828.2 1342.76 L823.825 1342.76 Q818.894 1342.76 817.019 1340.93 Q815.144 1339.07 815.144 1334.21 L815.144 1320.14 L812.019 1320.14 L812.019 1316.83 L815.144 1316.83 L815.144 1309.47 L819.426 1309.47 Z" fill="#000000" fill-rule="evenodd" fill-opacity="1" /></svg>
