<?xml version="1.0" encoding="utf-8"?>
<svg xmlns="http://www.w3.org/2000/svg" xmlns:xlink="http://www.w3.org/1999/xlink" width="500" height="300" viewBox="0 0 2000 1200">
<defs>
  <clipPath id="clip370">
    <rect x="0" y="0" width="2000" height="1200"/>
  </clipPath>
</defs>
<path clip-path="url(#clip370)" d="
M0 1200 L2000 1200 L2000 0 L0 0  Z
  " fill="#ffffff" fill-rule="evenodd" fill-opacity="1"/>
<defs>
  <clipPath id="clip371">
    <rect x="400" y="0" width="1401" height="1200"/>
  </clipPath>
</defs>
<path clip-path="url(#clip370)" d="
M225.373 1035.39 L1952.76 1035.39 L1952.76 47.2441 L225.373 47.2441  Z
  " fill="#ffffff" fill-rule="evenodd" fill-opacity="1"/>
<defs>
  <clipPath id="clip372">
    <rect x="225" y="47" width="1728" height="989"/>
  </clipPath>
</defs>
<polyline clip-path="url(#clip372)" style="stroke:#000000; stroke-linecap:butt; stroke-linejoin:round; stroke-width:2; stroke-opacity:0.1; fill:none" points="
  274.262,1035.39 274.262,47.2441 
  "/>
<polyline clip-path="url(#clip372)" style="stroke:#000000; stroke-linecap:butt; stroke-linejoin:round; stroke-width:2; stroke-opacity:0.1; fill:none" points="
  477.962,1035.39 477.962,47.2441 
  "/>
<polyline clip-path="url(#clip372)" style="stroke:#000000; stroke-linecap:butt; stroke-linejoin:round; stroke-width:2; stroke-opacity:0.1; fill:none" points="
  681.663,1035.39 681.663,47.2441 
  "/>
<polyline clip-path="url(#clip372)" style="stroke:#000000; stroke-linecap:butt; stroke-linejoin:round; stroke-width:2; stroke-opacity:0.1; fill:none" points="
  885.364,1035.39 885.364,47.2441 
  "/>
<polyline clip-path="url(#clip372)" style="stroke:#000000; stroke-linecap:butt; stroke-linejoin:round; stroke-width:2; stroke-opacity:0.1; fill:none" points="
  1089.06,1035.39 1089.06,47.2441 
  "/>
<polyline clip-path="url(#clip372)" style="stroke:#000000; stroke-linecap:butt; stroke-linejoin:round; stroke-width:2; stroke-opacity:0.1; fill:none" points="
  1292.77,1035.39 1292.77,47.2441 
  "/>
<polyline clip-path="url(#clip372)" style="stroke:#000000; stroke-linecap:butt; stroke-linejoin:round; stroke-width:2; stroke-opacity:0.1; fill:none" points="
  1496.47,1035.39 1496.47,47.2441 
  "/>
<polyline clip-path="url(#clip372)" style="stroke:#000000; stroke-linecap:butt; stroke-linejoin:round; stroke-width:2; stroke-opacity:0.1; fill:none" points="
  1700.17,1035.39 1700.17,47.2441 
  "/>
<polyline clip-path="url(#clip372)" style="stroke:#000000; stroke-linecap:butt; stroke-linejoin:round; stroke-width:2; stroke-opacity:0.1; fill:none" points="
  1903.87,1035.39 1903.87,47.2441 
  "/>
<polyline clip-path="url(#clip370)" style="stroke:#000000; stroke-linecap:butt; stroke-linejoin:round; stroke-width:4; stroke-opacity:1; fill:none" points="
  225.373,1035.39 1952.76,1035.39 
  "/>
<polyline clip-path="url(#clip370)" style="stroke:#000000; stroke-linecap:butt; stroke-linejoin:round; stroke-width:4; stroke-opacity:1; fill:none" points="
  274.262,1035.39 274.262,1016.49 
  "/>
<polyline clip-path="url(#clip370)" style="stroke:#000000; stroke-linecap:butt; stroke-linejoin:round; stroke-width:4; stroke-opacity:1; fill:none" points="
  477.962,1035.39 477.962,1016.49 
  "/>
<polyline clip-path="url(#clip370)" style="stroke:#000000; stroke-linecap:butt; stroke-linejoin:round; stroke-width:4; stroke-opacity:1; fill:none" points="
  681.663,1035.39 681.663,1016.49 
  "/>
<polyline clip-path="url(#clip370)" style="stroke:#000000; stroke-linecap:butt; stroke-linejoin:round; stroke-width:4; stroke-opacity:1; fill:none" points="
  885.364,1035.39 885.364,1016.49 
  "/>
<polyline clip-path="url(#clip370)" style="stroke:#000000; stroke-linecap:butt; stroke-linejoin:round; stroke-width:4; stroke-opacity:1; fill:none" points="
  1089.06,1035.39 1089.06,1016.49 
  "/>
<polyline clip-path="url(#clip370)" style="stroke:#000000; stroke-linecap:butt; stroke-linejoin:round; stroke-width:4; stroke-opacity:1; fill:none" points="
  1292.77,1035.39 1292.77,1016.49 
  "/>
<polyline clip-path="url(#clip370)" style="stroke:#000000; stroke-linecap:butt; stroke-linejoin:round; stroke-width:4; stroke-opacity:1; fill:none" points="
  1496.47,1035.39 1496.47,1016.49 
  "/>
<polyline clip-path="url(#clip370)" style="stroke:#000000; stroke-linecap:butt; stroke-linejoin:round; stroke-width:4; stroke-opacity:1; fill:none" points="
  1700.17,1035.39 1700.17,1016.49 
  "/>
<polyline clip-path="url(#clip370)" style="stroke:#000000; stroke-linecap:butt; stroke-linejoin:round; stroke-width:4; stroke-opacity:1; fill:none" points="
  1903.87,1035.39 1903.87,1016.49 
  "/>
<path clip-path="url(#clip370)" d="M274.262 1063.11 Q270.651 1063.11 268.822 1066.67 Q267.016 1070.21 267.016 1077.34 Q267.016 1084.45 268.822 1088.01 Q270.651 1091.56 274.262 1091.56 Q277.896 1091.56 279.701 1088.01 Q281.53 1084.45 281.53 1077.34 Q281.53 1070.21 279.701 1066.67 Q277.896 1063.11 274.262 1063.11 M274.262 1059.4 Q280.072 1059.4 283.127 1064.01 Q286.206 1068.59 286.206 1077.34 Q286.206 1086.07 283.127 1090.68 Q280.072 1095.26 274.262 1095.26 Q268.451 1095.26 265.373 1090.68 Q262.317 1086.07 262.317 1077.34 Q262.317 1068.59 265.373 1064.01 Q268.451 1059.4 274.262 1059.4 Z" fill="#000000" fill-rule="evenodd" fill-opacity="1" /><path clip-path="url(#clip370)" d="M463.368 1075.44 Q460.219 1075.44 458.368 1077.6 Q456.539 1079.75 456.539 1083.5 Q456.539 1087.23 458.368 1089.4 Q460.219 1091.56 463.368 1091.56 Q466.516 1091.56 468.344 1089.4 Q470.196 1087.23 470.196 1083.5 Q470.196 1079.75 468.344 1077.6 Q466.516 1075.44 463.368 1075.44 M472.65 1060.79 L472.65 1065.05 Q470.891 1064.22 469.085 1063.78 Q467.303 1063.34 465.543 1063.34 Q460.914 1063.34 458.46 1066.46 Q456.03 1069.59 455.682 1075.91 Q457.048 1073.89 459.108 1072.83 Q461.169 1071.74 463.645 1071.74 Q468.854 1071.74 471.863 1074.91 Q474.895 1078.06 474.895 1083.5 Q474.895 1088.82 471.747 1092.04 Q468.599 1095.26 463.368 1095.26 Q457.372 1095.26 454.201 1090.68 Q451.03 1086.07 451.03 1077.34 Q451.03 1069.15 454.919 1064.29 Q458.807 1059.4 465.358 1059.4 Q467.118 1059.4 468.9 1059.75 Q470.705 1060.1 472.65 1060.79 Z" fill="#000000" fill-rule="evenodd" fill-opacity="1" /><path clip-path="url(#clip370)" d="M492.951 1063.11 Q489.34 1063.11 487.511 1066.67 Q485.705 1070.21 485.705 1077.34 Q485.705 1084.45 487.511 1088.01 Q489.34 1091.56 492.951 1091.56 Q496.585 1091.56 498.391 1088.01 Q500.219 1084.45 500.219 1077.34 Q500.219 1070.21 498.391 1066.67 Q496.585 1063.11 492.951 1063.11 M492.951 1059.4 Q498.761 1059.4 501.816 1064.01 Q504.895 1068.59 504.895 1077.34 Q504.895 1086.07 501.816 1090.68 Q498.761 1095.26 492.951 1095.26 Q487.141 1095.26 484.062 1090.68 Q481.006 1086.07 481.006 1077.34 Q481.006 1068.59 484.062 1064.01 Q487.141 1059.4 492.951 1059.4 Z" fill="#000000" fill-rule="evenodd" fill-opacity="1" /><path clip-path="url(#clip370)" d="M641.27 1090.65 L648.909 1090.65 L648.909 1064.29 L640.599 1065.95 L640.599 1061.69 L648.862 1060.03 L653.538 1060.03 L653.538 1090.65 L661.177 1090.65 L661.177 1094.59 L641.27 1094.59 L641.27 1090.65 Z" fill="#000000" fill-rule="evenodd" fill-opacity="1" /><path clip-path="url(#clip370)" d="M674.649 1090.65 L690.969 1090.65 L690.969 1094.59 L669.024 1094.59 L669.024 1090.65 Q671.686 1087.9 676.27 1083.27 Q680.876 1078.62 682.057 1077.27 Q684.302 1074.75 685.182 1073.01 Q686.084 1071.25 686.084 1069.56 Q686.084 1066.81 684.14 1065.07 Q682.219 1063.34 679.117 1063.34 Q676.918 1063.34 674.464 1064.1 Q672.034 1064.87 669.256 1066.42 L669.256 1061.69 Q672.08 1060.56 674.534 1059.98 Q676.987 1059.4 679.024 1059.4 Q684.395 1059.4 687.589 1062.09 Q690.783 1064.77 690.783 1069.26 Q690.783 1071.39 689.973 1073.31 Q689.186 1075.21 687.08 1077.81 Q686.501 1078.48 683.399 1081.69 Q680.297 1084.89 674.649 1090.65 Z" fill="#000000" fill-rule="evenodd" fill-opacity="1" /><path clip-path="url(#clip370)" d="M710.783 1063.11 Q707.172 1063.11 705.344 1066.67 Q703.538 1070.21 703.538 1077.34 Q703.538 1084.45 705.344 1088.01 Q707.172 1091.56 710.783 1091.56 Q714.418 1091.56 716.223 1088.01 Q718.052 1084.45 718.052 1077.34 Q718.052 1070.21 716.223 1066.67 Q714.418 1063.11 710.783 1063.11 M710.783 1059.4 Q716.594 1059.4 719.649 1064.01 Q722.728 1068.59 722.728 1077.34 Q722.728 1086.07 719.649 1090.68 Q716.594 1095.26 710.783 1095.26 Q704.973 1095.26 701.895 1090.68 Q698.839 1086.07 698.839 1077.34 Q698.839 1068.59 701.895 1064.01 Q704.973 1059.4 710.783 1059.4 Z" fill="#000000" fill-rule="evenodd" fill-opacity="1" /><path clip-path="url(#clip370)" d="M844.971 1090.65 L852.609 1090.65 L852.609 1064.29 L844.299 1065.95 L844.299 1061.69 L852.563 1060.03 L857.239 1060.03 L857.239 1090.65 L864.878 1090.65 L864.878 1094.59 L844.971 1094.59 L844.971 1090.65 Z" fill="#000000" fill-rule="evenodd" fill-opacity="1" /><path clip-path="url(#clip370)" d="M884.322 1078.18 Q880.989 1078.18 879.068 1079.96 Q877.17 1081.74 877.17 1084.87 Q877.17 1087.99 879.068 1089.77 Q880.989 1091.56 884.322 1091.56 Q887.656 1091.56 889.577 1089.77 Q891.498 1087.97 891.498 1084.87 Q891.498 1081.74 889.577 1079.96 Q887.679 1078.18 884.322 1078.18 M879.646 1076.19 Q876.637 1075.44 874.947 1073.38 Q873.281 1071.32 873.281 1068.36 Q873.281 1064.22 876.22 1061.81 Q879.183 1059.4 884.322 1059.4 Q889.484 1059.4 892.424 1061.81 Q895.364 1064.22 895.364 1068.36 Q895.364 1071.32 893.674 1073.38 Q892.007 1075.44 889.021 1076.19 Q892.401 1076.97 894.276 1079.26 Q896.174 1081.56 896.174 1084.87 Q896.174 1089.89 893.095 1092.57 Q890.04 1095.26 884.322 1095.26 Q878.605 1095.26 875.526 1092.57 Q872.47 1089.89 872.47 1084.87 Q872.47 1081.56 874.369 1079.26 Q876.267 1076.97 879.646 1076.19 M877.933 1068.8 Q877.933 1071.49 879.6 1072.99 Q881.29 1074.5 884.322 1074.5 Q887.331 1074.5 889.021 1072.99 Q890.734 1071.49 890.734 1068.8 Q890.734 1066.12 889.021 1064.61 Q887.331 1063.11 884.322 1063.11 Q881.29 1063.11 879.6 1064.61 Q877.933 1066.12 877.933 1068.8 Z" fill="#000000" fill-rule="evenodd" fill-opacity="1" /><path clip-path="url(#clip370)" d="M914.484 1063.11 Q910.873 1063.11 909.044 1066.67 Q907.239 1070.21 907.239 1077.34 Q907.239 1084.45 909.044 1088.01 Q910.873 1091.56 914.484 1091.56 Q918.118 1091.56 919.924 1088.01 Q921.753 1084.45 921.753 1077.34 Q921.753 1070.21 919.924 1066.67 Q918.118 1063.11 914.484 1063.11 M914.484 1059.4 Q920.294 1059.4 923.35 1064.01 Q926.429 1068.59 926.429 1077.34 Q926.429 1086.07 923.35 1090.68 Q920.294 1095.26 914.484 1095.26 Q908.674 1095.26 905.595 1090.68 Q902.54 1086.07 902.54 1077.34 Q902.54 1068.59 905.595 1064.01 Q908.674 1059.4 914.484 1059.4 Z" fill="#000000" fill-rule="evenodd" fill-opacity="1" /><path clip-path="url(#clip370)" d="M1052.76 1090.65 L1069.08 1090.65 L1069.08 1094.59 L1047.13 1094.59 L1047.13 1090.65 Q1049.79 1087.9 1054.38 1083.27 Q1058.98 1078.62 1060.16 1077.27 Q1062.41 1074.75 1063.29 1073.01 Q1064.19 1071.25 1064.19 1069.56 Q1064.19 1066.81 1062.25 1065.07 Q1060.33 1063.34 1057.22 1063.34 Q1055.03 1063.34 1052.57 1064.1 Q1050.14 1064.87 1047.36 1066.42 L1047.36 1061.69 Q1050.19 1060.56 1052.64 1059.98 Q1055.09 1059.4 1057.13 1059.4 Q1062.5 1059.4 1065.7 1062.09 Q1068.89 1064.77 1068.89 1069.26 Q1068.89 1071.39 1068.08 1073.31 Q1067.29 1075.21 1065.19 1077.81 Q1064.61 1078.48 1061.51 1081.69 Q1058.41 1084.89 1052.76 1090.65 Z" fill="#000000" fill-rule="evenodd" fill-opacity="1" /><path clip-path="url(#clip370)" d="M1091.74 1064.1 L1079.93 1082.55 L1091.74 1082.55 L1091.74 1064.1 M1090.51 1060.03 L1096.39 1060.03 L1096.39 1082.55 L1101.32 1082.55 L1101.32 1086.44 L1096.39 1086.44 L1096.39 1094.59 L1091.74 1094.59 L1091.74 1086.44 L1076.14 1086.44 L1076.14 1081.93 L1090.51 1060.03 Z" fill="#000000" fill-rule="evenodd" fill-opacity="1" /><path clip-path="url(#clip370)" d="M1119.05 1063.11 Q1115.44 1063.11 1113.61 1066.67 Q1111.81 1070.21 1111.81 1077.34 Q1111.81 1084.45 1113.61 1088.01 Q1115.44 1091.56 1119.05 1091.56 Q1122.69 1091.56 1124.49 1088.01 Q1126.32 1084.45 1126.32 1077.34 Q1126.32 1070.21 1124.49 1066.67 Q1122.69 1063.11 1119.05 1063.11 M1119.05 1059.4 Q1124.86 1059.4 1127.92 1064.01 Q1131 1068.59 1131 1077.34 Q1131 1086.07 1127.92 1090.68 Q1124.86 1095.26 1119.05 1095.26 Q1113.24 1095.26 1110.16 1090.68 Q1107.11 1086.07 1107.11 1077.34 Q1107.11 1068.59 1110.16 1064.01 Q1113.24 1059.4 1119.05 1059.4 Z" fill="#000000" fill-rule="evenodd" fill-opacity="1" /><path clip-path="url(#clip370)" d="M1266.53 1075.95 Q1269.88 1076.67 1271.76 1078.94 Q1273.66 1081.21 1273.66 1084.54 Q1273.66 1089.66 1270.14 1092.46 Q1266.62 1095.26 1260.14 1095.26 Q1257.96 1095.26 1255.65 1094.82 Q1253.36 1094.4 1250.9 1093.55 L1250.9 1089.03 Q1252.85 1090.17 1255.16 1090.75 Q1257.48 1091.32 1260 1091.32 Q1264.4 1091.32 1266.69 1089.59 Q1269 1087.85 1269 1084.54 Q1269 1081.49 1266.85 1079.77 Q1264.72 1078.04 1260.9 1078.04 L1256.87 1078.04 L1256.87 1074.19 L1261.09 1074.19 Q1264.54 1074.19 1266.37 1072.83 Q1268.19 1071.44 1268.19 1068.85 Q1268.19 1066.19 1266.3 1064.77 Q1264.42 1063.34 1260.9 1063.34 Q1258.98 1063.34 1256.78 1063.75 Q1254.58 1064.17 1251.94 1065.05 L1251.94 1060.88 Q1254.61 1060.14 1256.92 1059.77 Q1259.26 1059.4 1261.32 1059.4 Q1266.64 1059.4 1269.74 1061.83 Q1272.85 1064.24 1272.85 1068.36 Q1272.85 1071.23 1271.2 1073.22 Q1269.56 1075.19 1266.53 1075.95 Z" fill="#000000" fill-rule="evenodd" fill-opacity="1" /><path clip-path="url(#clip370)" d="M1292.52 1063.11 Q1288.91 1063.11 1287.08 1066.67 Q1285.28 1070.21 1285.28 1077.34 Q1285.28 1084.45 1287.08 1088.01 Q1288.91 1091.56 1292.52 1091.56 Q1296.16 1091.56 1297.96 1088.01 Q1299.79 1084.45 1299.79 1077.34 Q1299.79 1070.21 1297.96 1066.67 Q1296.16 1063.11 1292.52 1063.11 M1292.52 1059.4 Q1298.33 1059.4 1301.39 1064.01 Q1304.47 1068.59 1304.47 1077.34 Q1304.47 1086.07 1301.39 1090.68 Q1298.33 1095.26 1292.52 1095.26 Q1286.71 1095.26 1283.63 1090.68 Q1280.58 1086.07 1280.58 1077.34 Q1280.58 1068.59 1283.63 1064.01 Q1286.71 1059.4 1292.52 1059.4 Z" fill="#000000" fill-rule="evenodd" fill-opacity="1" /><path clip-path="url(#clip370)" d="M1322.68 1063.11 Q1319.07 1063.11 1317.24 1066.67 Q1315.44 1070.21 1315.44 1077.34 Q1315.44 1084.45 1317.24 1088.01 Q1319.07 1091.56 1322.68 1091.56 Q1326.32 1091.56 1328.12 1088.01 Q1329.95 1084.45 1329.95 1077.34 Q1329.95 1070.21 1328.12 1066.67 Q1326.32 1063.11 1322.68 1063.11 M1322.68 1059.4 Q1328.49 1059.4 1331.55 1064.01 Q1334.63 1068.59 1334.63 1077.34 Q1334.63 1086.07 1331.55 1090.68 Q1328.49 1095.26 1322.68 1095.26 Q1316.87 1095.26 1313.8 1090.68 Q1310.74 1086.07 1310.74 1077.34 Q1310.74 1068.59 1313.8 1064.01 Q1316.87 1059.4 1322.68 1059.4 Z" fill="#000000" fill-rule="evenodd" fill-opacity="1" /><path clip-path="url(#clip370)" d="M1470.23 1075.95 Q1473.58 1076.67 1475.46 1078.94 Q1477.36 1081.21 1477.36 1084.54 Q1477.36 1089.66 1473.84 1092.46 Q1470.32 1095.26 1463.84 1095.26 Q1461.66 1095.26 1459.35 1094.82 Q1457.06 1094.4 1454.6 1093.55 L1454.6 1089.03 Q1456.55 1090.17 1458.86 1090.75 Q1461.18 1091.32 1463.7 1091.32 Q1468.1 1091.32 1470.39 1089.59 Q1472.7 1087.85 1472.7 1084.54 Q1472.7 1081.49 1470.55 1079.77 Q1468.42 1078.04 1464.6 1078.04 L1460.58 1078.04 L1460.58 1074.19 L1464.79 1074.19 Q1468.24 1074.19 1470.07 1072.83 Q1471.89 1071.44 1471.89 1068.85 Q1471.89 1066.19 1470 1064.77 Q1468.12 1063.34 1464.6 1063.34 Q1462.68 1063.34 1460.48 1063.75 Q1458.28 1064.17 1455.64 1065.05 L1455.64 1060.88 Q1458.31 1060.14 1460.62 1059.77 Q1462.96 1059.4 1465.02 1059.4 Q1470.34 1059.4 1473.45 1061.83 Q1476.55 1064.24 1476.55 1068.36 Q1476.55 1071.23 1474.9 1073.22 Q1473.26 1075.19 1470.23 1075.95 Z" fill="#000000" fill-rule="evenodd" fill-opacity="1" /><path clip-path="url(#clip370)" d="M1496.8 1075.44 Q1493.65 1075.44 1491.8 1077.6 Q1489.97 1079.75 1489.97 1083.5 Q1489.97 1087.23 1491.8 1089.4 Q1493.65 1091.56 1496.8 1091.56 Q1499.95 1091.56 1501.78 1089.4 Q1503.63 1087.23 1503.63 1083.5 Q1503.63 1079.75 1501.78 1077.6 Q1499.95 1075.44 1496.8 1075.44 M1506.08 1060.79 L1506.08 1065.05 Q1504.32 1064.22 1502.52 1063.78 Q1500.74 1063.34 1498.98 1063.34 Q1494.35 1063.34 1491.89 1066.46 Q1489.46 1069.59 1489.12 1075.91 Q1490.48 1073.89 1492.54 1072.83 Q1494.6 1071.74 1497.08 1071.74 Q1502.29 1071.74 1505.3 1074.91 Q1508.33 1078.06 1508.33 1083.5 Q1508.33 1088.82 1505.18 1092.04 Q1502.03 1095.26 1496.8 1095.26 Q1490.81 1095.26 1487.64 1090.68 Q1484.46 1086.07 1484.46 1077.34 Q1484.46 1069.15 1488.35 1064.29 Q1492.24 1059.4 1498.79 1059.4 Q1500.55 1059.4 1502.33 1059.75 Q1504.14 1060.1 1506.08 1060.79 Z" fill="#000000" fill-rule="evenodd" fill-opacity="1" /><path clip-path="url(#clip370)" d="M1526.39 1063.11 Q1522.77 1063.11 1520.95 1066.67 Q1519.14 1070.21 1519.14 1077.34 Q1519.14 1084.45 1520.95 1088.01 Q1522.77 1091.56 1526.39 1091.56 Q1530.02 1091.56 1531.82 1088.01 Q1533.65 1084.45 1533.65 1077.34 Q1533.65 1070.21 1531.82 1066.67 Q1530.02 1063.11 1526.39 1063.11 M1526.39 1059.4 Q1532.2 1059.4 1535.25 1064.01 Q1538.33 1068.59 1538.33 1077.34 Q1538.33 1086.07 1535.25 1090.68 Q1532.2 1095.26 1526.39 1095.26 Q1520.57 1095.26 1517.5 1090.68 Q1514.44 1086.07 1514.44 1077.34 Q1514.44 1068.59 1517.5 1064.01 Q1520.57 1059.4 1526.39 1059.4 Z" fill="#000000" fill-rule="evenodd" fill-opacity="1" /><path clip-path="url(#clip370)" d="M1673.26 1064.1 L1661.45 1082.55 L1673.26 1082.55 L1673.26 1064.1 M1672.03 1060.03 L1677.91 1060.03 L1677.91 1082.55 L1682.84 1082.55 L1682.84 1086.44 L1677.91 1086.44 L1677.91 1094.59 L1673.26 1094.59 L1673.26 1086.44 L1657.66 1086.44 L1657.66 1081.93 L1672.03 1060.03 Z" fill="#000000" fill-rule="evenodd" fill-opacity="1" /><path clip-path="url(#clip370)" d="M1694.6 1090.65 L1710.92 1090.65 L1710.92 1094.59 L1688.97 1094.59 L1688.97 1090.65 Q1691.64 1087.9 1696.22 1083.27 Q1700.83 1078.62 1702.01 1077.27 Q1704.25 1074.75 1705.13 1073.01 Q1706.03 1071.25 1706.03 1069.56 Q1706.03 1066.81 1704.09 1065.07 Q1702.17 1063.34 1699.07 1063.34 Q1696.87 1063.34 1694.41 1064.1 Q1691.98 1064.87 1689.21 1066.42 L1689.21 1061.69 Q1692.03 1060.56 1694.48 1059.98 Q1696.94 1059.4 1698.97 1059.4 Q1704.35 1059.4 1707.54 1062.09 Q1710.73 1064.77 1710.73 1069.26 Q1710.73 1071.39 1709.92 1073.31 Q1709.14 1075.21 1707.03 1077.81 Q1706.45 1078.48 1703.35 1081.69 Q1700.25 1084.89 1694.6 1090.65 Z" fill="#000000" fill-rule="evenodd" fill-opacity="1" /><path clip-path="url(#clip370)" d="M1730.73 1063.11 Q1727.12 1063.11 1725.29 1066.67 Q1723.49 1070.21 1723.49 1077.34 Q1723.49 1084.45 1725.29 1088.01 Q1727.12 1091.56 1730.73 1091.56 Q1734.37 1091.56 1736.17 1088.01 Q1738 1084.45 1738 1077.34 Q1738 1070.21 1736.17 1066.67 Q1734.37 1063.11 1730.73 1063.11 M1730.73 1059.4 Q1736.54 1059.4 1739.6 1064.01 Q1742.68 1068.59 1742.68 1077.34 Q1742.68 1086.07 1739.6 1090.68 Q1736.54 1095.26 1730.73 1095.26 Q1724.92 1095.26 1721.85 1090.68 Q1718.79 1086.07 1718.79 1077.34 Q1718.79 1068.59 1721.85 1064.01 Q1724.92 1059.4 1730.73 1059.4 Z" fill="#000000" fill-rule="evenodd" fill-opacity="1" /><path clip-path="url(#clip370)" d="M1876.96 1064.1 L1865.15 1082.55 L1876.96 1082.55 L1876.96 1064.1 M1875.73 1060.03 L1881.61 1060.03 L1881.61 1082.55 L1886.54 1082.55 L1886.54 1086.44 L1881.61 1086.44 L1881.61 1094.59 L1876.96 1094.59 L1876.96 1086.44 L1861.36 1086.44 L1861.36 1081.93 L1875.73 1060.03 Z" fill="#000000" fill-rule="evenodd" fill-opacity="1" /><path clip-path="url(#clip370)" d="M1904.27 1078.18 Q1900.94 1078.18 1899.02 1079.96 Q1897.12 1081.74 1897.12 1084.87 Q1897.12 1087.99 1899.02 1089.77 Q1900.94 1091.56 1904.27 1091.56 Q1907.61 1091.56 1909.53 1089.77 Q1911.45 1087.97 1911.45 1084.87 Q1911.45 1081.74 1909.53 1079.96 Q1907.63 1078.18 1904.27 1078.18 M1899.6 1076.19 Q1896.59 1075.44 1894.9 1073.38 Q1893.23 1071.32 1893.23 1068.36 Q1893.23 1064.22 1896.17 1061.81 Q1899.13 1059.4 1904.27 1059.4 Q1909.43 1059.4 1912.37 1061.81 Q1915.31 1064.22 1915.31 1068.36 Q1915.31 1071.32 1913.62 1073.38 Q1911.96 1075.44 1908.97 1076.19 Q1912.35 1076.97 1914.23 1079.26 Q1916.12 1081.56 1916.12 1084.87 Q1916.12 1089.89 1913.05 1092.57 Q1909.99 1095.26 1904.27 1095.26 Q1898.56 1095.26 1895.48 1092.57 Q1892.42 1089.89 1892.42 1084.87 Q1892.42 1081.56 1894.32 1079.26 Q1896.22 1076.97 1899.6 1076.19 M1897.88 1068.8 Q1897.88 1071.49 1899.55 1072.99 Q1901.24 1074.5 1904.27 1074.5 Q1907.28 1074.5 1908.97 1072.99 Q1910.68 1071.49 1910.68 1068.8 Q1910.68 1066.12 1908.97 1064.61 Q1907.28 1063.11 1904.27 1063.11 Q1901.24 1063.11 1899.55 1064.61 Q1897.88 1066.12 1897.88 1068.8 Z" fill="#000000" fill-rule="evenodd" fill-opacity="1" /><path clip-path="url(#clip370)" d="M1934.43 1063.11 Q1930.82 1063.11 1928.99 1066.67 Q1927.19 1070.21 1927.19 1077.34 Q1927.19 1084.45 1928.99 1088.01 Q1930.82 1091.56 1934.43 1091.56 Q1938.07 1091.56 1939.87 1088.01 Q1941.7 1084.45 1941.7 1077.34 Q1941.7 1070.21 1939.87 1066.67 Q1938.07 1063.11 1934.43 1063.11 M1934.43 1059.4 Q1940.24 1059.4 1943.3 1064.01 Q1946.38 1068.59 1946.38 1077.34 Q1946.38 1086.07 1943.3 1090.68 Q1940.24 1095.26 1934.43 1095.26 Q1928.62 1095.26 1925.55 1090.68 Q1922.49 1086.07 1922.49 1077.34 Q1922.49 1068.59 1925.55 1064.01 Q1928.62 1059.4 1934.43 1059.4 Z" fill="#000000" fill-rule="evenodd" fill-opacity="1" /><path clip-path="url(#clip370)" d="M960.668 1128.48 L960.668 1138.6 L972.731 1138.6 L972.731 1143.16 L960.668 1143.16 L960.668 1162.51 Q960.668 1166.87 961.846 1168.11 Q963.056 1169.35 966.716 1169.35 L972.731 1169.35 L972.731 1174.25 L966.716 1174.25 Q959.936 1174.25 957.358 1171.74 Q954.78 1169.19 954.78 1162.51 L954.78 1143.16 L950.483 1143.16 L950.483 1138.6 L954.78 1138.6 L954.78 1128.48 L960.668 1128.48 Z" fill="#000000" fill-rule="evenodd" fill-opacity="1" /><path clip-path="url(#clip370)" d="M980.434 1138.6 L986.29 1138.6 L986.29 1174.25 L980.434 1174.25 L980.434 1138.6 M980.434 1124.73 L986.29 1124.73 L986.29 1132.14 L980.434 1132.14 L980.434 1124.73 Z" fill="#000000" fill-rule="evenodd" fill-opacity="1" /><path clip-path="url(#clip370)" d="M1026.3 1145.45 Q1028.49 1141.5 1031.55 1139.62 Q1034.61 1137.74 1038.74 1137.74 Q1044.31 1137.74 1047.34 1141.66 Q1050.36 1145.54 1050.36 1152.74 L1050.36 1174.25 L1044.47 1174.25 L1044.47 1152.93 Q1044.47 1147.8 1042.66 1145.32 Q1040.84 1142.84 1037.12 1142.84 Q1032.57 1142.84 1029.93 1145.86 Q1027.29 1148.88 1027.29 1154.1 L1027.29 1174.25 L1021.4 1174.25 L1021.4 1152.93 Q1021.4 1147.77 1019.58 1145.32 Q1017.77 1142.84 1013.98 1142.84 Q1009.49 1142.84 1006.85 1145.89 Q1004.21 1148.92 1004.21 1154.1 L1004.21 1174.25 L998.322 1174.25 L998.322 1138.6 L1004.21 1138.6 L1004.21 1144.14 Q1006.22 1140.86 1009.02 1139.3 Q1011.82 1137.74 1015.67 1137.74 Q1019.55 1137.74 1022.26 1139.72 Q1024.99 1141.69 1026.3 1145.45 Z" fill="#000000" fill-rule="evenodd" fill-opacity="1" /><path clip-path="url(#clip370)" d="M1092.53 1154.96 L1092.53 1157.83 L1065.61 1157.83 Q1065.99 1163.88 1069.24 1167.06 Q1072.51 1170.21 1078.34 1170.21 Q1081.71 1170.21 1084.86 1169.38 Q1088.05 1168.55 1091.17 1166.9 L1091.17 1172.44 Q1088.01 1173.77 1084.7 1174.47 Q1081.39 1175.17 1077.99 1175.17 Q1069.46 1175.17 1064.46 1170.21 Q1059.5 1165.24 1059.5 1156.78 Q1059.5 1148.03 1064.21 1142.9 Q1068.95 1137.74 1076.97 1137.74 Q1084.16 1137.74 1088.33 1142.39 Q1092.53 1147.01 1092.53 1154.96 M1086.68 1153.25 Q1086.61 1148.44 1083.97 1145.57 Q1081.36 1142.71 1077.03 1142.71 Q1072.13 1142.71 1069.17 1145.48 Q1066.24 1148.25 1065.8 1153.28 L1086.68 1153.25 Z" fill="#000000" fill-rule="evenodd" fill-opacity="1" /><path clip-path="url(#clip370)" d="M1122.87 1138.6 L1128.72 1138.6 L1128.72 1174.25 L1122.87 1174.25 L1122.87 1138.6 M1122.87 1124.73 L1128.72 1124.73 L1128.72 1132.14 L1122.87 1132.14 L1122.87 1124.73 Z" fill="#000000" fill-rule="evenodd" fill-opacity="1" /><path clip-path="url(#clip370)" d="M1170.61 1152.74 L1170.61 1174.25 L1164.75 1174.25 L1164.75 1152.93 Q1164.75 1147.87 1162.78 1145.35 Q1160.81 1142.84 1156.86 1142.84 Q1152.12 1142.84 1149.38 1145.86 Q1146.64 1148.88 1146.64 1154.1 L1146.64 1174.25 L1140.75 1174.25 L1140.75 1138.6 L1146.64 1138.6 L1146.64 1144.14 Q1148.74 1140.93 1151.58 1139.34 Q1154.44 1137.74 1158.16 1137.74 Q1164.31 1137.74 1167.46 1141.56 Q1170.61 1145.35 1170.61 1152.74 Z" fill="#000000" fill-rule="evenodd" fill-opacity="1" /><path clip-path="url(#clip370)" d="M1225.74 1139.65 L1225.74 1145.19 Q1223.25 1143.92 1220.58 1143.28 Q1217.91 1142.65 1215.04 1142.65 Q1210.68 1142.65 1208.49 1143.98 Q1206.32 1145.32 1206.32 1147.99 Q1206.32 1150.03 1207.88 1151.21 Q1209.44 1152.35 1214.15 1153.4 L1216.16 1153.85 Q1222.39 1155.19 1225 1157.64 Q1227.65 1160.06 1227.65 1164.42 Q1227.65 1169.38 1223.7 1172.28 Q1219.78 1175.17 1212.91 1175.17 Q1210.04 1175.17 1206.93 1174.6 Q1203.84 1174.06 1200.4 1172.95 L1200.4 1166.9 Q1203.65 1168.59 1206.8 1169.45 Q1209.95 1170.27 1213.04 1170.27 Q1217.17 1170.27 1219.4 1168.87 Q1221.63 1167.44 1221.63 1164.86 Q1221.63 1162.48 1220.01 1161.2 Q1218.42 1159.93 1212.97 1158.75 L1210.94 1158.27 Q1205.49 1157.13 1203.07 1154.77 Q1200.66 1152.39 1200.66 1148.25 Q1200.66 1143.22 1204.22 1140.48 Q1207.79 1137.74 1214.34 1137.74 Q1217.59 1137.74 1220.45 1138.22 Q1223.32 1138.7 1225.74 1139.65 Z" fill="#000000" fill-rule="evenodd" fill-opacity="1" /><polyline clip-path="url(#clip372)" style="stroke:#000000; stroke-linecap:butt; stroke-linejoin:round; stroke-width:2; stroke-opacity:0.1; fill:none" points="
  225.373,978.29 1952.76,978.29 
  "/>
<polyline clip-path="url(#clip372)" style="stroke:#000000; stroke-linecap:butt; stroke-linejoin:round; stroke-width:2; stroke-opacity:0.1; fill:none" points="
  225.373,832.632 1952.76,832.632 
  "/>
<polyline clip-path="url(#clip372)" style="stroke:#000000; stroke-linecap:butt; stroke-linejoin:round; stroke-width:2; stroke-opacity:0.1; fill:none" points="
  225.373,686.974 1952.76,686.974 
  "/>
<polyline clip-path="url(#clip372)" style="stroke:#000000; stroke-linecap:butt; stroke-linejoin:round; stroke-width:2; stroke-opacity:0.1; fill:none" points="
  225.373,541.316 1952.76,541.316 
  "/>
<polyline clip-path="url(#clip372)" style="stroke:#000000; stroke-linecap:butt; stroke-linejoin:round; stroke-width:2; stroke-opacity:0.1; fill:none" points="
  225.373,395.658 1952.76,395.658 
  "/>
<polyline clip-path="url(#clip372)" style="stroke:#000000; stroke-linecap:butt; stroke-linejoin:round; stroke-width:2; stroke-opacity:0.1; fill:none" points="
  225.373,250 1952.76,250 
  "/>
<polyline clip-path="url(#clip372)" style="stroke:#000000; stroke-linecap:butt; stroke-linejoin:round; stroke-width:2; stroke-opacity:0.1; fill:none" points="
  225.373,104.342 1952.76,104.342 
  "/>
<polyline clip-path="url(#clip370)" style="stroke:#000000; stroke-linecap:butt; stroke-linejoin:round; stroke-width:4; stroke-opacity:1; fill:none" points="
  225.373,1035.39 225.373,47.2441 
  "/>
<polyline clip-path="url(#clip370)" style="stroke:#000000; stroke-linecap:butt; stroke-linejoin:round; stroke-width:4; stroke-opacity:1; fill:none" points="
  225.373,978.29 244.271,978.29 
  "/>
<polyline clip-path="url(#clip370)" style="stroke:#000000; stroke-linecap:butt; stroke-linejoin:round; stroke-width:4; stroke-opacity:1; fill:none" points="
  225.373,832.632 244.271,832.632 
  "/>
<polyline clip-path="url(#clip370)" style="stroke:#000000; stroke-linecap:butt; stroke-linejoin:round; stroke-width:4; stroke-opacity:1; fill:none" points="
  225.373,686.974 244.271,686.974 
  "/>
<polyline clip-path="url(#clip370)" style="stroke:#000000; stroke-linecap:butt; stroke-linejoin:round; stroke-width:4; stroke-opacity:1; fill:none" points="
  225.373,541.316 244.271,541.316 
  "/>
<polyline clip-path="url(#clip370)" style="stroke:#000000; stroke-linecap:butt; stroke-linejoin:round; stroke-width:4; stroke-opacity:1; fill:none" points="
  225.373,395.658 244.271,395.658 
  "/>
<polyline clip-path="url(#clip370)" style="stroke:#000000; stroke-linecap:butt; stroke-linejoin:round; stroke-width:4; stroke-opacity:1; fill:none" points="
  225.373,250 244.271,250 
  "/>
<polyline clip-path="url(#clip370)" style="stroke:#000000; stroke-linecap:butt; stroke-linejoin:round; stroke-width:4; stroke-opacity:1; fill:none" points="
  225.373,104.342 244.271,104.342 
  "/>
<path clip-path="url(#clip370)" d="M143.314 961.01 L161.67 961.01 L161.67 964.945 L147.596 964.945 L147.596 973.417 Q148.614 973.07 149.633 972.908 Q150.651 972.723 151.67 972.723 Q157.457 972.723 160.837 975.894 Q164.216 979.065 164.216 984.482 Q164.216 990.061 160.744 993.163 Q157.272 996.241 150.952 996.241 Q148.776 996.241 146.508 995.871 Q144.263 995.5 141.855 994.76 L141.855 990.061 Q143.939 991.195 146.161 991.75 Q148.383 992.306 150.86 992.306 Q154.864 992.306 157.202 990.2 Q159.54 988.093 159.54 984.482 Q159.54 980.871 157.202 978.764 Q154.864 976.658 150.86 976.658 Q148.985 976.658 147.11 977.075 Q145.258 977.491 143.314 978.371 L143.314 961.01 Z" fill="#000000" fill-rule="evenodd" fill-opacity="1" /><path clip-path="url(#clip370)" d="M183.429 964.089 Q179.818 964.089 177.989 967.653 Q176.184 971.195 176.184 978.325 Q176.184 985.431 177.989 988.996 Q179.818 992.538 183.429 992.538 Q187.063 992.538 188.869 988.996 Q190.698 985.431 190.698 978.325 Q190.698 971.195 188.869 967.653 Q187.063 964.089 183.429 964.089 M183.429 960.385 Q189.239 960.385 192.295 964.991 Q195.373 969.575 195.373 978.325 Q195.373 987.051 192.295 991.658 Q189.239 996.241 183.429 996.241 Q177.619 996.241 174.54 991.658 Q171.485 987.051 171.485 978.325 Q171.485 969.575 174.54 964.991 Q177.619 960.385 183.429 960.385 Z" fill="#000000" fill-rule="evenodd" fill-opacity="1" /><path clip-path="url(#clip370)" d="M113.916 845.977 L121.554 845.977 L121.554 819.611 L113.244 821.278 L113.244 817.019 L121.508 815.352 L126.184 815.352 L126.184 845.977 L133.823 845.977 L133.823 849.912 L113.916 849.912 L113.916 845.977 Z" fill="#000000" fill-rule="evenodd" fill-opacity="1" /><path clip-path="url(#clip370)" d="M153.267 818.431 Q149.656 818.431 147.827 821.995 Q146.022 825.537 146.022 832.667 Q146.022 839.773 147.827 843.338 Q149.656 846.88 153.267 846.88 Q156.901 846.88 158.707 843.338 Q160.536 839.773 160.536 832.667 Q160.536 825.537 158.707 821.995 Q156.901 818.431 153.267 818.431 M153.267 814.727 Q159.077 814.727 162.133 819.333 Q165.212 823.917 165.212 832.667 Q165.212 841.393 162.133 846 Q159.077 850.583 153.267 850.583 Q147.457 850.583 144.378 846 Q141.323 841.393 141.323 832.667 Q141.323 823.917 144.378 819.333 Q147.457 814.727 153.267 814.727 Z" fill="#000000" fill-rule="evenodd" fill-opacity="1" /><path clip-path="url(#clip370)" d="M183.429 818.431 Q179.818 818.431 177.989 821.995 Q176.184 825.537 176.184 832.667 Q176.184 839.773 177.989 843.338 Q179.818 846.88 183.429 846.88 Q187.063 846.88 188.869 843.338 Q190.698 839.773 190.698 832.667 Q190.698 825.537 188.869 821.995 Q187.063 818.431 183.429 818.431 M183.429 814.727 Q189.239 814.727 192.295 819.333 Q195.373 823.917 195.373 832.667 Q195.373 841.393 192.295 846 Q189.239 850.583 183.429 850.583 Q177.619 850.583 174.54 846 Q171.485 841.393 171.485 832.667 Q171.485 823.917 174.54 819.333 Q177.619 814.727 183.429 814.727 Z" fill="#000000" fill-rule="evenodd" fill-opacity="1" /><path clip-path="url(#clip370)" d="M113.916 700.319 L121.554 700.319 L121.554 673.953 L113.244 675.62 L113.244 671.361 L121.508 669.694 L126.184 669.694 L126.184 700.319 L133.823 700.319 L133.823 704.254 L113.916 704.254 L113.916 700.319 Z" fill="#000000" fill-rule="evenodd" fill-opacity="1" /><path clip-path="url(#clip370)" d="M143.314 669.694 L161.67 669.694 L161.67 673.629 L147.596 673.629 L147.596 682.101 Q148.614 681.754 149.633 681.592 Q150.651 681.407 151.67 681.407 Q157.457 681.407 160.837 684.578 Q164.216 687.749 164.216 693.166 Q164.216 698.745 160.744 701.847 Q157.272 704.925 150.952 704.925 Q148.776 704.925 146.508 704.555 Q144.263 704.185 141.855 703.444 L141.855 698.745 Q143.939 699.879 146.161 700.435 Q148.383 700.99 150.86 700.99 Q154.864 700.99 157.202 698.884 Q159.54 696.777 159.54 693.166 Q159.54 689.555 157.202 687.448 Q154.864 685.342 150.86 685.342 Q148.985 685.342 147.11 685.759 Q145.258 686.175 143.314 687.055 L143.314 669.694 Z" fill="#000000" fill-rule="evenodd" fill-opacity="1" /><path clip-path="url(#clip370)" d="M183.429 672.773 Q179.818 672.773 177.989 676.337 Q176.184 679.879 176.184 687.009 Q176.184 694.115 177.989 697.68 Q179.818 701.222 183.429 701.222 Q187.063 701.222 188.869 697.68 Q190.698 694.115 190.698 687.009 Q190.698 679.879 188.869 676.337 Q187.063 672.773 183.429 672.773 M183.429 669.069 Q189.239 669.069 192.295 673.675 Q195.373 678.259 195.373 687.009 Q195.373 695.735 192.295 700.342 Q189.239 704.925 183.429 704.925 Q177.619 704.925 174.54 700.342 Q171.485 695.735 171.485 687.009 Q171.485 678.259 174.54 673.675 Q177.619 669.069 183.429 669.069 Z" fill="#000000" fill-rule="evenodd" fill-opacity="1" /><path clip-path="url(#clip370)" d="M117.133 554.661 L133.452 554.661 L133.452 558.596 L111.508 558.596 L111.508 554.661 Q114.17 551.906 118.753 547.277 Q123.36 542.624 124.54 541.281 Q126.786 538.758 127.665 537.022 Q128.568 535.263 128.568 533.573 Q128.568 530.818 126.624 529.082 Q124.703 527.346 121.601 527.346 Q119.402 527.346 116.948 528.11 Q114.517 528.874 111.74 530.425 L111.74 525.703 Q114.564 524.568 117.017 523.99 Q119.471 523.411 121.508 523.411 Q126.878 523.411 130.073 526.096 Q133.267 528.781 133.267 533.272 Q133.267 535.402 132.457 537.323 Q131.67 539.221 129.564 541.814 Q128.985 542.485 125.883 545.703 Q122.781 548.897 117.133 554.661 Z" fill="#000000" fill-rule="evenodd" fill-opacity="1" /><path clip-path="url(#clip370)" d="M153.267 527.115 Q149.656 527.115 147.827 530.679 Q146.022 534.221 146.022 541.351 Q146.022 548.457 147.827 552.022 Q149.656 555.564 153.267 555.564 Q156.901 555.564 158.707 552.022 Q160.536 548.457 160.536 541.351 Q160.536 534.221 158.707 530.679 Q156.901 527.115 153.267 527.115 M153.267 523.411 Q159.077 523.411 162.133 528.017 Q165.212 532.601 165.212 541.351 Q165.212 550.077 162.133 554.684 Q159.077 559.267 153.267 559.267 Q147.457 559.267 144.378 554.684 Q141.323 550.077 141.323 541.351 Q141.323 532.601 144.378 528.017 Q147.457 523.411 153.267 523.411 Z" fill="#000000" fill-rule="evenodd" fill-opacity="1" /><path clip-path="url(#clip370)" d="M183.429 527.115 Q179.818 527.115 177.989 530.679 Q176.184 534.221 176.184 541.351 Q176.184 548.457 177.989 552.022 Q179.818 555.564 183.429 555.564 Q187.063 555.564 188.869 552.022 Q190.698 548.457 190.698 541.351 Q190.698 534.221 188.869 530.679 Q187.063 527.115 183.429 527.115 M183.429 523.411 Q189.239 523.411 192.295 528.017 Q195.373 532.601 195.373 541.351 Q195.373 550.077 192.295 554.684 Q189.239 559.267 183.429 559.267 Q177.619 559.267 174.54 554.684 Q171.485 550.077 171.485 541.351 Q171.485 532.601 174.54 528.017 Q177.619 523.411 183.429 523.411 Z" fill="#000000" fill-rule="evenodd" fill-opacity="1" /><path clip-path="url(#clip370)" d="M117.133 409.003 L133.452 409.003 L133.452 412.938 L111.508 412.938 L111.508 409.003 Q114.17 406.248 118.753 401.619 Q123.36 396.966 124.54 395.623 Q126.786 393.1 127.665 391.364 Q128.568 389.605 128.568 387.915 Q128.568 385.16 126.624 383.424 Q124.703 381.688 121.601 381.688 Q119.402 381.688 116.948 382.452 Q114.517 383.216 111.74 384.767 L111.74 380.045 Q114.564 378.91 117.017 378.332 Q119.471 377.753 121.508 377.753 Q126.878 377.753 130.073 380.438 Q133.267 383.123 133.267 387.614 Q133.267 389.744 132.457 391.665 Q131.67 393.563 129.564 396.156 Q128.985 396.827 125.883 400.045 Q122.781 403.239 117.133 409.003 Z" fill="#000000" fill-rule="evenodd" fill-opacity="1" /><path clip-path="url(#clip370)" d="M143.314 378.378 L161.67 378.378 L161.67 382.313 L147.596 382.313 L147.596 390.785 Q148.614 390.438 149.633 390.276 Q150.651 390.091 151.67 390.091 Q157.457 390.091 160.837 393.262 Q164.216 396.433 164.216 401.85 Q164.216 407.429 160.744 410.531 Q157.272 413.609 150.952 413.609 Q148.776 413.609 146.508 413.239 Q144.263 412.869 141.855 412.128 L141.855 407.429 Q143.939 408.563 146.161 409.119 Q148.383 409.674 150.86 409.674 Q154.864 409.674 157.202 407.568 Q159.54 405.461 159.54 401.85 Q159.54 398.239 157.202 396.133 Q154.864 394.026 150.86 394.026 Q148.985 394.026 147.11 394.443 Q145.258 394.859 143.314 395.739 L143.314 378.378 Z" fill="#000000" fill-rule="evenodd" fill-opacity="1" /><path clip-path="url(#clip370)" d="M183.429 381.457 Q179.818 381.457 177.989 385.021 Q176.184 388.563 176.184 395.693 Q176.184 402.799 177.989 406.364 Q179.818 409.906 183.429 409.906 Q187.063 409.906 188.869 406.364 Q190.698 402.799 190.698 395.693 Q190.698 388.563 188.869 385.021 Q187.063 381.457 183.429 381.457 M183.429 377.753 Q189.239 377.753 192.295 382.359 Q195.373 386.943 195.373 395.693 Q195.373 404.42 192.295 409.026 Q189.239 413.609 183.429 413.609 Q177.619 413.609 174.54 409.026 Q171.485 404.42 171.485 395.693 Q171.485 386.943 174.54 382.359 Q177.619 377.753 183.429 377.753 Z" fill="#000000" fill-rule="evenodd" fill-opacity="1" /><path clip-path="url(#clip370)" d="M127.272 248.646 Q130.628 249.363 132.503 251.632 Q134.402 253.9 134.402 257.234 Q134.402 262.349 130.883 265.15 Q127.365 267.951 120.883 267.951 Q118.707 267.951 116.392 267.511 Q114.101 267.095 111.647 266.238 L111.647 261.724 Q113.591 262.859 115.906 263.437 Q118.221 264.016 120.744 264.016 Q125.142 264.016 127.434 262.28 Q129.749 260.544 129.749 257.234 Q129.749 254.178 127.596 252.465 Q125.466 250.729 121.647 250.729 L117.619 250.729 L117.619 246.887 L121.832 246.887 Q125.281 246.887 127.11 245.521 Q128.939 244.132 128.939 241.539 Q128.939 238.877 127.04 237.465 Q125.165 236.03 121.647 236.03 Q119.726 236.03 117.527 236.447 Q115.328 236.864 112.689 237.743 L112.689 233.576 Q115.351 232.836 117.666 232.465 Q120.003 232.095 122.064 232.095 Q127.388 232.095 130.49 234.526 Q133.591 236.933 133.591 241.053 Q133.591 243.924 131.948 245.914 Q130.304 247.882 127.272 248.646 Z" fill="#000000" fill-rule="evenodd" fill-opacity="1" /><path clip-path="url(#clip370)" d="M153.267 235.799 Q149.656 235.799 147.827 239.363 Q146.022 242.905 146.022 250.035 Q146.022 257.141 147.827 260.706 Q149.656 264.248 153.267 264.248 Q156.901 264.248 158.707 260.706 Q160.536 257.141 160.536 250.035 Q160.536 242.905 158.707 239.363 Q156.901 235.799 153.267 235.799 M153.267 232.095 Q159.077 232.095 162.133 236.701 Q165.212 241.285 165.212 250.035 Q165.212 258.762 162.133 263.368 Q159.077 267.951 153.267 267.951 Q147.457 267.951 144.378 263.368 Q141.323 258.762 141.323 250.035 Q141.323 241.285 144.378 236.701 Q147.457 232.095 153.267 232.095 Z" fill="#000000" fill-rule="evenodd" fill-opacity="1" /><path clip-path="url(#clip370)" d="M183.429 235.799 Q179.818 235.799 177.989 239.363 Q176.184 242.905 176.184 250.035 Q176.184 257.141 177.989 260.706 Q179.818 264.248 183.429 264.248 Q187.063 264.248 188.869 260.706 Q190.698 257.141 190.698 250.035 Q190.698 242.905 188.869 239.363 Q187.063 235.799 183.429 235.799 M183.429 232.095 Q189.239 232.095 192.295 236.701 Q195.373 241.285 195.373 250.035 Q195.373 258.762 192.295 263.368 Q189.239 267.951 183.429 267.951 Q177.619 267.951 174.54 263.368 Q171.485 258.762 171.485 250.035 Q171.485 241.285 174.54 236.701 Q177.619 232.095 183.429 232.095 Z" fill="#000000" fill-rule="evenodd" fill-opacity="1" /><path clip-path="url(#clip370)" d="M127.272 102.988 Q130.628 103.705 132.503 105.974 Q134.402 108.242 134.402 111.576 Q134.402 116.691 130.883 119.492 Q127.365 122.293 120.883 122.293 Q118.707 122.293 116.392 121.854 Q114.101 121.437 111.647 120.58 L111.647 116.066 Q113.591 117.201 115.906 117.779 Q118.221 118.358 120.744 118.358 Q125.142 118.358 127.434 116.622 Q129.749 114.886 129.749 111.576 Q129.749 108.52 127.596 106.807 Q125.466 105.071 121.647 105.071 L117.619 105.071 L117.619 101.229 L121.832 101.229 Q125.281 101.229 127.11 99.8629 Q128.939 98.474 128.939 95.8814 Q128.939 93.2194 127.04 91.8074 Q125.165 90.3722 121.647 90.3722 Q119.726 90.3722 117.527 90.7889 Q115.328 91.2055 112.689 92.0851 L112.689 87.9185 Q115.351 87.1778 117.666 86.8074 Q120.003 86.437 122.064 86.437 Q127.388 86.437 130.49 88.8676 Q133.591 91.275 133.591 95.3953 Q133.591 98.2657 131.948 100.256 Q130.304 102.224 127.272 102.988 Z" fill="#000000" fill-rule="evenodd" fill-opacity="1" /><path clip-path="url(#clip370)" d="M143.314 87.062 L161.67 87.062 L161.67 90.9972 L147.596 90.9972 L147.596 99.4694 Q148.614 99.1221 149.633 98.9601 Q150.651 98.7749 151.67 98.7749 Q157.457 98.7749 160.837 101.946 Q164.216 105.117 164.216 110.534 Q164.216 116.113 160.744 119.215 Q157.272 122.293 150.952 122.293 Q148.776 122.293 146.508 121.923 Q144.263 121.553 141.855 120.812 L141.855 116.113 Q143.939 117.247 146.161 117.803 Q148.383 118.358 150.86 118.358 Q154.864 118.358 157.202 116.252 Q159.54 114.145 159.54 110.534 Q159.54 106.923 157.202 104.817 Q154.864 102.71 150.86 102.71 Q148.985 102.71 147.11 103.127 Q145.258 103.543 143.314 104.423 L143.314 87.062 Z" fill="#000000" fill-rule="evenodd" fill-opacity="1" /><path clip-path="url(#clip370)" d="M183.429 90.1407 Q179.818 90.1407 177.989 93.7055 Q176.184 97.2472 176.184 104.377 Q176.184 111.483 177.989 115.048 Q179.818 118.59 183.429 118.59 Q187.063 118.59 188.869 115.048 Q190.698 111.483 190.698 104.377 Q190.698 97.2472 188.869 93.7055 Q187.063 90.1407 183.429 90.1407 M183.429 86.437 Q189.239 86.437 192.295 91.0435 Q195.373 95.6268 195.373 104.377 Q195.373 113.104 192.295 117.71 Q189.239 122.293 183.429 122.293 Q177.619 122.293 174.54 117.71 Q171.485 113.104 171.485 104.377 Q171.485 95.6268 174.54 91.0435 Q177.619 86.437 183.429 86.437 Z" fill="#000000" fill-rule="evenodd" fill-opacity="1" /><path clip-path="url(#clip370)" d="M19.7322 649.04 L19.7322 608.84 L25.143 608.84 L25.143 625.709 L67.2522 625.709 L67.2522 632.171 L25.143 632.171 L25.143 649.04 L19.7322 649.04 Z" fill="#000000" fill-rule="evenodd" fill-opacity="1" /><path clip-path="url(#clip370)" d="M31.6042 582.168 L31.6042 576.311 L67.2522 576.311 L67.2522 582.168 L31.6042 582.168 M17.727 582.168 L17.727 576.311 L25.143 576.311 L25.143 582.168 L17.727 582.168 Z" fill="#000000" fill-rule="evenodd" fill-opacity="1" /><path clip-path="url(#clip370)" d="M45.7361 534.425 L67.2522 534.425 L67.2522 540.282 L45.927 540.282 Q40.8663 540.282 38.3518 542.255 Q35.8374 544.228 35.8374 548.175 Q35.8374 552.917 38.8611 555.655 Q41.8848 558.392 47.1047 558.392 L67.2522 558.392 L67.2522 564.28 L31.6042 564.28 L31.6042 558.392 L37.1424 558.392 Q33.9277 556.291 32.3363 553.459 Q30.7448 550.594 30.7448 546.87 Q30.7448 540.727 34.5643 537.576 Q38.3518 534.425 45.7361 534.425 Z" fill="#000000" fill-rule="evenodd" fill-opacity="1" /><path clip-path="url(#clip370)" d="M22.9787 491.87 Q22.9787 494.417 24.7611 496.167 Q26.5116 497.918 29.0579 497.918 Q31.5724 497.918 33.3229 496.167 Q35.0417 494.417 35.0417 491.87 Q35.0417 489.324 33.3229 487.573 Q31.5724 485.823 29.0579 485.823 Q26.5435 485.823 24.7611 487.605 Q22.9787 489.356 22.9787 491.87 M18.8728 491.87 Q18.8728 489.833 19.6685 487.955 Q20.4324 486.078 21.8965 484.709 Q23.3288 483.245 25.143 482.513 Q26.9572 481.781 29.0579 481.781 Q33.2593 481.781 36.1875 484.741 Q39.0839 487.669 39.0839 491.934 Q39.0839 496.231 36.2193 499.095 Q33.3548 501.96 29.0579 501.96 Q24.7929 501.96 21.8328 499.032 Q18.8728 496.104 18.8728 491.87 Z" fill="#000000" fill-rule="evenodd" fill-opacity="1" /><path clip-path="url(#clip370)" d="M23.3924 433.592 L30.1719 433.592 Q27.1482 436.839 25.6523 440.531 Q24.1563 444.191 24.1563 448.329 Q24.1563 456.477 29.1534 460.806 Q34.1187 465.134 43.5399 465.134 Q52.9293 465.134 57.9264 460.806 Q62.8916 456.477 62.8916 448.329 Q62.8916 444.191 61.3957 440.531 Q59.8998 436.839 56.8761 433.592 L63.5919 433.592 Q65.8835 436.966 67.0294 440.754 Q68.1752 444.509 68.1752 448.711 Q68.1752 459.501 61.5867 465.707 Q54.9663 471.914 43.5399 471.914 Q32.0816 471.914 25.4931 465.707 Q18.8728 459.501 18.8728 448.711 Q18.8728 444.446 20.0186 440.69 Q21.1326 436.902 23.3924 433.592 Z" fill="#000000" fill-rule="evenodd" fill-opacity="1" /><polyline clip-path="url(#clip372)" style="stroke:#ff0000; stroke-linecap:butt; stroke-linejoin:round; stroke-width:4; stroke-opacity:1; fill:none" points="
  274.262,1007.42 275.891,1007.42 277.521,1007.42 279.15,1007.42 280.78,1007.42 282.41,1007.42 284.039,1007.42 285.669,1007.42 287.298,1007.42 288.928,1007.42 
  290.558,1007.42 292.187,1007.42 293.817,1007.42 295.447,1007.42 297.076,1007.42 298.706,1007.42 300.335,1007.42 301.965,1007.42 303.595,1007.42 305.224,1007.42 
  306.854,1007.42 308.483,1007.42 310.113,1007.42 311.743,1007.42 313.372,1007.42 315.002,1007.42 316.631,1007.42 318.261,1007.42 319.891,1007.42 321.52,1007.42 
  323.15,1007.42 324.779,1007.42 326.409,1007.42 328.039,1007.42 329.668,1007.42 331.298,1007.42 332.927,1007.42 334.557,1007.42 336.187,1007.42 337.816,1007.42 
  339.446,1007.42 341.075,1007.42 342.705,1007.42 344.335,1007.42 345.964,1007.42 347.594,1007.42 349.224,1007.42 350.853,1007.42 352.483,1007.42 354.112,1007.42 
  355.742,1007.42 357.372,1007.42 359.001,1007.42 360.631,1007.42 362.26,1007.42 363.89,1007.42 365.52,1007.42 367.149,1007.42 368.779,1007.42 370.408,1007.42 
  372.038,1007.42 373.668,1007.42 375.297,1007.42 376.927,1007.42 378.556,1007.42 380.186,1007.42 381.816,1007.42 383.445,1007.42 385.075,1007.42 386.704,1007.42 
  388.334,1007.42 389.964,1007.42 391.593,1007.42 393.223,1007.42 394.852,1007.42 396.482,1007.42 398.112,1007.42 399.741,1007.42 401.371,1007.42 403.001,1007.42 
  404.63,1007.42 406.26,1007.42 407.889,1007.42 409.519,1007.42 411.149,1007.42 412.778,1007.42 414.408,1007.42 416.037,1007.42 417.667,1007.42 419.297,1007.42 
  420.926,1007.42 422.556,1007.42 424.185,1007.42 425.815,1007.42 427.445,1007.42 429.074,1007.42 430.704,1007.42 432.333,1007.42 433.963,1007.42 435.593,1007.42 
  437.222,1007.42 438.852,1007.42 440.481,1007.42 442.111,1007.42 443.741,1007.42 445.37,1007.42 447,1007.42 448.629,1007.42 450.259,1007.42 451.889,1007.42 
  453.518,1007.42 455.148,1007.42 456.778,1007.42 458.407,1007.42 460.037,1007.42 461.666,1007.42 463.296,1007.42 464.926,1007.42 466.555,1007.42 468.185,1007.42 
  469.814,1007.42 471.444,1007.42 473.074,1007.42 474.703,1007.42 476.333,1007.42 477.962,1007.42 479.592,1005.65 481.222,1003.88 482.851,1002.11 484.481,1000.34 
  486.11,998.566 487.74,996.794 489.37,995.023 490.999,993.252 492.629,991.481 494.258,989.709 495.888,987.938 497.518,986.167 499.147,984.396 500.777,982.625 
  502.406,980.853 504.036,979.082 505.666,977.311 507.295,975.54 508.925,973.769 510.555,971.997 512.184,970.226 513.814,968.455 515.443,966.684 517.073,964.913 
  518.703,963.141 520.332,961.37 521.962,959.599 523.591,957.828 525.221,956.057 526.851,954.285 528.48,952.514 530.11,950.743 531.739,948.972 533.369,947.201 
  534.999,945.429 536.628,943.658 538.258,941.887 539.887,940.116 541.517,938.345 543.147,936.573 544.776,934.802 546.406,933.031 548.035,931.26 549.665,929.489 
  551.295,927.717 552.924,925.946 554.554,924.175 556.183,922.404 557.813,920.633 559.443,918.861 561.072,917.09 562.702,915.319 564.332,913.548 565.961,911.777 
  567.591,910.005 569.22,908.234 570.85,906.463 572.48,904.692 574.109,902.921 575.739,901.149 577.368,899.378 578.998,897.607 580.628,895.836 582.257,894.065 
  583.887,892.293 585.516,890.522 587.146,888.751 588.776,886.98 590.405,885.209 592.035,883.437 593.664,881.666 595.294,879.895 596.924,878.124 598.553,876.353 
  600.183,874.581 601.812,872.81 603.442,871.039 605.072,869.268 606.701,867.497 608.331,865.725 609.96,863.954 611.59,862.183 613.22,860.412 614.849,858.641 
  616.479,856.869 618.109,855.098 619.738,853.327 621.368,851.556 622.997,849.785 624.627,848.013 626.257,846.242 627.886,844.471 629.516,842.7 631.145,840.929 
  632.775,839.157 634.405,837.386 636.034,835.615 637.664,833.844 639.293,832.073 640.923,830.301 642.553,828.53 644.182,826.759 645.812,824.988 647.441,823.217 
  649.071,821.445 650.701,819.674 652.33,817.903 653.96,816.132 655.589,814.361 657.219,812.589 658.849,810.818 660.478,809.047 662.108,807.276 663.737,805.505 
  665.367,803.733 666.997,801.962 668.626,800.191 670.256,798.42 671.886,796.649 673.515,794.877 675.145,793.106 676.774,791.335 678.404,789.564 680.034,787.793 
  681.663,786.021 683.293,784.25 684.922,782.479 686.552,780.708 688.182,778.937 689.811,777.165 691.441,775.394 693.07,773.623 694.7,771.852 696.33,770.081 
  697.959,768.309 699.589,766.538 701.218,764.767 702.848,762.996 704.478,761.225 706.107,759.453 707.737,757.682 709.366,755.911 710.996,754.14 712.626,752.369 
  714.255,750.597 715.885,748.826 717.514,747.055 719.144,745.284 720.774,743.513 722.403,741.741 724.033,739.97 725.663,738.199 727.292,736.428 728.922,734.657 
  730.551,732.885 732.181,731.114 733.811,729.343 735.44,727.572 737.07,725.801 738.699,724.029 740.329,722.258 741.959,720.487 743.588,718.716 745.218,716.945 
  746.847,715.173 748.477,713.402 750.107,711.631 751.736,709.86 753.366,708.089 754.995,706.317 756.625,704.546 758.255,702.775 759.884,701.004 761.514,699.233 
  763.143,697.461 764.773,695.69 766.403,693.919 768.032,692.148 769.662,690.377 771.291,688.605 772.921,686.834 774.551,685.063 776.18,683.292 777.81,681.521 
  779.44,679.749 781.069,677.978 782.699,676.207 784.328,674.436 785.958,672.665 787.588,670.893 789.217,669.122 790.847,667.351 792.476,665.58 794.106,663.809 
  795.736,662.037 797.365,660.266 798.995,658.495 800.624,656.724 802.254,654.952 803.884,653.181 805.513,651.41 807.143,649.639 808.772,647.868 810.402,646.096 
  812.032,644.325 813.661,642.554 815.291,640.783 816.92,639.012 818.55,637.24 820.18,635.469 821.809,633.698 823.439,631.927 825.068,630.156 826.698,628.384 
  828.328,626.613 829.957,624.842 831.587,623.071 833.217,621.3 834.846,619.528 836.476,617.757 838.105,615.986 839.735,614.215 841.365,612.444 842.994,610.672 
  844.624,608.901 846.253,607.13 847.883,605.359 849.513,603.588 851.142,601.816 852.772,600.045 854.401,598.274 856.031,596.503 857.661,594.732 859.29,592.96 
  860.92,591.189 862.549,589.418 864.179,587.647 865.809,585.876 867.438,584.104 869.068,582.333 870.697,580.562 872.327,578.791 873.957,577.02 875.586,575.248 
  877.216,573.477 878.845,571.706 880.475,569.935 882.105,568.164 883.734,566.392 885.364,564.621 886.994,562.85 888.623,561.079 890.253,559.308 891.882,557.536 
  893.512,555.765 895.142,553.994 896.771,552.223 898.401,550.452 900.03,548.68 901.66,546.909 903.29,545.138 904.919,543.367 906.549,541.596 908.178,539.824 
  909.808,538.053 911.438,536.282 913.067,534.511 914.697,532.74 916.326,530.968 917.956,529.197 919.586,527.426 921.215,525.655 922.845,523.884 924.474,522.112 
  926.104,520.341 927.734,518.57 929.363,516.799 930.993,515.028 932.622,513.256 934.252,511.485 935.882,509.714 937.511,507.943 939.141,506.172 940.771,504.4 
  942.4,502.629 944.03,500.858 945.659,499.087 947.289,497.316 948.919,495.544 950.548,493.773 952.178,492.002 953.807,490.231 955.437,488.46 957.067,486.688 
  958.696,484.917 960.326,483.146 961.955,481.375 963.585,479.604 965.215,477.832 966.844,476.061 968.474,474.29 970.103,472.519 971.733,470.748 973.363,468.976 
  974.992,467.205 976.622,465.434 978.251,463.663 979.881,461.892 981.511,460.12 983.14,458.349 984.77,456.578 986.399,454.807 988.029,453.315 989.659,452.103 
  991.288,450.891 992.918,449.68 994.548,448.468 996.177,447.256 997.807,446.044 999.436,444.832 1001.07,443.62 1002.7,442.408 1004.33,441.196 1005.95,439.985 
  1007.58,438.773 1009.21,437.561 1010.84,436.349 1012.47,435.137 1014.1,433.925 1015.73,432.713 1017.36,431.502 1018.99,430.29 1020.62,429.078 1022.25,427.866 
  1023.88,426.654 1025.51,425.442 1027.14,424.23 1028.77,423.018 1030.4,421.807 1032.03,420.595 1033.66,419.383 1035.29,418.171 1036.92,416.959 1038.55,415.747 
  1040.18,414.535 1041.81,413.323 1043.44,412.112 1045.07,410.9 1046.69,409.688 1048.32,408.476 1049.95,407.264 1051.58,406.052 1053.21,404.84 1054.84,403.628 
  1056.47,402.417 1058.1,401.205 1059.73,399.993 1061.36,398.781 1062.99,397.569 1064.62,396.357 1066.25,395.145 1067.88,393.933 1069.51,392.722 1071.14,391.51 
  1072.77,390.298 1074.4,389.086 1076.03,387.874 1077.66,386.662 1079.29,385.45 1080.92,384.238 1082.55,383.027 1084.18,381.815 1085.81,380.603 1087.44,379.391 
  1089.06,378.179 1090.69,376.967 1092.32,375.755 1093.95,374.543 1095.58,373.332 1097.21,372.12 1098.84,370.908 1100.47,369.696 1102.1,368.484 1103.73,367.272 
  1105.36,366.06 1106.99,364.848 1108.62,363.637 1110.25,362.425 1111.88,361.213 1113.51,360.001 1115.14,358.789 1116.77,357.577 1118.4,356.365 1120.03,355.153 
  1121.66,353.942 1123.29,352.73 1124.92,351.518 1126.55,350.306 1128.18,349.094 1129.8,347.882 1131.43,346.67 1133.06,345.458 1134.69,344.247 1136.32,343.035 
  1137.95,341.823 1139.58,340.611 1141.21,339.399 1142.84,338.187 1144.47,336.975 1146.1,335.763 1147.73,334.552 1149.36,333.34 1150.99,332.128 1152.62,330.916 
  1154.25,329.704 1155.88,328.492 1157.51,327.28 1159.14,326.068 1160.77,324.857 1162.4,323.645 1164.03,322.433 1165.66,321.221 1167.29,320.009 1168.92,318.797 
  1170.54,317.585 1172.17,316.373 1173.8,315.162 1175.43,313.95 1177.06,312.738 1178.69,311.526 1180.32,310.314 1181.95,309.102 1183.58,307.89 1185.21,306.678 
  1186.84,305.467 1188.47,304.255 1190.1,303.043 1191.73,301.831 1193.36,300.619 1194.99,299.407 1196.62,298.195 1198.25,296.983 1199.88,295.772 1201.51,294.56 
  1203.14,293.348 1204.77,292.136 1206.4,290.924 1208.03,289.712 1209.66,288.5 1211.29,287.288 1212.91,286.077 1214.54,284.865 1216.17,283.653 1217.8,282.441 
  1219.43,281.229 1221.06,280.017 1222.69,278.805 1224.32,277.593 1225.95,276.382 1227.58,275.17 1229.21,273.958 1230.84,272.746 1232.47,271.534 1234.1,270.322 
  1235.73,269.11 1237.36,267.898 1238.99,266.687 1240.62,265.475 1242.25,264.263 1243.88,263.051 1245.51,261.839 1247.14,260.627 1248.77,259.415 1250.4,258.203 
  1252.03,256.992 1253.65,255.78 1255.28,254.568 1256.91,253.356 1258.54,252.144 1260.17,250.932 1261.8,249.72 1263.43,248.508 1265.06,247.297 1266.69,246.085 
  1268.32,244.873 1269.95,243.661 1271.58,242.449 1273.21,241.237 1274.84,240.025 1276.47,238.813 1278.1,237.602 1279.73,236.39 1281.36,235.178 1282.99,233.966 
  1284.62,232.754 1286.25,231.542 1287.88,230.33 1289.51,229.118 1291.14,227.907 1292.77,226.695 1294.4,225.483 1296.02,224.271 1297.65,223.059 1299.28,221.847 
  1300.91,220.635 1302.54,219.423 1304.17,218.212 1305.8,217 1307.43,215.788 1309.06,214.576 1310.69,213.364 1312.32,212.152 1313.95,210.94 1315.58,209.728 
  1317.21,208.517 1318.84,207.305 1320.47,206.093 1322.1,204.881 1323.73,203.669 1325.36,202.457 1326.99,201.245 1328.62,200.033 1330.25,198.822 1331.88,197.61 
  1333.51,196.398 1335.14,195.186 1336.76,193.974 1338.39,192.762 1340.02,191.55 1341.65,190.338 1343.28,189.127 1344.91,187.915 1346.54,186.703 1348.17,185.491 
  1349.8,184.279 1351.43,183.067 1353.06,181.855 1354.69,180.644 1356.32,179.432 1357.95,178.22 1359.58,177.008 1361.21,175.796 1362.84,174.584 1364.47,173.372 
  1366.1,172.16 1367.73,170.949 1369.36,169.737 1370.99,168.525 1372.62,167.313 1374.25,166.101 1375.88,164.889 1377.5,163.677 1379.13,162.465 1380.76,161.254 
  1382.39,160.042 1384.02,158.83 1385.65,157.618 1387.28,156.406 1388.91,155.194 1390.54,153.982 1392.17,152.77 1393.8,151.559 1395.43,150.347 1397.06,149.135 
  1398.69,147.923 1400.32,146.711 1401.95,145.499 1403.58,144.287 1405.21,143.075 1406.84,141.864 1408.47,140.652 1410.1,139.44 1411.73,138.228 1413.36,137.016 
  1414.99,135.804 1416.62,134.592 1418.25,133.38 1419.87,132.169 1421.5,130.957 1423.13,129.745 1424.76,128.533 1426.39,127.321 1428.02,126.109 1429.65,124.897 
  1431.28,123.685 1432.91,122.474 1434.54,121.262 1436.17,120.05 1437.8,118.838 1439.43,117.626 1441.06,116.414 1442.69,115.202 1444.32,113.99 1445.95,112.779 
  1447.58,111.567 1449.21,110.355 1450.84,109.143 1452.47,107.931 1454.1,106.719 1455.73,105.507 1457.36,104.295 1458.99,103.084 1460.61,101.872 1462.24,100.66 
  1463.87,99.4479 1465.5,98.236 1467.13,97.0242 1468.76,95.8123 1470.39,94.6004 1472.02,93.3885 1473.65,92.1767 1475.28,90.9648 1476.91,89.7529 1478.54,88.541 
  1480.17,87.3292 1481.8,86.1173 1483.43,84.9054 1485.06,83.6935 1486.69,82.4817 1488.32,81.2698 1489.95,80.0579 1491.58,78.8461 1493.21,77.6342 1494.84,76.4223 
  1496.47,75.2104 1498.1,75.6765 1499.73,76.1426 1501.36,76.6087 1502.98,77.0748 1504.61,77.541 1506.24,78.0071 1507.87,78.4732 1509.5,78.9393 1511.13,79.4054 
  1512.76,79.8715 1514.39,80.3376 1516.02,80.8037 1517.65,81.2698 1519.28,81.7359 1520.91,82.202 1522.54,82.6681 1524.17,83.1342 1525.8,83.6003 1527.43,84.0664 
  1529.06,84.5325 1530.69,84.9986 1532.32,85.4647 1533.95,85.9309 1535.58,86.397 1537.21,86.8631 1538.84,87.3292 1540.47,87.7953 1542.1,88.2614 1543.72,88.7275 
  1545.35,89.1936 1546.98,89.6597 1548.61,90.1258 1550.24,90.5919 1551.87,91.058 1553.5,91.5241 1555.13,91.9902 1556.76,92.4563 1558.39,92.9224 1560.02,93.3885 
  1561.65,93.8546 1563.28,94.3208 1564.91,94.7869 1566.54,95.253 1568.17,95.7191 1569.8,96.1852 1571.43,96.6513 1573.06,97.1174 1574.69,97.5835 1576.32,98.0496 
  1577.95,98.5157 1579.58,98.9818 1581.21,99.4479 1582.84,99.914 1584.46,100.38 1586.09,100.846 1587.72,101.312 1589.35,101.778 1590.98,102.245 1592.61,102.711 
  1594.24,103.177 1595.87,103.643 1597.5,104.109 1599.13,104.575 1600.76,105.041 1602.39,105.507 1604.02,105.973 1605.65,106.439 1607.28,106.906 1608.91,107.372 
  1610.54,107.838 1612.17,108.304 1613.8,108.77 1615.43,109.236 1617.06,109.702 1618.69,110.168 1620.32,110.634 1621.95,111.101 1623.58,111.567 1625.21,112.033 
  1626.83,112.499 1628.46,112.965 1630.09,113.431 1631.72,113.897 1633.35,114.363 1634.98,114.829 1636.61,115.296 1638.24,115.762 1639.87,116.228 1641.5,116.694 
  1643.13,117.16 1644.76,117.626 1646.39,118.092 1648.02,118.558 1649.65,119.024 1651.28,119.49 1652.91,119.957 1654.54,120.423 1656.17,120.889 1657.8,121.355 
  1659.43,121.821 1661.06,122.287 1662.69,122.753 1664.32,123.219 1665.95,123.685 1667.57,124.152 1669.2,124.618 1670.83,125.084 1672.46,125.55 1674.09,126.016 
  1675.72,126.482 1677.35,126.948 1678.98,127.414 1680.61,127.88 1682.24,128.346 1683.87,128.813 1685.5,129.279 1687.13,129.745 1688.76,130.211 1690.39,130.677 
  1692.02,131.143 1693.65,131.609 1695.28,132.075 1696.91,132.541 1698.54,133.008 1700.17,133.474 1701.8,133.94 1703.43,134.406 1705.06,134.872 1706.69,135.338 
  1708.31,135.804 1709.94,136.27 1711.57,136.736 1713.2,137.202 1714.83,137.669 1716.46,138.135 1718.09,138.601 1719.72,139.067 1721.35,139.533 1722.98,139.999 
  1724.61,140.465 1726.24,140.931 1727.87,141.397 1729.5,141.864 1731.13,142.33 1732.76,142.796 1734.39,143.262 1736.02,143.728 1737.65,144.194 1739.28,144.66 
  1740.91,145.126 1742.54,145.592 1744.17,146.058 1745.8,146.525 1747.43,146.991 1749.06,147.457 1750.68,147.923 1752.31,148.389 1753.94,148.855 1755.57,149.321 
  1757.2,149.787 1758.83,150.253 1760.46,150.72 1762.09,151.186 1763.72,151.652 1765.35,152.118 1766.98,152.584 1768.61,153.05 1770.24,153.516 1771.87,153.982 
  1773.5,154.448 1775.13,154.914 1776.76,155.381 1778.39,155.847 1780.02,156.313 1781.65,156.779 1783.28,157.245 1784.91,157.711 1786.54,158.177 1788.17,158.643 
  1789.8,159.109 1791.42,159.576 1793.05,160.042 1794.68,160.508 1796.31,160.974 1797.94,161.44 1799.57,161.906 1801.2,162.372 1802.83,162.838 1804.46,163.304 
  1806.09,163.77 1807.72,164.237 1809.35,164.703 1810.98,165.169 1812.61,165.635 1814.24,166.101 1815.87,166.567 1817.5,167.033 1819.13,167.499 1820.76,167.965 
  1822.39,168.432 1824.02,168.898 1825.65,169.364 1827.28,169.83 1828.91,170.296 1830.54,170.762 1832.17,171.228 1833.79,171.694 1835.42,172.16 1837.05,172.626 
  1838.68,173.093 1840.31,173.559 1841.94,174.025 1843.57,174.491 1845.2,174.957 1846.83,175.423 1848.46,175.889 1850.09,176.355 1851.72,176.821 1853.35,177.288 
  1854.98,177.754 1856.61,178.22 1858.24,178.686 1859.87,179.152 1861.5,179.618 1863.13,180.084 1864.76,180.55 1866.39,181.016 1868.02,181.482 1869.65,181.949 
  1871.28,182.415 1872.91,182.881 1874.53,183.347 1876.16,183.813 1877.79,184.279 1879.42,184.745 1881.05,185.211 1882.68,185.677 1884.31,186.144 1885.94,186.61 
  1887.57,187.076 1889.2,187.542 1890.83,188.008 1892.46,188.474 1894.09,188.94 1895.72,189.406 1897.35,189.872 1898.98,190.338 1900.61,190.805 1902.24,191.271 
  1903.87,191.737 
  "/>
<polyline clip-path="url(#clip372)" style="stroke:#0000ff; stroke-linecap:butt; stroke-linejoin:round; stroke-width:4; stroke-opacity:1; fill:none" points="
  274.262,1007.42 275.891,1007.42 277.521,1007.42 279.15,1007.42 280.78,1007.42 282.41,1007.42 284.039,1007.42 285.669,1007.42 287.298,1007.42 288.928,1007.42 
  290.558,1007.42 292.187,1007.42 293.817,1007.42 295.447,1007.42 297.076,1007.42 298.706,1007.42 300.335,1007.42 301.965,1007.42 303.595,1007.42 305.224,1007.42 
  306.854,1007.42 308.483,1007.42 310.113,1007.42 311.743,1007.42 313.372,1007.42 315.002,1007.42 316.631,1007.42 318.261,1007.42 319.891,1007.42 321.52,1007.42 
  323.15,1007.42 324.779,1007.42 326.409,1007.42 328.039,1007.42 329.668,1007.42 331.298,1007.42 332.927,1007.42 334.557,1007.42 336.187,1007.42 337.816,1007.42 
  339.446,1007.42 341.075,1007.42 342.705,1007.42 344.335,1007.42 345.964,1007.42 347.594,1007.42 349.224,1007.42 350.853,1007.42 352.483,1007.42 354.112,1007.42 
  355.742,1007.42 357.372,1007.42 359.001,1007.42 360.631,1007.42 362.26,1007.42 363.89,1007.42 365.52,1007.42 367.149,1007.42 368.779,1007.42 370.408,1007.42 
  372.038,1007.42 373.668,1007.42 375.297,1007.42 376.927,1007.42 378.556,1007.42 380.186,1007.42 381.816,1007.42 383.445,1007.42 385.075,1007.42 386.704,1007.42 
  388.334,1007.42 389.964,1007.42 391.593,1007.42 393.223,1007.42 394.852,1007.42 396.482,1007.42 398.112,1007.42 399.741,1007.42 401.371,1007.42 403.001,1007.42 
  404.63,1007.42 406.26,1007.42 407.889,1007.42 409.519,1007.42 411.149,1007.42 412.778,1007.42 414.408,1007.42 416.037,1007.42 417.667,1007.42 419.297,1007.42 
  420.926,1007.42 422.556,1007.42 424.185,1007.42 425.815,1007.42 427.445,1007.42 429.074,1007.42 430.704,1007.42 432.333,1007.42 433.963,1007.42 435.593,1007.42 
  437.222,1007.42 438.852,1007.42 440.481,1007.42 442.111,1007.42 443.741,1007.42 445.37,1007.42 447,1007.42 448.629,1007.42 450.259,1007.42 451.889,1007.42 
  453.518,1007.42 455.148,1007.42 456.778,1007.42 458.407,1007.42 460.037,1007.42 461.666,1007.42 463.296,1007.42 464.926,1007.42 466.555,1007.42 468.185,1007.42 
  469.814,1007.42 471.444,1007.42 473.074,1007.42 474.703,1007.42 476.333,1007.42 477.962,1007.42 479.592,1006.21 481.222,1005 482.851,1003.79 484.481,1002.57 
  486.11,1001.36 487.74,1000.15 489.37,998.938 490.999,997.727 492.629,996.515 494.258,995.303 495.888,994.091 497.518,992.879 499.147,991.667 500.777,990.455 
  502.406,989.243 504.036,988.032 505.666,986.82 507.295,985.608 508.925,984.396 510.555,983.184 512.184,981.972 513.814,980.76 515.443,979.548 517.073,978.337 
  518.703,977.125 520.332,975.913 521.962,974.701 523.591,973.489 525.221,972.277 526.851,971.065 528.48,969.853 530.11,968.642 531.739,967.43 533.369,966.218 
  534.999,965.006 536.628,963.794 538.258,962.582 539.887,961.37 541.517,960.158 543.147,958.947 544.776,957.735 546.406,956.523 548.035,955.311 549.665,954.099 
  551.295,952.887 552.924,951.675 554.554,950.463 556.183,949.252 557.813,948.04 559.443,946.828 561.072,945.616 562.702,944.404 564.332,943.192 565.961,941.98 
  567.591,940.768 569.22,939.557 570.85,938.345 572.48,937.133 574.109,935.921 575.739,934.709 577.368,933.497 578.998,932.285 580.628,931.073 582.257,929.862 
  583.887,928.65 585.516,927.438 587.146,926.226 588.776,925.014 590.405,923.802 592.035,922.59 593.664,921.378 595.294,920.167 596.924,918.955 598.553,917.743 
  600.183,916.531 601.812,915.319 603.442,914.107 605.072,912.895 606.701,911.683 608.331,910.472 609.96,909.26 611.59,908.048 613.22,906.836 614.849,905.624 
  616.479,904.412 618.109,903.2 619.738,901.988 621.368,900.777 622.997,899.565 624.627,898.353 626.257,897.141 627.886,895.929 629.516,894.717 631.145,893.505 
  632.775,892.293 634.405,891.082 636.034,889.87 637.664,888.658 639.293,887.446 640.923,886.234 642.553,885.022 644.182,883.81 645.812,882.598 647.441,881.387 
  649.071,880.175 650.701,878.963 652.33,877.751 653.96,876.539 655.589,875.327 657.219,874.115 658.849,872.903 660.478,871.692 662.108,870.48 663.737,869.268 
  665.367,868.056 666.997,866.844 668.626,865.632 670.256,864.42 671.886,863.208 673.515,861.997 675.145,860.785 676.774,859.573 678.404,858.361 680.034,857.149 
  681.663,855.937 683.293,854.725 684.922,853.513 686.552,852.302 688.182,851.09 689.811,849.878 691.441,848.666 693.07,847.454 694.7,846.242 696.33,845.03 
  697.959,843.818 699.589,842.607 701.218,841.395 702.848,840.183 704.478,838.971 706.107,837.759 707.737,836.547 709.366,835.335 710.996,834.123 712.626,832.912 
  714.255,831.7 715.885,830.488 717.514,829.276 719.144,828.064 720.774,826.852 722.403,825.64 724.033,824.428 725.663,823.217 727.292,822.005 728.922,820.793 
  730.551,819.581 732.181,818.369 733.811,817.157 735.44,815.945 737.07,814.733 738.699,813.522 740.329,812.31 741.959,811.098 743.588,809.886 745.218,808.674 
  746.847,807.462 748.477,806.25 750.107,805.038 751.736,803.827 753.366,802.615 754.995,801.403 756.625,800.191 758.255,798.979 759.884,797.767 761.514,796.555 
  763.143,795.343 764.773,794.132 766.403,792.92 768.032,791.708 769.662,790.496 771.291,789.284 772.921,788.072 774.551,786.86 776.18,785.648 777.81,784.437 
  779.44,783.225 781.069,782.013 782.699,780.801 784.328,779.589 785.958,778.377 787.588,777.165 789.217,775.953 790.847,774.742 792.476,773.53 794.106,772.318 
  795.736,771.106 797.365,769.894 798.995,768.682 800.624,767.47 802.254,766.259 803.884,765.047 805.513,763.835 807.143,762.623 808.772,761.411 810.402,760.199 
  812.032,758.987 813.661,757.775 815.291,756.564 816.92,755.352 818.55,754.14 820.18,752.928 821.809,751.716 823.439,750.504 825.068,749.292 826.698,748.08 
  828.328,746.869 829.957,745.657 831.587,744.445 833.217,743.233 834.846,742.021 836.476,740.809 838.105,739.597 839.735,738.385 841.365,737.174 842.994,735.962 
  844.624,734.75 846.253,733.538 847.883,732.326 849.513,731.114 851.142,729.902 852.772,728.69 854.401,727.479 856.031,726.267 857.661,725.055 859.29,723.843 
  860.92,722.631 862.549,721.419 864.179,720.207 865.809,718.995 867.438,717.784 869.068,716.572 870.697,715.36 872.327,714.148 873.957,712.936 875.586,711.724 
  877.216,710.512 878.845,709.3 880.475,708.089 882.105,706.877 883.734,705.665 885.364,704.453 886.994,703.241 888.623,702.029 890.253,700.817 891.882,699.605 
  893.512,698.394 895.142,697.182 896.771,695.97 898.401,694.758 900.03,693.546 901.66,692.334 903.29,691.122 904.919,689.91 906.549,688.699 908.178,687.487 
  909.808,686.275 911.438,685.063 913.067,683.851 914.697,682.639 916.326,681.427 917.956,680.215 919.586,679.004 921.215,677.792 922.845,676.58 924.474,675.368 
  926.104,674.156 927.734,672.944 929.363,671.732 930.993,670.52 932.622,669.309 934.252,668.097 935.882,666.885 937.511,665.673 939.141,664.461 940.771,663.249 
  942.4,662.037 944.03,660.825 945.659,659.614 947.289,658.402 948.919,657.19 950.548,655.978 952.178,654.766 953.807,653.554 955.437,652.342 957.067,651.13 
  958.696,649.919 960.326,648.707 961.955,647.495 963.585,646.283 965.215,645.071 966.844,643.859 968.474,642.647 970.103,641.435 971.733,640.224 973.363,639.012 
  974.992,637.8 976.622,636.588 978.251,635.376 979.881,634.164 981.511,632.952 983.14,631.74 984.77,630.529 986.399,629.317 988.029,628.105 989.659,626.893 
  991.288,625.681 992.918,624.469 994.548,623.257 996.177,622.045 997.807,620.834 999.436,619.622 1001.07,618.41 1002.7,617.198 1004.33,615.986 1005.95,614.774 
  1007.58,613.562 1009.21,612.35 1010.84,611.139 1012.47,609.927 1014.1,608.715 1015.73,607.503 1017.36,606.291 1018.99,605.079 1020.62,603.867 1022.25,602.655 
  1023.88,601.444 1025.51,600.232 1027.14,599.02 1028.77,597.808 1030.4,596.596 1032.03,595.384 1033.66,594.172 1035.29,592.96 1036.92,591.749 1038.55,590.537 
  1040.18,589.325 1041.81,588.113 1043.44,586.901 1045.07,585.689 1046.69,584.477 1048.32,583.265 1049.95,582.054 1051.58,580.842 1053.21,579.63 1054.84,578.418 
  1056.47,577.206 1058.1,575.994 1059.73,574.782 1061.36,573.57 1062.99,572.359 1064.62,571.147 1066.25,569.935 1067.88,568.723 1069.51,567.511 1071.14,566.299 
  1072.77,565.087 1074.4,563.875 1076.03,562.664 1077.66,561.452 1079.29,560.24 1080.92,559.028 1082.55,557.816 1084.18,556.604 1085.81,555.392 1087.44,554.18 
  1089.06,552.969 1090.69,551.757 1092.32,550.545 1093.95,549.333 1095.58,548.121 1097.21,546.909 1098.84,545.697 1100.47,544.485 1102.1,543.274 1103.73,542.062 
  1105.36,540.85 1106.99,539.638 1108.62,538.426 1110.25,537.214 1111.88,536.002 1113.51,534.79 1115.14,533.579 1116.77,532.367 1118.4,531.155 1120.03,529.943 
  1121.66,528.731 1123.29,527.519 1124.92,526.307 1126.55,525.095 1128.18,523.884 1129.8,522.672 1131.43,521.46 1133.06,520.248 1134.69,519.036 1136.32,517.824 
  1137.95,516.612 1139.58,515.401 1141.21,514.189 1142.84,512.977 1144.47,511.765 1146.1,510.553 1147.73,509.341 1149.36,508.129 1150.99,506.917 1152.62,505.706 
  1154.25,504.494 1155.88,503.282 1157.51,502.07 1159.14,500.858 1160.77,499.646 1162.4,498.434 1164.03,497.222 1165.66,496.011 1167.29,494.799 1168.92,493.587 
  1170.54,492.375 1172.17,491.163 1173.8,489.951 1175.43,488.739 1177.06,487.527 1178.69,486.316 1180.32,485.104 1181.95,483.892 1183.58,482.68 1185.21,481.468 
  1186.84,480.256 1188.47,479.044 1190.1,477.832 1191.73,476.621 1193.36,475.409 1194.99,474.197 1196.62,472.985 1198.25,471.773 1199.88,470.561 1201.51,469.349 
  1203.14,468.137 1204.77,466.926 1206.4,465.714 1208.03,464.502 1209.66,463.29 1211.29,462.078 1212.91,460.866 1214.54,459.654 1216.17,458.442 1217.8,457.231 
  1219.43,456.019 1221.06,454.807 1222.69,453.595 1224.32,452.383 1225.95,451.171 1227.58,449.959 1229.21,448.747 1230.84,447.536 1232.47,446.324 1234.1,445.112 
  1235.73,443.9 1237.36,442.688 1238.99,441.476 1240.62,440.264 1242.25,439.052 1243.88,437.841 1245.51,436.629 1247.14,435.417 1248.77,434.205 1250.4,432.993 
  1252.03,431.781 1253.65,430.569 1255.28,429.357 1256.91,428.146 1258.54,426.934 1260.17,425.722 1261.8,424.51 1263.43,423.298 1265.06,422.086 1266.69,420.874 
  1268.32,419.662 1269.95,418.451 1271.58,417.239 1273.21,416.027 1274.84,414.815 1276.47,413.603 1278.1,412.391 1279.73,411.179 1281.36,409.967 1282.99,408.756 
  1284.62,407.544 1286.25,406.332 1287.88,405.12 1289.51,403.908 1291.14,402.696 1292.77,401.484 1294.4,400.272 1296.02,399.061 1297.65,397.849 1299.28,396.637 
  1300.91,395.425 1302.54,394.213 1304.17,393.001 1305.8,391.789 1307.43,390.577 1309.06,389.366 1310.69,388.154 1312.32,386.942 1313.95,385.73 1315.58,384.518 
  1317.21,383.306 1318.84,382.094 1320.47,380.882 1322.1,379.671 1323.73,378.459 1325.36,377.247 1326.99,376.035 1328.62,374.823 1330.25,373.611 1331.88,372.399 
  1333.51,371.187 1335.14,369.976 1336.76,368.764 1338.39,367.552 1340.02,366.34 1341.65,365.128 1343.28,363.916 1344.91,362.704 1346.54,361.492 1348.17,360.281 
  1349.8,359.069 1351.43,357.857 1353.06,356.645 1354.69,355.433 1356.32,354.221 1357.95,353.009 1359.58,351.797 1361.21,350.586 1362.84,349.374 1364.47,348.162 
  1366.1,346.95 1367.73,345.738 1369.36,344.526 1370.99,343.314 1372.62,342.102 1374.25,340.891 1375.88,339.679 1377.5,338.467 1379.13,337.255 1380.76,336.043 
  1382.39,334.831 1384.02,333.619 1385.65,332.407 1387.28,331.196 1388.91,329.984 1390.54,328.772 1392.17,327.56 1393.8,326.348 1395.43,325.136 1397.06,323.924 
  1398.69,322.712 1400.32,321.501 1401.95,320.289 1403.58,319.077 1405.21,317.865 1406.84,316.653 1408.47,315.441 1410.1,314.229 1411.73,313.017 1413.36,311.806 
  1414.99,310.594 1416.62,309.382 1418.25,308.17 1419.87,306.958 1421.5,305.746 1423.13,304.534 1424.76,303.322 1426.39,302.111 1428.02,300.899 1429.65,299.687 
  1431.28,298.475 1432.91,297.263 1434.54,296.051 1436.17,294.839 1437.8,293.627 1439.43,292.416 1441.06,291.204 1442.69,289.992 1444.32,288.78 1445.95,287.568 
  1447.58,286.356 1449.21,285.144 1450.84,283.932 1452.47,282.721 1454.1,281.509 1455.73,280.297 1457.36,279.085 1458.99,277.873 1460.61,276.661 1462.24,275.449 
  1463.87,274.237 1465.5,273.026 1467.13,271.814 1468.76,270.602 1470.39,269.39 1472.02,268.178 1473.65,266.966 1475.28,265.754 1476.91,264.542 1478.54,263.331 
  1480.17,262.119 1481.8,260.907 1483.43,259.695 1485.06,258.483 1486.69,257.271 1488.32,256.059 1489.95,254.848 1491.58,253.636 1493.21,252.424 1494.84,251.212 
  1496.47,250 1498.1,250 1499.73,250 1501.36,250 1502.98,250 1504.61,250 1506.24,250 1507.87,250 1509.5,250 1511.13,250 
  1512.76,250 1514.39,250 1516.02,250 1517.65,250 1519.28,250 1520.91,250 1522.54,250 1524.17,250 1525.8,250 1527.43,250 
  1529.06,250 1530.69,250 1532.32,250 1533.95,250 1535.58,250 1537.21,250 1538.84,250 1540.47,250 1542.1,250 1543.72,250 
  1545.35,250 1546.98,250 1548.61,250 1550.24,250 1551.87,250 1553.5,250 1555.13,250 1556.76,250 1558.39,250 1560.02,250 
  1561.65,250 1563.28,250 1564.91,250 1566.54,250 1568.17,250 1569.8,250 1571.43,250 1573.06,250 1574.69,250 1576.32,250 
  1577.95,250 1579.58,250 1581.21,250 1582.84,250 1584.46,250 1586.09,250 1587.72,250 1589.35,250 1590.98,250 1592.61,250 
  1594.24,250 1595.87,250 1597.5,250 1599.13,250 1600.76,250 1602.39,250 1604.02,250 1605.65,250 1607.28,250 1608.91,250 
  1610.54,250 1612.17,250 1613.8,250 1615.43,250 1617.06,250 1618.69,250 1620.32,250 1621.95,250 1623.58,250 1625.21,250 
  1626.83,250 1628.46,250 1630.09,250 1631.72,250 1633.35,250 1634.98,250 1636.61,250 1638.24,250 1639.87,250 1641.5,250 
  1643.13,250 1644.76,250 1646.39,250 1648.02,250 1649.65,250 1651.28,250 1652.91,250 1654.54,250 1656.17,250 1657.8,250 
  1659.43,250 1661.06,250 1662.69,250 1664.32,250 1665.95,250 1667.57,250 1669.2,250 1670.83,250 1672.46,250 1674.09,250 
  1675.72,250 1677.35,250 1678.98,250 1680.61,250 1682.24,250 1683.87,250 1685.5,250 1687.13,250 1688.76,250 1690.39,250 
  1692.02,250 1693.65,250 1695.28,250 1696.91,250 1698.54,250 1700.17,250 1701.8,250 1703.43,250 1705.06,250 1706.69,250 
  1708.31,250 1709.94,250 1711.57,250 1713.2,250 1714.83,250 1716.46,250 1718.09,250 1719.72,250 1721.35,250 1722.98,250 
  1724.61,250 1726.24,250 1727.87,250 1729.5,250 1731.13,250 1732.76,250 1734.39,250 1736.02,250 1737.65,250 1739.28,250 
  1740.91,250 1742.54,250 1744.17,250 1745.8,250 1747.43,250 1749.06,250 1750.68,250 1752.31,250 1753.94,250 1755.57,250 
  1757.2,250 1758.83,250 1760.46,250 1762.09,250 1763.72,250 1765.35,250 1766.98,250 1768.61,250 1770.24,250 1771.87,250 
  1773.5,250 1775.13,250 1776.76,250 1778.39,250 1780.02,250 1781.65,250 1783.28,250 1784.91,250 1786.54,250 1788.17,250 
  1789.8,250 1791.42,250 1793.05,250 1794.68,250 1796.31,250 1797.94,250 1799.57,250 1801.2,250 1802.83,250 1804.46,250 
  1806.09,250 1807.72,250 1809.35,250 1810.98,250 1812.61,250 1814.24,250 1815.87,250 1817.5,250 1819.13,250 1820.76,250 
  1822.39,250 1824.02,250 1825.65,250 1827.28,250 1828.91,250 1830.54,250 1832.17,250 1833.79,250 1835.42,250 1837.05,250 
  1838.68,250 1840.31,250 1841.94,250 1843.57,250 1845.2,250 1846.83,250 1848.46,250 1850.09,250 1851.72,250 1853.35,250 
  1854.98,250 1856.61,250 1858.24,250 1859.87,250 1861.5,250 1863.13,250 1864.76,250 1866.39,250 1868.02,250 1869.65,250 
  1871.28,250 1872.91,250 1874.53,250 1876.16,250 1877.79,250 1879.42,250 1881.05,250 1882.68,250 1884.31,250 1885.94,250 
  1887.57,250 1889.2,250 1890.83,250 1892.46,250 1894.09,250 1895.72,250 1897.35,250 1898.98,250 1900.61,250 1902.24,250 
  1903.87,250 
  "/>
</svg>
