<?xml version="1.0" encoding="utf-8"?>
<svg xmlns="http://www.w3.org/2000/svg" xmlns:xlink="http://www.w3.org/1999/xlink" width="600" height="400" viewBox="0 0 2400 1600">
<defs>
  <clipPath id="clip910">
    <rect x="0" y="0" width="2400" height="1600"/>
  </clipPath>
</defs>
<path clip-path="url(#clip910)" d="
M0 1600 L2400 1600 L2400 0 L0 0  Z
  " fill="#ffffff" fill-rule="evenodd" fill-opacity="1"/>
<defs>
  <clipPath id="clip911">
    <rect x="480" y="0" width="1681" height="1600"/>
  </clipPath>
</defs>
<path clip-path="url(#clip910)" d="
M398.573 1423.18 L2352.76 1423.18 L2352.76 123.472 L398.573 123.472  Z
  " fill="#ffffff" fill-rule="evenodd" fill-opacity="1"/>
<defs>
  <clipPath id="clip912">
    <rect x="398" y="123" width="1955" height="1301"/>
  </clipPath>
</defs>
<polyline clip-path="url(#clip912)" style="stroke:#000000; stroke-linecap:butt; stroke-linejoin:round; stroke-width:2; stroke-opacity:0.1; fill:none" points="
  761.142,1423.18 761.142,123.472 
  "/>
<polyline clip-path="url(#clip912)" style="stroke:#000000; stroke-linecap:butt; stroke-linejoin:round; stroke-width:2; stroke-opacity:0.1; fill:none" points="
  1273.24,1423.18 1273.24,123.472 
  "/>
<polyline clip-path="url(#clip912)" style="stroke:#000000; stroke-linecap:butt; stroke-linejoin:round; stroke-width:2; stroke-opacity:0.1; fill:none" points="
  1785.35,1423.18 1785.35,123.472 
  "/>
<polyline clip-path="url(#clip912)" style="stroke:#000000; stroke-linecap:butt; stroke-linejoin:round; stroke-width:2; stroke-opacity:0.1; fill:none" points="
  2297.45,1423.18 2297.45,123.472 
  "/>
<polyline clip-path="url(#clip910)" style="stroke:#000000; stroke-linecap:butt; stroke-linejoin:round; stroke-width:4; stroke-opacity:1; fill:none" points="
  398.573,1423.18 2352.76,1423.18 
  "/>
<polyline clip-path="url(#clip910)" style="stroke:#000000; stroke-linecap:butt; stroke-linejoin:round; stroke-width:4; stroke-opacity:1; fill:none" points="
  761.142,1423.18 761.142,1404.28 
  "/>
<polyline clip-path="url(#clip910)" style="stroke:#000000; stroke-linecap:butt; stroke-linejoin:round; stroke-width:4; stroke-opacity:1; fill:none" points="
  1273.24,1423.18 1273.24,1404.28 
  "/>
<polyline clip-path="url(#clip910)" style="stroke:#000000; stroke-linecap:butt; stroke-linejoin:round; stroke-width:4; stroke-opacity:1; fill:none" points="
  1785.35,1423.18 1785.35,1404.28 
  "/>
<polyline clip-path="url(#clip910)" style="stroke:#000000; stroke-linecap:butt; stroke-linejoin:round; stroke-width:4; stroke-opacity:1; fill:none" points="
  2297.45,1423.18 2297.45,1404.28 
  "/>
<path clip-path="url(#clip910)" d="M720.749 1481.64 L728.387 1481.64 L728.387 1455.28 L720.077 1456.95 L720.077 1452.69 L728.341 1451.02 L733.017 1451.02 L733.017 1481.64 L740.656 1481.64 L740.656 1485.58 L720.749 1485.58 L720.749 1481.64 Z" fill="#000000" fill-rule="evenodd" fill-opacity="1" /><path clip-path="url(#clip910)" d="M760.1 1454.1 Q756.489 1454.1 754.66 1457.66 Q752.855 1461.2 752.855 1468.33 Q752.855 1475.44 754.66 1479.01 Q756.489 1482.55 760.1 1482.55 Q763.734 1482.55 765.54 1479.01 Q767.369 1475.44 767.369 1468.33 Q767.369 1461.2 765.54 1457.66 Q763.734 1454.1 760.1 1454.1 M760.1 1450.39 Q765.91 1450.39 768.966 1455 Q772.045 1459.58 772.045 1468.33 Q772.045 1477.06 768.966 1481.67 Q765.91 1486.25 760.1 1486.25 Q754.29 1486.25 751.211 1481.67 Q748.156 1477.06 748.156 1468.33 Q748.156 1459.58 751.211 1455 Q754.29 1450.39 760.1 1450.39 Z" fill="#000000" fill-rule="evenodd" fill-opacity="1" /><path clip-path="url(#clip910)" d="M790.262 1454.1 Q786.651 1454.1 784.822 1457.66 Q783.017 1461.2 783.017 1468.33 Q783.017 1475.44 784.822 1479.01 Q786.651 1482.55 790.262 1482.55 Q793.896 1482.55 795.702 1479.01 Q797.531 1475.44 797.531 1468.33 Q797.531 1461.2 795.702 1457.66 Q793.896 1454.1 790.262 1454.1 M790.262 1450.39 Q796.072 1450.39 799.128 1455 Q802.206 1459.58 802.206 1468.33 Q802.206 1477.06 799.128 1481.67 Q796.072 1486.25 790.262 1486.25 Q784.452 1486.25 781.373 1481.67 Q778.318 1477.06 778.318 1468.33 Q778.318 1459.58 781.373 1455 Q784.452 1450.39 790.262 1450.39 Z" fill="#000000" fill-rule="evenodd" fill-opacity="1" /><path clip-path="url(#clip910)" d="M1236.94 1481.64 L1253.26 1481.64 L1253.26 1485.58 L1231.31 1485.58 L1231.31 1481.64 Q1233.97 1478.89 1238.56 1474.26 Q1243.16 1469.61 1244.34 1468.27 Q1246.59 1465.74 1247.47 1464.01 Q1248.37 1462.25 1248.37 1460.56 Q1248.37 1457.8 1246.43 1456.07 Q1244.51 1454.33 1241.4 1454.33 Q1239.2 1454.33 1236.75 1455.09 Q1234.32 1455.86 1231.54 1457.41 L1231.54 1452.69 Q1234.37 1451.55 1236.82 1450.97 Q1239.27 1450.39 1241.31 1450.39 Q1246.68 1450.39 1249.88 1453.08 Q1253.07 1455.77 1253.07 1460.26 Q1253.07 1462.39 1252.26 1464.31 Q1251.47 1466.2 1249.37 1468.8 Q1248.79 1469.47 1245.69 1472.69 Q1242.58 1475.88 1236.94 1481.64 Z" fill="#000000" fill-rule="evenodd" fill-opacity="1" /><path clip-path="url(#clip910)" d="M1273.07 1454.1 Q1269.46 1454.1 1267.63 1457.66 Q1265.83 1461.2 1265.83 1468.33 Q1265.83 1475.44 1267.63 1479.01 Q1269.46 1482.55 1273.07 1482.55 Q1276.7 1482.55 1278.51 1479.01 Q1280.34 1475.44 1280.34 1468.33 Q1280.34 1461.2 1278.51 1457.66 Q1276.7 1454.1 1273.07 1454.1 M1273.07 1450.39 Q1278.88 1450.39 1281.94 1455 Q1285.01 1459.58 1285.01 1468.33 Q1285.01 1477.06 1281.94 1481.67 Q1278.88 1486.25 1273.07 1486.25 Q1267.26 1486.25 1264.18 1481.67 Q1261.13 1477.06 1261.13 1468.33 Q1261.13 1459.58 1264.18 1455 Q1267.26 1450.39 1273.07 1450.39 Z" fill="#000000" fill-rule="evenodd" fill-opacity="1" /><path clip-path="url(#clip910)" d="M1303.23 1454.1 Q1299.62 1454.1 1297.79 1457.66 Q1295.99 1461.2 1295.99 1468.33 Q1295.99 1475.44 1297.79 1479.01 Q1299.62 1482.55 1303.23 1482.55 Q1306.87 1482.55 1308.67 1479.01 Q1310.5 1475.44 1310.5 1468.33 Q1310.5 1461.2 1308.67 1457.66 Q1306.87 1454.1 1303.23 1454.1 M1303.23 1450.39 Q1309.04 1450.39 1312.1 1455 Q1315.18 1459.58 1315.18 1468.33 Q1315.18 1477.06 1312.1 1481.67 Q1309.04 1486.25 1303.23 1486.25 Q1297.42 1486.25 1294.34 1481.67 Q1291.29 1477.06 1291.29 1468.33 Q1291.29 1459.58 1294.34 1455 Q1297.42 1450.39 1303.23 1450.39 Z" fill="#000000" fill-rule="evenodd" fill-opacity="1" /><path clip-path="url(#clip910)" d="M1759.11 1466.95 Q1762.46 1467.66 1764.34 1469.93 Q1766.24 1472.2 1766.24 1475.53 Q1766.24 1480.65 1762.72 1483.45 Q1759.2 1486.25 1752.72 1486.25 Q1750.54 1486.25 1748.23 1485.81 Q1745.94 1485.39 1743.48 1484.54 L1743.48 1480.02 Q1745.43 1481.16 1747.74 1481.74 Q1750.06 1482.32 1752.58 1482.32 Q1756.98 1482.32 1759.27 1480.58 Q1761.59 1478.84 1761.59 1475.53 Q1761.59 1472.48 1759.43 1470.77 Q1757.3 1469.03 1753.48 1469.03 L1749.46 1469.03 L1749.46 1465.19 L1753.67 1465.19 Q1757.12 1465.19 1758.95 1463.82 Q1760.77 1462.43 1760.77 1459.84 Q1760.77 1457.18 1758.88 1455.77 Q1757 1454.33 1753.48 1454.33 Q1751.56 1454.33 1749.36 1454.75 Q1747.16 1455.16 1744.52 1456.04 L1744.52 1451.88 Q1747.19 1451.14 1749.5 1450.77 Q1751.84 1450.39 1753.9 1450.39 Q1759.22 1450.39 1762.33 1452.83 Q1765.43 1455.23 1765.43 1459.35 Q1765.43 1462.22 1763.78 1464.21 Q1762.14 1466.18 1759.11 1466.95 Z" fill="#000000" fill-rule="evenodd" fill-opacity="1" /><path clip-path="url(#clip910)" d="M1785.1 1454.1 Q1781.49 1454.1 1779.66 1457.66 Q1777.86 1461.2 1777.86 1468.33 Q1777.86 1475.44 1779.66 1479.01 Q1781.49 1482.55 1785.1 1482.55 Q1788.74 1482.55 1790.54 1479.01 Q1792.37 1475.44 1792.37 1468.33 Q1792.37 1461.2 1790.54 1457.66 Q1788.74 1454.1 1785.1 1454.1 M1785.1 1450.39 Q1790.91 1450.39 1793.97 1455 Q1797.05 1459.58 1797.05 1468.33 Q1797.05 1477.06 1793.97 1481.67 Q1790.91 1486.25 1785.1 1486.25 Q1779.29 1486.25 1776.21 1481.67 Q1773.16 1477.06 1773.16 1468.33 Q1773.16 1459.58 1776.21 1455 Q1779.29 1450.39 1785.1 1450.39 Z" fill="#000000" fill-rule="evenodd" fill-opacity="1" /><path clip-path="url(#clip910)" d="M1815.27 1454.1 Q1811.65 1454.1 1809.83 1457.66 Q1808.02 1461.2 1808.02 1468.33 Q1808.02 1475.44 1809.83 1479.01 Q1811.65 1482.55 1815.27 1482.55 Q1818.9 1482.55 1820.71 1479.01 Q1822.53 1475.44 1822.53 1468.33 Q1822.53 1461.2 1820.71 1457.66 Q1818.9 1454.1 1815.27 1454.1 M1815.27 1450.39 Q1821.08 1450.39 1824.13 1455 Q1827.21 1459.58 1827.21 1468.33 Q1827.21 1477.06 1824.13 1481.67 Q1821.08 1486.25 1815.27 1486.25 Q1809.46 1486.25 1806.38 1481.67 Q1803.32 1477.06 1803.32 1468.33 Q1803.32 1459.58 1806.38 1455 Q1809.46 1450.39 1815.27 1450.39 Z" fill="#000000" fill-rule="evenodd" fill-opacity="1" /><path clip-path="url(#clip910)" d="M2270.54 1455.09 L2258.73 1473.54 L2270.54 1473.54 L2270.54 1455.09 M2269.31 1451.02 L2275.19 1451.02 L2275.19 1473.54 L2280.12 1473.54 L2280.12 1477.43 L2275.19 1477.43 L2275.19 1485.58 L2270.54 1485.58 L2270.54 1477.43 L2254.94 1477.43 L2254.94 1472.92 L2269.31 1451.02 Z" fill="#000000" fill-rule="evenodd" fill-opacity="1" /><path clip-path="url(#clip910)" d="M2297.85 1454.1 Q2294.24 1454.1 2292.41 1457.66 Q2290.61 1461.2 2290.61 1468.33 Q2290.61 1475.44 2292.41 1479.01 Q2294.24 1482.55 2297.85 1482.55 Q2301.49 1482.55 2303.29 1479.01 Q2305.12 1475.44 2305.12 1468.33 Q2305.12 1461.2 2303.29 1457.66 Q2301.49 1454.1 2297.85 1454.1 M2297.85 1450.39 Q2303.66 1450.39 2306.72 1455 Q2309.8 1459.58 2309.8 1468.33 Q2309.8 1477.06 2306.72 1481.67 Q2303.66 1486.25 2297.85 1486.25 Q2292.04 1486.25 2288.97 1481.67 Q2285.91 1477.06 2285.91 1468.33 Q2285.91 1459.58 2288.97 1455 Q2292.04 1450.39 2297.85 1450.39 Z" fill="#000000" fill-rule="evenodd" fill-opacity="1" /><path clip-path="url(#clip910)" d="M2328.02 1454.1 Q2324.4 1454.1 2322.58 1457.66 Q2320.77 1461.2 2320.77 1468.33 Q2320.77 1475.44 2322.58 1479.01 Q2324.4 1482.55 2328.02 1482.55 Q2331.65 1482.55 2333.46 1479.01 Q2335.28 1475.44 2335.28 1468.33 Q2335.28 1461.2 2333.46 1457.66 Q2331.65 1454.1 2328.02 1454.1 M2328.02 1450.39 Q2333.83 1450.39 2336.88 1455 Q2339.96 1459.58 2339.96 1468.33 Q2339.96 1477.06 2336.88 1481.67 Q2333.83 1486.25 2328.02 1486.25 Q2322.21 1486.25 2319.13 1481.67 Q2316.07 1477.06 2316.07 1468.33 Q2316.07 1459.58 2319.13 1455 Q2322.21 1450.39 2328.02 1450.39 Z" fill="#000000" fill-rule="evenodd" fill-opacity="1" /><path clip-path="url(#clip910)" d="M1094.14 1522.27 L1094.14 1532.4 L1106.2 1532.4 L1106.2 1536.95 L1094.14 1536.95 L1094.14 1556.3 Q1094.14 1560.66 1095.32 1561.9 Q1096.53 1563.14 1100.19 1563.14 L1106.2 1563.14 L1106.2 1568.04 L1100.19 1568.04 Q1093.41 1568.04 1090.83 1565.53 Q1088.25 1562.98 1088.25 1556.3 L1088.25 1536.95 L1083.96 1536.95 L1083.96 1532.4 L1088.25 1532.4 L1088.25 1522.27 L1094.14 1522.27 Z" fill="#000000" fill-rule="evenodd" fill-opacity="1" /><path clip-path="url(#clip910)" d="M1144.4 1548.76 L1144.4 1551.62 L1117.47 1551.62 Q1117.85 1557.67 1121.1 1560.85 Q1124.38 1564 1130.2 1564 Q1133.58 1564 1136.73 1563.17 Q1139.91 1562.35 1143.03 1560.69 L1143.03 1566.23 Q1139.88 1567.57 1136.57 1568.27 Q1133.26 1568.97 1129.85 1568.97 Q1121.32 1568.97 1116.33 1564 Q1111.36 1559.04 1111.36 1550.57 Q1111.36 1541.82 1116.07 1536.69 Q1120.81 1531.54 1128.83 1531.54 Q1136.03 1531.54 1140.2 1536.18 Q1144.4 1540.8 1144.4 1548.76 M1138.54 1547.04 Q1138.48 1542.23 1135.84 1539.37 Q1133.23 1536.5 1128.9 1536.5 Q1124 1536.5 1121.04 1539.27 Q1118.11 1542.04 1117.66 1547.07 L1138.54 1547.04 Z" fill="#000000" fill-rule="evenodd" fill-opacity="1" /><path clip-path="url(#clip910)" d="M1181.77 1539.24 Q1183.96 1535.29 1187.02 1533.41 Q1190.07 1531.54 1194.21 1531.54 Q1199.78 1531.54 1202.8 1535.45 Q1205.83 1539.33 1205.83 1546.53 L1205.83 1568.04 L1199.94 1568.04 L1199.94 1546.72 Q1199.94 1541.59 1198.13 1539.11 Q1196.31 1536.63 1192.59 1536.63 Q1188.04 1536.63 1185.39 1539.65 Q1182.75 1542.68 1182.75 1547.9 L1182.75 1568.04 L1176.86 1568.04 L1176.86 1546.72 Q1176.86 1541.56 1175.05 1539.11 Q1173.24 1536.63 1169.45 1536.63 Q1164.96 1536.63 1162.32 1539.68 Q1159.68 1542.71 1159.68 1547.9 L1159.68 1568.04 L1153.79 1568.04 L1153.79 1532.4 L1159.68 1532.4 L1159.68 1537.93 Q1161.68 1534.66 1164.48 1533.1 Q1167.28 1531.54 1171.13 1531.54 Q1175.02 1531.54 1177.72 1533.51 Q1180.46 1535.48 1181.77 1539.24 Z" fill="#000000" fill-rule="evenodd" fill-opacity="1" /><path clip-path="url(#clip910)" d="M1223.17 1562.7 L1223.17 1581.6 L1217.29 1581.6 L1217.29 1532.4 L1223.17 1532.4 L1223.17 1537.81 Q1225.02 1534.62 1227.82 1533.1 Q1230.65 1531.54 1234.57 1531.54 Q1241.06 1531.54 1245.1 1536.69 Q1249.18 1541.85 1249.18 1550.25 Q1249.18 1558.65 1245.1 1563.81 Q1241.06 1568.97 1234.57 1568.97 Q1230.65 1568.97 1227.82 1567.44 Q1225.02 1565.88 1223.17 1562.7 M1243.1 1550.25 Q1243.1 1543.79 1240.43 1540.13 Q1237.78 1536.44 1233.14 1536.44 Q1228.49 1536.44 1225.82 1540.13 Q1223.17 1543.79 1223.17 1550.25 Q1223.17 1556.71 1225.82 1560.4 Q1228.49 1564.07 1233.14 1564.07 Q1237.78 1564.07 1240.43 1560.4 Q1243.1 1556.71 1243.1 1550.25 Z" fill="#000000" fill-rule="evenodd" fill-opacity="1" /><path clip-path="url(#clip910)" d="M1289.38 1548.76 L1289.38 1551.62 L1262.45 1551.62 Q1262.83 1557.67 1266.08 1560.85 Q1269.36 1564 1275.18 1564 Q1278.56 1564 1281.71 1563.17 Q1284.89 1562.35 1288.01 1560.69 L1288.01 1566.23 Q1284.86 1567.57 1281.55 1568.27 Q1278.24 1568.97 1274.83 1568.97 Q1266.3 1568.97 1261.3 1564 Q1256.34 1559.04 1256.34 1550.57 Q1256.34 1541.82 1261.05 1536.69 Q1265.79 1531.54 1273.81 1531.54 Q1281.01 1531.54 1285.18 1536.18 Q1289.38 1540.8 1289.38 1548.76 M1283.52 1547.04 Q1283.46 1542.23 1280.82 1539.37 Q1278.21 1536.5 1273.88 1536.5 Q1268.98 1536.5 1266.02 1539.27 Q1263.09 1542.04 1262.64 1547.07 L1283.52 1547.04 Z" fill="#000000" fill-rule="evenodd" fill-opacity="1" /><path clip-path="url(#clip910)" d="M1319.65 1537.87 Q1318.66 1537.3 1317.48 1537.04 Q1316.34 1536.76 1314.94 1536.76 Q1309.97 1536.76 1307.3 1540 Q1304.66 1543.22 1304.66 1549.27 L1304.66 1568.04 L1298.77 1568.04 L1298.77 1532.4 L1304.66 1532.4 L1304.66 1537.93 Q1306.5 1534.69 1309.46 1533.13 Q1312.42 1531.54 1316.65 1531.54 Q1317.26 1531.54 1317.99 1531.63 Q1318.72 1531.7 1319.61 1531.85 L1319.65 1537.87 Z" fill="#000000" fill-rule="evenodd" fill-opacity="1" /><path clip-path="url(#clip910)" d="M1341.99 1550.12 Q1334.89 1550.12 1332.16 1551.75 Q1329.42 1553.37 1329.42 1557.29 Q1329.42 1560.4 1331.45 1562.25 Q1333.52 1564.07 1337.06 1564.07 Q1341.93 1564.07 1344.85 1560.63 Q1347.81 1557.16 1347.81 1551.43 L1347.81 1550.12 L1341.99 1550.12 M1353.67 1547.71 L1353.67 1568.04 L1347.81 1568.04 L1347.81 1562.63 Q1345.81 1565.88 1342.82 1567.44 Q1339.83 1568.97 1335.5 1568.97 Q1330.02 1568.97 1326.78 1565.91 Q1323.56 1562.82 1323.56 1557.67 Q1323.56 1551.65 1327.57 1548.6 Q1331.61 1545.54 1339.6 1545.54 L1347.81 1545.54 L1347.81 1544.97 Q1347.81 1540.93 1345.14 1538.73 Q1342.5 1536.5 1337.69 1536.5 Q1334.64 1536.5 1331.74 1537.23 Q1328.84 1537.97 1326.17 1539.43 L1326.17 1534.02 Q1329.39 1532.78 1332.41 1532.17 Q1335.43 1531.54 1338.3 1531.54 Q1346.03 1531.54 1349.85 1535.55 Q1353.67 1539.56 1353.67 1547.71 Z" fill="#000000" fill-rule="evenodd" fill-opacity="1" /><path clip-path="url(#clip910)" d="M1371.53 1522.27 L1371.53 1532.4 L1383.59 1532.4 L1383.59 1536.95 L1371.53 1536.95 L1371.53 1556.3 Q1371.53 1560.66 1372.7 1561.9 Q1373.91 1563.14 1377.57 1563.14 L1383.59 1563.14 L1383.59 1568.04 L1377.57 1568.04 Q1370.79 1568.04 1368.22 1565.53 Q1365.64 1562.98 1365.64 1556.3 L1365.64 1536.95 L1361.34 1536.95 L1361.34 1532.4 L1365.64 1532.4 L1365.64 1522.27 L1371.53 1522.27 Z" fill="#000000" fill-rule="evenodd" fill-opacity="1" /><path clip-path="url(#clip910)" d="M1390.69 1553.98 L1390.69 1532.4 L1396.54 1532.4 L1396.54 1553.75 Q1396.54 1558.81 1398.52 1561.36 Q1400.49 1563.87 1404.44 1563.87 Q1409.18 1563.87 1411.92 1560.85 Q1414.69 1557.83 1414.69 1552.61 L1414.69 1532.4 L1420.54 1532.4 L1420.54 1568.04 L1414.69 1568.04 L1414.69 1562.57 Q1412.55 1565.82 1409.72 1567.41 Q1406.92 1568.97 1403.2 1568.97 Q1397.05 1568.97 1393.87 1565.15 Q1390.69 1561.33 1390.69 1553.98 M1405.42 1531.54 L1405.42 1531.54 Z" fill="#000000" fill-rule="evenodd" fill-opacity="1" /><path clip-path="url(#clip910)" d="M1453.26 1537.87 Q1452.28 1537.3 1451.1 1537.04 Q1449.95 1536.76 1448.55 1536.76 Q1443.59 1536.76 1440.91 1540 Q1438.27 1543.22 1438.27 1549.27 L1438.27 1568.04 L1432.38 1568.04 L1432.38 1532.4 L1438.27 1532.4 L1438.27 1537.93 Q1440.12 1534.69 1443.08 1533.13 Q1446.04 1531.54 1450.27 1531.54 Q1450.88 1531.54 1451.61 1531.63 Q1452.34 1531.7 1453.23 1531.85 L1453.26 1537.87 Z" fill="#000000" fill-rule="evenodd" fill-opacity="1" /><path clip-path="url(#clip910)" d="M1488.46 1548.76 L1488.46 1551.62 L1461.54 1551.62 Q1461.92 1557.67 1465.17 1560.85 Q1468.44 1564 1474.27 1564 Q1477.64 1564 1480.79 1563.17 Q1483.98 1562.35 1487.1 1560.69 L1487.1 1566.23 Q1483.95 1567.57 1480.64 1568.27 Q1477.32 1568.97 1473.92 1568.97 Q1465.39 1568.97 1460.39 1564 Q1455.43 1559.04 1455.43 1550.57 Q1455.43 1541.82 1460.14 1536.69 Q1464.88 1531.54 1472.9 1531.54 Q1480.09 1531.54 1484.26 1536.18 Q1488.46 1540.8 1488.46 1548.76 M1482.61 1547.04 Q1482.54 1542.23 1479.9 1539.37 Q1477.29 1536.5 1472.96 1536.5 Q1468.06 1536.5 1465.1 1539.27 Q1462.17 1542.04 1461.73 1547.07 L1482.61 1547.04 Z" fill="#000000" fill-rule="evenodd" fill-opacity="1" /><path clip-path="url(#clip910)" d="M1518.8 1532.4 L1524.65 1532.4 L1524.65 1568.04 L1518.8 1568.04 L1518.8 1532.4 M1518.8 1518.52 L1524.65 1518.52 L1524.65 1525.93 L1518.8 1525.93 L1518.8 1518.52 Z" fill="#000000" fill-rule="evenodd" fill-opacity="1" /><path clip-path="url(#clip910)" d="M1566.54 1546.53 L1566.54 1568.04 L1560.68 1568.04 L1560.68 1546.72 Q1560.68 1541.66 1558.71 1539.14 Q1556.74 1536.63 1552.79 1536.63 Q1548.05 1536.63 1545.31 1539.65 Q1542.57 1542.68 1542.57 1547.9 L1542.57 1568.04 L1536.69 1568.04 L1536.69 1532.4 L1542.57 1532.4 L1542.57 1537.93 Q1544.67 1534.72 1547.51 1533.13 Q1550.37 1531.54 1554.1 1531.54 Q1560.24 1531.54 1563.39 1535.36 Q1566.54 1539.14 1566.54 1546.53 Z" fill="#000000" fill-rule="evenodd" fill-opacity="1" /><path clip-path="url(#clip910)" d="M1609.1 1523.77 Q1606.55 1523.77 1604.8 1525.55 Q1603.05 1527.3 1603.05 1529.85 Q1603.05 1532.36 1604.8 1534.11 Q1606.55 1535.83 1609.1 1535.83 Q1611.64 1535.83 1613.39 1534.11 Q1615.14 1532.36 1615.14 1529.85 Q1615.14 1527.34 1613.36 1525.55 Q1611.61 1523.77 1609.1 1523.77 M1609.1 1519.66 Q1611.13 1519.66 1613.01 1520.46 Q1614.89 1521.22 1616.26 1522.69 Q1617.72 1524.12 1618.45 1525.93 Q1619.18 1527.75 1619.18 1529.85 Q1619.18 1534.05 1616.22 1536.98 Q1613.3 1539.88 1609.03 1539.88 Q1604.73 1539.88 1601.87 1537.01 Q1599.01 1534.15 1599.01 1529.85 Q1599.01 1525.58 1601.93 1522.62 Q1604.86 1519.66 1609.1 1519.66 Z" fill="#000000" fill-rule="evenodd" fill-opacity="1" /><path clip-path="url(#clip910)" d="M1667.37 1524.18 L1667.37 1530.96 Q1664.13 1527.94 1660.43 1526.44 Q1656.77 1524.95 1652.64 1524.95 Q1644.49 1524.95 1640.16 1529.95 Q1635.83 1534.91 1635.83 1544.33 Q1635.83 1553.72 1640.16 1558.72 Q1644.49 1563.68 1652.64 1563.68 Q1656.77 1563.68 1660.43 1562.19 Q1664.13 1560.69 1667.37 1557.67 L1667.37 1564.38 Q1664 1566.68 1660.21 1567.82 Q1656.46 1568.97 1652.25 1568.97 Q1641.46 1568.97 1635.26 1562.38 Q1629.05 1555.76 1629.05 1544.33 Q1629.05 1532.87 1635.26 1526.28 Q1641.46 1519.66 1652.25 1519.66 Q1656.52 1519.66 1660.28 1520.81 Q1664.06 1521.92 1667.37 1524.18 Z" fill="#000000" fill-rule="evenodd" fill-opacity="1" /><polyline clip-path="url(#clip912)" style="stroke:#000000; stroke-linecap:butt; stroke-linejoin:round; stroke-width:2; stroke-opacity:0.1; fill:none" points="
  398.573,1415.9 2352.76,1415.9 
  "/>
<polyline clip-path="url(#clip912)" style="stroke:#000000; stroke-linecap:butt; stroke-linejoin:round; stroke-width:2; stroke-opacity:0.1; fill:none" points="
  398.573,1018.01 2352.76,1018.01 
  "/>
<polyline clip-path="url(#clip912)" style="stroke:#000000; stroke-linecap:butt; stroke-linejoin:round; stroke-width:2; stroke-opacity:0.1; fill:none" points="
  398.573,620.124 2352.76,620.124 
  "/>
<polyline clip-path="url(#clip912)" style="stroke:#000000; stroke-linecap:butt; stroke-linejoin:round; stroke-width:2; stroke-opacity:0.1; fill:none" points="
  398.573,222.233 2352.76,222.233 
  "/>
<polyline clip-path="url(#clip910)" style="stroke:#000000; stroke-linecap:butt; stroke-linejoin:round; stroke-width:4; stroke-opacity:1; fill:none" points="
  398.573,1423.18 398.573,123.472 
  "/>
<polyline clip-path="url(#clip910)" style="stroke:#000000; stroke-linecap:butt; stroke-linejoin:round; stroke-width:4; stroke-opacity:1; fill:none" points="
  398.573,1415.9 417.471,1415.9 
  "/>
<polyline clip-path="url(#clip910)" style="stroke:#000000; stroke-linecap:butt; stroke-linejoin:round; stroke-width:4; stroke-opacity:1; fill:none" points="
  398.573,1018.01 417.471,1018.01 
  "/>
<polyline clip-path="url(#clip910)" style="stroke:#000000; stroke-linecap:butt; stroke-linejoin:round; stroke-width:4; stroke-opacity:1; fill:none" points="
  398.573,620.124 417.471,620.124 
  "/>
<polyline clip-path="url(#clip910)" style="stroke:#000000; stroke-linecap:butt; stroke-linejoin:round; stroke-width:4; stroke-opacity:1; fill:none" points="
  398.573,222.233 417.471,222.233 
  "/>
<path clip-path="url(#clip910)" d="M119.885 1435.7 L136.204 1435.7 L136.204 1439.63 L114.26 1439.63 L114.26 1435.7 Q116.922 1432.94 121.505 1428.31 Q126.112 1423.66 127.292 1422.32 Q129.538 1419.79 130.417 1418.06 Q131.32 1416.3 131.32 1414.61 Q131.32 1411.85 129.376 1410.12 Q127.455 1408.38 124.353 1408.38 Q122.154 1408.38 119.7 1409.15 Q117.269 1409.91 114.492 1411.46 L114.492 1406.74 Q117.316 1405.6 119.769 1405.03 Q122.223 1404.45 124.26 1404.45 Q129.63 1404.45 132.825 1407.13 Q136.019 1409.82 136.019 1414.31 Q136.019 1416.44 135.209 1418.36 Q134.422 1420.26 132.316 1422.85 Q131.737 1423.52 128.635 1426.74 Q125.533 1429.93 119.885 1435.7 Z" fill="#000000" fill-rule="evenodd" fill-opacity="1" /><path clip-path="url(#clip910)" d="M146.019 1433.75 L150.903 1433.75 L150.903 1439.63 L146.019 1439.63 L146.019 1433.75 Z" fill="#000000" fill-rule="evenodd" fill-opacity="1" /><path clip-path="url(#clip910)" d="M171.089 1408.15 Q167.477 1408.15 165.649 1411.72 Q163.843 1415.26 163.843 1422.39 Q163.843 1429.49 165.649 1433.06 Q167.477 1436.6 171.089 1436.6 Q174.723 1436.6 176.528 1433.06 Q178.357 1429.49 178.357 1422.39 Q178.357 1415.26 176.528 1411.72 Q174.723 1408.15 171.089 1408.15 M171.089 1404.45 Q176.899 1404.45 179.954 1409.05 Q183.033 1413.64 183.033 1422.39 Q183.033 1431.11 179.954 1435.72 Q176.899 1440.3 171.089 1440.3 Q165.278 1440.3 162.2 1435.72 Q159.144 1431.11 159.144 1422.39 Q159.144 1413.64 162.2 1409.05 Q165.278 1404.45 171.089 1404.45 Z" fill="#000000" fill-rule="evenodd" fill-opacity="1" /><path clip-path="url(#clip910)" d="M201.25 1408.15 Q197.639 1408.15 195.811 1411.72 Q194.005 1415.26 194.005 1422.39 Q194.005 1429.49 195.811 1433.06 Q197.639 1436.6 201.25 1436.6 Q204.885 1436.6 206.69 1433.06 Q208.519 1429.49 208.519 1422.39 Q208.519 1415.26 206.69 1411.72 Q204.885 1408.15 201.25 1408.15 M201.25 1404.45 Q207.061 1404.45 210.116 1409.05 Q213.195 1413.64 213.195 1422.39 Q213.195 1431.11 210.116 1435.72 Q207.061 1440.3 201.25 1440.3 Q195.44 1440.3 192.362 1435.72 Q189.306 1431.11 189.306 1422.39 Q189.306 1413.64 192.362 1409.05 Q195.44 1404.45 201.25 1404.45 Z" fill="#000000" fill-rule="evenodd" fill-opacity="1" /><path clip-path="url(#clip910)" d="M249.584 1414.17 L239.005 1424.79 L249.584 1435.37 L246.829 1438.17 L236.204 1427.55 L225.579 1438.17 L222.848 1435.37 L233.403 1424.79 L222.848 1414.17 L225.579 1411.37 L236.204 1421.99 L246.829 1411.37 L249.584 1414.17 Z" fill="#000000" fill-rule="evenodd" fill-opacity="1" /><path clip-path="url(#clip910)" d="M261.945 1435.7 L269.583 1435.7 L269.583 1409.33 L261.273 1411 L261.273 1406.74 L269.537 1405.07 L274.213 1405.07 L274.213 1435.7 L281.852 1435.7 L281.852 1439.63 L261.945 1439.63 L261.945 1435.7 Z" fill="#000000" fill-rule="evenodd" fill-opacity="1" /><path clip-path="url(#clip910)" d="M301.296 1408.15 Q297.685 1408.15 295.856 1411.72 Q294.051 1415.26 294.051 1422.39 Q294.051 1429.49 295.856 1433.06 Q297.685 1436.6 301.296 1436.6 Q304.93 1436.6 306.736 1433.06 Q308.565 1429.49 308.565 1422.39 Q308.565 1415.26 306.736 1411.72 Q304.93 1408.15 301.296 1408.15 M301.296 1404.45 Q307.106 1404.45 310.162 1409.05 Q313.241 1413.64 313.241 1422.39 Q313.241 1431.11 310.162 1435.72 Q307.106 1440.3 301.296 1440.3 Q295.486 1440.3 292.407 1435.72 Q289.352 1431.11 289.352 1422.39 Q289.352 1413.64 292.407 1409.05 Q295.486 1404.45 301.296 1404.45 Z" fill="#000000" fill-rule="evenodd" fill-opacity="1" /><path clip-path="url(#clip910)" d="M313.241 1398.55 L337.352 1398.55 L337.352 1401.75 L313.241 1401.75 L313.241 1398.55 Z" fill="#000000" fill-rule="evenodd" fill-opacity="1" /><path clip-path="url(#clip910)" d="M345.59 1384.14 L360.504 1384.14 L360.504 1387.34 L349.069 1387.34 L349.069 1394.22 Q349.897 1393.94 350.724 1393.81 Q351.552 1393.66 352.38 1393.66 Q357.081 1393.66 359.827 1396.24 Q362.573 1398.81 362.573 1403.21 Q362.573 1407.75 359.752 1410.27 Q356.931 1412.77 351.797 1412.77 Q350.029 1412.77 348.185 1412.47 Q346.361 1412.17 344.405 1411.56 L344.405 1407.75 Q346.098 1408.67 347.903 1409.12 Q349.709 1409.57 351.721 1409.57 Q354.975 1409.57 356.875 1407.86 Q358.774 1406.15 358.774 1403.21 Q358.774 1400.28 356.875 1398.57 Q354.975 1396.86 351.721 1396.86 Q350.198 1396.86 348.674 1397.19 Q347.17 1397.53 345.59 1398.25 L345.59 1384.14 Z" fill="#000000" fill-rule="evenodd" fill-opacity="1" /><path clip-path="url(#clip910)" d="M119.885 1037.81 L136.204 1037.81 L136.204 1041.74 L114.26 1041.74 L114.26 1037.81 Q116.922 1035.05 121.505 1030.42 Q126.112 1025.77 127.292 1024.43 Q129.538 1021.9 130.417 1020.17 Q131.32 1018.41 131.32 1016.72 Q131.32 1013.96 129.376 1012.23 Q127.455 1010.49 124.353 1010.49 Q122.154 1010.49 119.7 1011.26 Q117.269 1012.02 114.492 1013.57 L114.492 1008.85 Q117.316 1007.71 119.769 1007.14 Q122.223 1006.56 124.26 1006.56 Q129.63 1006.56 132.825 1009.24 Q136.019 1011.93 136.019 1016.42 Q136.019 1018.55 135.209 1020.47 Q134.422 1022.37 132.316 1024.96 Q131.737 1025.63 128.635 1028.85 Q125.533 1032.04 119.885 1037.81 Z" fill="#000000" fill-rule="evenodd" fill-opacity="1" /><path clip-path="url(#clip910)" d="M146.019 1035.86 L150.903 1035.86 L150.903 1041.74 L146.019 1041.74 L146.019 1035.86 Z" fill="#000000" fill-rule="evenodd" fill-opacity="1" /><path clip-path="url(#clip910)" d="M161.135 1007.18 L179.491 1007.18 L179.491 1011.12 L165.417 1011.12 L165.417 1019.59 Q166.436 1019.24 167.454 1019.08 Q168.473 1018.89 169.491 1018.89 Q175.278 1018.89 178.658 1022.07 Q182.038 1025.24 182.038 1030.65 Q182.038 1036.23 178.565 1039.33 Q175.093 1042.41 168.774 1042.41 Q166.598 1042.41 164.329 1042.04 Q162.084 1041.67 159.677 1040.93 L159.677 1036.23 Q161.76 1037.37 163.982 1037.92 Q166.204 1038.48 168.681 1038.48 Q172.686 1038.48 175.024 1036.37 Q177.362 1034.27 177.362 1030.65 Q177.362 1027.04 175.024 1024.94 Q172.686 1022.83 168.681 1022.83 Q166.806 1022.83 164.931 1023.25 Q163.079 1023.66 161.135 1024.54 L161.135 1007.18 Z" fill="#000000" fill-rule="evenodd" fill-opacity="1" /><path clip-path="url(#clip910)" d="M201.25 1010.26 Q197.639 1010.26 195.811 1013.83 Q194.005 1017.37 194.005 1024.5 Q194.005 1031.6 195.811 1035.17 Q197.639 1038.71 201.25 1038.71 Q204.885 1038.71 206.69 1035.17 Q208.519 1031.6 208.519 1024.5 Q208.519 1017.37 206.69 1013.83 Q204.885 1010.26 201.25 1010.26 M201.25 1006.56 Q207.061 1006.56 210.116 1011.16 Q213.195 1015.75 213.195 1024.5 Q213.195 1033.22 210.116 1037.83 Q207.061 1042.41 201.25 1042.41 Q195.44 1042.41 192.362 1037.83 Q189.306 1033.22 189.306 1024.5 Q189.306 1015.75 192.362 1011.16 Q195.44 1006.56 201.25 1006.56 Z" fill="#000000" fill-rule="evenodd" fill-opacity="1" /><path clip-path="url(#clip910)" d="M249.584 1016.28 L239.005 1026.9 L249.584 1037.48 L246.829 1040.28 L236.204 1029.66 L225.579 1040.28 L222.848 1037.48 L233.403 1026.9 L222.848 1016.28 L225.579 1013.48 L236.204 1024.1 L246.829 1013.48 L249.584 1016.28 Z" fill="#000000" fill-rule="evenodd" fill-opacity="1" /><path clip-path="url(#clip910)" d="M261.945 1037.81 L269.583 1037.81 L269.583 1011.44 L261.273 1013.11 L261.273 1008.85 L269.537 1007.18 L274.213 1007.18 L274.213 1037.81 L281.852 1037.81 L281.852 1041.74 L261.945 1041.74 L261.945 1037.81 Z" fill="#000000" fill-rule="evenodd" fill-opacity="1" /><path clip-path="url(#clip910)" d="M301.296 1010.26 Q297.685 1010.26 295.856 1013.83 Q294.051 1017.37 294.051 1024.5 Q294.051 1031.6 295.856 1035.17 Q297.685 1038.71 301.296 1038.71 Q304.93 1038.71 306.736 1035.17 Q308.565 1031.6 308.565 1024.5 Q308.565 1017.37 306.736 1013.83 Q304.93 1010.26 301.296 1010.26 M301.296 1006.56 Q307.106 1006.56 310.162 1011.16 Q313.241 1015.75 313.241 1024.5 Q313.241 1033.22 310.162 1037.83 Q307.106 1042.41 301.296 1042.41 Q295.486 1042.41 292.407 1037.83 Q289.352 1033.22 289.352 1024.5 Q289.352 1015.75 292.407 1011.16 Q295.486 1006.56 301.296 1006.56 Z" fill="#000000" fill-rule="evenodd" fill-opacity="1" /><path clip-path="url(#clip910)" d="M313.241 1000.66 L337.352 1000.66 L337.352 1003.86 L313.241 1003.86 L313.241 1000.66 Z" fill="#000000" fill-rule="evenodd" fill-opacity="1" /><path clip-path="url(#clip910)" d="M345.59 986.252 L360.504 986.252 L360.504 989.449 L349.069 989.449 L349.069 996.332 Q349.897 996.05 350.724 995.919 Q351.552 995.768 352.38 995.768 Q357.081 995.768 359.827 998.345 Q362.573 1000.92 362.573 1005.32 Q362.573 1009.86 359.752 1012.38 Q356.931 1014.88 351.797 1014.88 Q350.029 1014.88 348.185 1014.58 Q346.361 1014.28 344.405 1013.67 L344.405 1009.86 Q346.098 1010.78 347.903 1011.23 Q349.709 1011.68 351.721 1011.68 Q354.975 1011.68 356.875 1009.97 Q358.774 1008.26 358.774 1005.32 Q358.774 1002.39 356.875 1000.68 Q354.975 998.966 351.721 998.966 Q350.198 998.966 348.674 999.304 Q347.17 999.643 345.59 1000.36 L345.59 986.252 Z" fill="#000000" fill-rule="evenodd" fill-opacity="1" /><path clip-path="url(#clip910)" d="M130.024 625.217 Q133.38 625.935 135.255 628.203 Q137.154 630.472 137.154 633.805 Q137.154 638.921 133.635 641.722 Q130.117 644.523 123.635 644.523 Q121.459 644.523 119.144 644.083 Q116.853 643.666 114.399 642.81 L114.399 638.296 Q116.343 639.43 118.658 640.009 Q120.973 640.588 123.496 640.588 Q127.894 640.588 130.186 638.851 Q132.501 637.115 132.501 633.805 Q132.501 630.75 130.348 629.037 Q128.218 627.301 124.399 627.301 L120.371 627.301 L120.371 623.458 L124.584 623.458 Q128.033 623.458 129.862 622.092 Q131.691 620.703 131.691 618.111 Q131.691 615.449 129.792 614.037 Q127.917 612.602 124.399 612.602 Q122.478 612.602 120.279 613.018 Q118.08 613.435 115.441 614.315 L115.441 610.148 Q118.103 609.407 120.418 609.037 Q122.755 608.666 124.816 608.666 Q130.14 608.666 133.242 611.097 Q136.343 613.504 136.343 617.625 Q136.343 620.495 134.7 622.486 Q133.056 624.453 130.024 625.217 Z" fill="#000000" fill-rule="evenodd" fill-opacity="1" /><path clip-path="url(#clip910)" d="M146.019 637.972 L150.903 637.972 L150.903 643.851 L146.019 643.851 L146.019 637.972 Z" fill="#000000" fill-rule="evenodd" fill-opacity="1" /><path clip-path="url(#clip910)" d="M171.089 612.37 Q167.477 612.37 165.649 615.935 Q163.843 619.477 163.843 626.606 Q163.843 633.713 165.649 637.277 Q167.477 640.819 171.089 640.819 Q174.723 640.819 176.528 637.277 Q178.357 633.713 178.357 626.606 Q178.357 619.477 176.528 615.935 Q174.723 612.37 171.089 612.37 M171.089 608.666 Q176.899 608.666 179.954 613.273 Q183.033 617.856 183.033 626.606 Q183.033 635.333 179.954 639.939 Q176.899 644.523 171.089 644.523 Q165.278 644.523 162.2 639.939 Q159.144 635.333 159.144 626.606 Q159.144 617.856 162.2 613.273 Q165.278 608.666 171.089 608.666 Z" fill="#000000" fill-rule="evenodd" fill-opacity="1" /><path clip-path="url(#clip910)" d="M201.25 612.37 Q197.639 612.37 195.811 615.935 Q194.005 619.477 194.005 626.606 Q194.005 633.713 195.811 637.277 Q197.639 640.819 201.25 640.819 Q204.885 640.819 206.69 637.277 Q208.519 633.713 208.519 626.606 Q208.519 619.477 206.69 615.935 Q204.885 612.37 201.25 612.37 M201.25 608.666 Q207.061 608.666 210.116 613.273 Q213.195 617.856 213.195 626.606 Q213.195 635.333 210.116 639.939 Q207.061 644.523 201.25 644.523 Q195.44 644.523 192.362 639.939 Q189.306 635.333 189.306 626.606 Q189.306 617.856 192.362 613.273 Q195.44 608.666 201.25 608.666 Z" fill="#000000" fill-rule="evenodd" fill-opacity="1" /><path clip-path="url(#clip910)" d="M249.584 618.389 L239.005 629.014 L249.584 639.592 L246.829 642.393 L236.204 631.768 L225.579 642.393 L222.848 639.592 L233.403 629.014 L222.848 618.389 L225.579 615.588 L236.204 626.213 L246.829 615.588 L249.584 618.389 Z" fill="#000000" fill-rule="evenodd" fill-opacity="1" /><path clip-path="url(#clip910)" d="M261.945 639.916 L269.583 639.916 L269.583 613.551 L261.273 615.217 L261.273 610.958 L269.537 609.291 L274.213 609.291 L274.213 639.916 L281.852 639.916 L281.852 643.851 L261.945 643.851 L261.945 639.916 Z" fill="#000000" fill-rule="evenodd" fill-opacity="1" /><path clip-path="url(#clip910)" d="M301.296 612.37 Q297.685 612.37 295.856 615.935 Q294.051 619.477 294.051 626.606 Q294.051 633.713 295.856 637.277 Q297.685 640.819 301.296 640.819 Q304.93 640.819 306.736 637.277 Q308.565 633.713 308.565 626.606 Q308.565 619.477 306.736 615.935 Q304.93 612.37 301.296 612.37 M301.296 608.666 Q307.106 608.666 310.162 613.273 Q313.241 617.856 313.241 626.606 Q313.241 635.333 310.162 639.939 Q307.106 644.523 301.296 644.523 Q295.486 644.523 292.407 639.939 Q289.352 635.333 289.352 626.606 Q289.352 617.856 292.407 613.273 Q295.486 608.666 301.296 608.666 Z" fill="#000000" fill-rule="evenodd" fill-opacity="1" /><path clip-path="url(#clip910)" d="M313.241 602.768 L337.352 602.768 L337.352 605.965 L313.241 605.965 L313.241 602.768 Z" fill="#000000" fill-rule="evenodd" fill-opacity="1" /><path clip-path="url(#clip910)" d="M345.59 588.361 L360.504 588.361 L360.504 591.558 L349.069 591.558 L349.069 598.442 Q349.897 598.16 350.724 598.028 Q351.552 597.878 352.38 597.878 Q357.081 597.878 359.827 600.454 Q362.573 603.031 362.573 607.432 Q362.573 611.965 359.752 614.485 Q356.931 616.986 351.797 616.986 Q350.029 616.986 348.185 616.686 Q346.361 616.385 344.405 615.783 L344.405 611.965 Q346.098 612.886 347.903 613.338 Q349.709 613.789 351.721 613.789 Q354.975 613.789 356.875 612.078 Q358.774 610.366 358.774 607.432 Q358.774 604.498 356.875 602.787 Q354.975 601.075 351.721 601.075 Q350.198 601.075 348.674 601.414 Q347.17 601.752 345.59 602.467 L345.59 588.361 Z" fill="#000000" fill-rule="evenodd" fill-opacity="1" /><path clip-path="url(#clip910)" d="M130.024 227.327 Q133.38 228.044 135.255 230.313 Q137.154 232.581 137.154 235.915 Q137.154 241.03 133.635 243.831 Q130.117 246.632 123.635 246.632 Q121.459 246.632 119.144 246.192 Q116.853 245.776 114.399 244.919 L114.399 240.405 Q116.343 241.54 118.658 242.118 Q120.973 242.697 123.496 242.697 Q127.894 242.697 130.186 240.961 Q132.501 239.225 132.501 235.915 Q132.501 232.859 130.348 231.146 Q128.218 229.41 124.399 229.41 L120.371 229.41 L120.371 225.568 L124.584 225.568 Q128.033 225.568 129.862 224.202 Q131.691 222.813 131.691 220.22 Q131.691 217.558 129.792 216.146 Q127.917 214.711 124.399 214.711 Q122.478 214.711 120.279 215.128 Q118.08 215.544 115.441 216.424 L115.441 212.257 Q118.103 211.517 120.418 211.146 Q122.755 210.776 124.816 210.776 Q130.14 210.776 133.242 213.206 Q136.343 215.614 136.343 219.734 Q136.343 222.605 134.7 224.595 Q133.056 226.563 130.024 227.327 Z" fill="#000000" fill-rule="evenodd" fill-opacity="1" /><path clip-path="url(#clip910)" d="M146.019 240.081 L150.903 240.081 L150.903 245.961 L146.019 245.961 L146.019 240.081 Z" fill="#000000" fill-rule="evenodd" fill-opacity="1" /><path clip-path="url(#clip910)" d="M161.135 211.401 L179.491 211.401 L179.491 215.336 L165.417 215.336 L165.417 223.808 Q166.436 223.461 167.454 223.299 Q168.473 223.114 169.491 223.114 Q175.278 223.114 178.658 226.285 Q182.038 229.456 182.038 234.873 Q182.038 240.452 178.565 243.554 Q175.093 246.632 168.774 246.632 Q166.598 246.632 164.329 246.262 Q162.084 245.891 159.677 245.151 L159.677 240.452 Q161.76 241.586 163.982 242.141 Q166.204 242.697 168.681 242.697 Q172.686 242.697 175.024 240.591 Q177.362 238.484 177.362 234.873 Q177.362 231.262 175.024 229.155 Q172.686 227.049 168.681 227.049 Q166.806 227.049 164.931 227.466 Q163.079 227.882 161.135 228.762 L161.135 211.401 Z" fill="#000000" fill-rule="evenodd" fill-opacity="1" /><path clip-path="url(#clip910)" d="M201.25 214.48 Q197.639 214.48 195.811 218.044 Q194.005 221.586 194.005 228.716 Q194.005 235.822 195.811 239.387 Q197.639 242.929 201.25 242.929 Q204.885 242.929 206.69 239.387 Q208.519 235.822 208.519 228.716 Q208.519 221.586 206.69 218.044 Q204.885 214.48 201.25 214.48 M201.25 210.776 Q207.061 210.776 210.116 215.382 Q213.195 219.966 213.195 228.716 Q213.195 237.442 210.116 242.049 Q207.061 246.632 201.25 246.632 Q195.44 246.632 192.362 242.049 Q189.306 237.442 189.306 228.716 Q189.306 219.966 192.362 215.382 Q195.44 210.776 201.25 210.776 Z" fill="#000000" fill-rule="evenodd" fill-opacity="1" /><path clip-path="url(#clip910)" d="M249.584 220.498 L239.005 231.123 L249.584 241.702 L246.829 244.503 L236.204 233.878 L225.579 244.503 L222.848 241.702 L233.403 231.123 L222.848 220.498 L225.579 217.697 L236.204 228.322 L246.829 217.697 L249.584 220.498 Z" fill="#000000" fill-rule="evenodd" fill-opacity="1" /><path clip-path="url(#clip910)" d="M261.945 242.026 L269.583 242.026 L269.583 215.66 L261.273 217.327 L261.273 213.068 L269.537 211.401 L274.213 211.401 L274.213 242.026 L281.852 242.026 L281.852 245.961 L261.945 245.961 L261.945 242.026 Z" fill="#000000" fill-rule="evenodd" fill-opacity="1" /><path clip-path="url(#clip910)" d="M301.296 214.48 Q297.685 214.48 295.856 218.044 Q294.051 221.586 294.051 228.716 Q294.051 235.822 295.856 239.387 Q297.685 242.929 301.296 242.929 Q304.93 242.929 306.736 239.387 Q308.565 235.822 308.565 228.716 Q308.565 221.586 306.736 218.044 Q304.93 214.48 301.296 214.48 M301.296 210.776 Q307.106 210.776 310.162 215.382 Q313.241 219.966 313.241 228.716 Q313.241 237.442 310.162 242.049 Q307.106 246.632 301.296 246.632 Q295.486 246.632 292.407 242.049 Q289.352 237.442 289.352 228.716 Q289.352 219.966 292.407 215.382 Q295.486 210.776 301.296 210.776 Z" fill="#000000" fill-rule="evenodd" fill-opacity="1" /><path clip-path="url(#clip910)" d="M313.241 204.877 L337.352 204.877 L337.352 208.075 L313.241 208.075 L313.241 204.877 Z" fill="#000000" fill-rule="evenodd" fill-opacity="1" /><path clip-path="url(#clip910)" d="M345.59 190.471 L360.504 190.471 L360.504 193.668 L349.069 193.668 L349.069 200.551 Q349.897 200.269 350.724 200.138 Q351.552 199.987 352.38 199.987 Q357.081 199.987 359.827 202.564 Q362.573 205.141 362.573 209.542 Q362.573 214.074 359.752 216.595 Q356.931 219.096 351.797 219.096 Q350.029 219.096 348.185 218.795 Q346.361 218.494 344.405 217.892 L344.405 214.074 Q346.098 214.996 347.903 215.447 Q349.709 215.899 351.721 215.899 Q354.975 215.899 356.875 214.187 Q358.774 212.476 358.774 209.542 Q358.774 206.608 356.875 204.896 Q354.975 203.185 351.721 203.185 Q350.198 203.185 348.674 203.523 Q347.17 203.862 345.59 204.576 L345.59 190.471 Z" fill="#000000" fill-rule="evenodd" fill-opacity="1" /><path clip-path="url(#clip910)" d="M28.3562 1059 L28.3562 1052.8 L58.275 1041.66 L28.3562 1030.52 L28.3562 1024.31 L64.0042 1037.68 L64.0042 1045.63 L28.3562 1059 Z" fill="#000000" fill-rule="evenodd" fill-opacity="1" /><path clip-path="url(#clip910)" d="M28.3562 1016.23 L28.3562 1010.37 L64.0042 1010.37 L64.0042 1016.23 L28.3562 1016.23 M14.479 1016.23 L14.479 1010.37 L21.895 1010.37 L21.895 1016.23 L14.479 1016.23 Z" fill="#000000" fill-rule="evenodd" fill-opacity="1" /><path clip-path="url(#clip910)" d="M29.4065 975.389 L34.9447 975.389 Q33.6716 977.872 33.035 980.546 Q32.3984 983.219 32.3984 986.084 Q32.3984 990.444 33.7352 992.64 Q35.072 994.805 37.7456 994.805 Q39.7826 994.805 40.9603 993.245 Q42.1061 991.686 43.1565 986.975 L43.6021 984.97 Q44.9389 978.731 47.3897 976.121 Q49.8086 973.48 54.1691 973.48 Q59.1344 973.48 62.0308 977.426 Q64.9272 981.341 64.9272 988.216 Q64.9272 991.081 64.3543 994.2 Q63.8132 997.287 62.6992 1000.72 L56.6518 1000.72 Q58.3387 997.478 59.198 994.327 Q60.0256 991.176 60.0256 988.089 Q60.0256 983.951 58.6251 981.723 Q57.1929 979.495 54.6147 979.495 Q52.2276 979.495 50.9545 981.119 Q49.6813 982.71 48.5037 988.153 L48.0262 990.19 Q46.8804 995.632 44.5251 998.051 Q42.138 1000.47 38.0002 1000.47 Q32.9713 1000.47 30.2341 996.906 Q27.4968 993.341 27.4968 986.784 Q27.4968 983.538 27.9743 980.673 Q28.4517 977.808 29.4065 975.389 Z" fill="#000000" fill-rule="evenodd" fill-opacity="1" /><path clip-path="url(#clip910)" d="M29.7248 938.5 L35.1993 938.5 Q33.8307 940.983 33.1623 943.497 Q32.4621 945.98 32.4621 948.526 Q32.4621 954.223 36.0905 957.374 Q39.6872 960.526 46.212 960.526 Q52.7369 960.526 56.3653 957.374 Q59.9619 954.223 59.9619 948.526 Q59.9619 945.98 59.2935 943.497 Q58.5933 940.983 57.2247 938.5 L62.6355 938.5 Q63.7814 940.951 64.3543 943.593 Q64.9272 946.203 64.9272 949.163 Q64.9272 957.215 59.8664 961.958 Q54.8057 966.7 46.212 966.7 Q37.491 966.7 32.4939 961.926 Q27.4968 957.12 27.4968 948.781 Q27.4968 946.075 28.0697 943.497 Q28.6108 940.919 29.7248 938.5 Z" fill="#000000" fill-rule="evenodd" fill-opacity="1" /><path clip-path="url(#clip910)" d="M32.4621 914.501 Q32.4621 919.212 36.1542 921.949 Q39.8145 924.687 46.212 924.687 Q52.6095 924.687 56.3017 921.981 Q59.9619 919.244 59.9619 914.501 Q59.9619 909.823 56.2698 907.085 Q52.5777 904.348 46.212 904.348 Q39.8781 904.348 36.186 907.085 Q32.4621 909.823 32.4621 914.501 M27.4968 914.501 Q27.4968 906.863 32.4621 902.502 Q37.4273 898.142 46.212 898.142 Q54.9649 898.142 59.9619 902.502 Q64.9272 906.863 64.9272 914.501 Q64.9272 922.172 59.9619 926.533 Q54.9649 930.861 46.212 930.861 Q37.4273 930.861 32.4621 926.533 Q27.4968 922.172 27.4968 914.501 Z" fill="#000000" fill-rule="evenodd" fill-opacity="1" /><path clip-path="url(#clip910)" d="M29.4065 865.708 L34.9447 865.708 Q33.6716 868.191 33.035 870.865 Q32.3984 873.538 32.3984 876.403 Q32.3984 880.763 33.7352 882.959 Q35.072 885.124 37.7456 885.124 Q39.7826 885.124 40.9603 883.564 Q42.1061 882.005 43.1565 877.294 L43.6021 875.289 Q44.9389 869.05 47.3897 866.44 Q49.8086 863.799 54.1691 863.799 Q59.1344 863.799 62.0308 867.745 Q64.9272 871.66 64.9272 878.535 Q64.9272 881.4 64.3543 884.519 Q63.8132 887.606 62.6992 891.044 L56.6518 891.044 Q58.3387 887.797 59.198 884.646 Q60.0256 881.495 60.0256 878.408 Q60.0256 874.27 58.6251 872.042 Q57.1929 869.814 54.6147 869.814 Q52.2276 869.814 50.9545 871.437 Q49.6813 873.029 48.5037 878.472 L48.0262 880.509 Q46.8804 885.951 44.5251 888.37 Q42.138 890.789 38.0002 890.789 Q32.9713 890.789 30.2341 887.224 Q27.4968 883.66 27.4968 877.103 Q27.4968 873.856 27.9743 870.992 Q28.4517 868.127 29.4065 865.708 Z" fill="#000000" fill-rule="evenodd" fill-opacity="1" /><path clip-path="url(#clip910)" d="M28.3562 854.473 L28.3562 848.616 L64.0042 848.616 L64.0042 854.473 L28.3562 854.473 M14.479 854.473 L14.479 848.616 L21.895 848.616 L21.895 854.473 L14.479 854.473 Z" fill="#000000" fill-rule="evenodd" fill-opacity="1" /><path clip-path="url(#clip910)" d="M18.2347 830.57 L28.3562 830.57 L28.3562 818.507 L32.9077 818.507 L32.9077 830.57 L52.2594 830.57 Q56.6199 830.57 57.8613 829.392 Q59.1026 828.182 59.1026 824.522 L59.1026 818.507 L64.0042 818.507 L64.0042 824.522 Q64.0042 831.302 61.4897 833.88 Q58.9434 836.458 52.2594 836.458 L32.9077 836.458 L32.9077 840.755 L28.3562 840.755 L28.3562 836.458 L18.2347 836.458 L18.2347 830.57 Z" fill="#000000" fill-rule="evenodd" fill-opacity="1" /><path clip-path="url(#clip910)" d="M67.3143 795.972 Q73.68 798.455 75.6216 800.81 Q77.5631 803.165 77.5631 807.112 L77.5631 811.791 L72.6615 811.791 L72.6615 808.353 Q72.6615 805.934 71.5157 804.598 Q70.3699 803.261 66.1048 801.637 L63.4312 800.587 L28.3562 815.005 L28.3562 808.799 L56.238 797.659 L28.3562 786.519 L28.3562 780.312 L67.3143 795.972 Z" fill="#000000" fill-rule="evenodd" fill-opacity="1" /><path clip-path="url(#clip910)" d="M42.4881 721.875 L77.5631 721.875 L77.5631 727.732 L42.679 727.732 Q37.6183 727.732 35.1038 729.705 Q32.5894 731.678 32.5894 735.625 Q32.5894 740.368 35.6131 743.105 Q38.6368 745.842 43.8567 745.842 L64.0042 745.842 L64.0042 751.73 L28.3562 751.73 L28.3562 745.842 L33.8944 745.842 Q30.6797 743.741 29.0883 740.909 Q27.4968 738.044 27.4968 734.32 Q27.4968 728.177 31.2844 725.026 Q35.1038 721.875 42.4881 721.875 Z" fill="#000000" fill-rule="evenodd" fill-opacity="1" /><path clip-path="url(#clip910)" d="M28.3562 689.474 L28.3562 683.617 L64.0042 683.617 L64.0042 689.474 L28.3562 689.474 M14.479 689.474 L14.479 683.617 L21.895 683.617 L21.895 689.474 L14.479 689.474 Z" fill="#000000" fill-rule="evenodd" fill-opacity="1" /><path clip-path="url(#clip910)" d="M42.4881 641.731 L64.0042 641.731 L64.0042 647.587 L42.679 647.587 Q37.6183 647.587 35.1038 649.561 Q32.5894 651.534 32.5894 655.481 Q32.5894 660.223 35.6131 662.961 Q38.6368 665.698 43.8567 665.698 L64.0042 665.698 L64.0042 671.586 L28.3562 671.586 L28.3562 665.698 L33.8944 665.698 Q30.6797 663.597 29.0883 660.764 Q27.4968 657.9 27.4968 654.176 Q27.4968 648.033 31.3163 644.882 Q35.1038 641.731 42.4881 641.731 Z" fill="#000000" fill-rule="evenodd" fill-opacity="1" /><path clip-path="url(#clip910)" d="M21.7677 602.645 L39.6235 602.645 L39.6235 594.561 Q39.6235 590.073 37.3 587.622 Q34.9765 585.172 30.6797 585.172 Q26.4147 585.172 24.0912 587.622 Q21.7677 590.073 21.7677 594.561 L21.7677 602.645 M16.4842 609.075 L16.4842 594.561 Q16.4842 586.572 20.1126 582.498 Q23.7092 578.392 30.6797 578.392 Q37.7138 578.392 41.3104 582.498 Q44.907 586.572 44.907 594.561 L44.907 602.645 L64.0042 602.645 L64.0042 609.075 L16.4842 609.075 Z" fill="#000000" fill-rule="evenodd" fill-opacity="1" /><path clip-path="url(#clip910)" d="M46.0847 556.749 Q46.0847 563.846 47.7079 566.584 Q49.3312 569.321 53.2461 569.321 Q56.3653 569.321 58.2114 567.284 Q60.0256 565.215 60.0256 561.682 Q60.0256 556.812 56.5881 553.884 Q53.1188 550.924 47.3897 550.924 L46.0847 550.924 L46.0847 556.749 M43.6657 545.068 L64.0042 545.068 L64.0042 550.924 L58.5933 550.924 Q61.8398 552.929 63.3994 555.921 Q64.9272 558.913 64.9272 563.242 Q64.9272 568.716 61.8716 571.963 Q58.7843 575.177 53.6281 575.177 Q47.6125 575.177 44.5569 571.167 Q41.5014 567.125 41.5014 559.136 L41.5014 550.924 L40.9285 550.924 Q36.8862 550.924 34.6901 553.598 Q32.4621 556.239 32.4621 561.046 Q32.4621 564.101 33.1941 566.998 Q33.9262 569.894 35.3903 572.568 L29.9795 572.568 Q28.7381 569.353 28.1334 566.329 Q27.4968 563.305 27.4968 560.441 Q27.4968 552.707 31.5072 548.887 Q35.5176 545.068 43.6657 545.068 Z" fill="#000000" fill-rule="evenodd" fill-opacity="1" /><path clip-path="url(#clip910)" d="M37.3318 532.177 L37.3318 525.461 L45.4163 525.461 L45.4163 532.177 L37.3318 532.177 Z" fill="#000000" fill-rule="evenodd" fill-opacity="1" /><path clip-path="url(#clip910)" d="M29.4065 489.559 L34.9447 489.559 Q33.6716 492.041 33.035 494.715 Q32.3984 497.389 32.3984 500.253 Q32.3984 504.614 33.7352 506.81 Q35.072 508.974 37.7456 508.974 Q39.7826 508.974 40.9603 507.415 Q42.1061 505.855 43.1565 501.144 L43.6021 499.139 Q44.9389 492.901 47.3897 490.291 Q49.8086 487.649 54.1691 487.649 Q59.1344 487.649 62.0308 491.596 Q64.9272 495.511 64.9272 502.386 Q64.9272 505.25 64.3543 508.369 Q63.8132 511.457 62.6992 514.894 L56.6518 514.894 Q58.3387 511.648 59.198 508.497 Q60.0256 505.346 60.0256 502.258 Q60.0256 498.121 58.6251 495.893 Q57.1929 493.665 54.6147 493.665 Q52.2276 493.665 50.9545 495.288 Q49.6813 496.879 48.5037 502.322 L48.0262 504.359 Q46.8804 509.802 44.5251 512.221 Q42.138 514.64 38.0002 514.64 Q32.9713 514.64 30.2341 511.075 Q27.4968 507.51 27.4968 500.953 Q27.4968 497.707 27.9743 494.842 Q28.4517 491.978 29.4065 489.559 Z" fill="#000000" fill-rule="evenodd" fill-opacity="1" /><path clip-path="url(#clip910)" d="M836.327 34.0924 L836.327 9.54393 L843.781 9.54393 L843.781 72.576 L836.327 72.576 L836.327 65.7705 Q833.978 69.8214 830.372 71.8063 Q826.808 73.7508 821.784 73.7508 Q813.561 73.7508 808.376 67.1883 Q803.231 60.6258 803.231 49.9314 Q803.231 39.2371 808.376 32.6746 Q813.561 26.1121 821.784 26.1121 Q826.808 26.1121 830.372 28.0971 Q833.978 30.0415 836.327 34.0924 M810.928 49.9314 Q810.928 58.1548 814.29 62.8538 Q817.693 67.5124 823.607 67.5124 Q829.522 67.5124 832.924 62.8538 Q836.327 58.1548 836.327 49.9314 Q836.327 41.7081 832.924 37.0496 Q829.522 32.3505 823.607 32.3505 Q817.693 32.3505 814.29 37.0496 Q810.928 41.7081 810.928 49.9314 Z" fill="#000000" fill-rule="evenodd" fill-opacity="1" /><path clip-path="url(#clip910)" d="M878.011 76.7889 Q874.851 84.8907 871.854 87.3618 Q868.856 89.8329 863.833 89.8329 L857.878 89.8329 L857.878 83.5945 L862.253 83.5945 Q865.332 83.5945 867.033 82.1361 Q868.734 80.6778 870.8 75.2496 L872.137 71.8468 L853.787 27.2059 L861.686 27.2059 L875.864 62.6918 L890.042 27.2059 L897.941 27.2059 L878.011 76.7889 Z" fill="#000000" fill-rule="evenodd" fill-opacity="1" /><path clip-path="url(#clip910)" d="M945.945 45.1919 L945.945 72.576 L938.491 72.576 L938.491 45.4349 Q938.491 38.994 935.979 35.7938 Q933.468 32.5936 928.445 32.5936 Q922.409 32.5936 918.925 36.4419 Q915.441 40.2903 915.441 46.9338 L915.441 72.576 L907.947 72.576 L907.947 27.2059 L915.441 27.2059 L915.441 34.2544 Q918.115 30.163 921.72 28.1376 Q925.366 26.1121 930.106 26.1121 Q937.924 26.1121 941.934 30.9732 Q945.945 35.7938 945.945 45.1919 Z" fill="#000000" fill-rule="evenodd" fill-opacity="1" /><path clip-path="url(#clip910)" d="M981.431 49.7694 Q972.397 49.7694 968.913 51.8354 Q965.43 53.9013 965.43 58.8839 Q965.43 62.8538 968.022 65.2034 Q970.655 67.5124 975.152 67.5124 Q981.35 67.5124 985.076 63.1374 Q988.844 58.7219 988.844 51.4303 L988.844 49.7694 L981.431 49.7694 M996.297 46.6907 L996.297 72.576 L988.844 72.576 L988.844 65.6895 Q986.292 69.8214 982.484 71.8063 Q978.676 73.7508 973.167 73.7508 Q966.199 73.7508 962.067 69.8619 Q957.976 65.9325 957.976 59.3701 Q957.976 51.7138 963.08 47.825 Q968.225 43.9361 978.392 43.9361 L988.844 43.9361 L988.844 43.2069 Q988.844 38.0623 985.441 35.2672 Q982.079 32.4315 975.962 32.4315 Q972.073 32.4315 968.387 33.3632 Q964.7 34.295 961.298 36.1584 L961.298 29.2718 Q965.389 27.692 969.237 26.9223 Q973.086 26.1121 976.732 26.1121 Q986.575 26.1121 991.436 31.2163 Q996.297 36.3204 996.297 46.6907 Z" fill="#000000" fill-rule="evenodd" fill-opacity="1" /><path clip-path="url(#clip910)" d="M1046.97 35.9153 Q1049.77 30.8922 1053.66 28.5022 Q1057.55 26.1121 1062.81 26.1121 Q1069.9 26.1121 1073.75 31.0947 Q1077.6 36.0368 1077.6 45.1919 L1077.6 72.576 L1070.1 72.576 L1070.1 45.4349 Q1070.1 38.913 1067.8 35.7533 Q1065.49 32.5936 1060.75 32.5936 Q1054.95 32.5936 1051.59 36.4419 Q1048.23 40.2903 1048.23 46.9338 L1048.23 72.576 L1040.74 72.576 L1040.74 45.4349 Q1040.74 38.8725 1038.43 35.7533 Q1036.12 32.5936 1031.3 32.5936 Q1025.59 32.5936 1022.22 36.4824 Q1018.86 40.3308 1018.86 46.9338 L1018.86 72.576 L1011.37 72.576 L1011.37 27.2059 L1018.86 27.2059 L1018.86 34.2544 Q1021.41 30.082 1024.98 28.0971 Q1028.54 26.1121 1033.44 26.1121 Q1038.39 26.1121 1041.83 28.6237 Q1045.31 31.1352 1046.97 35.9153 Z" fill="#000000" fill-rule="evenodd" fill-opacity="1" /><path clip-path="url(#clip910)" d="M1092.47 27.2059 L1099.92 27.2059 L1099.92 72.576 L1092.47 72.576 L1092.47 27.2059 M1092.47 9.54393 L1099.92 9.54393 L1099.92 18.9825 L1092.47 18.9825 L1092.47 9.54393 Z" fill="#000000" fill-rule="evenodd" fill-opacity="1" /><path clip-path="url(#clip910)" d="M1148.17 28.9478 L1148.17 35.9153 Q1145.01 34.1734 1141.81 33.3227 Q1138.65 32.4315 1135.41 32.4315 Q1128.15 32.4315 1124.14 37.0496 Q1120.13 41.6271 1120.13 49.9314 Q1120.13 58.2358 1124.14 62.8538 Q1128.15 67.4314 1135.41 67.4314 Q1138.65 67.4314 1141.81 66.5807 Q1145.01 65.6895 1148.17 63.9476 L1148.17 70.8341 Q1145.05 72.2924 1141.68 73.0216 Q1138.36 73.7508 1134.6 73.7508 Q1124.35 73.7508 1118.31 67.3098 Q1112.27 60.8689 1112.27 49.9314 Q1112.27 38.832 1118.35 32.472 Q1124.47 26.1121 1135.08 26.1121 Q1138.52 26.1121 1141.81 26.8413 Q1145.09 27.5299 1148.17 28.9478 Z" fill="#000000" fill-rule="evenodd" fill-opacity="1" /><path clip-path="url(#clip910)" d="M1182.15 27.2059 L1190.05 27.2059 L1204.23 65.2844 L1218.41 27.2059 L1226.31 27.2059 L1209.29 72.576 L1199.17 72.576 L1182.15 27.2059 Z" fill="#000000" fill-rule="evenodd" fill-opacity="1" /><path clip-path="url(#clip910)" d="M1236.6 27.2059 L1244.05 27.2059 L1244.05 72.576 L1236.6 72.576 L1236.6 27.2059 M1236.6 9.54393 L1244.05 9.54393 L1244.05 18.9825 L1236.6 18.9825 L1236.6 9.54393 Z" fill="#000000" fill-rule="evenodd" fill-opacity="1" /><path clip-path="url(#clip910)" d="M1288.57 28.5427 L1288.57 35.5912 Q1285.41 33.9709 1282.01 33.1607 Q1278.6 32.3505 1274.96 32.3505 Q1269.41 32.3505 1266.61 34.0519 Q1263.86 35.7533 1263.86 39.156 Q1263.86 41.7486 1265.84 43.2475 Q1267.83 44.7058 1273.82 46.0426 L1276.38 46.6097 Q1284.32 48.3111 1287.64 51.4303 Q1291 54.509 1291 60.0587 Q1291 66.3781 1285.98 70.0644 Q1280.99 73.7508 1272.25 73.7508 Q1268.6 73.7508 1264.63 73.0216 Q1260.7 72.3329 1256.32 70.9151 L1256.32 63.2184 Q1260.46 65.3654 1264.47 66.4591 Q1268.48 67.5124 1272.41 67.5124 Q1277.67 67.5124 1280.51 65.73 Q1283.34 63.9071 1283.34 60.6258 Q1283.34 57.5877 1281.28 55.9673 Q1279.25 54.3469 1272.33 52.8481 L1269.73 52.2405 Q1262.81 50.7821 1259.73 47.7845 Q1256.65 44.7463 1256.65 39.4801 Q1256.65 33.0797 1261.19 29.5959 Q1265.72 26.1121 1274.07 26.1121 Q1278.2 26.1121 1281.85 26.7198 Q1285.49 27.3274 1288.57 28.5427 Z" fill="#000000" fill-rule="evenodd" fill-opacity="1" /><path clip-path="url(#clip910)" d="M1335.52 28.9478 L1335.52 35.9153 Q1332.36 34.1734 1329.16 33.3227 Q1326 32.4315 1322.76 32.4315 Q1315.51 32.4315 1311.5 37.0496 Q1307.49 41.6271 1307.49 49.9314 Q1307.49 58.2358 1311.5 62.8538 Q1315.51 67.4314 1322.76 67.4314 Q1326 67.4314 1329.16 66.5807 Q1332.36 65.6895 1335.52 63.9476 L1335.52 70.8341 Q1332.4 72.2924 1329.04 73.0216 Q1325.72 73.7508 1321.95 73.7508 Q1311.7 73.7508 1305.67 67.3098 Q1299.63 60.8689 1299.63 49.9314 Q1299.63 38.832 1305.71 32.472 Q1311.82 26.1121 1322.44 26.1121 Q1325.88 26.1121 1329.16 26.8413 Q1332.44 27.5299 1335.52 28.9478 Z" fill="#000000" fill-rule="evenodd" fill-opacity="1" /><path clip-path="url(#clip910)" d="M1366.06 32.4315 Q1360.07 32.4315 1356.58 37.1306 Q1353.1 41.7891 1353.1 49.9314 Q1353.1 58.0738 1356.54 62.7728 Q1360.03 67.4314 1366.06 67.4314 Q1372.02 67.4314 1375.5 62.7323 Q1378.99 58.0333 1378.99 49.9314 Q1378.99 41.8701 1375.5 37.1711 Q1372.02 32.4315 1366.06 32.4315 M1366.06 26.1121 Q1375.79 26.1121 1381.34 32.4315 Q1386.89 38.7509 1386.89 49.9314 Q1386.89 61.0714 1381.34 67.4314 Q1375.79 73.7508 1366.06 73.7508 Q1356.3 73.7508 1350.75 67.4314 Q1345.24 61.0714 1345.24 49.9314 Q1345.24 38.7509 1350.75 32.4315 Q1356.3 26.1121 1366.06 26.1121 Z" fill="#000000" fill-rule="evenodd" fill-opacity="1" /><path clip-path="url(#clip910)" d="M1428.16 28.5427 L1428.16 35.5912 Q1425 33.9709 1421.6 33.1607 Q1418.2 32.3505 1414.55 32.3505 Q1409 32.3505 1406.21 34.0519 Q1403.45 35.7533 1403.45 39.156 Q1403.45 41.7486 1405.44 43.2475 Q1407.42 44.7058 1413.42 46.0426 L1415.97 46.6097 Q1423.91 48.3111 1427.23 51.4303 Q1430.59 54.509 1430.59 60.0587 Q1430.59 66.3781 1425.57 70.0644 Q1420.59 73.7508 1411.84 73.7508 Q1408.19 73.7508 1404.22 73.0216 Q1400.29 72.3329 1395.92 70.9151 L1395.92 63.2184 Q1400.05 65.3654 1404.06 66.4591 Q1408.07 67.5124 1412 67.5124 Q1417.27 67.5124 1420.1 65.73 Q1422.94 63.9071 1422.94 60.6258 Q1422.94 57.5877 1420.87 55.9673 Q1418.85 54.3469 1411.92 52.8481 L1409.33 52.2405 Q1402.4 50.7821 1399.32 47.7845 Q1396.24 44.7463 1396.24 39.4801 Q1396.24 33.0797 1400.78 29.5959 Q1405.32 26.1121 1413.66 26.1121 Q1417.79 26.1121 1421.44 26.7198 Q1425.09 27.3274 1428.16 28.5427 Z" fill="#000000" fill-rule="evenodd" fill-opacity="1" /><path clip-path="url(#clip910)" d="M1442.46 27.2059 L1449.92 27.2059 L1449.92 72.576 L1442.46 72.576 L1442.46 27.2059 M1442.46 9.54393 L1449.92 9.54393 L1449.92 18.9825 L1442.46 18.9825 L1442.46 9.54393 Z" fill="#000000" fill-rule="evenodd" fill-opacity="1" /><path clip-path="url(#clip910)" d="M1472.89 14.324 L1472.89 27.2059 L1488.24 27.2059 L1488.24 32.9987 L1472.89 32.9987 L1472.89 57.6282 Q1472.89 63.1779 1474.39 64.7578 Q1475.92 66.3376 1480.58 66.3376 L1488.24 66.3376 L1488.24 72.576 L1480.58 72.576 Q1471.95 72.576 1468.67 69.3758 Q1465.39 66.1351 1465.39 57.6282 L1465.39 32.9987 L1459.92 32.9987 L1459.92 27.2059 L1465.39 27.2059 L1465.39 14.324 L1472.89 14.324 Z" fill="#000000" fill-rule="evenodd" fill-opacity="1" /><path clip-path="url(#clip910)" d="M1516.92 76.7889 Q1513.76 84.8907 1510.76 87.3618 Q1507.76 89.8329 1502.74 89.8329 L1496.79 89.8329 L1496.79 83.5945 L1501.16 83.5945 Q1504.24 83.5945 1505.94 82.1361 Q1507.64 80.6778 1509.71 75.2496 L1511.05 71.8468 L1492.7 27.2059 L1500.59 27.2059 L1514.77 62.6918 L1528.95 27.2059 L1536.85 27.2059 L1516.92 76.7889 Z" fill="#000000" fill-rule="evenodd" fill-opacity="1" /><path clip-path="url(#clip910)" d="M1591.09 32.4315 Q1585.1 32.4315 1581.61 37.1306 Q1578.13 41.7891 1578.13 49.9314 Q1578.13 58.0738 1581.57 62.7728 Q1585.06 67.4314 1591.09 67.4314 Q1597.05 67.4314 1600.53 62.7323 Q1604.01 58.0333 1604.01 49.9314 Q1604.01 41.8701 1600.53 37.1711 Q1597.05 32.4315 1591.09 32.4315 M1591.09 26.1121 Q1600.81 26.1121 1606.36 32.4315 Q1611.91 38.7509 1611.91 49.9314 Q1611.91 61.0714 1606.36 67.4314 Q1600.81 73.7508 1591.09 73.7508 Q1581.33 73.7508 1575.78 67.4314 Q1570.27 61.0714 1570.27 49.9314 Q1570.27 38.7509 1575.78 32.4315 Q1581.33 26.1121 1591.09 26.1121 Z" fill="#000000" fill-rule="evenodd" fill-opacity="1" /><path clip-path="url(#clip910)" d="M1647.24 9.54393 L1647.24 15.7418 L1640.11 15.7418 Q1636.1 15.7418 1634.52 17.3622 Q1632.98 18.9825 1632.98 23.1955 L1632.98 27.2059 L1645.25 27.2059 L1645.25 32.9987 L1632.98 32.9987 L1632.98 72.576 L1625.48 72.576 L1625.48 32.9987 L1618.35 32.9987 L1618.35 27.2059 L1625.48 27.2059 L1625.48 24.0462 Q1625.48 16.471 1629.01 13.0277 Q1632.53 9.54393 1640.19 9.54393 L1647.24 9.54393 Z" fill="#000000" fill-rule="evenodd" fill-opacity="1" /><path clip-path="url(#clip910)" d="M1717.56 45.1919 L1717.56 72.576 L1710.11 72.576 L1710.11 45.4349 Q1710.11 38.994 1707.6 35.7938 Q1705.08 32.5936 1700.06 32.5936 Q1694.03 32.5936 1690.54 36.4419 Q1687.06 40.2903 1687.06 46.9338 L1687.06 72.576 L1679.56 72.576 L1679.56 9.54393 L1687.06 9.54393 L1687.06 34.2544 Q1689.73 30.163 1693.34 28.1376 Q1696.98 26.1121 1701.72 26.1121 Q1709.54 26.1121 1713.55 30.9732 Q1717.56 35.7938 1717.56 45.1919 Z" fill="#000000" fill-rule="evenodd" fill-opacity="1" /><path clip-path="url(#clip910)" d="M1771.24 48.0275 L1771.24 51.6733 L1736.96 51.6733 Q1737.45 59.3701 1741.58 63.421 Q1745.76 67.4314 1753.17 67.4314 Q1757.46 67.4314 1761.47 66.3781 Q1765.52 65.3249 1769.49 63.2184 L1769.49 70.267 Q1765.48 71.9684 1761.27 72.8596 Q1757.06 73.7508 1752.72 73.7508 Q1741.87 73.7508 1735.51 67.4314 Q1729.19 61.1119 1729.19 50.3365 Q1729.19 39.1965 1735.18 32.6746 Q1741.22 26.1121 1751.43 26.1121 Q1760.58 26.1121 1765.89 32.0264 Q1771.24 37.9003 1771.24 48.0275 M1763.78 45.84 Q1763.7 39.7232 1760.34 36.0774 Q1757.02 32.4315 1751.51 32.4315 Q1745.27 32.4315 1741.5 35.9558 Q1737.77 39.4801 1737.21 45.8805 L1763.78 45.84 Z" fill="#000000" fill-rule="evenodd" fill-opacity="1" /><path clip-path="url(#clip910)" d="M1783.47 9.54393 L1790.92 9.54393 L1790.92 72.576 L1783.47 72.576 L1783.47 9.54393 Z" fill="#000000" fill-rule="evenodd" fill-opacity="1" /><path clip-path="url(#clip910)" d="M1806.52 27.2059 L1813.97 27.2059 L1813.97 72.576 L1806.52 72.576 L1806.52 27.2059 M1806.52 9.54393 L1813.97 9.54393 L1813.97 18.9825 L1806.52 18.9825 L1806.52 9.54393 Z" fill="#000000" fill-rule="evenodd" fill-opacity="1" /><path clip-path="url(#clip910)" d="M1828.8 54.671 L1828.8 27.2059 L1836.25 27.2059 L1836.25 54.3874 Q1836.25 60.8284 1838.76 64.0691 Q1841.28 67.2693 1846.3 67.2693 Q1852.33 67.2693 1855.82 63.421 Q1859.34 59.5726 1859.34 52.9291 L1859.34 27.2059 L1866.8 27.2059 L1866.8 72.576 L1859.34 72.576 L1859.34 65.6084 Q1856.63 69.7404 1853.02 71.7658 Q1849.46 73.7508 1844.72 73.7508 Q1836.9 73.7508 1832.85 68.8897 Q1828.8 64.0286 1828.8 54.671 M1847.55 26.1121 L1847.55 26.1121 Z" fill="#000000" fill-rule="evenodd" fill-opacity="1" /><path clip-path="url(#clip910)" d="M1917.47 35.9153 Q1920.27 30.8922 1924.16 28.5022 Q1928.05 26.1121 1933.31 26.1121 Q1940.4 26.1121 1944.25 31.0947 Q1948.1 36.0368 1948.1 45.1919 L1948.1 72.576 L1940.6 72.576 L1940.6 45.4349 Q1940.6 38.913 1938.29 35.7533 Q1935.99 32.5936 1931.25 32.5936 Q1925.45 32.5936 1922.09 36.4419 Q1918.73 40.2903 1918.73 46.9338 L1918.73 72.576 L1911.23 72.576 L1911.23 45.4349 Q1911.23 38.8725 1908.93 35.7533 Q1906.62 32.5936 1901.8 32.5936 Q1896.08 32.5936 1892.72 36.4824 Q1889.36 40.3308 1889.36 46.9338 L1889.36 72.576 L1881.87 72.576 L1881.87 27.2059 L1889.36 27.2059 L1889.36 34.2544 Q1891.91 30.082 1895.48 28.0971 Q1899.04 26.1121 1903.94 26.1121 Q1908.89 26.1121 1912.33 28.6237 Q1915.81 31.1352 1917.47 35.9153 Z" fill="#000000" fill-rule="evenodd" fill-opacity="1" /><polyline clip-path="url(#clip912)" style="stroke:#009af9; stroke-linecap:butt; stroke-linejoin:round; stroke-width:4; stroke-opacity:1; fill:none" points="
  453.88,1386.4 459.001,1382.99 464.122,1379.58 469.243,1376.18 474.364,1372.77 479.486,1369.37 484.607,1365.96 489.728,1362.55 494.849,1359.15 499.97,1355.74 
  505.091,1352.34 510.212,1348.93 515.333,1345.52 520.454,1342.12 525.575,1338.71 530.696,1335.31 535.817,1331.9 540.938,1328.49 546.059,1325.09 551.18,1321.68 
  556.301,1318.28 561.422,1314.87 566.543,1311.46 571.664,1308.06 576.785,1304.65 581.906,1301.25 587.027,1297.84 592.148,1294.44 597.269,1291.03 602.39,1287.62 
  607.511,1284.22 612.632,1280.81 617.753,1277.41 622.874,1274 627.995,1270.59 633.116,1267.19 638.237,1263.78 643.358,1260.38 648.479,1256.97 653.6,1253.56 
  658.721,1250.16 663.842,1246.75 668.963,1243.35 674.084,1239.94 679.205,1236.53 684.326,1233.13 689.447,1229.72 694.569,1226.32 699.69,1222.91 704.811,1219.5 
  709.932,1216.1 715.053,1212.69 720.174,1209.29 725.295,1205.88 730.416,1202.47 735.537,1199.07 740.658,1195.66 745.779,1192.26 750.9,1188.85 756.021,1185.45 
  761.142,1182.04 766.263,1178.63 771.384,1175.23 776.505,1171.82 781.626,1168.42 786.747,1165.01 791.868,1161.6 796.989,1158.2 802.11,1154.79 807.231,1151.39 
  812.352,1147.98 817.473,1144.57 822.594,1141.17 827.715,1137.76 832.836,1134.36 837.957,1130.95 843.078,1127.54 848.199,1124.14 853.32,1120.73 858.441,1117.33 
  863.562,1113.92 868.683,1110.51 873.804,1107.11 878.925,1103.7 884.046,1100.3 889.167,1096.89 894.288,1093.48 899.409,1090.08 904.53,1086.67 909.651,1083.27 
  914.773,1079.86 919.894,1076.45 925.015,1073.05 930.136,1069.64 935.257,1066.24 940.378,1062.83 945.499,1059.43 950.62,1056.02 955.741,1052.61 960.862,1049.21 
  965.983,1045.8 971.104,1042.4 976.225,1038.99 981.346,1035.58 986.467,1032.18 991.588,1028.77 996.709,1025.37 1001.83,1021.96 1006.95,1018.55 1012.07,1015.15 
  1017.19,1011.74 1022.31,1008.34 1027.44,1004.93 1032.56,1001.52 1037.68,998.118 1042.8,994.712 1047.92,991.306 1053.04,987.9 1058.16,984.494 1063.28,981.088 
  1068.4,977.683 1073.52,974.277 1078.65,970.871 1083.77,967.465 1088.89,964.059 1094.01,960.653 1099.13,957.247 1104.25,953.841 1109.37,950.435 1114.49,947.029 
  1119.61,943.623 1124.73,940.217 1129.86,936.811 1134.98,933.405 1140.1,929.999 1145.22,926.593 1150.34,923.187 1155.46,919.782 1160.58,916.376 1165.7,912.97 
  1170.82,909.564 1175.94,906.158 1181.07,902.752 1186.19,899.346 1191.31,895.94 1196.43,892.534 1201.55,889.128 1206.67,885.722 1211.79,882.316 1216.91,878.91 
  1222.03,875.504 1227.15,872.098 1232.28,868.692 1237.4,865.286 1242.52,861.88 1247.64,858.475 1252.76,855.069 1257.88,851.663 1263,848.257 1268.12,844.851 
  1273.24,841.445 1278.37,838.039 1283.49,834.633 1288.61,831.227 1293.73,827.821 1298.85,824.415 1303.97,821.009 1309.09,817.603 1314.21,814.197 1319.33,810.791 
  1324.45,807.385 1329.58,803.979 1334.7,800.574 1339.82,797.168 1344.94,793.762 1350.06,790.356 1355.18,786.95 1360.3,783.544 1365.42,780.138 1370.54,776.732 
  1375.66,773.326 1380.79,769.92 1385.91,766.514 1391.03,763.108 1396.15,759.702 1401.27,756.296 1406.39,752.89 1411.51,749.484 1416.63,746.078 1421.75,742.673 
  1426.87,739.267 1432,735.861 1437.12,732.455 1442.24,729.049 1447.36,725.643 1452.48,722.237 1457.6,718.831 1462.72,715.425 1467.84,712.019 1472.96,708.613 
  1478.09,705.207 1483.21,701.801 1488.33,698.395 1493.45,694.989 1498.57,691.583 1503.69,688.177 1508.81,684.771 1513.93,681.366 1519.05,677.96 1524.17,674.554 
  1529.3,671.148 1534.42,667.742 1539.54,664.336 1544.66,660.93 1549.78,657.524 1554.9,654.118 1560.02,650.712 1565.14,647.306 1570.26,643.9 1575.38,640.494 
  1580.51,637.088 1585.63,633.682 1590.75,630.276 1595.87,626.87 1600.99,623.465 1606.11,620.059 1611.23,616.653 1616.35,613.247 1621.47,609.841 1626.59,606.435 
  1631.72,603.029 1636.84,599.623 1641.96,596.217 1647.08,592.811 1652.2,589.405 1657.32,585.999 1662.44,582.593 1667.56,579.187 1672.68,575.781 1677.81,572.375 
  1682.93,568.969 1688.05,565.563 1693.17,562.158 1698.29,558.752 1703.41,555.346 1708.53,551.94 1713.65,548.534 1718.77,545.128 1723.89,541.722 1729.02,538.316 
  1734.14,534.91 1739.26,531.504 1744.38,528.098 1749.5,524.692 1754.62,521.286 1759.74,517.88 1764.86,514.474 1769.98,511.068 1775.1,507.662 1780.23,504.257 
  1785.35,500.851 1790.47,497.445 1795.59,494.039 1800.71,490.633 1805.83,487.227 1810.95,483.821 1816.07,480.415 1821.19,477.009 1826.31,473.603 1831.44,470.197 
  1836.56,466.791 1841.68,463.385 1846.8,459.979 1851.92,456.573 1857.04,453.167 1862.16,449.761 1867.28,446.355 1872.4,442.95 1877.52,439.544 1882.65,436.138 
  1887.77,432.732 1892.89,429.326 1898.01,425.92 1903.13,422.514 1908.25,419.108 1913.37,415.702 1918.49,412.296 1923.61,408.89 1928.74,405.484 1933.86,402.078 
  1938.98,398.672 1944.1,395.266 1949.22,391.86 1954.34,388.454 1959.46,385.049 1964.58,381.643 1969.7,378.237 1974.82,374.831 1979.95,371.425 1985.07,368.019 
  1990.19,364.613 1995.31,361.207 2000.43,357.801 2005.55,354.395 2010.67,350.989 2015.79,347.583 2020.91,344.177 2026.03,340.771 2031.16,337.365 2036.28,333.959 
  2041.4,330.553 2046.52,327.147 2051.64,323.742 2056.76,320.336 2061.88,316.93 2067,313.524 2072.12,310.118 2077.24,306.712 2082.37,303.306 2087.49,299.9 
  2092.61,296.494 2097.73,293.088 2102.85,289.682 2107.97,286.276 2113.09,282.87 2118.21,279.464 2123.33,276.058 2128.46,272.652 2133.58,269.246 2138.7,265.841 
  2143.82,262.435 2148.94,259.029 2154.06,255.623 2159.18,252.217 2164.3,248.811 2169.42,245.405 2174.54,241.999 2179.67,238.593 2184.79,235.187 2189.91,231.781 
  2195.03,228.375 2200.15,224.969 2205.27,221.563 2210.39,218.157 2215.51,214.751 2220.63,211.345 2225.75,207.94 2230.88,204.534 2236,201.128 2241.12,197.722 
  2246.24,194.316 2251.36,190.91 2256.48,187.504 2261.6,184.098 2266.72,180.692 2271.84,177.286 2276.96,173.88 2282.09,170.474 2287.21,167.068 2292.33,163.662 
  2297.45,160.256 
  "/>
<polyline clip-path="url(#clip912)" style="stroke:#e26f46; stroke-linecap:butt; stroke-linejoin:round; stroke-width:4; stroke-opacity:1; fill:none" points="
  453.88,1377.27 459.001,1373.66 464.122,1370.05 469.243,1366.45 474.364,1362.85 479.486,1359.26 484.607,1355.67 489.728,1352.08 494.849,1348.5 499.97,1344.92 
  505.091,1341.34 510.212,1337.77 515.333,1334.2 520.454,1330.64 525.575,1327.08 530.696,1323.52 535.817,1319.97 540.938,1316.42 546.059,1312.87 551.18,1309.33 
  556.301,1305.79 561.422,1302.26 566.543,1298.72 571.664,1295.2 576.785,1291.67 581.906,1288.15 587.027,1284.63 592.148,1281.12 597.269,1277.61 602.39,1274.1 
  607.511,1270.59 612.632,1267.09 617.753,1263.6 622.874,1260.1 627.995,1256.61 633.116,1253.13 638.237,1249.64 643.358,1246.16 648.479,1242.68 653.6,1239.21 
  658.721,1235.74 663.842,1232.27 668.963,1228.81 674.084,1225.35 679.205,1221.89 684.326,1218.44 689.447,1214.99 694.569,1211.54 699.69,1208.1 704.811,1204.66 
  709.932,1201.22 715.053,1197.79 720.174,1194.36 725.295,1190.93 730.416,1187.5 735.537,1184.08 740.658,1180.66 745.779,1177.25 750.9,1173.84 756.021,1170.43 
  761.142,1167.02 766.263,1163.62 771.384,1160.22 776.505,1156.82 781.626,1153.43 786.747,1150.04 791.868,1146.65 796.989,1143.27 802.11,1139.89 807.231,1136.51 
  812.352,1133.14 817.473,1129.76 822.594,1126.4 827.715,1123.03 832.836,1119.67 837.957,1116.31 843.078,1112.95 848.199,1109.6 853.32,1106.25 858.441,1102.9 
  863.562,1099.55 868.683,1096.21 873.804,1092.87 878.925,1089.54 884.046,1086.2 889.167,1082.87 894.288,1079.54 899.409,1076.22 904.53,1072.9 909.651,1069.58 
  914.773,1066.26 919.894,1062.95 925.015,1059.64 930.136,1056.33 935.257,1053.03 940.378,1049.73 945.499,1046.43 950.62,1043.13 955.741,1039.84 960.862,1036.55 
  965.983,1033.26 971.104,1029.98 976.225,1026.69 981.346,1023.42 986.467,1020.14 991.588,1016.87 996.709,1013.59 1001.83,1010.33 1006.95,1007.06 1012.07,1003.8 
  1017.19,1000.54 1022.31,997.28 1027.44,994.026 1032.56,990.774 1037.68,987.524 1042.8,984.278 1047.92,981.034 1053.04,977.792 1058.16,974.554 1063.28,971.318 
  1068.4,968.085 1073.52,964.854 1078.65,961.626 1083.77,958.4 1088.89,955.178 1094.01,951.957 1099.13,948.74 1104.25,945.525 1109.37,942.313 1114.49,939.103 
  1119.61,935.896 1124.73,932.691 1129.86,929.489 1134.98,926.289 1140.1,923.093 1145.22,919.898 1150.34,916.706 1155.46,913.517 1160.58,910.33 1165.7,907.146 
  1170.82,903.964 1175.94,900.785 1181.07,897.608 1186.19,894.434 1191.31,891.262 1196.43,888.093 1201.55,884.926 1206.67,881.762 1211.79,878.6 1216.91,875.441 
  1222.03,872.284 1227.15,869.13 1232.28,865.978 1237.4,862.828 1242.52,859.681 1247.64,856.536 1252.76,853.394 1257.88,850.254 1263,847.117 1268.12,843.982 
  1273.24,840.849 1278.37,837.719 1283.49,834.591 1288.61,831.466 1293.73,828.343 1298.85,825.222 1303.97,822.104 1309.09,818.988 1314.21,815.874 1319.33,812.763 
  1324.45,809.654 1329.58,806.547 1334.7,803.443 1339.82,800.341 1344.94,797.242 1350.06,794.144 1355.18,791.049 1360.3,787.957 1365.42,784.866 1370.54,781.778 
  1375.66,778.693 1380.79,775.609 1385.91,772.528 1391.03,769.449 1396.15,766.373 1401.27,763.298 1406.39,760.226 1411.51,757.157 1416.63,754.089 1421.75,751.024 
  1426.87,747.961 1432,744.9 1437.12,741.841 1442.24,738.785 1447.36,735.731 1452.48,732.679 1457.6,729.629 1462.72,726.582 1467.84,723.537 1472.96,720.494 
  1478.09,717.453 1483.21,714.414 1488.33,711.378 1493.45,708.343 1498.57,705.311 1503.69,702.281 1508.81,699.254 1513.93,696.228 1519.05,693.205 1524.17,690.183 
  1529.3,687.164 1534.42,684.147 1539.54,681.132 1544.66,678.12 1549.78,675.109 1554.9,672.101 1560.02,669.095 1565.14,666.09 1570.26,663.088 1575.38,660.088 
  1580.51,657.091 1585.63,654.095 1590.75,651.101 1595.87,648.11 1600.99,645.12 1606.11,642.133 1611.23,639.148 1616.35,636.165 1621.47,633.184 1626.59,630.205 
  1631.72,627.228 1636.84,624.253 1641.96,621.28 1647.08,618.309 1652.2,615.34 1657.32,612.374 1662.44,609.409 1667.56,606.447 1672.68,603.486 1677.81,600.527 
  1682.93,597.571 1688.05,594.617 1693.17,591.664 1698.29,588.714 1703.41,585.765 1708.53,582.819 1713.65,579.875 1718.77,576.932 1723.89,573.992 1729.02,571.053 
  1734.14,568.117 1739.26,565.183 1744.38,562.25 1749.5,559.32 1754.62,556.391 1759.74,553.465 1764.86,550.54 1769.98,547.618 1775.1,544.697 1780.23,541.778 
  1785.35,538.862 1790.47,535.947 1795.59,533.034 1800.71,530.123 1805.83,527.214 1810.95,524.307 1816.07,521.402 1821.19,518.499 1826.31,515.598 1831.44,512.699 
  1836.56,509.801 1841.68,506.906 1846.8,504.012 1851.92,501.121 1857.04,498.231 1862.16,495.343 1867.28,492.457 1872.4,489.573 1877.52,486.691 1882.65,483.811 
  1887.77,480.932 1892.89,478.056 1898.01,475.181 1903.13,472.309 1908.25,469.438 1913.37,466.569 1918.49,463.702 1923.61,460.836 1928.74,457.973 1933.86,455.111 
  1938.98,452.252 1944.1,449.394 1949.22,446.538 1954.34,443.684 1959.46,440.831 1964.58,437.981 1969.7,435.132 1974.82,432.285 1979.95,429.44 1985.07,426.597 
  1990.19,423.756 1995.31,420.916 2000.43,418.079 2005.55,415.243 2010.67,412.409 2015.79,409.576 2020.91,406.746 2026.03,403.917 2031.16,401.09 2036.28,398.265 
  2041.4,395.442 2046.52,392.62 2051.64,389.801 2056.76,386.983 2061.88,384.166 2067,381.352 2072.12,378.539 2077.24,375.729 2082.37,372.919 2087.49,370.112 
  2092.61,367.307 2097.73,364.503 2102.85,361.701 2107.97,358.9 2113.09,356.102 2118.21,353.305 2123.33,350.51 2128.46,347.717 2133.58,344.925 2138.7,342.135 
  2143.82,339.347 2148.94,336.561 2154.06,333.776 2159.18,330.993 2164.3,328.212 2169.42,325.432 2174.54,322.655 2179.67,319.879 2184.79,317.104 2189.91,314.332 
  2195.03,311.561 2200.15,308.791 2205.27,306.024 2210.39,303.258 2215.51,300.494 2220.63,297.731 2225.75,294.971 2230.88,292.212 2236,289.454 2241.12,286.698 
  2246.24,283.944 2251.36,281.192 2256.48,278.441 2261.6,275.692 2266.72,272.945 2271.84,270.199 2276.96,267.455 2282.09,264.713 2287.21,261.972 2292.33,259.233 
  2297.45,256.496 
  "/>
<path clip-path="url(#clip910)" d="
M463.713 322.316 L761.675 322.316 L761.675 166.796 L463.713 166.796  Z
  " fill="#ffffff" fill-rule="evenodd" fill-opacity="1"/>
<polyline clip-path="url(#clip910)" style="stroke:#000000; stroke-linecap:butt; stroke-linejoin:round; stroke-width:4; stroke-opacity:1; fill:none" points="
  463.713,322.316 761.675,322.316 761.675,166.796 463.713,166.796 463.713,322.316 
  "/>
<polyline clip-path="url(#clip910)" style="stroke:#009af9; stroke-linecap:butt; stroke-linejoin:round; stroke-width:4; stroke-opacity:1; fill:none" points="
  487.713,218.636 631.713,218.636 
  "/>
<path clip-path="url(#clip910)" d="M655.713 201.356 L660.389 201.356 L660.389 215.522 L677.379 215.522 L677.379 201.356 L682.055 201.356 L682.055 235.916 L677.379 235.916 L677.379 219.457 L660.389 219.457 L660.389 235.916 L655.713 235.916 L655.713 201.356 Z" fill="#000000" fill-rule="evenodd" fill-opacity="1" /><path clip-path="url(#clip910)" d="M696.037 205.198 L696.037 218.184 L701.916 218.184 Q705.18 218.184 706.962 216.495 Q708.745 214.805 708.745 211.68 Q708.745 208.578 706.962 206.888 Q705.18 205.198 701.916 205.198 L696.037 205.198 M691.361 201.356 L701.916 201.356 Q707.726 201.356 710.689 203.995 Q713.675 206.61 713.675 211.68 Q713.675 216.795 710.689 219.411 Q707.726 222.027 701.916 222.027 L696.037 222.027 L696.037 235.916 L691.361 235.916 L691.361 201.356 Z" fill="#000000" fill-rule="evenodd" fill-opacity="1" /><polyline clip-path="url(#clip910)" style="stroke:#e26f46; stroke-linecap:butt; stroke-linejoin:round; stroke-width:4; stroke-opacity:1; fill:none" points="
  487.713,270.476 631.713,270.476 
  "/>
<path clip-path="url(#clip910)" d="M660.389 271.251 L660.389 283.913 L667.889 283.913 Q671.662 283.913 673.467 282.362 Q675.296 280.788 675.296 277.571 Q675.296 274.33 673.467 272.802 Q671.662 271.251 667.889 271.251 L660.389 271.251 M660.389 257.038 L660.389 267.455 L667.31 267.455 Q670.736 267.455 672.402 266.182 Q674.092 264.885 674.092 262.247 Q674.092 259.631 672.402 258.335 Q670.736 257.038 667.31 257.038 L660.389 257.038 M655.713 253.196 L667.657 253.196 Q673.004 253.196 675.898 255.418 Q678.791 257.64 678.791 261.737 Q678.791 264.909 677.31 266.784 Q675.828 268.659 672.958 269.122 Q676.407 269.862 678.305 272.223 Q680.227 274.561 680.227 278.08 Q680.227 282.709 677.078 285.233 Q673.93 287.756 668.12 287.756 L655.713 287.756 L655.713 253.196 Z" fill="#000000" fill-rule="evenodd" fill-opacity="1" /><path clip-path="url(#clip910)" d="M692.912 271.251 L692.912 283.913 L700.412 283.913 Q704.185 283.913 705.99 282.362 Q707.819 280.788 707.819 277.571 Q707.819 274.33 705.99 272.802 Q704.185 271.251 700.412 271.251 L692.912 271.251 M692.912 257.038 L692.912 267.455 L699.833 267.455 Q703.259 267.455 704.925 266.182 Q706.615 264.885 706.615 262.247 Q706.615 259.631 704.925 258.335 Q703.259 257.038 699.833 257.038 L692.912 257.038 M688.236 253.196 L700.18 253.196 Q705.527 253.196 708.421 255.418 Q711.314 257.64 711.314 261.737 Q711.314 264.909 709.833 266.784 Q708.351 268.659 705.481 269.122 Q708.93 269.862 710.828 272.223 Q712.75 274.561 712.75 278.08 Q712.75 282.709 709.601 285.233 Q706.453 287.756 700.643 287.756 L688.236 287.756 L688.236 253.196 Z" fill="#000000" fill-rule="evenodd" fill-opacity="1" /></svg>
